<svg width="25" height="25" viewBox="0 0 25 25" fill="none" xmlns="http://www.w3.org/2000/svg">
<path d="M22.5 5.16994V17.24C22.5 18.2 21.72 19.0999 20.76 19.2199L20.43 19.26C18.25 19.55 14.89 20.6599 12.97 21.7199C12.71 21.8699 12.28 21.8699 12.01 21.7199L11.97 21.7C10.05 20.65 6.70003 19.55 4.53003 19.26L4.23999 19.2199C3.27999 19.0999 2.5 18.2 2.5 17.24V5.15993C2.5 3.96993 3.46997 3.06994 4.65997 3.16994C6.75997 3.33994 9.93997 4.39997 11.72 5.50997L11.97 5.65993C12.26 5.83994 12.74 5.83994 13.03 5.65993L13.2 5.54995C13.83 5.15995 14.63 4.76994 15.5 4.41994V8.49996L17.5 7.16994L19.5 8.49996V3.27999C19.77 3.22999 20.03 3.19995 20.27 3.17995H20.33C21.52 3.07995 22.5 3.96994 22.5 5.16994Z" stroke="#00C4B8" stroke-width="1.5" stroke-linecap="round" stroke-linejoin="round"/>
<path d="M12.5 5.98999V20.99" stroke="#00C4B8" stroke-width="1.5" stroke-linecap="round" stroke-linejoin="round"/>
<path d="M19.5 3.28003V8.5L17.5 7.16998L15.5 8.5V4.41998C16.81 3.89998 18.27 3.48003 19.5 3.28003Z" stroke="#00C4B8" stroke-width="1.5" stroke-linecap="round" stroke-linejoin="round"/>
</svg>
