<svg width="88" height="88" viewBox="0 0 88 88" fill="none" xmlns="http://www.w3.org/2000/svg">
<path d="M23.4472 19.0912C22.9217 19.0912 22.3839 19.1767 21.8706 19.3723C19.475 20.2523 18.2406 22.9045 19.1083 25.3001C19.2672 25.7279 19.4995 26.1067 19.7561 26.4612C20.9906 26.119 22.3839 25.6912 23.9606 25.1167C25.5372 24.5423 26.8817 23.9801 28.0428 23.4423C28.0183 23.0023 27.945 22.5745 27.7983 22.1345C27.1139 20.2645 25.3417 19.0912 23.4472 19.0912Z" fill="url(#paint0_linear_18_775)"/>
<path d="M28.5684 20.619C28.7639 20.949 28.935 21.2912 29.0817 21.6701C29.2161 22.049 29.3139 22.4279 29.375 22.8068C31.7339 21.609 33.005 20.619 33.2861 20.1423C32.8706 20.0079 31.5017 19.9468 28.5806 20.619H28.5684Z" fill="white"/>
<path d="M20.8928 27.549C22.0783 28.3434 23.6061 28.5878 25.0483 28.0623C26.4906 27.5367 27.4928 26.3634 27.8961 24.9945C26.8083 25.4712 25.6595 25.9478 24.4372 26.4001C23.2272 26.8401 22.0417 27.219 20.8928 27.549Z" fill="url(#paint1_linear_18_775)"/>
<path d="M9.37947 72.6733C9.09836 72.71 8.86614 72.7222 8.6828 72.7222C8.51169 72.7222 8.3528 72.7222 8.16947 72.6978H7.92503C7.54614 72.6611 7.26503 72.3433 7.27725 71.9767C7.30169 71.5978 7.5828 71.3044 7.98614 71.3289H8.2428C8.67058 71.3656 8.86614 71.3778 9.5628 71.28C10.1372 71.1944 10.345 70.5956 10.3695 70.0944C10.3939 69.4344 10.0761 68.7011 9.3428 68.5422C9.18391 68.5789 9.0128 68.6033 8.85392 68.6156L7.87614 68.64H7.86391C7.49725 68.64 7.19169 68.3467 7.19169 67.98C7.19169 67.6011 7.48503 67.2956 7.85169 67.2833L8.81725 67.2589C9.53836 67.2344 10.1128 66.6233 10.1006 65.89C10.1006 65.2056 9.64836 64.7533 8.7928 64.5456C7.9128 64.3256 6.91058 64.13 6.28725 64.6067C5.11391 65.4989 5.00391 67.6378 4.93058 69.0556V69.2389C4.85725 70.4611 4.78391 71.8544 5.07725 73.0033C5.3828 74.1889 6.18947 75.4111 7.32614 75.4478C7.74169 75.46 7.97391 75.4844 8.14503 75.4967C8.32836 75.5211 8.40169 75.5211 8.63391 75.4967C8.71947 75.46 8.81725 75.4356 8.91503 75.4356C8.92725 75.4356 8.95169 75.4356 8.96391 75.4356C9.44058 75.35 9.74614 75.0811 9.8928 74.6411C10.0761 74.03 9.86836 73.26 9.39169 72.6733H9.37947Z" fill="white"/>
<path d="M17.5561 24.64C14.8794 25.9967 13.8894 26.9378 13.6572 27.3045C14.1706 27.4878 15.7839 27.4267 18.3628 26.8278C18.1672 26.4978 17.9961 26.1433 17.8617 25.7767C17.7272 25.41 17.6294 25.0311 17.5683 24.6522L17.5561 24.64Z" fill="white"/>
<path d="M31.1961 57.2367C30.1695 57.2367 26.6739 57.2734 23.5573 58.1167L24.975 58.7278H32.5772C32.0761 58.2634 31.6239 57.7622 31.2084 57.2367H31.1961Z" fill="#333333"/>
<path d="M41.5117 79.8722C41.4384 79.1389 41.6706 78.4545 42.0861 77.9289C41.3039 77.3545 40.8884 76.3767 40.8761 75.4356C40.8761 74.5923 41.1817 73.8956 41.695 73.4678C41.1084 72.6489 40.8517 71.6223 41.0595 70.7178C41.2672 69.7767 41.9395 69.0922 42.905 68.8356C43.6384 68.64 45.2395 68.5423 46.9506 68.4934V60.0845H25.525V86.6434H46.9506V82.3411L44.2984 82.3167C42.8561 82.3778 41.6584 81.3022 41.5117 79.86V79.8722ZM31.685 67.6623C31.3061 67.6623 31.0128 67.3567 31.0128 66.99V63.91C31.0128 63.5311 31.3184 63.2378 31.685 63.2378H40.7661C41.145 63.2378 41.4384 63.5434 41.4384 63.91V66.99C41.4384 67.3689 41.1328 67.6623 40.7661 67.6623H31.685Z" fill="url(#paint2_linear_18_775)"/>
<path d="M9.58722 63.3845C10.7361 63.8245 11.4206 64.729 11.445 65.8779C11.445 66.6112 11.1761 67.2712 10.7239 67.7601C11.4328 68.359 11.7506 69.3001 11.7261 70.1312C11.7017 71.0357 11.3228 71.769 10.7239 72.209C11.2617 73.089 11.445 74.1279 11.1761 75.0323C10.9317 75.8268 10.3572 76.3768 9.58722 76.6457V79.9823L24.1561 86.2768V59.8401L9.58722 53.5457V63.3845Z" fill="url(#paint3_linear_18_775)"/>
<path d="M40.0939 64.5823H32.3694V66.3056H40.0939V64.5823Z" fill="white"/>
<path d="M17.7395 37.7423L16.8717 35.9823L16.0039 37.7423C15.9061 37.9379 15.7106 38.0845 15.4906 38.109L13.5472 38.3901L14.9528 39.759C15.1117 39.9179 15.185 40.1379 15.1484 40.3579L14.8184 42.289L16.5539 41.3723C16.7495 41.2745 16.9939 41.2745 17.1895 41.3723L18.925 42.289L18.595 40.3579C18.5584 40.1379 18.6317 39.9179 18.7906 39.759L20.1961 38.3901L18.2528 38.109C18.0328 38.0723 17.8372 37.9379 17.7395 37.7423Z" fill="url(#paint4_linear_18_775)"/>
<path d="M51.7172 16.7812L48.3072 16.2801C48.0872 16.2434 47.8917 16.1089 47.7939 15.9134L46.2661 12.8212L44.7383 15.9134C44.6406 16.1089 44.445 16.2556 44.225 16.2801L40.815 16.7812L43.2839 19.1889C43.4428 19.3478 43.5161 19.5678 43.4794 19.7878L42.8928 23.1856L45.9361 21.5845C46.1317 21.4867 46.3761 21.4867 46.5717 21.5845L49.615 23.1856L49.0283 19.7878C48.9917 19.5678 49.065 19.3478 49.2239 19.1889L51.6928 16.7812H51.7172Z" fill="white"/>
<path d="M43.235 70.1434C42.7706 70.2657 42.4772 70.559 42.3795 71.0112C42.2328 71.6468 42.5261 72.4168 43.0639 72.9668C44.3472 72.8445 45.5083 72.9912 45.5572 73.0034C45.9239 73.0523 46.1928 73.3945 46.1317 73.7612C46.0828 74.1279 45.765 74.3968 45.3739 74.3357C45.3739 74.3357 44.1272 74.1768 42.8928 74.3357C42.2572 74.4212 42.2328 75.2523 42.2328 75.4112C42.2328 76.0101 42.5506 76.9268 43.3939 77.0368C43.5528 76.9879 43.7117 76.9512 43.8828 76.9268H45.875C46.2539 76.9268 46.5472 77.2201 46.5472 77.599C46.5472 77.9779 46.2417 78.2712 45.875 78.2712H43.9683C43.3206 78.3568 42.795 78.9923 42.8683 79.7257C42.9417 80.4468 43.5772 80.9357 44.2739 80.9479L47.6228 80.9723L52.9761 81.0212L52.5117 69.8012C49.8961 69.7645 44.5672 69.7768 43.2228 70.1312L43.235 70.1434Z" fill="white"/>
<path d="M52.8417 59.3756C51.5217 60.4512 49.9939 61.3312 48.295 61.9178V68.4567C50.5195 68.4201 52.6339 68.4567 53.135 68.4567C55.5306 68.1634 59.3683 67.1001 59.625 65.4501C59.6861 65.0834 60.0406 64.8267 60.395 64.8878C60.7617 64.949 61.0183 65.2912 60.9572 65.6578C60.5295 68.4078 55.6895 69.4223 53.8561 69.7156L54.3206 81.0212C61.2383 80.9356 66.9583 78.7479 69.6961 75.1301C71.4195 72.8567 71.8839 70.0945 71.0406 67.1612C68.8772 59.669 54.8339 59.3634 52.8417 59.3634V59.3756Z" fill="#333333"/>
<path d="M34.6917 58.7279H47.6228C48.0017 58.7279 48.295 59.0334 48.295 59.4001V60.4634C49.7006 59.9134 50.9839 59.1679 52.0839 58.239C52.1083 58.2145 52.1206 58.2023 52.145 58.1779C54.8828 55.8557 56.545 52.5312 56.545 48.9745C56.545 48.0334 56.4228 47.1045 56.2028 46.2245H42.3794C42.1594 46.2245 41.9517 46.1145 41.8172 45.9312L39.605 42.7412L37.625 45.9068C37.5028 46.1023 37.2828 46.2245 37.0506 46.2245H29.9372C29.7172 47.1168 29.595 48.0334 29.595 48.9745C29.595 52.8001 31.4528 56.3323 34.6794 58.7157L34.6917 58.7279ZM43.7361 48.1434C44.3961 48.1434 44.9339 48.779 44.9339 49.549C44.9339 50.319 44.3961 50.9545 43.7361 50.9545C43.0761 50.9545 42.5383 50.319 42.5383 49.549C42.5383 48.779 43.0761 48.1434 43.7361 48.1434ZM42.8194 53.8268C43.0883 53.5579 43.5161 53.5579 43.7728 53.8268C44.0417 54.0957 44.0417 54.5234 43.7728 54.7801C42.7828 55.7701 41.4628 56.3201 40.0694 56.3201C38.6761 56.3201 37.3561 55.7701 36.3661 54.7801C36.0972 54.5112 36.0972 54.0834 36.3661 53.8268C36.635 53.5701 37.0628 53.5579 37.3194 53.8268C38.7861 55.2934 41.3528 55.2934 42.8194 53.8268ZM36.4028 48.1434C37.0628 48.1434 37.6006 48.779 37.6006 49.549C37.6006 50.319 37.0628 50.9545 36.4028 50.9545C35.7428 50.9545 35.205 50.319 35.205 49.549C35.205 48.779 35.7428 48.1434 36.4028 48.1434Z" fill="white"/>
<path d="M73.3628 25.63C72.8006 26.8644 71.9817 27.8789 71.0039 28.5511C71.9817 29.2233 72.8006 30.2378 73.3628 31.4722C73.925 30.2378 74.7439 29.2233 75.7217 28.5511C74.7439 27.8789 73.925 26.8644 73.3628 25.63Z" fill="url(#paint5_linear_18_775)"/>
<path d="M39.0184 41.1644C39.1406 40.9689 39.3484 40.8467 39.5806 40.8467C39.8128 40.8344 40.0206 40.9567 40.155 41.14L42.7461 44.88H55.7872C53.9417 40.0278 48.955 36.5322 43.0884 36.5322C37.2217 36.5322 32.2228 40.0278 30.3895 44.88H36.7084L39.0306 41.1644H39.0184Z" fill="url(#paint6_linear_18_775)"/>
<path d="M75.3183 59.5467C78.3739 58.52 82.4683 56.76 82.8106 53.3867C82.9206 52.2867 82.6028 51.2111 82.2606 50.0867C81.9672 49.1333 81.6739 48.1433 81.6372 47.08C81.5517 44.9533 82.6761 43.2667 83.9228 41.5922C85.915 38.9033 86.3428 36.4345 85.255 33.8311C84.9372 33.0733 84.4728 32.4256 83.9717 31.7289C83.4461 31.0078 82.9083 30.25 82.5417 29.3456C81.7961 27.5245 81.4539 25.7767 81.5028 23.9922C81.515 23.5156 81.5639 23.0267 81.6006 22.55C81.6983 21.3645 81.7961 20.2522 81.4906 19.1767C80.9161 17.1722 79.315 15.3145 77.3106 14.3367C76.0639 13.7378 74.7439 13.7378 73.3139 13.7378C72.165 13.7378 71.0161 13.7378 69.8428 13.4322C68.0339 12.9556 66.4817 11.8067 65.2472 10.0222C64.9783 9.64334 64.7339 9.25223 64.4894 8.86112C63.6828 7.59001 62.925 6.38001 61.6172 5.68334C60.1995 4.92557 58.3906 4.68112 56.5083 4.97446C56.0928 5.03557 55.665 5.14557 55.2372 5.25557C54.0272 5.56112 52.6583 5.91557 51.3261 5.37779C50.4217 5.01112 49.6883 4.41223 48.9917 3.82557C48.7472 3.61779 48.4906 3.41001 48.2461 3.21446C45.2639 0.941123 41.2917 0.7089 38.3461 2.61557C37.8328 2.94557 37.3683 3.36112 36.8795 3.80112C35.9995 4.59557 35.0828 5.42668 33.775 5.79334C31.7339 6.36779 29.9495 6.0989 28.2139 5.85446C26.2095 5.56112 24.4617 5.30446 22.5428 6.39223C19.9395 7.87112 19.4995 9.55779 19.035 11.3422C18.7172 12.5278 18.3995 13.7622 17.385 14.7767C16.0161 16.1456 14.5006 16.5733 13.0339 16.9767C12.0439 17.2578 11.1028 17.5145 10.1861 18.0645C8.26723 19.2133 6.94723 21.3522 6.75168 23.6622C6.6539 24.7867 6.84945 25.9111 7.04501 27.1089C7.33834 28.8811 7.65612 30.7145 6.99612 32.6211C6.6539 33.6233 5.8839 34.4545 5.15057 35.2611C4.51501 35.9578 3.91612 36.63 3.63501 37.3145C2.54723 40.04 3.5739 43.4867 5.98168 45.1733C6.28723 45.3933 6.36057 45.8089 6.15279 46.1145C6.14057 46.1389 6.1039 46.1511 6.09168 46.1756C7.87612 47.5445 9.31834 49.6589 9.31834 51.9078L21.7117 57.2733C24.7183 56.1367 28.3728 55.9045 30.2795 55.8556C28.9961 53.79 28.2872 51.4311 28.2872 48.9622C28.2872 47.74 28.4706 46.5667 28.8006 45.43C28.8006 45.3567 28.825 45.2956 28.8495 45.2345C30.5972 39.4289 36.3295 35.1389 43.1128 35.1389C49.8961 35.1389 55.6283 39.4167 57.3761 45.2345C57.4006 45.2956 57.425 45.3689 57.425 45.43C57.7428 46.5545 57.9383 47.74 57.9383 48.9622C57.9383 52.36 56.5817 55.55 54.2839 58.0189C57.8895 58.1533 66.2983 58.96 70.3928 63.3478C71.395 61.2822 73.6439 60.4878 74.8906 60.2067C74.8783 59.9133 75.0495 59.6322 75.3428 59.5345L75.3183 59.5467ZM22.1272 38.4022L19.9883 40.48L20.4895 43.4133C20.5383 43.67 20.4283 43.9267 20.2206 44.0733C20.0128 44.22 19.7317 44.2444 19.5117 44.1222L16.8717 42.7289L14.2317 44.1222C14.1339 44.1711 14.0239 44.1956 13.9139 44.1956C13.7795 44.1956 13.6328 44.1467 13.5106 44.0611C13.3028 43.9145 13.1928 43.6578 13.2417 43.4011L13.7428 40.4678L11.6039 38.39C11.4206 38.2067 11.3472 37.9378 11.4328 37.6933C11.5183 37.4489 11.7261 37.2656 11.9828 37.2289L14.9406 36.8011L16.2606 34.1245C16.4928 33.66 17.2506 33.66 17.4706 34.1245L18.7906 36.8011L21.7483 37.2289C22.005 37.2656 22.2128 37.4489 22.2983 37.6933C22.3839 37.9378 22.3106 38.2067 22.1272 38.39V38.4022ZM31.7706 23.0145C31.0739 23.43 30.255 23.8578 29.3872 24.2856C29.1672 26.4978 27.7372 28.5145 25.5128 29.3333C24.8406 29.5778 24.1439 29.7 23.4595 29.7C22.6039 29.7 21.7483 29.5167 20.9417 29.1378C20.3183 28.8445 19.7683 28.4411 19.2917 27.9767C18.3506 28.2089 17.4583 28.4167 16.6517 28.5389C15.8206 28.6733 15.1117 28.7345 14.525 28.7345C13.2539 28.7345 12.5328 28.4167 12.3006 27.7811C12.1417 27.3289 11.665 25.9845 17.5195 23.1245C17.5806 22.4645 17.7395 21.8045 18.0328 21.1811C18.705 19.7267 19.9028 18.6389 21.4061 18.0889C23.6306 17.27 26.0261 17.8933 27.615 19.4456C33.9339 17.8567 34.4472 19.1889 34.6061 19.6411C34.9483 20.57 34.0439 21.6456 31.7583 23.0145H31.7706ZM36.855 31.2033H35.8895V32.1689C35.8895 32.5478 35.5839 32.8411 35.2172 32.8411C34.8506 32.8411 34.545 32.5356 34.545 32.1689V31.2033H33.5795C33.2006 31.2033 32.9072 30.8978 32.9072 30.5311C32.9072 30.1645 33.2128 29.8589 33.5795 29.8589H34.545V28.8933C34.545 28.5145 34.8506 28.2211 35.2172 28.2211C35.5839 28.2211 35.8895 28.5267 35.8895 28.8933V29.8589H36.855C37.2339 29.8589 37.5272 30.1645 37.5272 30.5311C37.5272 30.8978 37.2217 31.2033 36.855 31.2033ZM57.645 26.0089L64.4894 19.1645C64.7583 18.8956 65.1861 18.8956 65.4428 19.1645C65.7117 19.4333 65.7117 19.8611 65.4428 20.1178L58.5983 26.9622C58.4639 27.0967 58.2928 27.1578 58.1217 27.1578C57.9506 27.1578 57.7795 27.0967 57.645 26.9622C57.3761 26.6933 57.3761 26.2656 57.645 26.0089ZM50.935 24.97C50.8128 25.0556 50.6783 25.1045 50.5317 25.1045C50.4217 25.1045 50.3117 25.08 50.2139 25.0311L46.2661 22.9533L42.3183 25.0311C42.0861 25.1533 41.8172 25.1289 41.6095 24.9822C41.4017 24.8356 41.2917 24.5789 41.3406 24.3222L42.0983 19.9222L38.9083 16.8056C38.725 16.6222 38.6517 16.3533 38.7372 16.1089C38.8228 15.8645 39.0306 15.6811 39.2872 15.6445L43.6995 15.0089L45.6795 11.0122C45.7895 10.78 46.0339 10.6333 46.2906 10.6333C46.5472 10.6333 46.7794 10.78 46.9017 11.0122L48.8694 15.0089L53.2817 15.6445C53.5383 15.6811 53.7461 15.8645 53.8317 16.1089C53.9172 16.3533 53.8439 16.6222 53.6606 16.8056L50.4706 19.9222L51.2283 24.3222C51.2772 24.5789 51.1672 24.8356 50.9594 24.9822L50.935 24.97ZM57.8283 33.2078C57.205 33.8311 56.3739 34.1489 55.555 34.1489C54.7361 34.1489 53.905 33.8311 53.2817 33.2078C52.035 31.9611 52.035 29.92 53.2817 28.6611C54.5283 27.4022 56.5695 27.4022 57.8283 28.6611C59.075 29.9078 59.075 31.9489 57.8283 33.2078ZM63.695 25.63L60.4683 28.8567C60.3339 28.9911 60.1628 29.0522 59.9917 29.0522C59.8206 29.0522 59.6494 28.9911 59.515 28.8567C59.2461 28.5878 59.2461 28.16 59.515 27.9033L62.7417 24.6767C63.0106 24.4078 63.4383 24.4078 63.695 24.6767C63.9639 24.9456 63.9639 25.3733 63.695 25.63ZM70.2339 51.6878C70.2339 52.0667 69.9283 52.36 69.5617 52.36H66.7017C66.3228 52.36 66.0295 52.0545 66.0295 51.6878V48.8278C66.0295 48.4489 66.335 48.1556 66.7017 48.1556H69.5617C69.9406 48.1556 70.2339 48.4611 70.2339 48.8278V51.6878ZM70.2217 46.4567C70.185 46.7989 69.8917 47.0556 69.5494 47.0556H66.6895C66.3472 47.0556 66.0539 46.7989 66.0172 46.4567L64.8439 36.9478C64.8195 36.7522 64.8806 36.5567 65.0028 36.41C65.1372 36.2633 65.3206 36.1778 65.5161 36.1778H70.7228C70.9183 36.1778 71.1017 36.2633 71.2361 36.41C71.3706 36.5567 71.4194 36.7522 71.395 36.9478L70.2217 46.4567ZM73.3628 34.3567C73.045 34.3567 72.7639 34.1245 72.7028 33.8067C72.2506 31.5456 70.955 29.7733 69.3172 29.1989C69.0483 29.1011 68.865 28.8445 68.865 28.5633C68.865 28.2822 69.0483 28.0256 69.3172 27.9278C70.955 27.3411 72.2506 25.5811 72.7028 23.32C72.7639 23.0022 73.045 22.77 73.3628 22.77C73.6806 22.77 73.9617 23.0022 74.0228 23.32C74.475 25.5811 75.7706 27.3533 77.4083 27.9278C77.6772 28.0256 77.8606 28.2822 77.8606 28.5633C77.8606 28.8445 77.6772 29.1011 77.4083 29.1989C75.7706 29.7856 74.475 31.5456 74.0228 33.8067C73.9617 34.1245 73.6806 34.3567 73.3628 34.3567Z" fill="white"/>
<path d="M67.3006 45.699H68.9506L69.965 37.559H66.2861L67.3006 45.699Z" fill="url(#paint7_linear_18_775)"/>
<path d="M55.555 29.0768C55.0539 29.0768 54.5894 29.2723 54.2472 29.6146C53.8928 29.969 53.7094 30.4334 53.7094 30.9223C53.7094 31.4112 53.905 31.8879 54.2472 32.2301C54.9439 32.9268 56.1661 32.9268 56.875 32.2301C57.2294 31.8757 57.4128 31.4112 57.4128 30.9223C57.4128 30.4334 57.2172 29.9568 56.875 29.6146C56.5206 29.2601 56.0561 29.0768 55.5672 29.0768H55.555Z" fill="white"/>
<path d="M68.8772 49.5H67.3739V51.0033H68.8772V49.5Z" fill="url(#paint8_linear_18_775)"/>
<path d="M77.4206 29.1989C77.6895 29.1011 77.8728 28.8445 77.8728 28.5634C77.8728 28.2822 77.6895 28.0256 77.4206 27.9278C75.7828 27.3411 74.4872 25.5811 74.035 23.32C73.9739 23.0022 73.6928 22.77 73.375 22.77C73.0572 22.77 72.7761 23.0022 72.715 23.32C72.2628 25.5811 70.9672 27.3534 69.3295 27.9278C69.0606 28.0256 68.8772 28.2822 68.8772 28.5634C68.8772 28.8445 69.0606 29.1011 69.3295 29.1989C70.9672 29.7856 72.2628 31.5456 72.715 33.8067C72.7761 34.1245 73.0572 34.3567 73.375 34.3567C73.6928 34.3567 73.9739 34.1245 74.035 33.8067C74.4872 31.5456 75.7828 29.7734 77.4206 29.1989ZM73.3628 31.4722C72.8006 30.2378 71.9817 29.2234 71.0039 28.5511C71.9817 27.8789 72.8006 26.8645 73.3628 25.63C73.925 26.8645 74.7439 27.8789 75.7217 28.5511C74.7439 29.2234 73.925 30.2378 73.3628 31.4722Z" fill="#333333"/>
<path d="M70.7228 36.2023H65.5161C65.3206 36.2023 65.1372 36.2878 65.0028 36.4345C64.8683 36.5812 64.8194 36.7767 64.8439 36.9723L66.0172 46.4812C66.0539 46.8234 66.3472 47.08 66.6894 47.08H69.5494C69.8917 47.08 70.185 46.8234 70.2217 46.4812L71.395 36.9723C71.4194 36.7767 71.3583 36.5812 71.2361 36.4345C71.1017 36.2878 70.9183 36.2023 70.7228 36.2023ZM68.9506 45.6989H67.2883L66.2861 37.5467H69.9528L68.9506 45.6989Z" fill="#333333"/>
<path d="M69.5495 48.1434H66.6895C66.3106 48.1434 66.0172 48.449 66.0172 48.8157V51.6757C66.0172 52.0545 66.3228 52.3479 66.6895 52.3479H69.5495C69.9284 52.3479 70.2217 52.0423 70.2217 51.6757V48.8157C70.2217 48.4368 69.9161 48.1434 69.5495 48.1434ZM68.8772 51.0034H67.3739V49.5001H68.8772V51.0034Z" fill="#333333"/>
<path d="M36.4028 50.9667C37.0628 50.9667 37.6006 50.3312 37.6006 49.5612C37.6006 48.7912 37.0628 48.1556 36.4028 48.1556C35.7428 48.1556 35.205 48.7912 35.205 49.5612C35.205 50.3312 35.7428 50.9667 36.4028 50.9667Z" fill="#333333"/>
<path d="M43.7361 50.9667C44.3961 50.9667 44.9339 50.3312 44.9339 49.5612C44.9339 48.7912 44.3961 48.1556 43.7361 48.1556C43.0761 48.1556 42.5383 48.7912 42.5383 49.5612C42.5383 50.3312 43.0761 50.9667 43.7361 50.9667Z" fill="#333333"/>
<path d="M36.3539 53.8267C36.085 54.0956 36.085 54.5233 36.3539 54.78C37.3439 55.77 38.6639 56.32 40.0572 56.32C41.4506 56.32 42.7706 55.77 43.7606 54.78C44.0294 54.5111 44.0294 54.0833 43.7606 53.8267C43.4917 53.5578 43.0639 53.5578 42.8072 53.8267C41.3406 55.2933 38.7739 55.2933 37.3072 53.8267C37.0383 53.5578 36.6106 53.5578 36.3539 53.8267Z" fill="#333333"/>
<path d="M72.3484 66.7945C71.9572 65.45 71.2606 64.3256 70.3684 63.36C66.2739 58.9845 57.865 58.1656 54.2595 58.0311C56.5572 55.5622 57.9139 52.3722 57.9139 48.9745C57.9139 47.7522 57.7306 46.5789 57.4006 45.4422C57.4006 45.3689 57.3761 45.3078 57.3517 45.2467C55.6039 39.4411 49.8717 35.1511 43.0884 35.1511C36.305 35.1511 30.5728 39.4289 28.825 45.2467C28.8006 45.3078 28.7761 45.3811 28.7761 45.4422C28.4584 46.5667 28.2628 47.7522 28.2628 48.9745C28.2628 51.4556 28.9717 53.8022 30.255 55.8678C28.3484 55.9045 24.6939 56.1489 21.6872 57.2856L9.29391 51.92L9.19614 51.8833C8.98836 51.7978 8.74392 51.81 8.56058 51.9445C8.36503 52.0667 8.25503 52.2867 8.25503 52.5067V63.03C7.39947 62.8833 6.33614 62.8589 5.46836 63.5189C3.79392 64.79 3.67169 67.3078 3.58614 68.97V69.1533C3.50058 70.4733 3.42725 71.9767 3.76947 73.3211C4.16058 74.8856 5.32169 76.7189 7.28947 76.7922C7.65614 76.7922 7.87614 76.8289 8.0228 76.8411C8.10836 76.8411 8.18169 76.8411 8.25503 76.8533V80.4222C8.25503 80.6911 8.41391 80.9356 8.65836 81.0456L24.5839 87.9267C24.6695 87.9633 24.755 87.9878 24.8528 87.9878H47.635C48.0139 87.9878 48.3072 87.6822 48.3072 87.3156V82.3533L53.685 82.4022H53.8806C61.4217 82.4022 67.7406 80.0067 70.7961 75.9611C72.7884 73.3333 73.3261 70.1556 72.3606 66.7945H72.3484ZM43.0761 36.5322C48.9428 36.5322 53.9417 40.0278 55.775 44.88H42.7339L40.1428 41.14C40.0084 40.9567 39.8006 40.8345 39.5684 40.8467C39.3361 40.8467 39.1284 40.9689 39.0061 41.1645L36.6839 44.88H30.365C32.2106 40.0278 37.1972 36.5322 43.0639 36.5322H43.0761ZM29.6072 48.9867C29.6072 48.0456 29.7295 47.1167 29.9495 46.2367H37.0628C37.295 46.2367 37.515 46.1145 37.6372 45.9189L39.6172 42.7533L41.8295 45.9433C41.9517 46.1267 42.1595 46.2367 42.3917 46.2367H56.215C56.435 47.1289 56.5572 48.0456 56.5572 48.9867C56.5572 52.5433 54.895 55.8678 52.1572 58.19C52.1328 58.2145 52.1084 58.2267 52.0961 58.2511C50.9961 59.1678 49.7128 59.9256 48.3072 60.4756V59.4122C48.3072 59.0333 48.0017 58.74 47.635 58.74H34.7039C31.4772 56.3567 29.6195 52.8245 29.6195 48.9989L29.6072 48.9867ZM8.96391 75.4478C8.96391 75.4478 8.92725 75.4478 8.91503 75.4478C8.81725 75.4478 8.71947 75.4722 8.63391 75.5089C8.40169 75.5456 8.32836 75.5333 8.14503 75.5089C7.97392 75.4967 7.74169 75.4722 7.32614 75.46C6.18947 75.4233 5.3828 74.2011 5.07725 73.0156C4.78392 71.8667 4.85725 70.4856 4.91836 69.2511V69.0678C5.00392 67.65 5.10169 65.5233 6.27503 64.6189C6.89836 64.1422 7.90058 64.3378 8.78058 64.5578C9.63614 64.7778 10.0761 65.23 10.0884 65.9022C10.0884 66.6356 9.52614 67.2467 8.80503 67.2711L7.83947 67.2956C7.46058 67.2956 7.16725 67.6133 7.17947 67.9922C7.17947 68.3589 7.48503 68.6522 7.85169 68.6522H7.86391L8.84169 68.6278C9.0128 68.6278 9.17169 68.5911 9.33058 68.5545C10.0639 68.7133 10.3817 69.4467 10.3572 70.1067C10.345 70.5956 10.125 71.2067 9.55058 71.2922C8.85391 71.39 8.65836 71.3778 8.23058 71.3533H7.97392C7.57058 71.3167 7.27725 71.61 7.26503 71.9767C7.24058 72.3556 7.53392 72.6733 7.9128 72.6856H8.15725C8.34058 72.71 8.49947 72.7222 8.67058 72.7222C8.85392 72.7222 9.08614 72.6978 9.36725 72.6733C9.84391 73.26 10.0639 74.03 9.86836 74.6411C9.73391 75.0811 9.42836 75.35 8.93947 75.4356L8.96391 75.4478ZM24.1561 86.2889L9.58725 79.9944V76.6578C10.3572 76.4011 10.9317 75.8389 11.1761 75.0445C11.4572 74.14 11.2617 73.1011 10.7239 72.2211C11.3228 71.7811 11.6895 71.0356 11.7261 70.1433C11.7506 69.3122 11.4328 68.3711 10.7239 67.7722C11.1761 67.2833 11.4572 66.6111 11.445 65.89C11.4328 64.7411 10.7484 63.8489 9.58725 63.3967V53.5578L24.1561 59.8522V86.2889ZM23.5572 58.1167C26.6739 57.2733 30.1695 57.2245 31.1961 57.2367C31.6117 57.7622 32.0639 58.2633 32.565 58.7278H24.9628L23.545 58.1167H23.5572ZM46.9384 86.6433H25.5128V60.0845H46.9384V68.4933C45.215 68.5422 43.6261 68.64 42.8928 68.8356C41.9395 69.0922 41.2672 69.7767 41.0472 70.7178C40.8517 71.6222 41.0961 72.6367 41.6828 73.4678C41.1695 73.9078 40.8639 74.6045 40.8639 75.4356C40.8639 76.3767 41.2917 77.3667 42.0739 77.9289C41.6584 78.4545 41.4261 79.1389 41.4995 79.8722C41.6339 81.3145 42.8317 82.3778 44.2861 82.3289L46.9384 82.3533V86.6556V86.6433ZM47.6228 80.9967L44.2739 80.9722C43.5772 80.96 42.9417 80.4711 42.8684 79.75C42.795 79.0167 43.3206 78.3689 43.9684 78.2956H45.875C46.2539 78.2956 46.5472 77.99 46.5472 77.6233C46.5472 77.2567 46.2417 76.9511 45.875 76.9511H43.8828C43.7117 76.9756 43.5528 77.0122 43.3939 77.0611C42.5506 76.9511 42.2328 76.0345 42.2328 75.4356C42.2328 75.2767 42.2572 74.4456 42.8928 74.36C44.1272 74.2011 45.3617 74.36 45.3739 74.36C45.7772 74.4089 46.0828 74.1522 46.1317 73.7856C46.1806 73.4189 45.9239 73.0767 45.5572 73.0278C45.5084 73.0278 44.3472 72.8689 43.0639 72.9911C42.5261 72.4411 42.2328 71.6711 42.3795 71.0356C42.4772 70.5833 42.7706 70.29 43.235 70.1678C44.5672 69.8133 49.8961 69.8133 52.5239 69.8378L52.9884 81.0578L47.635 81.0089L47.6228 80.9967ZM69.7084 75.1422C66.9706 78.76 61.2506 80.9478 54.3328 81.0333L53.8684 69.7278C55.6895 69.4345 60.5295 68.42 60.9695 65.67C61.0306 65.3033 60.7739 64.9489 60.4072 64.9C60.0406 64.8389 59.6861 65.0956 59.6372 65.4622C59.3806 67.1122 55.5428 68.1756 53.1472 68.4689C52.6461 68.4689 50.5317 68.4322 48.3072 68.4689V61.93C50.0061 61.3311 51.5339 60.4633 52.8539 59.3878C54.8584 59.3878 68.9017 59.6933 71.0528 67.1856C71.8961 70.1189 71.4317 72.8811 69.7084 75.1545V75.1422Z" fill="#333333"/>
<path d="M21.7606 37.2534L18.8028 36.8257L17.4828 34.149C17.2506 33.6845 16.4928 33.6845 16.2728 34.149L14.9528 36.8257L11.995 37.2534C11.7384 37.2901 11.5306 37.4734 11.445 37.7179C11.3595 37.9623 11.4328 38.2312 11.6161 38.4145L13.755 40.4923L13.2539 43.4257C13.205 43.6823 13.315 43.939 13.5228 44.0857C13.645 44.1712 13.7795 44.2201 13.9261 44.2201C14.0361 44.2201 14.1461 44.1957 14.2439 44.1468L16.8839 42.7534L19.5239 44.1468C19.7561 44.269 20.025 44.2445 20.2328 44.0979C20.4406 43.9512 20.5506 43.6945 20.5017 43.4379L20.0006 40.5045L22.1395 38.4268C22.3228 38.2434 22.3961 37.9745 22.3106 37.7301C22.225 37.4857 22.0172 37.3023 21.7606 37.2657V37.2534ZM18.7906 39.759C18.6317 39.9179 18.5584 40.1379 18.595 40.3579L18.925 42.289L17.1895 41.3723C16.9939 41.2745 16.7495 41.2745 16.5539 41.3723L14.8184 42.289L15.1484 40.3579C15.185 40.1379 15.1117 39.9179 14.9528 39.759L13.5472 38.3901L15.4906 38.109C15.7106 38.0723 15.9061 37.9379 16.0039 37.7423L16.8717 35.9823L17.7395 37.7423C17.8372 37.9379 18.0328 38.0845 18.2528 38.109L20.1961 38.3901L18.7906 39.759Z" fill="#333333"/>
<path d="M53.6484 16.7934C53.8317 16.6101 53.905 16.3412 53.8195 16.0968C53.7339 15.8523 53.5261 15.669 53.2695 15.6323L48.8572 14.9968L46.8895 11.0001C46.7795 10.7679 46.535 10.6212 46.2784 10.6212C46.0217 10.6212 45.7895 10.7679 45.6672 11.0001L43.6872 14.9968L39.275 15.6323C39.0184 15.669 38.8106 15.8523 38.725 16.0968C38.6395 16.3412 38.7128 16.6101 38.8961 16.7934L42.0861 19.9101L41.3284 24.3101C41.2795 24.5668 41.3895 24.8234 41.5972 24.9701C41.805 25.129 42.0861 25.1412 42.3061 25.019L46.2539 22.9412L50.2017 25.019C50.2995 25.0679 50.4095 25.0923 50.5195 25.0923C50.6539 25.0923 50.8006 25.0434 50.9228 24.9579C51.1306 24.8112 51.2406 24.5545 51.1917 24.2979L50.4339 19.8979L53.6239 16.7812L53.6484 16.7934ZM49.6395 23.1857L46.5961 21.5845C46.4006 21.4868 46.1561 21.4868 45.9606 21.5845L42.9172 23.1857L43.5039 19.7879C43.5406 19.5679 43.4672 19.3479 43.3084 19.189L40.8395 16.7812L44.2495 16.2801C44.4695 16.2434 44.665 16.109 44.7628 15.9134L46.2906 12.8212L47.8184 15.9134C47.9161 16.109 48.1117 16.2557 48.3317 16.2801L51.7417 16.7812L49.2728 19.189C49.1139 19.3479 49.0406 19.5679 49.0772 19.7879L49.6639 23.1857H49.6395Z" fill="#333333"/>
<path d="M34.6061 19.6412C34.4472 19.189 33.9339 17.8568 27.615 19.4456C26.0139 17.8934 23.6306 17.2823 21.4061 18.089C19.9028 18.639 18.705 19.739 18.0328 21.1812C17.7395 21.8045 17.5928 22.4645 17.5195 23.1245C11.6528 25.9845 12.1295 27.329 12.3006 27.7812C12.5328 28.4168 13.2539 28.7345 14.525 28.7345C15.1117 28.7345 15.8206 28.6612 16.6517 28.539C17.4461 28.4045 18.3506 28.209 19.2917 27.9768C19.7684 28.4412 20.3183 28.8445 20.9417 29.1379C21.7484 29.5168 22.6039 29.7001 23.4595 29.7001C24.1561 29.7001 24.8406 29.5779 25.5128 29.3334C27.7372 28.5145 29.1795 26.5101 29.3872 24.2856C30.255 23.8579 31.0739 23.4423 31.7706 23.0145C34.0561 21.6456 34.9483 20.5701 34.6183 19.6412H34.6061ZM13.645 27.3045C13.8772 26.9379 14.8795 26.009 17.5439 24.6401C17.605 25.019 17.7028 25.3979 17.8372 25.7645C17.9717 26.1312 18.1428 26.4856 18.3384 26.8156C15.7595 27.4145 14.1584 27.4756 13.6328 27.2923L13.645 27.3045ZM25.0484 28.0623C23.6061 28.5879 22.0784 28.3434 20.8928 27.549C22.0417 27.219 23.2272 26.8401 24.4372 26.4001C25.6472 25.9601 26.8084 25.4834 27.8961 24.9945C27.505 26.3634 26.4906 27.5368 25.0484 28.0623ZM23.9728 25.1168C22.3961 25.6912 21.0028 26.1312 19.7684 26.4612C19.5117 26.1068 19.2795 25.7279 19.1206 25.3001C18.2406 22.9045 19.4872 20.2523 21.8828 19.3723C22.4084 19.1768 22.9339 19.0912 23.4595 19.0912C25.3417 19.0912 27.1261 20.2523 27.8106 22.1345C27.9695 22.5623 28.0306 23.0023 28.055 23.4423C26.8939 23.9801 25.5495 24.5423 23.9728 25.1168ZM29.3628 22.8068C29.3017 22.4279 29.2161 22.049 29.0695 21.6701C28.935 21.3034 28.7639 20.949 28.5561 20.619C31.4772 19.9345 32.8461 20.0079 33.2617 20.1423C32.9806 20.619 31.7095 21.609 29.3506 22.8068H29.3628Z" fill="#333333"/>
<path d="M53.2939 28.6612C52.0472 29.9079 52.0472 31.949 53.2939 33.2079C53.9172 33.8312 54.7483 34.149 55.5672 34.149C56.3861 34.149 57.205 33.8312 57.8406 33.2079C59.0872 31.9612 59.0872 29.9201 57.8406 28.6612C56.5817 27.4023 54.5528 27.4023 53.2939 28.6612ZM56.875 32.2423C56.1661 32.939 54.9561 32.939 54.2472 32.2423C53.8928 31.8879 53.7094 31.4234 53.7094 30.9345C53.7094 30.4457 53.905 29.969 54.2472 29.6268C54.6017 29.2723 55.0661 29.089 55.555 29.089C56.0439 29.089 56.5206 29.2845 56.8628 29.6268C57.2172 29.9812 57.4006 30.4457 57.4006 30.9345C57.4006 31.4234 57.205 31.9001 56.8628 32.2423H56.875Z" fill="#333333"/>
<path d="M62.7417 24.6646L59.515 27.8912C59.2461 28.1601 59.2461 28.5879 59.515 28.8446C59.6495 28.979 59.8206 29.0401 59.9917 29.0401C60.1628 29.0401 60.3339 28.979 60.4684 28.8446L63.695 25.6179C63.9639 25.349 63.9639 24.9212 63.695 24.6646C63.4261 24.3957 62.9984 24.3957 62.7417 24.6646Z" fill="#333333"/>
<path d="M58.1217 27.1701C58.2928 27.1701 58.4639 27.109 58.5983 26.9745L65.4428 20.1301C65.7117 19.8612 65.7117 19.4334 65.4428 19.1768C65.1739 18.9079 64.7461 18.9079 64.4894 19.1768L57.645 26.0212C57.3761 26.2901 57.3761 26.7179 57.645 26.9745C57.7794 27.109 57.9506 27.1701 58.1217 27.1701Z" fill="#333333"/>
<path d="M36.855 29.8468H35.8894V28.8812C35.8894 28.5023 35.5839 28.209 35.2172 28.209C34.8506 28.209 34.545 28.5145 34.545 28.8812V29.8468H33.5794C33.2006 29.8468 32.9072 30.1523 32.9072 30.519C32.9072 30.8857 33.2128 31.1912 33.5794 31.1912H34.545V32.1568C34.545 32.5357 34.8506 32.829 35.2172 32.829C35.5839 32.829 35.8894 32.5234 35.8894 32.1568V31.1912H36.855C37.2339 31.1912 37.5272 30.8857 37.5272 30.519C37.5272 30.1523 37.2217 29.8468 36.855 29.8468Z" fill="#333333"/>
<path d="M86.5017 33.3056C86.1228 32.4134 85.5973 31.6678 85.0717 30.9345C84.5706 30.2378 84.1062 29.5778 83.7884 28.8323C83.1162 27.1945 82.8106 25.6178 82.8473 24.0412C82.8595 23.5889 82.8962 23.1245 82.9328 22.6723C83.0428 21.4256 83.1528 20.1301 82.774 18.8223C82.0895 16.4145 80.2562 14.3001 77.8851 13.1389C76.3573 12.3934 74.7928 12.4056 73.2895 12.4056C72.214 12.4056 71.1628 12.4056 70.1606 12.1489C68.6695 11.7578 67.374 10.7923 66.3351 9.27672C66.0784 8.91006 65.8462 8.53117 65.6017 8.1645C64.734 6.79561 63.8417 5.37784 62.2284 4.52228C60.554 3.63006 58.4395 3.3245 56.2762 3.66672C55.824 3.74006 55.3473 3.86228 54.8706 3.9845C53.7584 4.26561 52.7195 4.5345 51.7906 4.16784C51.0817 3.88672 50.4706 3.37339 49.8228 2.82339C49.554 2.60339 49.2973 2.38339 49.0284 2.17561C45.594 -0.439943 40.9862 -0.708832 37.564 1.51561C36.9528 1.90672 36.4395 2.38339 35.9384 2.83561C35.1317 3.55672 34.374 4.25339 33.3717 4.52228C31.5995 5.02339 29.9617 4.77895 28.3851 4.54672C26.3195 4.24117 24.1684 3.92339 21.8462 5.25561C18.754 7.01561 18.1673 9.25228 17.6906 11.0367C17.3973 12.1489 17.1406 13.1023 16.3951 13.8601C15.2706 14.9845 13.9995 15.3389 12.6428 15.7178C11.604 16.0112 10.5406 16.3045 9.46507 16.9401C7.17952 18.3089 5.61507 20.8512 5.37063 23.5889C5.26063 24.8845 5.4684 26.1556 5.67618 27.3778C5.95729 29.0523 6.22618 30.6412 5.67618 32.2178C5.41952 32.9512 4.78396 33.6478 4.11174 34.3934C3.42729 35.1512 2.70618 35.9334 2.33952 36.8623C1.00729 40.1989 2.21729 44.2689 5.16285 46.3345C5.44396 46.5301 5.81063 46.4812 6.04285 46.2367C6.06729 46.2123 6.09174 46.2001 6.10396 46.1756C6.32396 45.8701 6.25063 45.4423 5.93285 45.2345C3.53729 43.5478 2.4984 40.1012 3.58618 37.3756C3.86729 36.6912 4.46618 36.0189 5.10174 35.3223C5.83507 34.5156 6.59285 33.6723 6.94729 32.6823C7.60729 30.7756 7.30174 28.9423 6.99618 27.1701C6.80063 25.9723 6.60507 24.8478 6.70285 23.7234C6.8984 21.4134 8.2184 19.2745 10.1373 18.1256C11.054 17.5756 11.9828 17.3189 12.9851 17.0378C14.4517 16.6345 15.9551 16.2067 17.3362 14.8378C18.3506 13.8234 18.6806 12.5889 18.9862 11.4034C19.4506 9.61895 19.9028 7.93228 22.494 6.45339C24.4128 5.36561 26.1484 5.61006 28.1651 5.91561C29.8884 6.17228 31.6728 6.42895 33.7262 5.8545C35.034 5.48784 35.9506 4.66895 36.8306 3.86228C37.3195 3.42228 37.7717 3.00672 38.2973 2.67672C41.2428 0.757835 45.2273 1.00228 48.1973 3.27561C48.454 3.47117 48.6984 3.67895 48.9428 3.88672C49.6395 4.47339 50.3728 5.0845 51.2773 5.43895C52.6095 5.97672 53.9784 5.62228 55.1884 5.31672C55.6162 5.20672 56.044 5.09672 56.4595 5.03561C58.3417 4.74228 60.1628 4.99895 61.5684 5.7445C62.864 6.44117 63.634 7.63895 64.4406 8.92228C64.6851 9.31339 64.9295 9.7045 65.1984 10.0834C66.4328 11.8678 67.9851 13.0167 69.794 13.4934C70.9673 13.7989 72.1162 13.7989 73.2651 13.7989C74.6951 13.7989 76.0273 13.7989 77.2617 14.3978C79.2662 15.3756 80.8673 17.2212 81.4417 19.2378C81.7473 20.3134 81.6495 21.4256 81.5517 22.6112C81.5151 23.0878 81.4662 23.5767 81.454 24.0534C81.4051 25.8378 81.7473 27.5856 82.4928 29.4067C82.8595 30.3112 83.4095 31.0567 83.9228 31.7901C84.424 32.4867 84.8884 33.1345 85.2062 33.8923C86.294 36.4956 85.8662 38.9645 83.874 41.6534C82.6273 43.3401 81.5151 45.0145 81.5884 47.1412C81.6251 48.2045 81.9306 49.1945 82.2117 50.1478C82.554 51.2845 82.8717 52.3478 82.7617 53.4478C82.4195 56.8089 78.3251 58.5689 75.2695 59.6078C74.9762 59.7056 74.8051 59.9867 74.8173 60.2801C74.8173 60.3412 74.8173 60.4023 74.8417 60.4634C74.9395 60.7445 75.1962 60.9278 75.4895 60.9278C75.5628 60.9278 75.6362 60.9278 75.7095 60.8912C79.1195 59.7423 83.6906 57.7256 84.1062 53.5823C84.2406 52.2134 83.8739 50.9667 83.5073 49.7567C83.2384 48.8401 82.9695 47.9723 82.9451 47.0923C82.8839 45.4056 83.8251 44.0001 84.9617 42.4601C87.2351 39.3923 87.7362 36.4101 86.4651 33.3667L86.5017 33.3056Z" fill="#333333"/>
<path d="M41.4383 66.99V63.91C41.4383 63.5311 41.1328 63.2378 40.7661 63.2378H31.685C31.3061 63.2378 31.0128 63.5433 31.0128 63.91V66.99C31.0128 67.3689 31.3183 67.6622 31.685 67.6622H40.7661C41.145 67.6622 41.4383 67.3567 41.4383 66.99ZM40.0817 66.3056H32.3572V64.5822H40.0817V66.3056Z" fill="#333333"/>
<defs>
<linearGradient id="paint0_linear_18_775" x1="18.8395" y1="22.7823" x2="28.055" y2="22.7823" gradientUnits="userSpaceOnUse">
<stop stop-color="#9DFED1"/>
<stop offset="0.69" stop-color="#3DDBBD"/>
<stop offset="1" stop-color="#11CBB4"/>
</linearGradient>
<linearGradient id="paint1_linear_18_775" x1="20.8928" y1="26.6567" x2="27.8839" y2="26.6567" gradientUnits="userSpaceOnUse">
<stop stop-color="#9DFED1"/>
<stop offset="0.69" stop-color="#3DDBBD"/>
<stop offset="1" stop-color="#11CBB4"/>
</linearGradient>
<linearGradient id="paint2_linear_18_775" x1="25.5128" y1="73.3578" x2="46.9384" y2="73.3578" gradientUnits="userSpaceOnUse">
<stop stop-color="#77DBFF"/>
<stop offset="1" stop-color="#3198FF"/>
</linearGradient>
<linearGradient id="paint3_linear_18_775" x1="9.58722" y1="69.9234" x2="24.1561" y2="69.9234" gradientUnits="userSpaceOnUse">
<stop stop-color="#77DBFF"/>
<stop offset="1" stop-color="#3198FF"/>
</linearGradient>
<linearGradient id="paint4_linear_18_775" x1="13.5472" y1="39.1356" x2="20.1961" y2="39.1356" gradientUnits="userSpaceOnUse">
<stop stop-color="#77DBFF"/>
<stop offset="1" stop-color="#3198FF"/>
</linearGradient>
<linearGradient id="paint5_linear_18_775" x1="71.0039" y1="28.5511" x2="75.7339" y2="28.5511" gradientUnits="userSpaceOnUse">
<stop stop-color="#9DFED1"/>
<stop offset="0.69" stop-color="#3DDBBD"/>
<stop offset="1" stop-color="#11CBB4"/>
</linearGradient>
<linearGradient id="paint6_linear_18_775" x1="30.3772" y1="40.7" x2="55.7872" y2="40.7" gradientUnits="userSpaceOnUse">
<stop stop-color="#9DFED1"/>
<stop offset="0.69" stop-color="#3DDBBD"/>
<stop offset="1" stop-color="#11CBB4"/>
</linearGradient>
<linearGradient id="paint7_linear_18_775" x1="66.2861" y1="41.629" x2="69.965" y2="41.629" gradientUnits="userSpaceOnUse">
<stop stop-color="#77DBFF"/>
<stop offset="1" stop-color="#3198FF"/>
</linearGradient>
<linearGradient id="paint8_linear_18_775" x1="67.3739" y1="50.2578" x2="68.8772" y2="50.2578" gradientUnits="userSpaceOnUse">
<stop stop-color="#77DBFF"/>
<stop offset="1" stop-color="#3198FF"/>
</linearGradient>
</defs>
</svg>
