<svg width="24" height="25" viewBox="0 0 24 25" fill="none" xmlns="http://www.w3.org/2000/svg">
<path d="M13.2 21.87C12.54 22.75 11.46 22.75 10.8 21.87L9.29999 19.87C9.12999 19.65 8.77 19.47 8.5 19.47H8C4 19.47 2 18.47 2 13.47V8.47C2 4.47 4 2.47 8 2.47H16C20 2.47 22 4.47 22 8.47V13.47" stroke="#212121" stroke-width="1.5" stroke-miterlimit="10" stroke-linecap="round" stroke-linejoin="round"/>
<path d="M18.2 21.9C19.9673 21.9 21.4 20.4673 21.4 18.7C21.4 16.9327 19.9673 15.5 18.2 15.5C16.4327 15.5 15 16.9327 15 18.7C15 20.4673 16.4327 21.9 18.2 21.9Z" stroke="#212121" stroke-width="1.5" stroke-linecap="round" stroke-linejoin="round"/>
<path d="M22 22.5L21 21.5" stroke="#212121" stroke-width="1.5" stroke-linecap="round" stroke-linejoin="round"/>
<path d="M15.9965 11.5H16.0054" stroke="#212121" stroke-width="2" stroke-linecap="round" stroke-linejoin="round"/>
<path d="M11.9955 11.5H12.0045" stroke="#212121" stroke-width="2" stroke-linecap="round" stroke-linejoin="round"/>
<path d="M7.99451 11.5H8.00349" stroke="#212121" stroke-width="2" stroke-linecap="round" stroke-linejoin="round"/>
</svg>
