<svg width="88" height="88" viewBox="0 0 88 88" fill="none" xmlns="http://www.w3.org/2000/svg">
<g clip-path="url(#clip0_18_851)">
<path d="M39.1184 80.1055C60.6866 80.1055 78.1712 62.621 78.1712 41.0527C78.1712 19.4845 60.6866 2 39.1184 2C17.5502 2 0.0656738 19.4845 0.0656738 41.0527C0.0656738 62.621 17.5502 80.1055 39.1184 80.1055Z" fill="#E6FAF9" fill-opacity="0.6"/>
<path d="M62.4158 68.646C59.9262 68.646 57.9003 70.6719 57.9003 73.1615V74.1378C57.9003 76.6274 59.9262 78.6533 62.4158 78.6533H86.7871V77.2132H62.4158C60.7194 77.2132 59.3404 75.8341 59.3404 74.15V73.1737C59.3404 71.4773 60.7194 70.0983 62.4158 70.0983H86.7871V68.6582H62.4158V68.646Z" fill="#333333"/>
<path d="M79.4892 79.8004H74.1439V84.8529H79.4892V79.8004Z" fill="white"/>
<path d="M60.4876 73.1492V74.1255C60.4876 75.1872 61.3541 76.0415 62.4036 76.0415H85.1762V71.2332H62.4036C61.3419 71.2332 60.4876 72.0996 60.4876 73.1492Z" fill="white"/>
<path d="M52.7014 79.8004V84.8529H72.9967V79.8004H62.4158H52.7014Z" fill="url(#paint0_linear_18_851)"/>
<path d="M84.4074 67.4866V60.2985H55.2155V67.4866H84.4074ZM59.914 66.0587C58.718 66.0587 57.7417 65.0824 57.7417 63.8864C57.7417 62.6904 58.718 61.7141 59.914 61.7141C61.11 61.7141 62.0863 62.6904 62.0863 63.8864C62.0863 65.0824 61.11 66.0587 59.914 66.0587Z" fill="white"/>
<path d="M59.914 62.8734C59.3526 62.8734 58.9011 63.325 58.9011 63.8863C58.9011 64.4477 59.3526 64.8993 59.914 64.8993C60.4754 64.8993 60.9269 64.4477 60.9269 63.8863C60.9269 63.325 60.4754 62.8734 59.914 62.8734Z" fill="url(#paint1_linear_18_851)"/>
<path d="M52.7014 45.8123H73.5214C73.7411 44.3234 75.1812 43.4203 76.426 43.1152C77.561 42.8224 78.8302 42.8956 79.9529 42.9444H80.1238C80.5021 42.9688 80.9292 42.9932 81.3808 43.042C79.8797 39.1978 75.8768 37.3916 74.7662 36.9644C74.1682 37.4526 73.5092 37.8919 72.8136 38.2703L71.1783 42.8346C71.1173 43.0054 70.9708 43.1397 70.7877 43.1885C70.7389 43.2007 70.6901 43.2129 70.6291 43.2129C70.4948 43.2129 70.3728 43.1641 70.263 43.0786L66.5041 40.0276L62.7453 43.0786C62.6355 43.1641 62.5134 43.2129 62.3792 43.2129C62.3304 43.2129 62.2816 43.2129 62.2205 43.1885C62.0375 43.1397 61.891 43.0054 61.83 42.8346L60.1947 38.2703C58.7302 37.477 57.4488 36.4153 56.4359 35.1583C56.4237 35.146 56.3993 35.1338 56.387 35.1216L41.8155 18.2679L34.9935 23.5645C41.7545 30.9601 51.3102 43.9207 52.6892 45.8123H52.7014Z" fill="#333333"/>
<path d="M31.8449 16.181C31.491 15.8881 31.3323 15.7172 31.1126 15.4609C31.0028 15.3267 30.8685 15.1803 30.6611 14.9606C30.4414 14.7287 30.2706 14.4602 30.1363 14.1673C29.3064 14.0087 28.8671 14.6311 28.7573 14.8385C28.501 15.2779 28.4033 15.9979 28.9403 16.5837C29.1722 16.84 29.3064 16.9986 29.3919 17.1085C29.5261 17.2793 29.5505 17.3037 29.9166 17.5722C30.2461 17.8163 30.6001 17.8407 30.954 17.6577C31.4421 17.4136 31.7716 16.8156 31.8449 16.181Z" fill="white"/>
<path d="M53.9219 28.1287C53.9219 23.6133 56.68 19.6958 60.6951 17.7431C60.7317 17.7187 60.7683 17.7065 60.8049 17.6943C62.5257 16.8767 64.4539 16.4007 66.5164 16.4007C71.2759 16.4007 75.4253 18.8781 77.561 22.5149C77.561 22.5149 77.561 22.5393 77.5732 22.5393C78.5373 24.1991 79.0865 26.1029 79.0865 28.1165C79.0865 31.1919 77.7928 33.9988 75.706 36.0979C77.4633 36.8668 81.3686 39.0025 82.6866 43.2739C83.4799 43.4935 84.2365 43.8719 84.7491 44.5431C85.042 44.9336 85.1763 45.373 85.2129 45.8001H85.9085V12.7883H47.051V22.5637L54.2758 30.9234C54.0439 30.0326 53.8975 29.0928 53.8975 28.1409L53.9219 28.1287Z" fill="white"/>
<path d="M80.0628 44.1038H79.8919C78.8546 44.0428 77.683 43.9817 76.7067 44.2258C75.6938 44.4821 74.6564 45.1777 74.632 46.1418C74.6198 46.4958 74.5954 46.691 74.5832 46.8375C74.5588 47.0693 74.5588 47.0937 74.6442 47.5331C74.7174 47.9358 74.9493 48.2043 75.3154 48.3141C75.828 48.4728 76.487 48.2897 76.9874 47.887C76.9386 47.4233 76.9508 47.1914 76.963 46.8619V46.6544C76.9874 46.3493 77.2437 46.1052 77.5488 46.1052H77.5732C77.8905 46.1174 78.1346 46.3859 78.1223 46.7032V46.9229C78.0857 47.289 78.0735 47.4477 78.1712 48.0457C78.2444 48.5338 78.757 48.7169 79.1719 48.7291C79.7455 48.7291 80.3557 48.485 80.4899 47.8626C80.4533 47.7284 80.4411 47.5819 80.4289 47.4477V46.6178C80.4045 46.3005 80.6608 46.032 80.9781 46.032H80.9903C81.3076 46.032 81.5639 46.2761 81.5639 46.5934V47.4111C81.6005 48.0212 82.1009 48.4972 82.7233 48.4972H82.7354C83.309 48.4972 83.6996 48.1189 83.8826 47.3866C84.0657 46.6422 84.2365 45.7879 83.8338 45.2632C83.0772 44.2746 81.2588 44.177 80.0628 44.116V44.1038Z" fill="white"/>
<path d="M41.1443 45.8123H51.2736C50.3827 44.6041 48.6741 42.3097 46.5629 39.5394L41.1443 45.8123Z" fill="white"/>
<path d="M13.7341 28.6046C14.5396 26.7008 15.9065 25.1631 17.5662 24.2722C15.8943 23.3813 14.5396 21.8436 13.7341 19.9398C12.9165 21.8436 11.5618 23.3813 9.9021 24.2722C11.574 25.1753 12.9287 26.7008 13.7341 28.6046Z" fill="url(#paint2_linear_18_851)"/>
<path d="M77.9393 28.1287C77.9393 26.4689 77.5121 24.9068 76.7799 23.5156C75.291 23.8207 73.8876 23.9549 72.6061 23.9549C65.7231 23.9549 61.9277 20.1839 60.8659 18.9391C57.4122 20.7575 55.069 24.199 55.069 28.1287C55.069 33.9622 60.1947 38.7095 66.5042 38.7095C72.8136 38.7095 77.9393 33.9622 77.9393 28.1287ZM63.3921 25.4804C63.9535 25.4804 64.4051 26.0174 64.4051 26.6764C64.4051 27.3354 63.9535 27.8724 63.3921 27.8724C62.8308 27.8724 62.3792 27.3354 62.3792 26.6764C62.3792 26.0174 62.8308 25.4804 63.3921 25.4804ZM66.5042 33.8768C64.3685 33.8768 62.6355 32.1438 62.6355 30.0081C62.6355 29.6908 62.8918 29.4345 63.2091 29.4345H69.787C70.1043 29.4345 70.3606 29.6908 70.3606 30.0081C70.3606 32.1438 68.6277 33.8768 66.492 33.8768H66.5042ZM69.6162 27.8846C69.0548 27.8846 68.6032 27.3476 68.6032 26.6886C68.6032 26.0296 69.0548 25.4926 69.6162 25.4926C70.1776 25.4926 70.6291 26.0296 70.6291 26.6886C70.6291 27.3476 70.1776 27.8846 69.6162 27.8846Z" fill="white"/>
<path d="M76.1453 22.4539C74.1072 19.5127 70.5559 17.5601 66.5163 17.5601C64.8932 17.5601 63.3555 17.8774 61.9521 18.4387C63.3067 19.9642 67.7856 23.9794 76.1453 22.4539Z" fill="url(#paint3_linear_18_851)"/>
<path d="M65.0031 39.7713C63.8437 39.637 62.7209 39.3686 61.6836 38.9658L62.6599 41.6873L65.0153 39.7835L65.0031 39.7713Z" fill="white"/>
<path d="M71.3491 38.9658C70.2996 39.3685 69.189 39.6492 68.0175 39.7713L70.3728 41.6751L71.3491 38.9536V38.9658Z" fill="white"/>
<path d="M7.99829 66.4248C11.0249 68.7436 13.6365 71.7092 15.8088 75.2727L21.9352 72.9784L16.1383 57.5159L14.3444 58.1872C13.9904 58.3214 13.6243 58.3824 13.2704 58.3824C12.8433 58.3824 12.4039 58.2848 12.0012 58.1017C11.2567 57.76 10.6832 57.1498 10.3903 56.381C10.1096 55.6121 10.134 54.7822 10.4757 54.0378C10.8174 53.2934 11.4276 52.7198 12.1965 52.4391C13.7952 51.8411 15.5526 52.6588 16.1505 54.2331L16.8218 56.0271L22.0939 54.05L21.4227 52.256C20.8247 50.6695 21.6301 48.8999 23.2167 48.3019C23.9855 48.009 24.8154 48.0456 25.572 48.3874C26.3165 48.7291 26.89 49.3393 27.1829 50.1081C27.4758 50.877 27.4392 51.7068 27.0975 52.4513C26.7558 53.1957 26.1456 53.7693 25.3768 54.05L23.5828 54.7212L29.3797 70.1837L35.5183 67.8893C34.8592 63.862 34.8837 59.7615 35.6281 55.8684C36.2139 52.7564 35.9454 49.5467 34.8226 46.5812C33.1385 42.1023 29.7946 38.5998 25.389 36.7204C23.1922 35.7806 20.8857 35.3169 18.5791 35.3169C16.2726 35.3169 13.9294 35.7928 11.7205 36.7448C3.81232 40.1253 -0.446868 48.9243 1.82307 57.1986C2.836 60.9208 4.9717 64.1061 7.99829 66.4248Z" fill="url(#paint4_linear_18_851)"/>
<path d="M66.5042 32.7297C67.7978 32.7297 68.8961 31.8144 69.1524 30.594H63.8437C64.1122 31.8144 65.1983 32.7297 66.492 32.7297H66.5042Z" fill="white"/>
<path d="M23.18 53.6594L24.974 52.9882C25.45 52.8051 25.8405 52.4512 26.048 51.9875C26.2554 51.5237 26.2798 50.999 26.0968 50.523C25.9137 50.047 25.5598 49.6565 25.096 49.4491C24.8398 49.3392 24.5713 49.2782 24.3028 49.2782C24.0709 49.2782 23.8512 49.3148 23.6316 49.4002C22.643 49.7664 22.1305 50.8769 22.5088 51.8776L23.18 53.6716V53.6594Z" fill="url(#paint5_linear_18_851)"/>
<path d="M33.3582 10.8113C34.1636 11.2262 34.6152 11.9707 35.0179 12.6297C35.1033 12.7762 35.201 12.9226 35.2864 13.069C35.6647 13.6548 35.7013 14.2894 35.5427 14.8508C35.0911 16.3885 36.1895 17.4381 36.2383 17.4869C36.4702 17.7066 36.4824 18.0727 36.2749 18.3046C36.1651 18.4266 36.0064 18.4876 35.8478 18.4876C35.7135 18.4876 35.5671 18.4388 35.4572 18.3412C35.4084 18.2924 34.6518 17.5723 34.3833 16.4007C34.005 16.6326 33.6022 16.7669 33.2117 16.7669C33.1141 16.7669 33.0164 16.7302 32.9188 16.718C32.7113 17.5723 32.1866 18.3168 31.4665 18.6829C31.2835 18.7805 31.0882 18.8415 30.9052 18.8781L34.2368 22.7102L41.3151 17.2062L41.0711 10.616C41.0345 9.98144 40.4609 9.49328 39.8141 9.50548C39.1917 9.5421 38.7035 10.0303 38.6669 10.6405L38.6059 11.8731C38.6059 11.8731 38.6059 11.8853 38.6059 11.8975C38.6059 11.9219 38.6059 11.9463 38.5937 11.9707C38.5448 12.2148 38.3618 12.3978 38.0689 12.41C38.0689 12.41 38.0567 12.41 38.0445 12.41C38.0445 12.41 38.0445 12.41 38.0323 12.41C38.0323 12.41 38.0323 12.41 38.0201 12.41C37.9468 12.41 37.8614 12.3856 37.8004 12.349C37.8004 12.349 37.8004 12.349 37.7882 12.349C37.715 12.3124 37.6662 12.2636 37.6173 12.2026C37.6173 12.2026 37.6051 12.2026 37.6051 12.1904C37.5807 12.1537 34.5663 8.17525 33.3459 7.22334C32.87 6.84502 32.1622 7.00367 31.7106 7.34538C31.552 7.46742 31.0272 7.91897 31.2835 8.52917C31.6496 9.43226 32.4673 10.2987 32.7724 10.5916C32.992 10.6283 33.2117 10.6893 33.407 10.7991L33.3582 10.8113Z" fill="white"/>
<path d="M29.2454 71.4773L22.8993 73.8571L16.4312 76.2857C16.8461 77.0057 17.2489 77.7501 17.6272 78.519L18.1886 79.6662L36.641 72.7465L36.2871 71.4041C36.0796 70.623 35.9088 69.8298 35.7501 69.0487L29.282 71.4773H29.2454Z" fill="white"/>
<path d="M22.5094 55.1379L17.2296 57.1161L23.0231 72.5784L28.3029 70.6001L22.5094 55.1379Z" fill="url(#paint6_linear_18_851)"/>
<path d="M28.025 84.7552L32.5161 83.0711L32.5649 80.7523L26.4751 83.0345L28.025 84.7552Z" fill="#333333"/>
<path d="M20.3365 84.1084L37.898 77.5305L36.9095 73.8571L18.6646 80.7035L20.3365 84.1084Z" fill="white"/>
<path d="M13.2704 53.391C13.0507 53.391 12.8189 53.4276 12.5992 53.513C12.1232 53.6961 11.7327 54.05 11.5252 54.5138C11.3178 54.9775 11.2934 55.5023 11.4764 55.9782C11.6595 56.4542 12.0134 56.8447 12.4771 57.0522C12.9409 57.2597 13.4657 57.2841 13.9416 57.101L15.7356 56.4298L15.0644 54.6358C14.7715 53.8669 14.0392 53.391 13.2582 53.391H13.2704Z" fill="url(#paint7_linear_18_851)"/>
<path d="M46.4896 54.172C45.8306 55.6121 44.7933 56.7714 43.5363 57.5037C44.7933 58.2359 45.8306 59.3953 46.4896 60.8354C47.1486 59.3953 48.186 58.2359 49.443 57.5037C48.186 56.7714 47.1486 55.6121 46.4896 54.172Z" fill="url(#paint8_linear_18_851)"/>
<path d="M31.9791 14.7043C32.2232 14.9728 32.3208 15.1071 32.7968 15.4732C33.1873 15.7783 33.6754 15.5464 33.9927 15.2535C34.188 15.0704 34.3467 14.8264 34.4321 14.5701V14.5457C34.4321 14.5457 34.4321 14.5457 34.4321 14.5213C34.5053 14.2528 34.4809 13.9721 34.31 13.7036C34.2124 13.545 34.1148 13.3863 34.0171 13.2399C33.6632 12.6541 33.3337 12.1171 32.809 11.8364C32.6503 11.751 32.455 11.7144 32.2598 11.7144C31.8815 11.7144 31.5031 11.8608 31.3201 12.1171C30.8929 12.7151 30.9662 13.6182 31.4787 14.1674C31.6984 14.3992 31.8448 14.5701 31.9669 14.7043H31.9791Z" fill="white"/>
<path d="M7.30265 67.3401C11.0615 70.2202 14.1857 74.1499 16.5655 79.0315L19.531 85.0847C19.6287 85.2922 19.8361 85.402 20.0436 85.402C20.1168 85.402 20.1778 85.402 20.2511 85.3654L25.3157 83.4616L27.4392 85.8047C27.549 85.9268 27.7077 85.9878 27.8664 85.9878C27.9396 85.9878 28.0006 85.9756 28.0738 85.9512L33.2971 83.9985C33.5168 83.9131 33.6632 83.7056 33.6754 83.4738L33.7365 80.3129L38.8011 78.4091C39.0818 78.3115 39.2283 78.0064 39.155 77.7257L37.3733 71.0989C36.043 66.1319 35.8233 60.9452 36.7509 56.0758C37.3855 52.7563 37.0804 49.3392 35.8966 46.1662C34.1026 41.3822 30.539 37.6478 25.8405 35.6464C21.1542 33.6449 15.9675 33.6449 11.2689 35.6708C2.83599 39.2832 -1.70389 48.668 0.712498 57.5037C1.79865 61.47 4.0808 64.8627 7.30265 67.3401ZM32.5161 83.071L28.025 84.7552L26.4751 83.0466L32.5649 80.7645L32.5161 83.071ZM37.898 77.5304L20.3365 84.1084L18.6646 80.7035L36.9095 73.8692L37.898 77.5304ZM36.2505 71.404L36.6044 72.7465L18.152 79.6661L17.5906 78.519C17.2123 77.7501 16.8095 77.0057 16.3946 76.2856L22.8627 73.857L29.2088 71.4773L35.6769 69.0487C35.8356 69.8419 36.0064 70.623 36.2139 71.404H36.2505ZM22.4966 55.1361L28.2935 70.5986L23.0214 72.5756L17.2245 57.1132L22.4966 55.1361ZM23.6316 49.3758C23.8512 49.2904 24.0831 49.2538 24.3028 49.2538C24.5713 49.2538 24.8398 49.3148 25.0961 49.4247C25.5598 49.6321 25.9137 50.0227 26.0968 50.4986C26.2798 50.9746 26.2554 51.4993 26.048 51.9631C25.8405 52.4268 25.45 52.7808 24.974 52.9638L23.18 53.635L22.5088 51.8411C22.1427 50.8525 22.643 49.742 23.6316 49.3636V49.3758ZM11.7083 36.7325C13.9172 35.7806 16.2482 35.3047 18.5669 35.3047C20.8857 35.3047 23.18 35.7684 25.3767 36.7081C29.7824 38.5875 33.1263 42.0901 34.8104 46.5689C35.921 49.5467 36.2017 52.7563 35.6159 55.8562C34.8714 59.7492 34.847 63.8498 35.506 67.8771L29.3674 70.1714L23.5706 54.709L25.3645 54.0378C26.1334 53.7449 26.7436 53.1835 27.0853 52.439C27.427 51.6946 27.4514 50.8525 27.1707 50.0959C26.8778 49.327 26.3164 48.7168 25.5598 48.3751C24.8154 48.0334 23.9733 48.009 23.2044 48.2897C21.6179 48.8877 20.8125 50.6573 21.4104 52.2438L22.0817 54.0378L16.8095 56.0148L16.1383 54.2208C15.5403 52.6343 13.783 51.8288 12.1842 52.4268C11.4154 52.7075 10.8052 53.2811 10.4635 54.0256C10.1218 54.77 10.0974 55.6121 10.378 56.3687C10.6709 57.1376 11.2323 57.7478 11.989 58.0895C12.3917 58.2725 12.8311 58.3702 13.2582 58.3702C13.6243 58.3702 13.9904 58.3092 14.3321 58.1749L16.1261 57.5037L21.923 72.9661L15.7966 75.2605C13.6243 71.6969 11.0127 68.7192 7.98607 66.4126C4.95948 64.0938 2.82379 60.9086 1.81086 57.1864C-0.459084 48.9121 3.80011 40.113 11.6961 36.7203L11.7083 36.7325ZM15.7478 56.442L13.9538 57.1132C13.4779 57.2962 12.9531 57.2718 12.4893 57.0644C12.0256 56.8569 11.6717 56.4664 11.4886 55.9904C11.3056 55.5145 11.33 54.9897 11.5374 54.5259C11.7449 54.0622 12.1354 53.6961 12.6114 53.5252C12.831 53.4398 13.0629 53.4032 13.2826 53.4032C14.0637 53.4032 14.7959 53.8791 15.0888 54.648L15.76 56.442H15.7478Z" fill="#333333"/>
<path d="M63.3921 27.8847C63.9535 27.8847 64.4051 27.3477 64.4051 26.6887C64.4051 26.0297 63.9535 25.4927 63.3921 25.4927C62.8308 25.4927 62.3792 26.0297 62.3792 26.6887C62.3792 27.3477 62.8308 27.8847 63.3921 27.8847Z" fill="#333333"/>
<path d="M69.6162 25.4805C69.0548 25.4805 68.6032 26.0174 68.6032 26.6765C68.6032 27.3355 69.0548 27.8725 69.6162 27.8725C70.1776 27.8725 70.6291 27.3355 70.6291 26.6765C70.6291 26.0174 70.1776 25.4805 69.6162 25.4805Z" fill="#333333"/>
<path d="M87.3607 67.4866H85.5546V59.7126C85.5546 59.3953 85.2983 59.139 84.981 59.139H54.6419C54.3246 59.139 54.0683 59.3953 54.0683 59.7126V68.0601C54.0683 68.3775 54.3246 68.6337 54.6419 68.6337H59.0231C57.644 69.6711 56.741 71.2942 56.741 73.1492V74.1255C56.741 75.9805 57.644 77.6037 59.0231 78.641H52.1278C51.8105 78.641 51.5543 78.8973 51.5543 79.2146V85.4142C51.5543 85.7315 51.8105 85.9878 52.1278 85.9878H80.075C80.3923 85.9878 80.6485 85.7315 80.6485 85.4142V79.7882H87.3607C87.678 79.7882 87.9343 79.5319 87.9343 79.2146V76.6151C87.9343 76.2978 87.678 76.0415 87.3607 76.0415H86.3356V71.2332H87.3607C87.678 71.2332 87.9343 70.9769 87.9343 70.6596V68.0601C87.9343 67.7428 87.678 67.4866 87.3607 67.4866ZM55.2155 67.4866V60.2984H84.4074V67.4866H55.2155ZM72.9967 84.8528H52.7014V79.8004H72.9967V84.8528ZM79.4892 84.8528H74.1438V79.8004H79.4892V84.8528ZM86.7871 70.086H62.4158C60.7195 70.086 59.3404 71.4651 59.3404 73.1614V74.1377C59.3404 75.8341 60.7195 77.2009 62.4158 77.2009H86.7871V78.641H62.4158C59.9262 78.641 57.9003 76.6151 57.9003 74.1255V73.1492C57.9003 70.6596 59.9262 68.6337 62.4158 68.6337H86.7871V70.0738V70.086ZM85.1762 71.2332V76.0415H62.4036C61.3419 76.0415 60.4876 75.1873 60.4876 74.1255V73.1492C60.4876 72.0875 61.3541 71.2332 62.4036 71.2332H85.1762Z" fill="#333333"/>
<path d="M30.4048 11.4459C30.0753 11.8974 29.9166 12.4466 29.9166 12.9958C29.0379 12.9958 28.2203 13.4473 27.7687 14.265C27.1951 15.2657 27.3294 16.5105 28.0982 17.3526C28.3179 17.5845 28.4277 17.7309 28.501 17.8286C28.623 17.9872 28.7206 18.0849 28.8549 18.2069C28.8793 18.2679 28.9037 18.3167 28.9403 18.3655L33.7243 23.8695C37.4587 27.8847 42.145 33.7914 45.8428 38.5997L39.4357 45.9954C39.2893 46.1662 39.2527 46.4103 39.3503 46.6056C39.4479 46.813 39.6554 46.9473 39.8751 46.9473H73.4116C73.4116 47.1425 73.4238 47.3134 73.497 47.7161C73.6435 48.546 74.1805 49.1562 74.9615 49.4003C75.7304 49.6321 76.6091 49.4735 77.3535 49.0219C77.7318 49.5223 78.3542 49.8518 79.1231 49.864C79.1475 49.864 79.1719 49.864 79.1963 49.864C79.8919 49.864 80.6486 49.5833 81.1367 49.0097C81.5517 49.3881 82.1009 49.6199 82.6988 49.6199H82.7355C83.8338 49.6077 84.6759 48.8633 84.981 47.6429C85.0298 47.4476 85.0908 47.2158 85.1396 46.9473H86.4821C86.7994 46.9473 87.0557 46.691 87.0557 46.3737V12.2147C87.0557 11.8974 86.7994 11.6412 86.4821 11.6412H46.4774C46.1601 11.6412 45.9039 11.8974 45.9039 12.2147V21.2335L42.4623 17.255L42.206 10.555C42.1206 9.27358 41.0223 8.29726 39.7408 8.35828C38.6303 8.4071 37.7272 9.23697 37.5441 10.3109C36.519 9.00509 34.8959 7.02805 34.005 6.33242C33.1629 5.67341 31.9181 5.73443 30.9662 6.45446C30.1119 7.10127 29.7946 8.0898 30.1607 8.99289C30.4292 9.66411 30.893 10.2987 31.2835 10.7747C30.9174 10.9211 30.6001 11.153 30.3804 11.4581L30.4048 11.4459ZM29.9166 17.5723C29.5505 17.316 29.5261 17.2794 29.3919 17.1085C29.3064 16.9987 29.1722 16.84 28.9403 16.5838C28.4033 15.998 28.5132 15.2779 28.7573 14.8386C28.8671 14.6433 29.3064 14.0209 30.1363 14.1674C30.2583 14.4603 30.4414 14.7288 30.6611 14.9606C30.8685 15.1803 31.0028 15.339 31.1126 15.461C31.3323 15.7051 31.4909 15.8881 31.8449 16.181C31.7716 16.8278 31.4299 17.4136 30.954 17.6577C30.6001 17.8408 30.2583 17.8042 29.9166 17.5723ZM41.1443 45.8123L46.5629 39.5395C48.6742 42.3098 50.3827 44.6041 51.2736 45.8123H41.1443ZM83.8948 47.3744C83.7118 48.1066 83.3213 48.4728 82.7477 48.485H82.7355C82.1131 48.485 81.6127 48.009 81.5883 47.3988V46.5811C81.5639 46.2638 81.3076 46.0198 80.9903 46.0198H80.9781C80.6608 46.0198 80.4045 46.2882 80.4167 46.6056V47.4354C80.4411 47.5819 80.4655 47.7161 80.4899 47.8504C80.3557 48.4728 79.7577 48.729 79.1719 48.7168C78.757 48.7168 78.2322 48.5216 78.1712 48.0334C78.0857 47.4354 78.0979 47.2768 78.1224 46.9107V46.691C78.1468 46.3737 77.9027 46.1052 77.5854 46.093H77.561C77.2559 46.093 76.9996 46.3371 76.9874 46.6422V46.8496C76.9508 47.1791 76.9508 47.411 76.9874 47.8748C76.487 48.2775 75.828 48.4606 75.3154 48.3019C74.9371 48.1921 74.7174 47.9236 74.6442 47.5209C74.5588 47.0815 74.571 47.0449 74.5832 46.8252C74.5954 46.6788 74.6198 46.4835 74.632 46.1296C74.6686 45.1655 75.706 44.4699 76.7067 44.2136C77.6708 43.9695 78.8546 44.0305 79.8919 44.0793H80.0628C81.2588 44.1526 83.0772 44.238 83.8338 45.2387C84.2365 45.7757 84.0779 46.6178 83.8826 47.3622L83.8948 47.3744ZM47.0754 12.7883H85.9329V45.8123H85.2373C85.2007 45.3852 85.0664 44.9458 84.7735 44.5553C84.261 43.8841 83.5043 43.5057 82.7111 43.2861C81.4052 39.0147 77.4878 36.879 75.7304 36.1101C77.8173 34.011 79.1109 31.2163 79.1109 28.1287C79.1109 26.1151 78.5617 24.2113 77.5976 22.5515C77.5976 22.5515 77.5976 22.5271 77.5854 22.5271C75.4497 18.8903 71.3003 16.4129 66.5408 16.4129C64.4905 16.4129 62.5501 16.8889 60.8293 17.7065C60.7927 17.7187 60.7561 17.7309 60.7195 17.7553C56.7044 19.7202 53.9463 23.6377 53.9463 28.1409C53.9463 29.105 54.0805 30.0326 54.3246 30.9234L47.0998 22.5637V12.7883H47.0754ZM66.5042 38.7096C60.1947 38.7096 55.069 33.9622 55.069 28.1287C55.069 24.1868 57.4122 20.7575 60.8659 18.9391C61.9277 20.1839 65.7231 23.955 72.6062 23.955C73.8876 23.955 75.2788 23.8207 76.7799 23.5156C77.5122 24.9191 77.9393 26.4812 77.9393 28.1287C77.9393 33.9622 72.8136 38.7096 66.5042 38.7096ZM71.3491 38.9659L70.3728 41.6874L68.0175 39.7835C69.1768 39.6493 70.2996 39.3808 71.3491 38.9781V38.9659ZM65.0031 39.7713L62.6477 41.6751L61.6714 38.9537C62.7209 39.3564 63.8315 39.6371 64.9909 39.7591L65.0031 39.7713ZM61.9521 18.4388C63.3555 17.8774 64.8932 17.5601 66.5164 17.5601C70.5559 17.5601 74.1072 19.5127 76.1453 22.4539C67.7856 23.9794 63.3067 19.9643 61.9521 18.4388ZM41.8277 18.2679L56.3993 35.1216C56.3993 35.1216 56.4359 35.146 56.4481 35.1582C57.461 36.4152 58.7424 37.477 60.2069 38.2702L61.8422 42.8345C61.9033 43.0054 62.0497 43.1396 62.2328 43.1884C62.2816 43.2006 62.3304 43.2128 62.3914 43.2128C62.5257 43.2128 62.6477 43.164 62.7575 43.0786L66.5164 40.0276L70.2752 43.0786C70.385 43.164 70.5071 43.2128 70.6413 43.2128C70.6901 43.2128 70.7389 43.2128 70.8 43.1884C70.983 43.1396 71.1295 43.0054 71.1905 42.8345L72.8258 38.2702C73.5215 37.8919 74.1683 37.4526 74.7785 36.9644C75.8768 37.3916 79.8919 39.1977 81.393 43.042C80.9415 42.9932 80.5143 42.9688 80.136 42.9444H79.9652C78.8424 42.8833 77.5732 42.8101 76.4382 43.103C75.1934 43.4203 73.7533 44.3112 73.5337 45.8001H52.7137C51.3346 43.9085 41.7789 30.9478 35.0179 23.5522L41.8399 18.2557L41.8277 18.2679ZM31.2469 8.54134C31.0028 7.94335 31.5154 7.4918 31.674 7.35756C32.1256 7.01585 32.8334 6.85719 33.3093 7.23552C34.5297 8.18743 37.5441 12.1537 37.5685 12.2025C37.5685 12.2025 37.5807 12.2025 37.5807 12.2147C37.6295 12.2758 37.6906 12.3246 37.7516 12.3612C37.7516 12.3612 37.7516 12.3612 37.7638 12.3612C37.837 12.3978 37.9102 12.41 37.9835 12.4222C37.9835 12.4222 37.9835 12.4222 37.9957 12.4222C37.9957 12.4222 37.9957 12.4222 38.0079 12.4222C38.0079 12.4222 38.0201 12.4222 38.0323 12.4222C38.3252 12.4222 38.5082 12.2391 38.5571 11.9829C38.5571 11.9585 38.5693 11.934 38.5693 11.9096C38.5693 11.9096 38.5693 11.8974 38.5693 11.8852L38.6303 10.6526C38.6669 10.0302 39.155 9.54207 39.7775 9.51766C40.4243 9.49325 40.9978 9.99362 41.0345 10.6282L41.2785 17.2184L34.2002 22.7224L30.8685 18.8903C31.0638 18.8537 31.2469 18.7927 31.4299 18.6951C32.1378 18.3289 32.6747 17.5845 32.8822 16.7302C32.9798 16.7424 33.0775 16.779 33.1751 16.779C33.5656 16.779 33.9684 16.657 34.3467 16.4129C34.6152 17.5845 35.3718 18.3167 35.4206 18.3533C35.5305 18.451 35.6647 18.4998 35.8112 18.4998C35.9698 18.4998 36.1163 18.4388 36.2383 18.3167C36.458 18.0849 36.4336 17.7187 36.2017 17.4991C36.1529 17.4502 35.0545 16.4007 35.5061 14.863C35.6647 14.3016 35.6281 13.667 35.2498 13.0812C35.1521 12.9348 35.0667 12.7883 34.9813 12.6419C34.5786 11.9829 34.127 11.2384 33.3215 10.8235C33.1263 10.7259 32.9066 10.6526 32.6869 10.616C32.394 10.3231 31.5642 9.45664 31.1981 8.55355L31.2469 8.54134ZM31.3323 12.1171C31.5154 11.8608 31.9059 11.7144 32.272 11.7144C32.4673 11.7144 32.6625 11.751 32.8212 11.8364C33.346 12.1049 33.6755 12.6541 34.0294 13.2399C34.127 13.3985 34.2246 13.5572 34.3223 13.7036C34.4931 13.9721 34.5175 14.2528 34.4443 14.5213C34.4443 14.5213 34.4443 14.5213 34.4443 14.5457V14.5701C34.3711 14.8264 34.2124 15.0705 34.005 15.2535C33.6999 15.5342 33.1995 15.7661 32.809 15.4732C32.333 15.1071 32.2232 14.985 31.9913 14.7044C31.8693 14.5701 31.7228 14.3993 31.5032 14.1674C30.9784 13.6182 30.9052 12.7151 31.3445 12.1171H31.3323Z" fill="#333333"/>
<path d="M69.7992 29.4346H63.2213C62.904 29.4346 62.6477 29.6909 62.6477 30.0082C62.6477 32.1439 64.3807 33.8768 66.5164 33.8768C68.6521 33.8768 70.385 32.1439 70.385 30.0082C70.385 29.6909 70.1287 29.4346 69.8114 29.4346H69.7992ZM66.5042 32.7296C65.2105 32.7296 64.1122 31.8143 63.8559 30.5939H69.1646C68.8961 31.8143 67.81 32.7296 66.5164 32.7296H66.5042Z" fill="#333333"/>
<path d="M13.1728 30.5939C13.2338 30.8502 13.4657 31.0454 13.7342 31.0454C14.0026 31.0454 14.2345 30.8624 14.2955 30.5939C14.9423 27.7748 16.8218 25.5659 19.2137 24.8214C19.4578 24.7482 19.6165 24.5285 19.6165 24.2722C19.6165 24.0159 19.4578 23.7963 19.2137 23.7231C16.8218 22.9786 14.9301 20.7697 14.2955 17.9506C14.2345 17.6943 14.0026 17.499 13.7342 17.499C13.4657 17.499 13.2338 17.6821 13.1728 17.9506C12.526 20.7697 10.6465 22.9786 8.25457 23.7231C8.01049 23.7963 7.85184 24.0159 7.85184 24.2722C7.85184 24.5285 8.01049 24.7482 8.25457 24.8214C10.6465 25.5659 12.5382 27.7748 13.1728 30.5939ZM13.7342 19.9398C14.5396 21.8436 15.9065 23.3813 17.5662 24.2722C15.8943 25.1753 14.5396 26.7008 13.7342 28.6046C12.9165 26.7008 11.5618 25.1631 9.90211 24.2722C11.5741 23.3813 12.9287 21.8436 13.7342 19.9398Z" fill="#333333"/>
<path d="M51.0539 56.9545C49.1135 56.3565 47.588 54.5503 47.0632 52.2682C47.0022 52.0119 46.7703 51.8167 46.5018 51.8167C46.2334 51.8167 46.0015 51.9997 45.9405 52.2682C45.4157 54.5625 43.8902 56.3565 41.9498 56.9545C41.7057 57.0277 41.547 57.2474 41.547 57.5037C41.547 57.76 41.7057 57.9797 41.9498 58.0529C43.8902 58.6509 45.4279 60.4571 45.9405 62.7392C46.0015 62.9955 46.2334 63.1908 46.5018 63.1908C46.7703 63.1908 47.0022 63.0077 47.0632 62.7392C47.588 60.4449 49.1135 58.6509 51.0539 58.0529C51.298 57.9797 51.4567 57.76 51.4567 57.5037C51.4567 57.2474 51.298 57.0277 51.0539 56.9545ZM46.4896 60.8354C45.8306 59.3953 44.7933 58.2359 43.5363 57.5037C44.7933 56.7715 45.8306 55.6121 46.4896 54.172C47.1487 55.6121 48.186 56.7715 49.443 57.5037C48.186 58.2359 47.1487 59.3953 46.4896 60.8354Z" fill="#333333"/>
<path d="M5.97241 28.2507C5.65511 28.2507 5.39882 28.507 5.39882 28.8243V30.4841H3.73908C3.42178 30.4841 3.1655 30.7403 3.1655 31.0576C3.1655 31.375 3.42178 31.6312 3.73908 31.6312H5.39882V33.291C5.39882 33.6083 5.65511 33.8646 5.97241 33.8646C6.28972 33.8646 6.546 33.6083 6.546 33.291V31.6312H8.20574C8.52304 31.6312 8.77933 31.375 8.77933 31.0576C8.77933 30.7403 8.52304 30.4841 8.20574 30.4841H6.546V28.8243C6.546 28.507 6.28972 28.2507 5.97241 28.2507Z" fill="#333333"/>
<path d="M59.914 61.7263C58.718 61.7263 57.7417 62.7026 57.7417 63.8986C57.7417 65.0946 58.718 66.0709 59.914 66.0709C61.11 66.0709 62.0863 65.0946 62.0863 63.8986C62.0863 62.7026 61.11 61.7263 59.914 61.7263ZM59.914 64.9116C59.3526 64.9116 58.9011 64.46 58.9011 63.8986C58.9011 63.3372 59.3526 62.8857 59.914 62.8857C60.4754 62.8857 60.9269 63.3372 60.9269 63.8986C60.9269 64.46 60.4754 64.9116 59.914 64.9116Z" fill="#333333"/>
</g>
<defs>
<linearGradient id="paint0_linear_18_851" x1="52.7014" y1="82.3266" x2="72.9967" y2="82.3266" gradientUnits="userSpaceOnUse">
<stop stop-color="#77DBFF"/>
<stop offset="1" stop-color="#3198FF"/>
</linearGradient>
<linearGradient id="paint1_linear_18_851" x1="58.9011" y1="63.8985" x2="60.9391" y2="63.8985" gradientUnits="userSpaceOnUse">
<stop stop-color="#9DFED1"/>
<stop offset="0.69" stop-color="#3DDBBD"/>
<stop offset="1" stop-color="#11CBB4"/>
</linearGradient>
<linearGradient id="paint2_linear_18_851" x1="9.9021" y1="24.2722" x2="17.5662" y2="24.2722" gradientUnits="userSpaceOnUse">
<stop stop-color="#77DBFF"/>
<stop offset="1" stop-color="#3198FF"/>
</linearGradient>
<linearGradient id="paint3_linear_18_851" x1="61.9521" y1="20.1717" x2="76.1453" y2="20.1717" gradientUnits="userSpaceOnUse">
<stop stop-color="#77DBFF"/>
<stop offset="1" stop-color="#3198FF"/>
</linearGradient>
<linearGradient id="paint4_linear_18_851" x1="1.21287" y1="55.2948" x2="35.9088" y2="55.2948" gradientUnits="userSpaceOnUse">
<stop stop-color="#9DFED1"/>
<stop offset="0.69" stop-color="#3DDBBD"/>
<stop offset="1" stop-color="#11CBB4"/>
</linearGradient>
<linearGradient id="paint5_linear_18_851" x1="22.3746" y1="51.4505" x2="26.2188" y2="51.4505" gradientUnits="userSpaceOnUse">
<stop stop-color="#9DFED1"/>
<stop offset="0.69" stop-color="#3DDBBD"/>
<stop offset="1" stop-color="#11CBB4"/>
</linearGradient>
<linearGradient id="paint6_linear_18_851" x1="17.232" y1="63.8546" x2="28.301" y2="63.8546" gradientUnits="userSpaceOnUse">
<stop stop-color="#9DFED1"/>
<stop offset="0.69" stop-color="#3DDBBD"/>
<stop offset="1" stop-color="#11CBB4"/>
</linearGradient>
<linearGradient id="paint7_linear_18_851" x1="11.3544" y1="55.3192" x2="15.7478" y2="55.3192" gradientUnits="userSpaceOnUse">
<stop stop-color="#9DFED1"/>
<stop offset="0.69" stop-color="#3DDBBD"/>
<stop offset="1" stop-color="#11CBB4"/>
</linearGradient>
<linearGradient id="paint8_linear_18_851" x1="43.5363" y1="57.5037" x2="49.4552" y2="57.5037" gradientUnits="userSpaceOnUse">
<stop stop-color="#77DBFF"/>
<stop offset="1" stop-color="#3198FF"/>
</linearGradient>
<clipPath id="clip0_18_851">
<rect width="87.8687" height="84" fill="white" transform="translate(0.0656738 2)"/>
</clipPath>
</defs>
</svg>
