<svg width="88" height="88" viewBox="0 0 88 88" fill="none" xmlns="http://www.w3.org/2000/svg">
<g clip-path="url(#clip0_18_699)">
<path d="M44 88C68.3005 88 88 68.3005 88 44C88 19.6995 68.3005 0 44 0C19.6995 0 0 19.6995 0 44C0 68.3005 19.6995 88 44 88Z" fill="#E6FAF9" fill-opacity="0.6"/>
<path d="M17.1844 53.9122C14.6178 53.13 13.7256 51.2722 13.7622 49.8666C13.7989 48.3144 14.8744 47.0678 16.4267 46.7622C21.6211 45.7478 23.0267 42.1544 23.3567 40.8955C21.7922 40.1866 20.0567 39.7955 18.2722 39.7955C16.61 39.7955 14.9111 40.1133 13.2611 40.7978C7.00334 43.4011 3.87445 50.2211 6.27 56.0022C7.85889 59.84 11.5011 62.26 15.5956 62.7122C17.49 58.96 17.3067 55.11 17.1722 53.9L17.1844 53.9122Z" fill="#333333"/>
<path d="M24.8966 77.0366C22.22 75.5944 20.4355 74.0055 20.2766 73.871C20.02 73.6388 20.0077 73.2477 20.2277 73.0033C20.46 72.7466 20.8511 72.7344 21.0955 72.9544C21.1689 73.0277 28.8322 79.8233 36.2389 77.7821C42.3255 76.0955 44.4155 70.1677 44.9777 68.1144C43.1322 68.0533 38.7689 67.711 36.8377 65.951C36.3366 66.8188 35.4077 68.041 33.8677 68.5544C33.3911 68.7133 32.8777 68.7988 32.3644 68.7988C30.9955 68.7988 29.4922 68.2488 27.8789 67.1488C23.7722 64.3621 21.0589 63.6655 21.0344 63.6533C20.9366 63.6288 20.8511 63.5677 20.7777 63.5066C19.5066 63.861 18.2233 64.0444 16.9644 64.0444C16.6589 64.0444 16.3655 64.0077 16.0722 63.9833C16.0355 63.9833 15.9989 64.0077 15.9622 64.0077C15.9011 64.0077 15.8277 63.9833 15.7666 63.9588C15.1433 63.9099 14.5444 63.8121 13.9455 63.6777C13.3222 64.0077 10.56 65.6333 9.05664 69.3977C7.52886 73.2233 5.98886 83.9299 5.59775 86.7655H23.6989L24.86 77.0855C24.86 77.0855 24.8722 77.0488 24.8844 77.0366H24.8966Z" fill="url(#paint0_linear_18_699)"/>
<path d="M57.0167 11.1833L40.9078 6.8689V24.6278L57.0167 28.9422V11.1833ZM53.7533 23.8456C52.8611 24.53 51.7611 24.8845 50.5633 24.8845C49.9889 24.8845 49.4022 24.7989 48.8033 24.64C47.3611 24.2489 46.0289 23.4178 44.9411 22.33C44.9167 22.3056 44.88 22.3056 44.8556 22.2811C44.7944 22.2322 44.7578 22.1589 44.7211 22.0978C43.1933 20.4722 42.1911 18.3578 42.1911 16.2556C42.1911 14.4589 42.8878 12.9311 44.1589 11.9656C45.4789 10.9511 47.2389 10.67 49.1089 11.1711C49.1333 11.1711 49.1578 11.1956 49.1822 11.1956C49.1822 11.1956 49.1944 11.1956 49.2067 11.1956C51.5411 11.8556 53.5822 13.6645 54.7311 15.84C54.7922 15.9011 54.8411 15.9745 54.8656 16.0722C54.8656 16.0967 54.8656 16.1211 54.8656 16.1456C55.3911 17.2333 55.7089 18.3945 55.7089 19.5556C55.7089 21.3522 55.0122 22.88 53.7411 23.8456H53.7533Z" fill="url(#paint1_linear_18_699)"/>
<path d="M37.6445 34.0512L80.3 45.4789C80.8378 45.6256 81.4 45.5156 81.84 45.1734C82.28 44.8312 82.5367 44.3178 82.5367 43.7678V14.4467C82.5367 13.6401 81.9989 12.9434 81.2167 12.7356L38.5611 1.29561C38.4022 1.25894 38.2556 1.2345 38.0967 1.2345C37.7056 1.2345 37.3389 1.35672 37.0211 1.60116C36.5811 1.94339 36.3245 2.45672 36.3245 3.00672V32.3156C36.3245 33.1223 36.8622 33.8189 37.6445 34.0267V34.0512ZM41.1889 30.2012C40.7611 30.0912 40.4189 29.6512 40.4189 29.2234C40.4189 28.7956 40.7611 28.5389 41.1889 28.6612C41.6167 28.7712 41.9589 29.2112 41.9589 29.6389C41.9589 30.0667 41.6167 30.3234 41.1889 30.2012ZM46.5422 31.6312C46.1145 31.5212 45.7722 31.0812 45.7722 30.6534C45.7722 30.2256 46.1145 29.9689 46.5422 30.0912C46.97 30.2012 47.3122 30.6412 47.3122 31.0689C47.3122 31.4967 46.97 31.7534 46.5422 31.6312ZM51.8834 33.0612C51.4556 32.9512 51.1134 32.5112 51.1134 32.0834C51.1134 31.6556 51.4556 31.3989 51.8834 31.5212C52.3111 31.6312 52.6534 32.0712 52.6534 32.4989C52.6534 32.9267 52.3111 33.1834 51.8834 33.0612ZM57.2245 34.4912C56.7967 34.3812 56.4545 33.9412 56.4545 33.5134C56.4545 33.0856 56.7967 32.8289 57.2245 32.9512C57.6522 33.0612 57.9945 33.5012 57.9945 33.9289C57.9945 34.3567 57.6522 34.6134 57.2245 34.4912ZM62.5656 35.9212C62.1378 35.8112 61.7956 35.3712 61.7956 34.9434C61.7956 34.5156 62.1378 34.2589 62.5656 34.3812C62.9934 34.4912 63.3356 34.9312 63.3356 35.3589C63.3356 35.7867 62.9934 36.0434 62.5656 35.9212ZM79.6767 40.9078C79.6767 41.1034 79.5911 41.2867 79.4322 41.3967C79.3222 41.4823 79.1878 41.5189 79.0533 41.5189C79.0045 41.5189 78.9434 41.5189 78.8945 41.4945L68.4078 38.6834C68.1389 38.6101 67.9434 38.3656 67.9434 38.0845V30.2745C67.9434 30.0789 68.0289 29.8956 68.1878 29.7856C68.3467 29.6634 68.5422 29.6267 68.7256 29.6756L72.27 30.6289C72.3678 30.6534 72.4656 30.7145 72.5511 30.7878L74.1278 32.3645L79.2122 33.7212C79.4811 33.7945 79.6767 34.0389 79.6767 34.3201V40.8834V40.9078ZM61.1234 12.5278C61.2089 12.1978 61.5634 12.0145 61.8811 12.0878L68.7378 13.9212C69.0678 14.0067 69.2634 14.3489 69.1778 14.6789C69.1045 14.9601 68.8478 15.1434 68.5789 15.1434C68.53 15.1434 68.4689 15.1434 68.42 15.1189L61.5634 13.2856C61.2334 13.2001 61.0378 12.8578 61.1234 12.5278ZM61.1234 16.3412C61.2089 16.0112 61.5511 15.8278 61.8811 15.9012L79.2245 20.5456C79.5545 20.6312 79.75 20.9734 79.6645 21.3034C79.5911 21.5845 79.3345 21.7556 79.0656 21.7556C79.0167 21.7556 78.9556 21.7556 78.9067 21.7312L61.5634 17.0867C61.2334 17.0012 61.0378 16.6589 61.1234 16.3289V16.3412ZM61.1234 20.1667C61.2089 19.8367 61.5634 19.6534 61.8811 19.7267L79.2245 24.3712C79.5545 24.4567 79.75 24.7989 79.6645 25.1289C79.5911 25.4101 79.3345 25.5934 79.0656 25.5934C79.0167 25.5934 78.9556 25.5934 78.9067 25.5689L61.5634 20.9245C61.2334 20.8389 61.0378 20.4967 61.1234 20.1667ZM61.1234 23.9801C61.2089 23.6501 61.5511 23.4667 61.8811 23.5401L79.2245 28.1845C79.5545 28.2701 79.75 28.6123 79.6645 28.9423C79.5911 29.2234 79.3345 29.3945 79.0656 29.3945C79.0167 29.3945 78.9556 29.3945 78.9067 29.3701L61.5634 24.7256C61.2334 24.6401 61.0378 24.2978 61.1234 23.9678V23.9801ZM61.1234 27.7323C61.2089 27.4023 61.5634 27.2189 61.8811 27.2923L65.8167 28.3434C66.1467 28.4289 66.3422 28.7712 66.2567 29.1012C66.1834 29.3823 65.9267 29.5656 65.6578 29.5656C65.6089 29.5656 65.5478 29.5656 65.4989 29.5412L61.5634 28.4901C61.2334 28.4045 61.0378 28.0623 61.1234 27.7323ZM39.6734 6.06227C39.6734 5.86672 39.7589 5.68339 39.9178 5.57339C40.0767 5.45116 40.26 5.4145 40.4556 5.46339L57.7989 10.1078C58.0678 10.1812 58.2511 10.4256 58.2511 10.7067V29.7489C58.2511 29.9445 58.1656 30.1278 58.0067 30.2378C57.8967 30.3234 57.7622 30.3601 57.6278 30.3601C57.5789 30.3601 57.5178 30.3601 57.4689 30.3356L40.1256 25.6912C39.8567 25.6178 39.6734 25.3734 39.6734 25.0923V6.06227Z" fill="white"/>
<path d="M48.3511 12.271C48.0211 12.2099 47.6911 12.161 47.3733 12.161C46.4444 12.161 45.6133 12.4299 44.9289 12.9432C43.9755 13.6766 43.45 14.8499 43.45 16.2555C43.45 17.9055 44.1711 19.5677 45.3078 20.9121L48.3633 17.661V12.271H48.3511Z" fill="white"/>
<path d="M49.3044 18.4554L46.1633 21.8043C47.0311 22.5621 48.0333 23.161 49.1211 23.4543C50.6122 23.8576 51.9933 23.6498 52.9956 22.8676C53.9489 22.1343 54.4744 20.961 54.4744 19.5554C54.4744 18.6999 54.2667 17.8321 53.9244 17.0132L49.2922 18.4432L49.3044 18.4554Z" fill="white"/>
<path d="M49.5856 12.6499V17.0621L53.3622 15.8888C52.47 14.4588 51.1378 13.2733 49.5856 12.6377V12.6499Z" fill="url(#paint2_linear_18_699)"/>
<path d="M38.7689 61.2943L41.6655 62.1865C41.8122 61.7221 42.02 61.2821 42.3255 60.891C43.5844 59.2777 45.76 58.8254 46.5544 58.7154L47.6178 57.2365C48.0089 56.6988 48.5711 56.3321 49.17 56.2221L52.3111 51.1132C52.4455 50.8932 52.47 50.6365 52.3844 50.4043C52.2989 50.1721 52.1033 49.9888 51.8711 49.9154L46.3344 48.2165C45.98 48.1065 45.6011 48.2532 45.4055 48.571L38.3289 60.0843C38.1944 60.3043 38.17 60.561 38.2555 60.7932C38.3411 61.0254 38.5366 61.2088 38.7811 61.2821L38.7689 61.2943Z" fill="url(#paint3_linear_18_699)"/>
<path d="M16.6711 47.9844C15.6811 48.18 15.0211 48.9255 15.0089 49.9033C14.9844 50.9177 15.73 52.2988 17.9055 52.8244C18.15 52.8855 18.3211 53.0811 18.37 53.3255C18.4067 53.5333 19.1522 58.0922 16.9767 62.7977C18.6389 62.7977 20.3378 62.48 22 61.7955C26.62 59.8766 29.5411 55.6477 29.7733 51.2355C29.2722 51.4066 28.7711 51.5044 28.2578 51.5044C27.6344 51.5044 27.0233 51.3822 26.4367 51.1377C26.1189 51.0033 25.9722 50.6488 26.1067 50.3311C26.2411 50.0133 26.5955 49.8666 26.9133 50.0011C27.7811 50.3555 28.7467 50.3677 29.6267 50.0011C29.6755 49.9766 29.7244 49.9766 29.7855 49.9644C29.7122 48.8277 29.4555 47.6911 29.0033 46.5911C28.0867 44.3788 26.4733 42.6433 24.5055 41.4822C23.9555 43.1811 22.1589 46.9211 16.7078 47.9844H16.6711ZM24.6033 45.32C25.1655 45.0877 25.8378 45.43 26.1067 46.09C26.3755 46.75 26.1433 47.4588 25.5933 47.6911C25.0311 47.9233 24.3589 47.5811 24.09 46.9211C23.8211 46.2611 24.0533 45.5522 24.6033 45.32Z" fill="white"/>
<path d="M45.43 66.88L50.2455 58.96C50.4411 58.4833 50.3311 57.86 49.9522 57.5789C49.7566 57.4322 49.5489 57.4322 49.4022 57.4444C49.1089 57.4933 48.8278 57.6767 48.62 57.97L47.3978 59.6689C47.2878 59.8155 47.1289 59.9133 46.9455 59.9255C46.9211 59.9255 44.4889 60.1333 43.3033 61.6611C42.7289 62.4067 42.5333 63.3722 42.7411 64.5333C42.8022 64.8633 42.57 65.1933 42.24 65.2422C41.91 65.2911 41.58 65.0711 41.5311 64.7411C41.4455 64.2767 41.4333 63.8367 41.4578 63.4089L38.4266 62.48C38.2555 62.4311 38.1089 62.3578 37.9622 62.26C37.62 63.0544 37.4489 64.0811 37.3878 64.6433C38.4022 66.22 42.6922 66.8311 45.4544 66.88H45.43Z" fill="white"/>
<path d="M73.3822 33.3666L71.8055 31.7899L69.19 31.0933V37.6199L78.4422 40.101V34.8088L73.6633 33.5255C73.5533 33.501 73.4678 33.4399 73.3822 33.3666Z" fill="url(#paint4_linear_18_699)"/>
<path d="M76.4622 60.4756V58.7034L74.6411 58.2145V59.9867L76.4622 60.4756Z" fill="white"/>
<path d="M77.6967 61.2821C77.6967 61.4777 77.6111 61.661 77.4522 61.771C77.3422 61.8566 77.2078 61.8932 77.0733 61.8932C77.0244 61.8932 76.9633 61.8932 76.9144 61.8688L74.6411 61.2577V63.8732L80.3489 65.401V59.7299L77.6967 59.021V61.2699V61.2821Z" fill="white"/>
<path d="M76.4622 54.8044L70.7544 53.2766V58.9355L73.4066 59.6444V57.3955C73.4066 57.1999 73.4922 57.0166 73.6511 56.9066C73.81 56.7844 74.0055 56.7477 74.1889 56.7966L76.4622 57.4077V54.7922V54.8044Z" fill="white"/>
<path d="M77.2445 53.7411L70.3022 51.8833C70.1189 51.8344 69.9234 51.8833 69.7645 51.9933C69.6178 52.1156 69.52 52.2867 69.52 52.4822V59.4244C69.52 59.7056 69.7033 59.95 69.9845 60.0233L73.4189 60.94V64.3622C73.4189 64.6433 73.6022 64.8878 73.8834 64.9611L80.8256 66.8189C80.8256 66.8189 80.9356 66.8433 80.9845 66.8433C81.1189 66.8433 81.2534 66.7944 81.3634 66.7211C81.51 66.5989 81.6078 66.4278 81.6078 66.2322V59.29C81.6078 59.0089 81.4245 58.7644 81.1434 58.6911L77.7089 57.7744V54.3522C77.7089 54.0711 77.5256 53.8267 77.2445 53.7533V53.7411ZM73.6511 56.9189C73.5045 57.0411 73.4067 57.2122 73.4067 57.4078V59.6567L70.7545 58.9478V53.2889L76.4622 54.8167V57.4322L74.1889 56.8211C74.0056 56.7722 73.81 56.8211 73.6511 56.9311V56.9189ZM76.4622 58.7033V60.4756L74.6534 59.9867V58.2144L76.4622 58.7033ZM80.3611 59.7422V65.4133L74.6534 63.8856V61.27L76.9267 61.8811C76.9267 61.8811 77.0367 61.9056 77.0856 61.9056C77.22 61.9056 77.3545 61.8567 77.4645 61.7833C77.6111 61.6611 77.7089 61.49 77.7089 61.2944V59.0456L80.3611 59.7544V59.7422Z" fill="#333333"/>
<path d="M24.8722 87.4501L26.0578 77.6112C28.16 78.6012 30.6533 79.3956 33.2933 79.3956C34.3689 79.3956 35.4811 79.2612 36.5811 78.9556C44.33 76.8045 46.1389 68.7745 46.3466 67.7112L51.3211 59.4978C51.7733 58.3978 51.5044 57.1878 50.6611 56.5645C50.6 56.5156 50.5266 56.4789 50.4533 56.4423L53.3378 51.7612C53.6678 51.2234 53.7289 50.5634 53.5089 49.9645C53.2889 49.3656 52.8 48.9134 52.2011 48.73L46.6644 47.0312C45.7722 46.75 44.8066 47.1167 44.3178 47.9112L37.2411 59.4123C36.9111 59.9501 36.85 60.5978 37.07 61.1845C36.3611 62.3945 36.1411 64.2156 36.1044 64.5945C35.9944 64.8756 35.2244 66.7578 33.4766 67.3323C32.12 67.7845 30.47 67.3567 28.5755 66.0734C25.9111 64.2645 23.8211 63.3112 22.5866 62.8223C29.37 59.9134 32.7433 52.4456 30.1033 46.0656C28.9789 43.3523 26.9255 41.2745 24.42 39.9912C24.3955 39.9789 24.3711 39.9545 24.3344 39.9423C20.9366 38.2312 16.72 37.9745 12.7844 39.6123C5.90331 42.4723 2.46887 50.0134 5.13331 56.43C6.48998 59.6812 9.16664 62.0034 12.3566 63.1523C11.0978 64.0445 9.1422 65.8167 7.90776 68.8723C6.08664 73.4312 4.35109 86.68 4.27776 87.2423C4.25331 87.4134 4.31442 87.5967 4.42442 87.7312C4.54664 87.8656 4.71776 87.9389 4.88887 87.9389H24.2489C24.5666 87.9389 24.8233 87.7067 24.86 87.3889L24.8722 87.4501ZM38.3166 60.0967L45.3933 48.5834C45.5889 48.2656 45.9678 48.1312 46.3222 48.2289L51.8589 49.9278C52.1033 50.0012 52.2866 50.1845 52.3722 50.4167C52.4578 50.6489 52.4333 50.9178 52.2989 51.1256L49.1578 56.2345C48.5589 56.3323 47.9966 56.6989 47.6055 57.2489L46.5422 58.7278C45.7478 58.8378 43.5722 59.2901 42.3133 60.9034C42.0078 61.2945 41.8122 61.7345 41.6533 62.1989L38.7566 61.3067C38.5122 61.2334 38.3289 61.05 38.2311 60.8178C38.1455 60.5856 38.17 60.3289 38.3044 60.1089L38.3166 60.0967ZM37.9378 62.26C38.0844 62.3456 38.2433 62.4189 38.4022 62.48L41.4333 63.4089C41.4089 63.8367 41.4333 64.2767 41.5066 64.7412C41.5678 65.0712 41.8855 65.3034 42.2155 65.2423C42.5578 65.1812 42.7778 64.8634 42.7166 64.5334C42.5211 63.3723 42.7166 62.4067 43.2789 61.6612C44.4644 60.1334 46.8966 59.9256 46.9211 59.9256C47.1044 59.9134 47.2633 59.8156 47.3733 59.6689L48.5955 57.9701C48.8033 57.6767 49.0844 57.4934 49.3778 57.4445C49.5244 57.42 49.7322 57.4323 49.9278 57.5789C50.3066 57.8601 50.4166 58.4834 50.2211 58.9601L45.4055 66.8801C42.6311 66.8434 38.3533 66.22 37.3389 64.6434C37.4 64.0812 37.5833 63.0545 37.9133 62.26H37.9378ZM24.4689 41.4823C26.4366 42.6434 28.05 44.3789 28.9666 46.5912C29.4189 47.6912 29.6755 48.8278 29.7489 49.9645C29.7 49.9645 29.6389 49.9645 29.59 50.0012C28.71 50.3678 27.7444 50.3678 26.8766 50.0012C26.5589 49.8667 26.1922 50.0256 26.07 50.3312C25.9355 50.6489 26.0944 51.0034 26.4 51.1378C26.9866 51.3823 27.61 51.5045 28.2211 51.5045C28.7344 51.5045 29.2355 51.3945 29.7366 51.2356C29.5044 55.6478 26.5955 59.8767 21.9633 61.7956C20.3133 62.4801 18.6022 62.7978 16.94 62.7978C19.1155 58.0923 18.37 53.5212 18.3333 53.3256C18.2966 53.0812 18.1133 52.8856 17.8689 52.8245C15.6933 52.2989 14.9478 50.9178 14.9722 49.9034C14.9966 48.9378 15.6444 48.18 16.6344 47.9845C22.0978 46.9212 23.8944 43.1812 24.4322 41.4823H24.4689ZM6.26998 56.0145C3.8622 50.2334 7.00331 43.4134 13.2611 40.81C14.9111 40.1256 16.61 39.8078 18.2722 39.8078C20.0689 39.8078 21.8044 40.1989 23.3566 40.9078C23.0144 42.1667 21.6089 45.7601 16.4266 46.7745C14.8622 47.0801 13.7989 48.3267 13.7622 49.8789C13.7255 51.2845 14.6178 53.13 17.1844 53.9245C17.3066 55.1345 17.49 58.9723 15.6078 62.7367C11.5133 62.2967 7.87109 59.8767 6.2822 56.0267L6.26998 56.0145ZM5.60998 86.7656C6.00109 83.93 7.52887 73.2234 9.06887 69.3978C10.5722 65.6334 13.3466 64.0078 13.9578 63.6778C14.5566 63.8123 15.1555 63.9101 15.7789 63.9589C15.84 63.9834 15.9011 64.0078 15.9744 64.0078C16.0111 64.0078 16.0478 63.9834 16.0844 63.9834C16.3778 64.0078 16.6711 64.0445 16.9766 64.0445C18.2355 64.0445 19.5189 63.8612 20.79 63.5067C20.8633 63.5678 20.9489 63.6289 21.0466 63.6534C21.0711 63.6534 23.7966 64.3623 27.8911 67.1489C29.5044 68.2489 31.0078 68.7989 32.3766 68.7989C32.9022 68.7989 33.4033 68.7134 33.88 68.5545C35.42 68.0412 36.3611 66.8189 36.85 65.9512C38.7811 67.7112 43.1444 68.0534 44.99 68.1145C44.44 70.1678 42.3378 76.0956 36.2511 77.7823C28.8444 79.8356 21.1811 73.0278 21.1078 72.9545C20.8511 72.7345 20.46 72.7467 20.24 73.0034C20.0078 73.26 20.0322 73.6512 20.2889 73.8712C20.4478 74.0056 22.2322 75.5945 24.9089 77.0367C24.9089 77.0612 24.8966 77.0734 24.8844 77.0856L23.7233 86.7656H5.60998Z" fill="#333333"/>
<path d="M25.5933 47.6911C26.1555 47.4589 26.3878 46.7378 26.1067 46.09C25.8378 45.43 25.1655 45.0878 24.6033 45.32C24.0411 45.5522 23.8089 46.2733 24.09 46.9211C24.3589 47.5811 25.0311 47.9233 25.5933 47.6911Z" fill="#333333"/>
<path d="M37.3266 35.2366L79.9822 46.6643C80.2389 46.7377 80.5078 46.7621 80.7766 46.7621C81.4244 46.7621 82.0722 46.5543 82.5978 46.1388C83.3433 45.5643 83.7833 44.6966 83.7833 43.7432V14.4466C83.7833 13.0899 82.8666 11.8921 81.5466 11.5377L38.8789 0.109906C37.9622 -0.134539 37.0089 0.0487946 36.2633 0.623239C35.5178 1.19768 35.0778 2.06546 35.0778 3.01879V32.3277C35.0778 33.6844 35.9944 34.8821 37.3144 35.2366H37.3266ZM36.3244 3.01879C36.3244 2.45657 36.5811 1.94324 37.0211 1.61324C37.3389 1.36879 37.7178 1.24657 38.0966 1.24657C38.2555 1.24657 38.4022 1.27102 38.5611 1.30768L81.2166 12.7355C81.9866 12.9432 82.5366 13.6521 82.5366 14.4466V43.7555C82.5366 44.3177 82.28 44.831 81.84 45.161C81.4 45.5032 80.8378 45.6132 80.3 45.4666L37.6444 34.0388C36.8744 33.831 36.3244 33.1221 36.3244 32.3277V3.01879Z" fill="#333333"/>
<path d="M55.7089 46.7011C55.8066 46.9334 56.0389 47.08 56.2833 47.08C56.3689 47.08 56.4422 47.0678 56.5155 47.0311C56.8333 46.8967 56.98 46.5422 56.8455 46.2245C55.2322 42.35 50.7711 40.5045 46.8844 42.1056C46.5666 42.24 46.42 42.5945 46.5544 42.9122C46.6889 43.23 47.0555 43.3767 47.3611 43.2422C50.6122 41.8978 54.3522 43.4378 55.7089 46.6889V46.7011Z" fill="#333333"/>
<path d="M51.2478 45.0266C50.4289 44.6844 49.5366 44.6966 48.73 45.0266C48.4122 45.1611 48.2655 45.5155 48.4 45.8333C48.5344 46.1511 48.8889 46.2978 49.2066 46.1633C49.7078 45.9555 50.27 45.9555 50.7711 46.1633C51.2722 46.3711 51.6755 46.7622 51.8833 47.2755C51.9811 47.5078 52.2133 47.6544 52.4578 47.6544C52.5433 47.6544 52.6166 47.6422 52.69 47.6055C53.0078 47.4711 53.1544 47.1166 53.02 46.7989C52.6778 45.9922 52.0544 45.3566 51.2355 45.0144L51.2478 45.0266Z" fill="#333333"/>
<path d="M40.1378 25.7033L57.4811 30.3477C57.4811 30.3477 57.5911 30.3722 57.64 30.3722C57.7744 30.3722 57.9089 30.3233 58.0189 30.2499C58.1655 30.1277 58.2633 29.9566 58.2633 29.761V10.7188C58.2633 10.4377 58.08 10.1933 57.8111 10.1199L40.4678 5.47549C40.2722 5.4266 40.0889 5.47549 39.93 5.58549C39.7833 5.70772 39.6855 5.87883 39.6855 6.07438V25.1166C39.6855 25.3977 39.8689 25.6422 40.1378 25.7155V25.7033ZM40.9078 6.86883L57.0167 11.1833V28.9422L40.9078 24.6277V6.86883Z" fill="#333333"/>
<path d="M79.2122 33.7454L74.1278 32.3887L72.5511 30.8121C72.4778 30.7387 72.38 30.6776 72.27 30.6532L68.7256 29.6999C68.5422 29.651 68.3467 29.6999 68.1878 29.8099C68.0411 29.9321 67.9433 30.1032 67.9433 30.2987V38.1087C67.9433 38.3899 68.1267 38.6343 68.4078 38.7076L78.8944 41.5188C78.8944 41.5188 79.0044 41.5432 79.0533 41.5432C79.1878 41.5432 79.3222 41.4943 79.4322 41.421C79.5789 41.2987 79.6767 41.1276 79.6767 40.9321V34.3687C79.6767 34.0876 79.4933 33.8432 79.2122 33.7699V33.7454ZM78.4422 40.101L69.19 37.6199V31.0932L71.8056 31.7899L73.3822 33.3665C73.4556 33.4399 73.5533 33.501 73.6633 33.5254L78.4422 34.8087V40.101Z" fill="#333333"/>
<path d="M54.8655 16.0844C54.8411 15.9989 54.7922 15.9255 54.7311 15.8522C53.5822 13.6767 51.5533 11.8678 49.2067 11.2078C49.2067 11.2078 49.1944 11.2078 49.1822 11.2078C49.1578 11.2078 49.1333 11.1833 49.1089 11.1833C47.2389 10.6822 45.4789 10.9633 44.1589 11.9778C42.8878 12.9555 42.1911 14.4711 42.1911 16.2678C42.1911 18.37 43.1933 20.4844 44.7211 22.11C44.7578 22.1711 44.7944 22.2444 44.8555 22.2933C44.88 22.3178 44.9167 22.33 44.9411 22.3422C46.0289 23.43 47.3489 24.2611 48.8033 24.6522C49.4022 24.8111 50.0011 24.8967 50.5633 24.8967C51.7611 24.8967 52.8489 24.5422 53.7533 23.8578C55.0244 22.88 55.7211 21.3644 55.7211 19.5678C55.7211 18.4067 55.3911 17.2455 54.8778 16.1578C54.8778 16.1333 54.8778 16.1089 54.8778 16.0844H54.8655ZM49.5855 12.65C51.1255 13.2733 52.47 14.4589 53.3622 15.9011L49.5855 17.0744V12.6622V12.65ZM43.4378 16.2678C43.4378 14.8622 43.9633 13.6889 44.9167 12.9555C45.5889 12.4422 46.4322 12.1733 47.3611 12.1733C47.6789 12.1733 48.0089 12.2222 48.3389 12.2833V17.6733L45.2833 20.9244C44.1467 19.58 43.4255 17.9178 43.4255 16.2678H43.4378ZM53.0078 22.8678C51.9933 23.6378 50.6244 23.8578 49.1333 23.4544C48.0455 23.1611 47.0311 22.5744 46.1755 21.8044L49.3167 18.4555L53.9489 17.0255C54.2911 17.8444 54.4989 18.7122 54.4989 19.5678C54.4989 20.9733 53.9733 22.1467 53.02 22.88L53.0078 22.8678Z" fill="#333333"/>
<path d="M61.5511 13.2855L68.4078 15.1188C68.4078 15.1188 68.5177 15.1433 68.5666 15.1433C68.8355 15.1433 69.0922 14.9599 69.1655 14.6788C69.2511 14.3488 69.0555 14.0066 68.7255 13.921L61.8689 12.0877C61.5511 12.0022 61.1966 12.1977 61.1111 12.5277C61.0255 12.8577 61.2211 13.1999 61.5511 13.2855Z" fill="#333333"/>
<path d="M61.5511 17.0988L78.8944 21.7433C78.8944 21.7433 79.0044 21.7677 79.0533 21.7677C79.3222 21.7677 79.5789 21.5844 79.6522 21.3155C79.7377 20.9855 79.5422 20.6433 79.2122 20.5577L61.8689 15.9133C61.5389 15.8277 61.1966 16.0233 61.1111 16.3533C61.0255 16.6833 61.2211 17.0255 61.5511 17.111V17.0988Z" fill="#333333"/>
<path d="M61.5511 20.9244L78.8944 25.5688C78.8944 25.5688 79.0044 25.5933 79.0533 25.5933C79.3222 25.5933 79.5789 25.41 79.6522 25.1288C79.7377 24.7988 79.5422 24.4566 79.2122 24.3711L61.8689 19.7266C61.5511 19.6411 61.1966 19.8366 61.1111 20.1666C61.0255 20.4966 61.2211 20.8388 61.5511 20.9244Z" fill="#333333"/>
<path d="M61.5511 24.7377L78.8944 29.3822C78.8944 29.3822 79.0044 29.4066 79.0533 29.4066C79.3222 29.4066 79.5789 29.2233 79.6522 28.9544C79.7377 28.6244 79.5422 28.2822 79.2122 28.1966L61.8689 23.5522C61.5389 23.4666 61.1966 23.6622 61.1111 23.9922C61.0255 24.3222 61.2211 24.6644 61.5511 24.75V24.7377Z" fill="#333333"/>
<path d="M61.5511 28.4901L65.4866 29.5412C65.4866 29.5412 65.5966 29.5656 65.6455 29.5656C65.9144 29.5656 66.1711 29.3823 66.2444 29.1012C66.33 28.7712 66.1344 28.429 65.8044 28.3434L61.8689 27.2923C61.5511 27.2067 61.1966 27.4023 61.1111 27.7323C61.0255 28.0623 61.2211 28.4045 61.5511 28.4901Z" fill="#333333"/>
<path d="M41.1889 28.6488C40.7611 28.5388 40.4189 28.7833 40.4189 29.2111C40.4189 29.6388 40.7611 30.0788 41.1889 30.1888C41.6167 30.2988 41.9589 30.0544 41.9589 29.6266C41.9589 29.1988 41.6167 28.7588 41.1889 28.6488Z" fill="#333333"/>
<path d="M46.5422 30.0789C46.1144 29.9689 45.7722 30.2133 45.7722 30.6411C45.7722 31.0689 46.1144 31.5089 46.5422 31.6189C46.97 31.7289 47.3122 31.4844 47.3122 31.0567C47.3122 30.6289 46.97 30.1889 46.5422 30.0789Z" fill="#333333"/>
<path d="M51.8833 31.5088C51.4556 31.3988 51.1133 31.6433 51.1133 32.071C51.1133 32.4988 51.4556 32.9388 51.8833 33.0488C52.3111 33.1588 52.6533 32.9144 52.6533 32.4866C52.6533 32.0588 52.3111 31.6188 51.8833 31.5088Z" fill="#333333"/>
<path d="M57.2244 32.9389C56.7967 32.8289 56.4544 33.0733 56.4544 33.5011C56.4544 33.9289 56.7967 34.3689 57.2244 34.4789C57.6522 34.5889 57.9944 34.3444 57.9944 33.9167C57.9944 33.4889 57.6522 33.0489 57.2244 32.9389Z" fill="#333333"/>
<path d="M62.5656 34.3811C62.1378 34.2711 61.7956 34.5156 61.7956 34.9434C61.7956 35.3711 62.1378 35.8111 62.5656 35.9211C62.9933 36.0311 63.3356 35.7867 63.3356 35.3589C63.3356 34.9311 62.9933 34.4911 62.5656 34.3811Z" fill="#333333"/>
<path d="M16.3533 34.98C16.6955 34.98 16.9766 34.6989 16.9766 34.3567V33.7333C16.9766 33.3911 16.6955 33.11 16.3533 33.11C16.0111 33.11 15.73 33.3911 15.73 33.7333V34.3567C15.73 34.6989 16.0111 34.98 16.3533 34.98Z" fill="#333333"/>
<path d="M16.3533 26.4978C16.6955 26.4978 16.9766 26.2167 16.9766 25.8745V24.75C16.9766 24.4078 16.6955 24.1267 16.3533 24.1267C16.0111 24.1267 15.73 24.4078 15.73 24.75V25.8745C15.73 26.2167 16.0111 26.4978 16.3533 26.4978Z" fill="#333333"/>
<path d="M16.3533 30.9955C16.6955 30.9955 16.9766 30.7144 16.9766 30.3722V29.2477C16.9766 28.9055 16.6955 28.6244 16.3533 28.6244C16.0111 28.6244 15.73 28.9055 15.73 29.2477V30.3722C15.73 30.7144 16.0111 30.9955 16.3533 30.9955Z" fill="#333333"/>
<path d="M16.3533 21.9999C16.6955 21.9999 16.9766 21.7188 16.9766 21.3766V20.2521C16.9766 19.9099 16.6955 19.6288 16.3533 19.6288C16.0111 19.6288 15.73 19.9099 15.73 20.2521V21.3766C15.73 21.7188 16.0111 21.9999 16.3533 21.9999Z" fill="#333333"/>
<path d="M16.3533 17.5022C16.6955 17.5022 16.9766 17.2211 16.9766 16.8789V15.7544C16.9766 15.4122 16.6955 15.1311 16.3533 15.1311C16.0111 15.1311 15.73 15.4122 15.73 15.7544V16.8789C15.73 17.2211 16.0111 17.5022 16.3533 17.5022Z" fill="#333333"/>
<path d="M16.3533 13.0045C16.6344 13.0045 16.8789 12.8089 16.9522 12.5523C17.2211 12.5523 17.4778 12.3689 17.5511 12.1C17.6366 11.77 17.4411 11.4278 17.1111 11.3423L16.5122 11.1834C16.3289 11.1345 16.1211 11.1834 15.9744 11.2934C15.8155 11.4156 15.73 11.5867 15.73 11.7823V12.4056C15.73 12.7478 16.0111 13.0289 16.3533 13.0289V13.0045Z" fill="#333333"/>
<path d="M20.68 13.5666L21.9756 13.9088C21.9756 13.9088 22.0856 13.9333 22.1345 13.9333C22.4034 13.9333 22.66 13.7499 22.7334 13.481C22.8189 13.151 22.6234 12.8088 22.2934 12.7233L20.9978 12.381C20.6678 12.2955 20.3256 12.491 20.24 12.821C20.1545 13.151 20.35 13.4933 20.68 13.5788V13.5666Z" fill="#333333"/>
<path d="M25.8622 14.9477L27.1578 15.2899C27.1578 15.2899 27.2678 15.3144 27.3167 15.3144C27.5855 15.3144 27.8422 15.131 27.9155 14.8621C28.0011 14.5321 27.8055 14.1899 27.4755 14.1044L26.18 13.7621C25.85 13.6766 25.5078 13.8721 25.4222 14.2021C25.3367 14.5321 25.5322 14.8744 25.8622 14.9599V14.9477Z" fill="#333333"/>
<path d="M31.0444 16.3411L31.6433 16.5C31.6433 16.5 31.7533 16.5245 31.8022 16.5245C32.0711 16.5245 32.3278 16.3411 32.4011 16.0722C32.4867 15.7422 32.2911 15.4 31.9611 15.3145L31.3622 15.1556C31.0322 15.07 30.69 15.2656 30.6044 15.5956C30.5189 15.9256 30.7144 16.2678 31.0444 16.3534V16.3411Z" fill="#333333"/>
<path d="M72.9177 66.2199C72.9177 65.8777 72.6366 65.5966 72.2944 65.5966C71.9522 65.5966 71.6711 65.8777 71.6711 66.2199V66.8432C71.6711 67.1854 71.9522 67.4666 72.2944 67.4666C72.6366 67.4666 72.9177 67.1854 72.9177 66.8432V66.2199Z" fill="#333333"/>
<path d="M72.9177 71.3779C72.9177 71.0356 72.6366 70.7545 72.2944 70.7545C71.9522 70.7545 71.6711 71.0356 71.6711 71.3779V72.8934C71.6711 73.2356 71.9522 73.5167 72.2944 73.5167C72.6366 73.5167 72.9177 73.2356 72.9177 72.8934V71.3779Z" fill="#333333"/>
<path d="M72.3067 76.8044C72.0256 76.8044 71.7811 77 71.7078 77.2689C71.4389 77.2689 71.1822 77.4522 71.1089 77.7333C71.0233 78.0633 71.2189 78.4056 71.5489 78.4911L72.1478 78.65C72.1478 78.65 72.2578 78.6744 72.3067 78.6744C72.4411 78.6744 72.5756 78.6256 72.6856 78.5522C72.8322 78.43 72.93 78.2589 72.93 78.0633V77.44C72.93 77.0978 72.6489 76.8167 72.3067 76.8167V76.8044Z" fill="#333333"/>
<path d="M67.5522 77.4155C67.5522 77.4155 67.6622 77.44 67.7111 77.44C67.98 77.44 68.2366 77.2567 68.31 76.9878C68.3955 76.6578 68.2 76.3155 67.87 76.23L66.5377 75.8755C66.2077 75.8022 65.8655 75.9855 65.78 76.3155C65.6944 76.6455 65.89 76.9878 66.22 77.0733L67.5522 77.4278V77.4155Z" fill="#333333"/>
<path d="M55.1222 73.4432C55.0366 73.7732 55.2322 74.1154 55.5622 74.201L56.8944 74.5554C56.8944 74.5554 57.0044 74.5799 57.0533 74.5799C57.3222 74.5799 57.5789 74.3966 57.6522 74.1277C57.7377 73.7977 57.5422 73.4554 57.2122 73.3699L55.88 73.0154C55.55 72.9299 55.2077 73.1254 55.1222 73.4554V73.4432Z" fill="#333333"/>
<path d="M62.5411 74.7877L61.2089 74.4333C60.8789 74.3477 60.5367 74.5433 60.4511 74.8733C60.3656 75.2033 60.5611 75.5455 60.8911 75.6311L62.2233 75.9855C62.2233 75.9855 62.3333 76.01 62.3822 76.01C62.6511 76.01 62.9078 75.8266 62.9811 75.5577C63.0667 75.2277 62.8711 74.8855 62.5411 74.8V74.7877Z" fill="#333333"/>
<path d="M51.5655 73.1254C51.5655 73.1254 51.6755 73.1498 51.7244 73.1498C51.9933 73.1498 52.25 72.9665 52.3233 72.6854C52.4089 72.3554 52.2133 72.0132 51.8833 71.9276L51.2844 71.7687C50.9544 71.6832 50.6122 71.8787 50.5266 72.2087C50.4411 72.5387 50.6366 72.881 50.9666 72.9665L51.5655 73.1254Z" fill="#333333"/>
</g>
<defs>
<linearGradient id="paint0_linear_18_699" x1="5.60997" y1="75.1299" x2="45.0022" y2="75.1299" gradientUnits="userSpaceOnUse">
<stop stop-color="#9DFED1"/>
<stop offset="0.69" stop-color="#3DDBBD"/>
<stop offset="1" stop-color="#11CBB4"/>
</linearGradient>
<linearGradient id="paint1_linear_18_699" x1="40.9078" y1="17.9056" x2="57.0167" y2="17.9056" gradientUnits="userSpaceOnUse">
<stop stop-color="#FFDB51"/>
<stop offset="1" stop-color="#FFB951"/>
</linearGradient>
<linearGradient id="paint2_linear_18_699" x1="49.5856" y1="14.8621" x2="53.3622" y2="14.8621" gradientUnits="userSpaceOnUse">
<stop stop-color="#9DFED1"/>
<stop offset="0.69" stop-color="#3DDBBD"/>
<stop offset="1" stop-color="#11CBB4"/>
</linearGradient>
<linearGradient id="paint3_linear_18_699" x1="38.1944" y1="55.1954" x2="52.4333" y2="55.1954" gradientUnits="userSpaceOnUse">
<stop stop-color="#9DFED1"/>
<stop offset="0.69" stop-color="#3DDBBD"/>
<stop offset="1" stop-color="#11CBB4"/>
</linearGradient>
<linearGradient id="paint4_linear_18_699" x1="69.19" y1="35.6033" x2="78.4422" y2="35.6033" gradientUnits="userSpaceOnUse">
<stop stop-color="#FFDB51"/>
<stop offset="1" stop-color="#FFB951"/>
</linearGradient>
<clipPath id="clip0_18_699">
<rect width="88" height="88" fill="white"/>
</clipPath>
</defs>
</svg>
