<svg width="88" height="88" viewBox="0 0 88 88" fill="none" xmlns="http://www.w3.org/2000/svg">
<path d="M44.0045 79.2302C65.6071 79.2302 83.1195 61.7177 83.1195 40.1151C83.1195 18.5124 65.6071 1 44.0045 1C22.4018 1 4.88938 18.5124 4.88938 40.1151C4.88938 61.7177 22.4018 79.2302 44.0045 79.2302Z" fill="#E6FAF9" fill-opacity="0.6"/>
<path d="M54.2966 18.0884C54.4433 17.9295 54.59 17.7706 54.7489 17.6117C54.9078 17.4528 55.0667 17.3061 55.2256 17.1595C54.7733 15.8882 53.991 14.238 52.6342 12.8812C50.764 11.011 48.2949 10.1921 47.0114 9.87427C47.3292 11.1455 48.1482 13.6269 50.0184 15.4971C51.3752 16.8539 53.0254 17.6362 54.2966 18.0884Z" fill="url(#paint0_linear_18_885)"/>
<path d="M17.4673 45.8845C17.4429 45.9945 17.4307 46.1168 17.4307 46.2757C17.4307 46.9235 17.6873 47.2169 18.0296 47.6203C18.4208 48.0847 18.9097 48.647 18.9097 49.7349C18.9097 50.8228 18.4208 51.3851 18.0296 51.8496C17.6873 52.2529 17.4307 52.5463 17.4307 53.1942C17.4307 53.842 17.6873 54.1354 18.0296 54.5387C18.4208 55.0032 18.9097 55.5655 18.9097 56.6534C18.9097 57.7413 18.4208 58.3036 18.0296 58.768C17.6873 59.1714 17.4307 59.4648 17.4307 60.1126C17.4307 60.2593 17.4429 60.3938 17.4673 60.5038C19.4842 58.7069 20.7677 56.1033 20.7677 53.1942C20.7677 50.285 19.4842 47.6691 17.4673 45.8845Z" fill="url(#paint1_linear_18_885)"/>
<path d="M17.724 56.6534C17.724 56.0056 17.4673 55.7122 17.1251 55.3088C16.7339 54.8443 16.245 54.2821 16.245 53.1942C16.245 52.1063 16.7339 51.544 17.1251 51.0795C17.4673 50.6761 17.724 50.3828 17.724 49.7349C17.724 49.0871 17.4673 48.7937 17.1251 48.3904C16.7339 47.9259 16.245 47.3636 16.245 46.2757C16.245 45.8479 16.3428 45.4812 16.5017 45.1267C15.2549 44.2711 13.8003 43.6966 12.2357 43.501C12.1257 44.2711 11.7468 44.7478 11.4167 45.1267C11.0745 45.5178 10.8422 45.8112 10.8422 46.4346C10.8422 47.058 11.0867 47.3514 11.4289 47.7425C11.8079 48.1948 12.2968 48.7571 12.2968 49.8205C12.2968 50.8839 11.8201 51.4462 11.4289 51.8985C11.0867 52.2896 10.8422 52.583 10.8422 53.2064C10.8422 53.8298 11.0867 54.1232 11.4289 54.5143C11.8079 54.9666 12.2968 55.5289 12.2968 56.5923C12.2968 57.6557 11.8201 58.218 11.4289 58.6703C11.0867 59.0614 10.8422 59.3548 10.8422 59.9782C10.8422 60.6016 11.0867 60.895 11.4289 61.2861C11.7468 61.665 12.1257 62.1418 12.2357 62.9118C13.8003 62.704 15.2427 62.1418 16.4895 61.2983C16.355 61.005 16.245 60.626 16.245 60.1249C16.245 59.037 16.7339 58.4747 17.1251 58.0102C17.4673 57.6069 17.724 57.3135 17.724 56.6656V56.6534Z" fill="url(#paint2_linear_18_885)"/>
<path d="M36.0348 5.40039C35.5947 6.21936 34.9835 6.90388 34.2624 7.38059C34.9835 7.85731 35.5947 8.54182 36.0348 9.36079C36.4748 8.54182 37.086 7.85731 37.8072 7.38059C37.086 6.90388 36.4748 6.21936 36.0348 5.40039Z" fill="white"/>
<path d="M37.196 41.5085C37.0738 39.8583 35.717 38.5504 34.0301 38.5504C32.3433 38.5504 30.8398 39.9806 30.8398 41.7407C30.8398 43.2198 31.8788 44.491 33.2845 44.8333C34.3235 43.4887 35.6558 42.3641 37.196 41.5207V41.5085Z" fill="#333333"/>
<path d="M54.1499 44.8211C55.5556 44.4788 56.5946 43.2076 56.5946 41.7285C56.5946 39.9684 55.1645 38.5382 53.4043 38.5382C51.6441 38.5382 50.3607 39.8461 50.2384 41.4963C51.7786 42.3397 53.0987 43.4643 54.1499 44.8088V44.8211Z" fill="#333333"/>
<path d="M33.9568 45.86C36.0225 45.8845 40.7897 45.5178 43.2222 41.9241C43.2466 41.8874 43.2833 41.863 43.3077 41.8385C43.3322 41.8141 43.3444 41.7896 43.3811 41.7652C43.43 41.7407 43.4788 41.7163 43.5277 41.7041C43.5522 41.7041 43.5766 41.6796 43.6011 41.6796C43.6255 41.6796 43.6378 41.6796 43.6622 41.6796C43.7233 41.6796 43.7722 41.6796 43.8333 41.6796C43.8456 41.6796 43.8578 41.6796 43.87 41.6918C43.9311 41.7041 43.9922 41.7285 44.0411 41.7652C44.0656 41.7896 44.09 41.8141 44.1145 41.8385C44.1389 41.863 44.1756 41.8874 44.2 41.9241C46.6325 45.5178 51.4119 45.8845 53.4654 45.86C51.363 42.9386 47.7815 41.0073 43.7111 41.0073C39.6407 41.0073 36.0592 42.9386 33.9568 45.86Z" fill="#333333"/>
<path d="M8.97202 22.4888C8.27528 24.0045 7.18739 25.239 5.84281 26.0091C7.17517 26.767 8.27528 28.0138 8.97202 29.5295C9.66876 28.0138 10.7566 26.7792 12.1012 26.0091C10.7689 25.2513 9.66876 24.0045 8.97202 22.4888Z" fill="white"/>
<path d="M3.92373 55.3088C3.53258 54.8443 3.04364 54.282 3.04364 53.1942C3.04364 52.1063 3.53258 51.544 3.92373 51.0795C4.26599 50.6761 4.52268 50.3828 4.52268 49.7349C4.52268 49.0871 4.26599 48.7937 3.92373 48.3903C3.66704 48.097 3.39812 47.7425 3.21477 47.2413C1.94353 48.8915 1.17345 50.9573 1.17345 53.2064C1.17345 55.4555 1.94353 57.509 3.21477 59.1592C3.3859 58.658 3.66704 58.3036 3.92373 58.0102C4.26599 57.6068 4.52268 57.3135 4.52268 56.6656C4.52268 56.0178 4.26599 55.7244 3.92373 55.321V55.3088Z" fill="url(#paint3_linear_18_885)"/>
<path d="M9.65653 59.9659C9.65653 58.9024 10.1332 58.3401 10.5244 57.8879C10.8667 57.4967 11.1111 57.2034 11.1111 56.58C11.1111 55.9566 10.8667 55.6632 10.5244 55.2721C10.1455 54.8198 9.65653 54.2575 9.65653 53.1941C9.65653 52.1306 10.1332 51.5683 10.5244 51.1161C10.8667 50.7249 11.1111 50.4316 11.1111 49.8082C11.1111 49.1848 10.8667 48.8914 10.5244 48.5003C10.1455 48.048 9.65653 47.4857 9.65653 46.4223C9.65653 45.3588 10.1332 44.7966 10.5244 44.3443C10.7933 44.0387 10.9889 43.7942 11.0622 43.4031C11.0256 43.4031 11.0011 43.4031 10.9644 43.4031C8.34862 43.4031 5.97727 44.4421 4.22932 46.1045C4.22932 46.1534 4.22932 46.2022 4.22932 46.2634C4.22932 46.9112 4.48601 47.2046 4.82827 47.6079C5.21942 48.0724 5.70836 48.6347 5.70836 49.7226C5.70836 50.8105 5.21942 51.3728 4.82827 51.8373C4.48601 52.2406 4.22932 52.534 4.22932 53.1818C4.22932 53.8297 4.48601 54.1231 4.82827 54.5264C5.21942 54.9909 5.70836 55.5532 5.70836 56.6411C5.70836 57.729 5.21942 58.2913 4.82827 58.7557C4.48601 59.1591 4.22932 59.4525 4.22932 60.1125C4.22932 60.1737 4.22932 60.2226 4.22932 60.2837C5.9895 61.9583 8.36085 62.9851 10.9644 62.9851C11.0011 62.9851 11.0256 62.9851 11.0622 62.9851C10.9889 62.5939 10.7811 62.3494 10.5244 62.0316C10.1455 61.5794 9.65653 61.0171 9.65653 59.9536V59.9659Z" fill="url(#paint4_linear_18_885)"/>
<path d="M61.374 65.6377C58.6482 67.8501 57.4381 71.0527 57.108 72.055C57.4503 72.4339 57.5725 72.8373 57.5847 73.204C57.6214 74.4386 56.289 75.6732 55.1278 75.9176C55.0789 75.9176 55.0423 75.9298 54.9934 75.9298C53.6732 75.8932 49.994 75.8687 48.7227 76.211C48.3193 76.321 48.0627 76.5777 47.9771 76.9688C47.8549 77.5189 48.0871 78.1912 48.5516 78.6679C49.6762 78.5579 50.7029 78.6924 50.7518 78.7046C51.0574 78.7412 51.2774 79.0224 51.2652 79.328C51.2408 79.6336 50.9841 79.878 50.6785 79.878H48.4049C47.8793 79.9758 47.8671 80.6726 47.8671 80.807C47.8671 81.3204 48.136 82.1149 48.8694 82.2127C49.0039 82.1638 49.1505 82.1394 49.3094 82.1149H51.0452C51.363 82.1149 51.6319 82.3716 51.6319 82.6894C51.6319 83.0072 51.3874 83.2761 51.0696 83.2884L49.0894 83.3739C48.6738 83.5695 48.3805 84.034 48.4294 84.5596C48.4905 85.183 49.0039 85.6475 49.6517 85.6231L54.8711 85.6842C57.7314 85.6842 61.7652 84.7063 64.4788 81.9682C66.3979 80.0369 67.3391 77.5067 67.3024 74.4753C67.2535 70.2826 64.601 67.4834 61.3985 65.6377H61.374Z" fill="white"/>
<path d="M46.6692 80.807C46.6692 80.0736 46.9259 79.4625 47.3781 79.0835C46.8648 78.3623 46.657 77.4823 46.8281 76.7C47.0114 75.881 47.5982 75.282 48.4294 75.062C49.5417 74.7686 51.9619 74.7198 53.5388 74.732V68.3513C53.5388 68.0213 53.8077 67.7646 54.1255 67.7646C54.4433 67.7646 54.7122 68.0335 54.7122 68.3513V70.9305C55.2623 71.0405 55.7145 71.1872 56.0813 71.3461C56.5457 70.0382 57.7559 67.2023 60.2372 65.0266C55.959 62.8997 51.1552 62.2763 50.2507 62.1785C49.6028 62.533 48.9305 62.8386 48.2216 63.083C48.136 65.5155 46.1558 67.459 43.6989 67.459C41.242 67.459 39.2618 65.5033 39.1762 63.0708C38.4672 62.8263 37.7949 62.5207 37.1471 62.1663C36.2426 62.264 31.4387 62.8874 27.1605 65.0143C29.6419 67.2023 30.8642 70.0259 31.3165 71.3339C31.6832 71.1627 32.1355 71.0283 32.6855 70.9183V68.3391C32.6855 68.0091 32.9545 67.7524 33.2723 67.7524C33.5901 67.7524 33.859 68.0213 33.859 68.3391V74.7198C35.4358 74.7198 37.8683 74.7564 38.9684 75.0498C39.7996 75.2698 40.3863 75.8688 40.5697 76.6877C40.7408 77.47 40.533 78.3501 40.0196 79.0713C40.4597 79.4502 40.7286 80.0614 40.7286 80.7948C40.7286 81.6138 40.3619 82.4817 39.6774 82.9828C40.0441 83.4351 40.2396 84.034 40.1785 84.6574C40.1419 85.0364 40.0196 85.3786 39.824 85.672H47.5493C47.3537 85.3664 47.2192 85.0241 47.1826 84.6574C47.1215 84.0218 47.317 83.4229 47.6837 82.9584C46.987 82.4572 46.6325 81.6016 46.6325 80.7948L46.6692 80.807Z" fill="url(#paint5_linear_18_885)"/>
<path d="M83.3885 56.2622C81.8605 56.8612 80.137 57.0445 78.5847 56.7267C79.367 58.1691 81.2494 60.4182 85.2098 59.5259C85.2709 58.768 85.1853 57.0201 83.3885 56.2622Z" fill="url(#paint6_linear_18_885)"/>
<path d="M76.1522 66.701C75.5532 67.9601 74.6365 68.9746 73.5363 69.6469C74.6487 70.307 75.5532 71.3337 76.1522 72.5928C76.7511 71.3337 77.6679 70.307 78.768 69.6469C77.6557 68.9868 76.7511 67.9601 76.1522 66.701Z" fill="white"/>
<path d="M55.4334 51.8497C55.4334 50.114 54.9811 48.476 54.1866 47.0215C53.9544 47.0337 53.6243 47.0459 53.2332 47.0459C50.9718 47.0459 46.4614 46.5814 43.7111 43.2322C40.9608 46.5936 36.4381 47.0459 34.189 47.0459C33.7979 47.0459 33.4678 47.0337 33.2356 47.0215C32.4533 48.476 31.9888 50.114 31.9888 51.8497C31.9888 57.827 37.2449 62.6797 43.7111 62.6797C50.1773 62.6797 55.4334 57.8148 55.4334 51.8497ZM46.9014 46.7892C47.4759 46.7892 47.9404 47.3393 47.9404 48.0116C47.9404 48.6838 47.4759 49.2339 46.9014 49.2339C46.3269 49.2339 45.8624 48.6838 45.8624 48.0116C45.8624 47.3393 46.3269 46.7892 46.9014 46.7892ZM39.4818 48.0116C39.4818 47.3393 39.9463 46.7892 40.5208 46.7892C41.0953 46.7892 41.5598 47.3393 41.5598 48.0116C41.5598 48.6838 41.0953 49.2339 40.5208 49.2339C39.9463 49.2339 39.4818 48.6838 39.4818 48.0116ZM39.934 51.8497C39.934 51.5197 40.203 51.263 40.5208 51.263H46.9014C47.2315 51.263 47.4881 51.5319 47.4881 51.8497C47.4881 53.9399 45.7891 55.6268 43.7111 55.6268C41.6331 55.6268 39.934 53.9277 39.934 51.8497Z" fill="white"/>
<path d="M46.2536 52.4485H41.1808C41.4498 53.5975 42.4888 54.4654 43.7111 54.4654C44.9334 54.4654 45.9724 53.6097 46.2414 52.4485H46.2536Z" fill="white"/>
<path d="M39.0417 79.8658H36.7682C36.4626 79.8658 36.2059 79.6214 36.1814 79.3158C36.157 79.0102 36.377 78.729 36.6948 78.6924C36.7437 78.6924 37.7583 78.5457 38.8951 78.6557C39.3595 78.179 39.5918 77.5067 39.4696 76.9566C39.384 76.5655 39.1273 76.3088 38.7239 76.1988C37.4527 75.8688 33.7734 75.881 32.4533 75.9176C32.4044 75.9176 32.3555 75.9176 32.3188 75.9054C31.1576 75.661 29.8375 74.4142 29.8619 73.1918C29.8619 72.8251 29.9964 72.4217 30.3386 72.0428C30.0086 71.0405 28.7985 67.8379 26.0726 65.6255C22.8701 67.4712 20.2298 70.2704 20.1687 74.4631C20.132 77.4945 21.0855 80.0247 22.9923 81.956C25.6937 84.6941 29.7275 85.672 32.6 85.672L37.7705 85.5986C38.455 85.6475 38.9684 85.1586 39.0295 84.5352C39.0784 84.0096 38.7728 83.5329 38.3083 83.3373L36.377 83.2639C36.0592 83.2517 35.8025 82.9828 35.8147 82.665C35.8147 82.3472 36.0837 82.0905 36.4015 82.0905H38.0639C38.2228 82.1027 38.3694 82.1394 38.5039 82.1761H38.6384C39.2862 82.1027 39.5551 81.296 39.5551 80.7704C39.5551 80.6359 39.5307 79.9392 39.0173 79.8414L39.0417 79.8658Z" fill="white"/>
<path d="M40.4108 63.4496C40.6552 65.0509 42.0365 66.2854 43.7111 66.2854C45.3857 66.2854 46.767 65.0509 47.0114 63.4496C45.9602 63.7063 44.8479 63.8652 43.7111 63.8652C42.5743 63.8652 41.462 63.7063 40.4108 63.4496Z" fill="white"/>
<path d="M61.4473 20.2763C60.6895 21.0342 59.7483 21.5109 58.8071 21.6698C58.6482 22.611 58.1715 23.5522 57.4136 24.3101C56.6557 25.0679 55.7268 25.5569 54.7856 25.7158C54.6633 26.4492 54.3211 27.1704 53.8199 27.8182C54.0277 28.0993 54.2477 28.3683 54.5166 28.6372L56.2401 30.3607C56.9736 30.2751 57.7314 29.8962 58.3548 29.285C59.0393 28.6005 59.4427 27.7449 59.4671 26.9381C59.4671 26.6325 59.7238 26.3758 60.0416 26.3636C60.8484 26.3392 61.704 25.9358 62.3885 25.2513C63.0731 24.5668 63.4764 23.7111 63.5009 22.9044C63.5009 22.5988 63.7576 22.3421 64.0754 22.3299C64.8821 22.3054 65.7378 21.9021 66.4223 21.2175C67.0335 20.6064 67.4124 19.8485 67.498 19.1029L65.7744 17.3794C65.5055 17.1105 65.2366 16.8782 64.9555 16.6704C64.3076 17.1716 63.5742 17.5016 62.8286 17.6238C62.6697 18.565 62.193 19.5063 61.4351 20.2641L61.4473 20.2763Z" fill="url(#paint7_linear_18_885)"/>
<path d="M53.4899 19.0418C52.1697 18.5284 50.544 17.685 49.1872 16.3282C48.955 16.0959 48.7349 15.8515 48.5271 15.5948C46.6081 15.3625 44.8234 15.5948 43.7967 15.7781C44.6523 16.7438 46.4369 18.4429 48.9794 19.2496C50.1773 19.6285 51.5219 19.7997 52.9887 19.7752C53.1476 19.5307 53.3187 19.2863 53.4899 19.054V19.0418Z" fill="url(#paint8_linear_18_885)"/>
<path d="M53.4654 12.0378C54.8222 13.3946 55.6656 15.0203 56.179 16.3404C56.4235 16.1571 56.6557 15.9859 56.9002 15.8393C56.9246 14.3724 56.7535 13.0279 56.3746 11.83C55.5678 9.28748 53.8688 7.50286 52.9031 6.64722C52.7076 7.67399 52.4875 9.45861 52.7198 11.3777C52.9642 11.5855 53.2209 11.8055 53.4532 12.0378H53.4654Z" fill="url(#paint9_linear_18_885)"/>
<path d="M28.0773 30.2264C30.5953 29.5052 32.8078 27.8183 34.1646 25.5937C35.5092 23.3812 36.0959 20.1542 34.3968 17.9418C32.0744 14.9226 28.4562 16.1938 27.0139 16.8906C27.0139 16.8906 27.0139 16.8906 27.0016 16.8906C26.9283 16.9272 26.8549 16.9395 26.7694 16.9395C26.7694 16.9395 26.7572 16.9395 26.7449 16.9395C26.6594 16.9395 26.586 16.915 26.5127 16.8906C26.5127 16.8906 26.5127 16.8906 26.5005 16.8906C25.7548 16.5361 24.4347 16.0227 23.0168 16.0227C21.6722 16.0227 20.2421 16.475 19.1175 17.9418C17.4184 20.1664 18.0052 23.3934 19.3497 25.5937C20.7065 27.8183 22.919 29.5052 25.4248 30.2264C26.3049 30.483 27.2217 30.4708 28.0895 30.2264H28.0773ZM24.6669 18.1985C24.8992 17.9662 25.2659 17.9662 25.4981 18.1985C26.1827 18.883 27.3072 18.883 28.004 18.1985C28.2362 17.9662 28.6029 17.9662 28.8351 18.1985C29.0674 18.4307 29.0674 18.7974 28.8351 19.0297C28.2606 19.6042 27.5028 19.8853 26.7449 19.8853C25.9871 19.8853 25.2415 19.5919 24.6669 19.0297C24.4347 18.7974 24.4347 18.4307 24.6669 18.1985Z" fill="url(#paint10_linear_18_885)"/>
<path d="M69.0259 27.855C68.268 28.6128 67.3268 29.0895 66.3856 29.2484C66.2267 30.1896 65.75 31.1308 64.9921 31.8887C64.2343 32.6466 63.3053 33.1233 62.3641 33.2699C62.2908 33.71 62.1441 34.15 61.9363 34.5779C64.4543 35.0179 66.9968 33.6244 68.8914 31.742C70.7738 29.8596 72.1673 27.3049 71.7273 24.7869C71.3117 24.9947 70.8716 25.1536 70.4438 25.2269C70.2849 26.1681 69.796 27.0971 69.0381 27.855H69.0259Z" fill="url(#paint11_linear_18_885)"/>
<path d="M64.6254 23.4545C64.4665 24.3957 63.9776 25.3247 63.2197 26.0825C62.4619 26.8404 61.5329 27.3293 60.5917 27.4882C60.4328 28.4294 59.9316 29.3584 59.186 30.1163C58.6115 30.6908 57.927 31.0941 57.218 31.3386L58.6726 32.7932C59.3449 33.4655 60.0539 33.93 60.775 34.2356C61.0562 33.7466 61.2273 33.2333 61.2395 32.7443C61.2395 32.7076 61.2518 32.6832 61.264 32.6465C61.264 32.6099 61.264 32.5732 61.2884 32.5365C61.3007 32.4998 61.3251 32.4754 61.3495 32.4387C61.374 32.4021 61.3862 32.3776 61.4107 32.3532C61.4351 32.3287 61.4718 32.3043 61.5085 32.2798C61.5329 32.2554 61.5696 32.2309 61.594 32.2187C61.6307 32.2065 61.6796 32.1943 61.7285 32.182C61.7529 32.182 61.7774 32.1576 61.814 32.1576C62.6208 32.1331 63.4764 31.7298 64.1609 31.0453C64.8455 30.3607 65.2488 29.5051 65.2733 28.6984C65.2733 28.6495 65.2855 28.6128 65.2977 28.5761C65.2977 28.5517 65.2977 28.5272 65.3099 28.5028C65.3833 28.295 65.5666 28.1483 65.7989 28.1361C65.7989 28.1361 65.8233 28.1361 65.8356 28.1361C66.6423 28.1116 67.4979 27.7083 68.1825 27.0237C68.867 26.3392 69.2703 25.4836 69.2948 24.6768C69.2948 24.3712 69.5515 24.1146 69.8693 24.1023C70.3582 24.0901 70.8838 23.919 71.3606 23.6378C71.055 22.9167 70.5905 22.2077 69.9182 21.5354L68.4636 20.0808C68.2191 20.7898 67.8158 21.4743 67.2413 22.0488C66.4834 22.8066 65.5544 23.2956 64.6132 23.4545H64.6254Z" fill="url(#paint12_linear_18_885)"/>
<path d="M56.2524 17.8073C56.0201 18.0028 55.7879 18.2229 55.5801 18.4307C53.3554 20.6553 51.8153 23.7968 53.1598 26.7182C53.4654 26.217 53.6488 25.6669 53.661 25.1536C53.661 24.848 53.9177 24.5913 54.2355 24.5791C55.0423 24.5546 55.8979 24.1512 56.5824 23.4667C57.2669 22.7822 57.6703 21.9266 57.6947 21.1198C57.6947 21.0709 57.707 21.0342 57.7192 20.9976C57.7192 20.9731 57.7192 20.9487 57.7314 20.9242C57.8048 20.7164 57.9881 20.5698 58.2204 20.5575C58.2204 20.5575 58.2448 20.5575 58.257 20.5575C59.0638 20.5331 59.9194 20.1297 60.6039 19.4452C61.2884 18.7607 61.6918 17.905 61.7163 17.0983C61.7163 17.0738 61.7285 17.0494 61.7407 17.0127C61.7407 16.9638 61.7529 16.9149 61.7774 16.8783C61.7774 16.8538 61.8018 16.8416 61.8141 16.8294C61.8385 16.7805 61.8752 16.7316 61.9118 16.6949C61.9241 16.6827 61.9485 16.6705 61.973 16.6582C62.0096 16.6338 62.0463 16.5971 62.0952 16.5849C62.1319 16.5727 62.1808 16.5605 62.2174 16.5605C62.2419 16.5605 62.2663 16.5482 62.2908 16.536C62.8042 16.5238 63.342 16.3282 63.8431 16.0349C63.0975 15.6926 62.3274 15.5337 61.5696 15.5337C59.6994 15.5337 57.8537 16.4627 56.3257 17.7584C56.3013 17.7828 56.2768 17.8073 56.2402 17.8195L56.2524 17.8073Z" fill="url(#paint13_linear_18_885)"/>
<path d="M85.8454 46.1534C84.073 43.0364 80.5159 40.7139 77.5579 38.8438C74.5998 40.7139 71.0305 43.0242 69.2703 46.1534C68.0724 48.268 67.718 51.3361 69.6126 53.4508C71.4217 55.4677 74.8809 56.2744 77.3378 55.2476C77.3623 55.2354 77.3989 55.2476 77.4234 55.2354C77.4478 55.2354 77.4723 55.2232 77.4967 55.2232C77.5945 55.2232 77.6923 55.2232 77.7779 55.2599C79.3792 55.9199 81.396 55.8099 83.1195 55.101C83.144 55.101 83.1562 55.0765 83.1806 55.0765C84.073 54.6976 84.8797 54.1475 85.5031 53.463C87.3977 51.3484 87.0433 48.2803 85.8454 46.1656V46.1534ZM78.1446 52.4362C78.1446 52.7663 77.8757 53.023 77.5579 53.023C77.24 53.023 76.9711 52.7541 76.9711 52.4362V43.452C76.9711 43.122 77.24 42.8653 77.5579 42.8653C77.8757 42.8653 78.1446 43.1342 78.1446 43.452V52.4362Z" fill="url(#paint14_linear_18_885)"/>
<path d="M80.3815 69.0847C78.6091 68.5346 77.2034 66.8845 76.7267 64.7942C76.6044 64.2564 75.6999 64.2564 75.5777 64.7942C75.1009 66.8967 73.6952 68.5346 71.9228 69.0847C71.6784 69.158 71.5072 69.3903 71.5072 69.647C71.5072 69.9037 71.6784 70.1359 71.9228 70.2092C73.6952 70.7593 75.1009 72.4095 75.5777 74.4997C75.6388 74.7686 75.871 74.9642 76.1522 74.9642C76.4333 74.9642 76.6655 74.7686 76.7267 74.4997C77.2034 72.3972 78.6091 70.7593 80.3815 70.2092C80.626 70.1359 80.7971 69.9037 80.7971 69.647C80.7971 69.3903 80.626 69.158 80.3815 69.0847ZM76.1522 72.5806C75.5532 71.3216 74.6365 70.2948 73.5363 69.6347C74.6487 68.9747 75.5532 67.9479 76.1522 66.6889C76.7511 67.9479 77.6679 68.9624 78.768 69.6347C77.6557 70.2948 76.7511 71.3216 76.1522 72.5806Z" fill="#333333"/>
<path d="M39.3473 7.94298C39.5918 7.86964 39.7629 7.63739 39.7629 7.3807C39.7629 7.12401 39.5918 6.89176 39.3473 6.81842C38.0272 6.40282 36.976 5.16825 36.6093 3.60365C36.5482 3.33474 36.3159 3.13916 36.0348 3.13916C35.7536 3.13916 35.5214 3.33474 35.4603 3.60365C35.1058 5.18048 34.0546 6.41505 32.7222 6.81842C32.4777 6.89176 32.3066 7.12401 32.3066 7.3807C32.3066 7.63739 32.4777 7.86964 32.7222 7.94298C34.0546 8.35858 35.0936 9.59315 35.4603 11.1578C35.5214 11.4267 35.7536 11.6222 36.0348 11.6222C36.3159 11.6222 36.5482 11.4267 36.6093 11.1578C36.9637 9.58092 38.015 8.34635 39.3473 7.94298ZM36.0348 9.3609C35.5947 8.54193 34.9835 7.85742 34.2624 7.3807C34.9835 6.90399 35.5947 6.21947 36.0348 5.4005C36.4748 6.21947 37.086 6.90399 37.8072 7.3807C37.086 7.85742 36.4748 8.54193 36.0348 9.3609Z" fill="#333333"/>
<path d="M9.54652 20.5209C9.4854 20.252 9.25316 20.0564 8.97202 20.0564C8.69088 20.0564 8.45863 20.252 8.39751 20.5209C7.84746 22.9289 6.24618 24.8113 4.20487 25.4469C3.9604 25.5203 3.78927 25.7525 3.78927 26.0092C3.78927 26.2659 3.9604 26.4982 4.20487 26.5715C6.24618 27.2071 7.84746 29.0895 8.39751 31.4976C8.45863 31.7665 8.69088 31.962 8.97202 31.962C9.25316 31.962 9.4854 31.7665 9.54652 31.4976C10.0966 29.0895 11.6978 27.2071 13.7392 26.5715C13.9836 26.4982 14.1548 26.2659 14.1548 26.0092C14.1548 25.7525 13.9836 25.5203 13.7392 25.4469C11.6978 24.8113 10.0966 22.9289 9.54652 20.5209ZM8.97202 29.5296C8.27528 28.0139 7.18739 26.7793 5.84281 26.0092C7.17517 25.2514 8.27528 24.0046 8.97202 22.4889C9.66875 24.0046 10.7566 25.2391 12.1012 26.0092C10.7689 26.7671 9.66875 28.0139 8.97202 29.5296Z" fill="#333333"/>
<path d="M10.9767 42.2297C10.8422 42.2297 10.7078 42.242 10.5733 42.2542C10.0721 41.5941 9.91323 40.9096 10.1455 40.2862C10.3533 40.5673 10.6466 40.7751 11.0256 40.8974C11.9423 41.1907 13.1647 40.8974 13.7514 40.2129C14.2281 39.675 14.2892 38.9049 13.9225 38.3793C13.7392 38.1104 13.3602 37.7804 12.5902 37.7193C12.1868 37.6826 11.7834 37.7193 11.4045 37.8171C11.649 37.3037 11.9545 36.8147 12.3212 36.3747C12.529 36.1302 12.5046 35.7513 12.2479 35.5435C12.0034 35.3357 11.6245 35.3601 11.4167 35.6168C10.7933 36.3502 10.3044 37.2181 10.011 38.1349C9.96212 38.2816 9.91323 38.4527 9.87656 38.636C9.58319 38.8927 9.35095 39.2105 9.1676 39.565C8.71533 40.4696 8.752 41.4597 9.24094 42.3886C4.00929 43.2198 0 47.7547 0 53.2064C0 59.257 4.92605 64.1831 10.9767 64.1831C13.4458 64.1831 15.7194 63.3519 17.5651 61.9706C17.5773 61.9706 17.6018 61.9706 17.614 61.9584C17.6385 61.9462 17.6507 61.9095 17.6751 61.8973C20.2787 59.8926 21.9533 56.7512 21.9533 53.2186C21.9533 47.168 17.0273 42.242 10.9767 42.242V42.2297ZM12.4924 38.8927C12.7613 38.9172 12.908 38.9905 12.9569 39.0516C13.0058 39.125 12.9813 39.3083 12.8713 39.4306C12.5779 39.7606 11.8568 39.9317 11.3923 39.7728C11.0867 39.675 11.0256 39.4795 11.0133 39.3328C11.0133 39.3083 11.0133 39.2961 11.0133 39.2717C11.4412 39.0027 11.9668 38.8561 12.5168 38.9049L12.4924 38.8927ZM3.21477 59.1592C1.94353 57.5091 1.17345 55.4433 1.17345 53.2064C1.17345 50.9695 1.94353 48.9037 3.21477 47.2414C3.3859 47.7303 3.66704 48.0848 3.92373 48.3904C4.26599 48.7937 4.52268 49.0871 4.52268 49.7349C4.52268 50.3828 4.26599 50.6761 3.92373 51.0795C3.53258 51.544 3.04364 52.1063 3.04364 53.1942C3.04364 54.2821 3.53258 54.8443 3.92373 55.3088C4.26599 55.7122 4.52268 56.0056 4.52268 56.6534C4.52268 57.3013 4.26599 57.5946 3.92373 57.998C3.66704 58.2914 3.3859 58.6581 3.21477 59.147V59.1592ZM10.9767 62.9974C8.36085 62.9974 5.9895 61.9584 4.24154 60.296C4.24154 60.2349 4.24154 60.186 4.24154 60.1249C4.24154 59.477 4.49823 59.1837 4.84049 58.7681C5.23164 58.3036 5.72058 57.7413 5.72058 56.6534C5.72058 55.5655 5.23164 55.0032 4.84049 54.5388C4.49823 54.1354 4.24154 53.842 4.24154 53.1942C4.24154 52.5463 4.49823 52.253 4.84049 51.8496C5.23164 51.3851 5.72058 50.8228 5.72058 49.7349C5.72058 48.647 5.23164 48.0848 4.84049 47.6203C4.49823 47.2169 4.24154 46.9235 4.24154 46.2757C4.24154 46.2146 4.24154 46.1657 4.24154 46.1168C6.00172 44.4422 8.37307 43.4154 10.9767 43.4154C11.0133 43.4154 11.0378 43.4154 11.0745 43.4154C11.0011 43.8066 10.7933 44.051 10.5366 44.3566C10.1577 44.8089 9.66876 45.3712 9.66876 46.4346C9.66876 47.498 10.1455 48.0603 10.5366 48.5126C10.8789 48.9037 11.1234 49.1971 11.1234 49.8205C11.1234 50.4439 10.8789 50.7373 10.5366 51.1284C10.1577 51.5807 9.66876 52.143 9.66876 53.2064C9.66876 54.2698 10.1455 54.8321 10.5366 55.2844C10.8789 55.6755 11.1234 55.9689 11.1234 56.5923C11.1234 57.2157 10.8789 57.5091 10.5366 57.9002C10.1577 58.3525 9.66876 58.9148 9.66876 59.9782C9.66876 61.0416 10.1455 61.6039 10.5366 62.0562C10.8055 62.3618 11.0011 62.6185 11.0745 63.0096C11.0378 63.0096 11.0133 63.0096 10.9767 63.0096V62.9974ZM16.4895 61.2861C15.2427 62.1295 13.8003 62.704 12.2357 62.8996C12.1257 62.1295 11.7467 61.6528 11.4289 61.2739C11.0867 60.8827 10.8422 60.5894 10.8422 59.966C10.8422 59.3426 11.0867 59.0492 11.4289 58.6581C11.8079 58.2058 12.2968 57.6435 12.2968 56.5801C12.2968 55.5166 11.8201 54.9544 11.4289 54.5021C11.0867 54.1109 10.8422 53.8176 10.8422 53.1942C10.8422 52.5708 11.0867 52.2774 11.4289 51.8863C11.8079 51.434 12.2968 50.8717 12.2968 49.8083C12.2968 48.7448 11.8201 48.1826 11.4289 47.7303C11.0867 47.3391 10.8422 47.0458 10.8422 46.4224C10.8422 45.799 11.0867 45.5056 11.4167 45.1145C11.7467 44.7355 12.1135 44.2588 12.2357 43.4887C13.8003 43.6965 15.2549 44.2588 16.5017 45.1145C16.3428 45.4689 16.245 45.8357 16.245 46.2635C16.245 47.3514 16.7339 47.9136 17.1251 48.3781C17.4673 48.7815 17.724 49.0749 17.724 49.7227C17.724 50.3706 17.4673 50.6639 17.1251 51.0673C16.7339 51.5318 16.245 52.0941 16.245 53.182C16.245 54.2698 16.7339 54.8321 17.1251 55.2966C17.4673 55.7 17.724 55.9933 17.724 56.6412C17.724 57.289 17.4673 57.5824 17.1251 57.9858C16.7339 58.4503 16.245 59.0125 16.245 60.1004C16.245 60.6016 16.355 60.9683 16.4895 61.2739V61.2861ZM17.4673 60.516C17.4429 60.3938 17.4307 60.2716 17.4307 60.1249C17.4307 59.477 17.6873 59.1837 18.0296 58.7803C18.4208 58.3158 18.9097 57.7535 18.9097 56.6656C18.9097 55.5778 18.4208 55.0155 18.0296 54.551C17.6873 54.1476 17.4307 53.8542 17.4307 53.2064C17.4307 52.5586 17.6873 52.2652 18.0296 51.8618C18.4208 51.3973 18.9097 50.835 18.9097 49.7472C18.9097 48.6593 18.4208 48.097 18.0296 47.6325C17.6873 47.2291 17.4307 46.9358 17.4307 46.2879C17.4307 46.1412 17.4429 46.019 17.4673 45.8968C19.4842 47.6936 20.7677 50.2972 20.7677 53.2064C20.7677 56.1156 19.4842 58.7192 17.4673 60.516Z" fill="#333333"/>
<path d="M53.6854 29.4806L55.5801 31.3752C55.5801 31.3752 55.6167 31.4119 55.6412 31.4364L57.8414 33.6366C59.3205 35.1156 61.0684 35.8368 62.9142 35.8368C65.1633 35.8368 67.5591 34.7367 69.7104 32.5731C72.5218 29.7617 73.5119 26.5836 72.6685 23.8089C72.6685 23.7478 72.644 23.6867 72.6074 23.6256C72.2529 22.5866 71.6539 21.5965 70.7616 20.7164L68.5736 18.5284C68.5736 18.5284 68.5369 18.4917 68.5125 18.4673L66.6179 16.5726C66.1778 16.1326 65.7133 15.7659 65.2244 15.4603C65.1999 15.4603 65.1877 15.4359 65.1633 15.4236C63.0364 14.0913 60.5306 14.0302 58.0859 15.2036C58.0492 13.8712 57.8659 12.6245 57.5114 11.4999C56.2401 7.46615 53.0131 5.22926 52.8787 5.13147C52.7198 5.02146 52.5242 4.99701 52.3409 5.05813C52.1575 5.11925 52.0231 5.26593 51.9742 5.44928C51.9497 5.55929 51.3385 7.75952 51.473 10.4853C48.9916 8.93297 46.4736 8.56627 46.3391 8.54182C46.1558 8.51737 45.9724 8.57849 45.838 8.71295C45.7035 8.84741 45.6424 9.03076 45.6669 9.21411C45.6791 9.34857 46.0458 11.8666 47.6104 14.3602C44.8845 14.2257 42.6721 14.8369 42.5743 14.8613C42.391 14.9102 42.2443 15.0447 42.1832 15.2281C42.122 15.4114 42.1465 15.607 42.2443 15.7659C42.3421 15.9003 44.5667 19.1151 48.6127 20.3986C49.7373 20.7531 50.9841 20.9486 52.3164 20.9731C50.874 24.0045 51.3019 27.1093 53.6854 29.4928V29.4806ZM68.8792 31.7419C66.9968 33.6244 64.4421 35.0178 61.9241 34.5778C62.1441 34.15 62.2785 33.7099 62.3519 33.2699C63.2931 33.111 64.2343 32.6343 64.9799 31.8886C65.7378 31.1308 66.2145 30.1896 66.3734 29.2484C67.3146 29.0895 68.2558 28.6127 69.0137 27.8549C69.7715 27.097 70.2605 26.168 70.4194 25.2268C70.8472 25.1535 71.2872 24.9946 71.7028 24.7868C72.1429 27.3048 70.7494 29.8473 68.867 31.7419H68.8792ZM69.9304 21.5354C70.6027 22.2076 71.0672 22.9166 71.3728 23.6378C70.8839 23.9189 70.3705 24.0901 69.8815 24.1023C69.5759 24.1023 69.3192 24.359 69.307 24.6768C69.2826 25.4835 68.8792 26.3392 68.1947 27.0237C67.5102 27.7082 66.6545 28.1116 65.8478 28.136C65.8478 28.136 65.8233 28.136 65.8111 28.136C65.5789 28.136 65.3955 28.2827 65.3222 28.5027C65.3222 28.5272 65.3222 28.5516 65.31 28.5761C65.31 28.6127 65.2855 28.6616 65.2855 28.6983C65.2611 29.5051 64.8577 30.3607 64.1732 31.0452C63.4887 31.7297 62.633 32.1331 61.8263 32.1575C61.8018 32.1575 61.7651 32.1698 61.7407 32.182C61.6918 32.182 61.6551 32.1942 61.6062 32.2187C61.5696 32.2309 61.5451 32.2553 61.5207 32.2798C61.484 32.3042 61.4596 32.3165 61.4229 32.3531C61.3984 32.3776 61.3862 32.4142 61.3618 32.4387C61.3373 32.4754 61.3129 32.4998 61.3007 32.5365C61.2884 32.5731 61.2884 32.6098 61.2762 32.6465C61.2762 32.6832 61.2518 32.7076 61.2518 32.7443C61.2395 33.2332 61.0684 33.7588 60.7873 34.2355C60.0661 33.9299 59.3571 33.4655 58.6848 32.7932L57.2302 31.3386C57.9392 31.0941 58.6237 30.6907 59.1982 30.1162C59.9561 29.3584 60.445 28.4294 60.6039 27.4882C61.5451 27.3293 62.4741 26.8403 63.232 26.0825C63.9898 25.3246 64.4788 24.3957 64.6377 23.4544C65.5789 23.2955 66.5078 22.8066 67.2657 22.0487C67.8402 21.4742 68.2436 20.7897 68.4881 20.0808L69.9426 21.5354H69.9304ZM65.7867 17.3794L67.5102 19.1029C67.4246 19.8363 67.0457 20.5942 66.4345 21.2176C65.75 21.9021 64.8944 22.3054 64.0876 22.3299C63.782 22.3299 63.5253 22.5866 63.5131 22.9044C63.4887 23.7111 63.0853 24.5668 62.4008 25.2513C61.7163 25.9358 60.8606 26.3392 60.0539 26.3636C59.7483 26.3636 59.4916 26.6203 59.4794 26.9381C59.4549 27.7449 59.0515 28.6005 58.367 29.285C57.7559 29.8962 56.998 30.2751 56.2524 30.3607L54.5289 28.6372C54.2599 28.3683 54.0399 28.0994 53.8321 27.8182C54.3333 27.1704 54.6755 26.4492 54.7978 25.7158C55.739 25.5569 56.668 25.0679 57.4258 24.3101C58.1837 23.5522 58.6604 22.611 58.8193 21.6698C59.7605 21.5109 60.7017 21.0342 61.4596 20.2763C62.2174 19.5185 62.6941 18.5773 62.853 17.6361C63.5864 17.5138 64.3199 17.1838 64.9799 16.6826C65.2611 16.8904 65.53 17.1227 65.7989 17.3916L65.7867 17.3794ZM61.5818 15.5092C62.3397 15.5092 63.1097 15.6681 63.8554 16.0104C63.3542 16.3159 62.8164 16.4993 62.303 16.5115C62.2785 16.5115 62.2541 16.5237 62.2296 16.536C62.1807 16.536 62.1441 16.536 62.1074 16.5604C62.0585 16.5849 62.0218 16.6093 61.9852 16.6338C61.9607 16.646 61.9485 16.6582 61.9241 16.6704C61.8874 16.7071 61.8507 16.756 61.8263 16.8049C61.8263 16.8293 61.8018 16.8415 61.7896 16.8538C61.7651 16.8904 61.7651 16.9393 61.7529 16.9882C61.7529 17.0127 61.7285 17.0371 61.7285 17.0738C61.704 17.8805 61.3007 18.7362 60.6161 19.4207C59.9316 20.1052 59.076 20.5086 58.2692 20.533C58.2692 20.533 58.2448 20.533 58.2326 20.533C58.0003 20.533 57.817 20.6797 57.7436 20.8997C57.7436 20.9242 57.7436 20.9486 57.7314 20.9731C57.7314 21.0098 57.707 21.0586 57.707 21.0953C57.6825 21.9021 57.2791 22.7577 56.5946 23.4422C55.9101 24.1267 55.0545 24.5301 54.2477 24.5546C53.9421 24.5546 53.6854 24.8112 53.6732 25.1291C53.661 25.6424 53.4776 26.1925 53.1721 26.6937C51.8275 23.7723 53.3676 20.6308 55.5923 18.4062C55.8123 18.1861 56.0323 17.9783 56.2646 17.7828C56.289 17.7583 56.3257 17.7461 56.3502 17.7216C57.8781 16.426 59.7238 15.497 61.594 15.497L61.5818 15.5092ZM52.9154 6.64718C53.881 7.50282 55.5801 9.28745 56.3868 11.8299C56.7658 13.0278 56.9369 14.3724 56.9124 15.8392C56.668 15.9981 56.4235 16.1693 56.1913 16.3404C55.6779 15.0203 54.8344 13.3945 53.4776 12.0377C53.2454 11.8055 52.9887 11.5855 52.7442 11.3777C52.512 9.45858 52.7442 7.67395 52.9276 6.64718H52.9154ZM47.0114 9.87418C48.2827 10.192 50.764 10.9987 52.6342 12.8811C53.991 14.238 54.7733 15.8881 55.2256 17.1594C55.0667 17.306 54.9078 17.4527 54.7489 17.6116C54.59 17.7705 54.4433 17.9294 54.2966 18.0883C53.0254 17.6361 51.3752 16.8538 50.0184 15.497C48.1482 13.6268 47.3292 11.1576 47.0114 9.87418ZM48.9672 19.2496C46.4247 18.4428 44.6401 16.7438 43.7844 15.7781C44.8112 15.5948 46.6081 15.3625 48.5149 15.5948C48.7227 15.8392 48.9427 16.0837 49.175 16.3282C50.5318 17.685 52.1575 18.5284 53.4776 19.0418C53.2943 19.2862 53.1232 19.5185 52.9765 19.763C51.5097 19.7874 50.1651 19.6163 48.9672 19.2373V19.2496Z" fill="#333333"/>
<path d="M26.7449 31.5832C27.3072 31.5832 27.8695 31.5098 28.4196 31.3509C31.2065 30.5564 33.6756 28.674 35.1791 26.1926C36.6093 23.8213 37.5138 20.0565 35.338 17.2084C33.5167 14.837 30.5831 14.2259 27.3561 15.4727V12.3312C27.3561 12.0012 27.0872 11.7445 26.7694 11.7445C26.4516 11.7445 26.1827 12.0134 26.1827 12.3312V15.4727C22.9557 14.2381 20.0098 14.837 18.2007 17.2084C16.0127 20.0565 16.9173 23.8213 18.3596 26.1926C19.8631 28.674 22.3323 30.5564 25.1314 31.3509C25.6693 31.4976 26.2193 31.5832 26.7694 31.5832H26.7449ZM19.3375 25.5937C17.9929 23.3812 17.4062 20.1542 19.1053 17.9418C20.2298 16.475 21.66 16.0227 23.0046 16.0227C24.4225 16.0227 25.7548 16.5361 26.4882 16.8906C26.4882 16.8906 26.4882 16.8906 26.5005 16.8906C26.5738 16.9273 26.6472 16.9395 26.7327 16.9395C26.7327 16.9395 26.7449 16.9395 26.7572 16.9395C26.8427 16.9395 26.9161 16.915 26.9894 16.8906C26.9894 16.8906 26.9894 16.8906 27.0016 16.8906C28.444 16.1938 32.0621 14.9226 34.3846 17.9418C36.0837 20.1665 35.4969 23.3935 34.1524 25.5937C32.7956 27.8184 30.5831 29.5052 28.0651 30.2264C27.1972 30.4708 26.2804 30.4708 25.4004 30.2264C22.8946 29.5174 20.6821 27.8306 19.3253 25.5937H19.3375Z" fill="#333333"/>
<path d="M28.8351 19.0295C29.0674 18.7973 29.0674 18.4306 28.8351 18.1984C28.6029 17.9661 28.2362 17.9661 28.0039 18.1984C27.3194 18.8829 26.1949 18.8829 25.4981 18.1984C25.2659 17.9661 24.8992 17.9661 24.6669 18.1984C24.4347 18.4306 24.4347 18.7973 24.6669 19.0295C25.2414 19.6041 25.9993 19.8852 26.7449 19.8852C27.4906 19.8852 28.2606 19.5918 28.8351 19.0295Z" fill="#333333"/>
<path d="M86.8721 45.579C84.8919 42.0953 81.0049 39.6384 77.8757 37.6582C77.8512 37.646 77.8268 37.646 77.8023 37.6337C77.7657 37.6093 77.7168 37.5971 77.6801 37.5848C77.6434 37.5848 77.619 37.5848 77.5823 37.5848C77.5334 37.5848 77.4967 37.5848 77.4478 37.5848C77.4112 37.5848 77.3745 37.6093 77.3378 37.6215C77.3012 37.6337 77.2767 37.6337 77.24 37.6582C74.1108 39.6384 70.2116 42.0953 68.2314 45.579C66.8257 48.0603 66.4345 51.6907 68.7203 54.2454C70.236 55.9323 72.644 56.8857 74.9543 56.8857C75.7243 56.8857 76.4944 56.7757 77.2034 56.5557C77.7657 57.8636 79.5014 60.9194 83.474 60.9194C84.2074 60.9194 85.0142 60.8216 85.8943 60.5772C86.1143 60.5161 86.2732 60.3449 86.3221 60.1249C86.5543 59.0126 86.4321 56.8612 84.6719 55.6267C85.3075 55.2477 85.882 54.7832 86.371 54.2332C88.6568 51.6907 88.2656 48.0481 86.8599 45.5668L86.8721 45.579ZM85.222 59.526C81.2616 60.4183 79.3792 58.1691 78.5969 56.7268C80.1492 57.0446 81.8727 56.8612 83.4007 56.2623C85.2098 57.0201 85.2831 58.7681 85.222 59.526ZM83.1807 55.0644C83.1807 55.0644 83.144 55.0766 83.1195 55.0888C81.4083 55.81 79.3792 55.92 77.7779 55.2477C77.6923 55.2111 77.5945 55.1988 77.4967 55.2111C77.4723 55.2111 77.4478 55.2111 77.4234 55.2233C77.399 55.2233 77.3623 55.2233 77.3378 55.2355C74.8809 56.2623 71.4217 55.4433 69.6126 53.4387C67.718 51.324 68.0725 48.2559 69.2704 46.1413C71.0428 43.0243 74.5998 40.7018 77.5579 38.8316C80.5159 40.7018 84.0852 43.0121 85.8454 46.1413C87.0433 48.2559 87.3977 51.324 85.5031 53.4387C84.8919 54.1232 84.073 54.6732 83.1807 55.0522V55.0644Z" fill="#333333"/>
<path d="M77.5579 42.8776C77.2278 42.8776 76.9711 43.1465 76.9711 43.4643V52.4485C76.9711 52.7786 77.24 53.0353 77.5579 53.0353C77.8757 53.0353 78.1446 52.7663 78.1446 52.4485V43.4643C78.1446 43.1343 77.8757 42.8776 77.5579 42.8776Z" fill="#333333"/>
<path d="M41.572 48.0114C41.572 47.3391 41.1075 46.7891 40.533 46.7891C39.9585 46.7891 39.494 47.3391 39.494 48.0114C39.494 48.6837 39.9585 49.2338 40.533 49.2338C41.1075 49.2338 41.572 48.6837 41.572 48.0114Z" fill="#333333"/>
<path d="M46.9014 49.2338C47.4759 49.2338 47.9404 48.6837 47.9404 48.0114C47.9404 47.3391 47.4759 46.7891 46.9014 46.7891C46.3269 46.7891 45.8624 47.3391 45.8624 48.0114C45.8624 48.6837 46.3269 49.2338 46.9014 49.2338Z" fill="#333333"/>
<path d="M61.6551 64.4276C61.6551 64.4276 61.6062 64.4032 61.594 64.3909C60.8484 63.9753 60.0539 63.5964 59.186 63.2419C56.3135 62.0685 53.4899 61.4817 51.803 61.2128C54.7367 59.0126 56.6191 55.6389 56.6191 51.8619C56.6191 49.7839 56.0568 47.8404 55.0545 46.1291C55.0545 46.1291 55.0545 46.1169 55.0422 46.1046C54.9933 46.0191 54.9322 45.9335 54.8711 45.8479C56.5702 45.2368 57.7803 43.5988 57.7803 41.7409C57.7803 39.3328 55.8245 37.3771 53.4165 37.3771C51.2774 37.3771 49.4928 38.9295 49.1261 40.9708C47.4759 40.2618 45.6546 39.8462 43.7233 39.8462C41.792 39.8462 39.9707 40.2496 38.3205 40.9708C37.9538 38.9295 36.1692 37.3771 34.0301 37.3771C31.6221 37.3771 29.6663 39.3328 29.6663 41.7409C29.6663 43.611 30.8765 45.249 32.5755 45.8479C32.5266 45.9213 32.4777 45.9946 32.4288 46.0802C32.4166 46.1046 32.4044 46.1169 32.3922 46.1413C31.4021 47.8404 30.8398 49.7839 30.8398 51.8619C30.8398 55.6389 32.7222 59.0126 35.6558 61.2128C33.969 61.4817 31.1454 62.0685 28.2729 63.2419C27.405 63.5964 26.6105 63.9876 25.8648 64.3909C25.8404 64.3909 25.8282 64.4154 25.8037 64.4276C21.4033 66.8723 19.0564 70.3071 19.0075 74.4631C18.9708 77.8245 20.0342 80.6359 22.1734 82.7995C25.1314 85.7942 29.5074 86.8699 32.6366 86.8699H33.2845C33.2845 86.8699 33.3089 86.8699 33.3212 86.8699H54.1499C54.1499 86.8699 54.1744 86.8699 54.1866 86.8699H54.8467C57.9514 86.8699 62.3396 85.8064 65.2977 82.8117C67.4368 80.6481 68.5125 77.8367 68.4636 74.4753C68.4147 70.3193 66.0678 66.8845 61.6674 64.4398L61.6551 64.4276ZM53.4043 38.5505C55.1645 38.5505 56.5946 39.9807 56.5946 41.7409C56.5946 43.2199 55.5556 44.4911 54.1499 44.8334C53.1109 43.4888 51.7786 42.3642 50.2384 41.5208C50.3607 39.8707 51.7175 38.5628 53.4043 38.5628V38.5505ZM43.7111 41.0197C47.7815 41.0197 51.363 42.951 53.4654 45.8724C51.3997 45.8968 46.6325 45.5301 44.2 41.9364C44.1756 41.8998 44.1389 41.8753 44.1145 41.8509C44.09 41.8264 44.0778 41.802 44.0411 41.7775C43.9922 41.7409 43.9311 41.7164 43.87 41.7042C43.8578 41.7042 43.8456 41.692 43.8333 41.692C43.7844 41.692 43.7233 41.692 43.6622 41.692C43.6378 41.692 43.6255 41.692 43.6011 41.692C43.5766 41.692 43.5522 41.7164 43.5277 41.7164C43.4788 41.7286 43.43 41.7531 43.3811 41.7775C43.3566 41.802 43.3322 41.8264 43.3077 41.8509C43.2833 41.8753 43.2466 41.8998 43.2222 41.9364C40.7897 45.5301 36.0103 45.8968 33.9568 45.8724C36.0592 42.951 39.6407 41.0197 43.7111 41.0197ZM30.8398 41.7409C30.8398 39.9807 32.2699 38.5505 34.0301 38.5505C35.7903 38.5505 37.0738 39.8584 37.196 41.5086C35.6558 42.352 34.3357 43.4766 33.2845 44.8212C31.8788 44.4789 30.8398 43.2077 30.8398 41.7286V41.7409ZM32.001 51.8497C32.001 50.1139 32.4533 48.476 33.2478 47.0214C33.4801 47.0336 33.8101 47.0458 34.2012 47.0458C36.4504 47.0458 40.973 46.5813 43.7233 43.2321C46.4736 46.5936 50.9841 47.0458 53.2454 47.0458C53.6365 47.0458 53.9666 47.0336 54.1988 47.0214C54.9811 48.476 55.4456 50.1139 55.4456 51.8497C55.4456 57.8269 50.1895 62.6796 43.7233 62.6796C37.2571 62.6796 32.001 57.8147 32.001 51.8497ZM47.0237 63.4497C46.7792 65.051 45.3979 66.2856 43.7233 66.2856C42.0487 66.2856 40.6675 65.051 40.423 63.4497C41.4742 63.7064 42.5865 63.8653 43.7233 63.8653C44.8601 63.8653 45.9724 63.7064 47.0237 63.4497ZM38.6628 82.2127H38.5283C38.3817 82.1638 38.235 82.1394 38.0883 82.1149H36.4259C36.1081 82.1149 35.8392 82.3716 35.8392 82.6894C35.8392 83.0073 36.0837 83.2762 36.4015 83.2884L38.3328 83.3617C38.7973 83.5573 39.1028 84.0218 39.054 84.5596C38.9928 85.183 38.4795 85.672 37.7949 85.6231L32.6244 85.6964C29.7519 85.6964 25.7182 84.7185 23.0168 81.9805C21.0977 80.0492 20.1565 77.5189 20.1932 74.4875C20.242 70.2949 22.8945 67.4957 26.0971 65.6499C28.8229 67.8624 30.033 71.0649 30.3631 72.0673C30.0208 72.4462 29.8986 72.8496 29.8864 73.2163C29.8497 74.4508 31.1698 75.6854 32.3433 75.9299C32.3922 75.9299 32.4411 75.9421 32.4777 75.9421C33.7856 75.9054 37.4771 75.881 38.7484 76.2232C39.1517 76.3332 39.4084 76.5899 39.494 76.9811C39.6162 77.5312 39.384 78.2034 38.9195 78.6802C37.7827 78.5701 36.7682 78.7046 36.7193 78.7168C36.4137 78.7535 36.1937 79.0346 36.2059 79.3402C36.2303 79.6458 36.487 79.8903 36.7926 79.8903H39.0662C39.5918 79.9881 39.604 80.6848 39.604 80.8193C39.604 81.3326 39.3229 82.1394 38.6873 82.2249L38.6628 82.2127ZM31.0354 73.2407C31.0476 72.7884 31.671 72.3851 32.7222 72.1406V74.7564C32.6244 74.7564 32.5389 74.7564 32.49 74.7564C31.8299 74.5853 31.0231 73.8274 31.0354 73.2407ZM47.5859 85.6964H39.8607C40.0441 85.3908 40.1785 85.0486 40.2152 84.6819C40.2763 84.0585 40.0807 83.4595 39.714 83.0073C40.3985 82.5183 40.753 81.6382 40.7652 80.8193C40.7652 80.0859 40.5085 79.4747 40.0563 79.0957C40.5697 78.3746 40.7775 77.4945 40.6063 76.7122C40.423 75.8932 39.8363 75.2943 39.0051 75.0742C37.8927 74.7809 35.4725 74.732 33.8957 74.7442V68.3636C33.8957 68.0335 33.6267 67.7768 33.3089 67.7768C32.9911 67.7768 32.7222 68.0457 32.7222 68.3636V70.9427C32.1721 71.0527 31.7199 71.1994 31.3532 71.3583C30.8887 70.0504 29.6786 67.2145 27.1972 65.0388C31.4754 62.9119 36.2792 62.2885 37.1838 62.1907C37.8316 62.5452 38.5039 62.8508 39.2129 63.0952C39.2984 65.5277 41.2786 67.4835 43.7355 67.4835C46.1925 67.4835 48.1727 65.5277 48.2582 63.1075C48.9672 62.863 49.6517 62.5574 50.2873 62.2029C51.1919 62.3007 55.9957 62.9241 60.2739 65.051C57.7925 67.239 56.5702 70.0626 56.1179 71.3705C55.7512 71.1994 55.2989 71.0649 54.7489 70.9549V68.3758C54.7489 68.0457 54.48 67.789 54.1622 67.789C53.8443 67.789 53.5754 68.058 53.5754 68.3758V74.7564C51.9986 74.7564 49.5784 74.8053 48.466 75.0865C47.6348 75.3065 47.0481 75.9054 46.8647 76.7244C46.6936 77.5067 46.9014 78.3868 47.4148 79.108C46.9748 79.4869 46.7058 80.0981 46.7058 80.8315C46.7058 81.6382 47.0603 82.4939 47.7571 82.995C47.3904 83.4595 47.1948 84.0585 47.2559 84.6941C47.2926 85.073 47.427 85.4153 47.6226 85.7086L47.5859 85.6964ZM56.399 73.2407C56.4113 73.8274 55.5923 74.5853 54.9445 74.7564C54.8956 74.7564 54.81 74.7564 54.7122 74.7564V72.1406C55.7634 72.3851 56.3868 72.7884 56.399 73.2407ZM64.4421 81.9805C61.7407 84.7185 57.707 85.6964 54.8344 85.6964L49.615 85.6353C48.9672 85.6597 48.4538 85.1953 48.3927 84.5719C48.3438 84.0463 48.6372 83.5818 49.0527 83.3862L51.0329 83.3006C51.3508 83.2884 51.6074 83.0195 51.5952 82.7017C51.5952 82.3839 51.3263 82.1272 51.0085 82.1272H49.2728C49.1261 82.1516 48.9794 82.1761 48.8327 82.2249C48.1115 82.1272 47.8426 81.3326 47.8304 80.8193C47.8304 80.6848 47.8548 79.9881 48.3682 79.8903H50.6418C50.9474 79.8903 51.2041 79.6458 51.2285 79.3402C51.253 79.0346 51.033 78.7535 50.7151 78.7168C50.6662 78.7168 49.6395 78.5701 48.5149 78.6802C48.0504 78.2034 47.8182 77.5312 47.9404 76.9811C48.026 76.5899 48.2827 76.3332 48.686 76.2232C49.9451 75.8932 53.6365 75.9054 54.9567 75.9421C55.0056 75.9421 55.0545 75.9421 55.0911 75.9299C56.2524 75.6854 57.5725 74.4386 57.5481 73.2163C57.5481 72.8496 57.4136 72.4462 57.0713 72.0673C57.4014 71.0649 58.6115 67.8624 61.3373 65.6499C64.5399 67.4957 67.1801 70.2949 67.2413 74.4875C67.2779 77.5311 66.3245 80.0492 64.4176 81.9805H64.4421Z" fill="#333333"/>
<path d="M47.5004 51.8495C47.5004 51.5195 47.2315 51.2628 46.9136 51.2628H40.533C40.203 51.2628 39.9463 51.5317 39.9463 51.8495C39.9463 53.9398 41.6453 55.6266 43.7233 55.6266C45.8013 55.6266 47.5004 53.9275 47.5004 51.8495ZM41.1808 52.4485H46.2536C45.9847 53.5975 44.9457 54.4654 43.7233 54.4654C42.501 54.4654 41.4498 53.6097 41.1931 52.4485H41.1808Z" fill="#333333"/>
<path d="M79.6114 27.5371C79.2814 27.5371 79.0247 27.806 79.0247 28.1238V29.0039H78.1446C77.8146 29.0039 77.5579 29.2728 77.5579 29.5907C77.5579 29.9085 77.8268 30.1774 78.1446 30.1774H79.0247V31.0575C79.0247 31.3875 79.2936 31.6442 79.6114 31.6442C79.9292 31.6442 80.1981 31.3753 80.1981 31.0575V30.1774H81.0782C81.4083 30.1774 81.6649 29.9085 81.6649 29.5907C81.6649 29.2728 81.396 29.0039 81.0782 29.0039H80.1981V28.1238C80.1981 27.7938 79.9292 27.5371 79.6114 27.5371Z" fill="#333333"/>
<path d="M10.4388 71.2605H9.55876V70.3804C9.55876 70.0504 9.28984 69.7937 8.97203 69.7937C8.65422 69.7937 8.3853 70.0626 8.3853 70.3804V71.2605H7.50521C7.17518 71.2605 6.91849 71.5294 6.91849 71.8472C6.91849 72.1651 7.1874 72.434 7.50521 72.434H8.3853V73.3141C8.3853 73.6441 8.65422 73.9008 8.97203 73.9008C9.28984 73.9008 9.55876 73.6319 9.55876 73.3141V72.434H10.4388C10.7689 72.434 11.0256 72.1651 11.0256 71.8472C11.0256 71.5294 10.7567 71.2605 10.4388 71.2605Z" fill="#333333"/>
<path d="M21.3544 40.2128C21.6844 40.2128 21.9411 39.9439 21.9411 39.6261V38.746H22.8212C23.1512 38.746 23.4079 38.4771 23.4079 38.1593C23.4079 37.8414 23.139 37.5725 22.8212 37.5725H21.9411V36.6924C21.9411 36.3624 21.6722 36.1057 21.3544 36.1057C21.0366 36.1057 20.7677 36.3746 20.7677 36.6924V37.5725H19.8876C19.5575 37.5725 19.3008 37.8414 19.3008 38.1593C19.3008 38.4771 19.5698 38.746 19.8876 38.746H20.7677V39.6261C20.7677 39.9561 21.0366 40.2128 21.3544 40.2128Z" fill="#333333"/>
<defs>
<linearGradient id="paint0_linear_18_885" x1="47.0114" y1="13.9814" x2="55.2256" y2="13.9814" gradientUnits="userSpaceOnUse">
<stop stop-color="#9DFED1"/>
<stop offset="0.69" stop-color="#3DDBBD"/>
<stop offset="1" stop-color="#11CBB4"/>
</linearGradient>
<linearGradient id="paint1_linear_18_885" x1="17.4184" y1="53.1942" x2="20.7677" y2="53.1942" gradientUnits="userSpaceOnUse">
<stop stop-color="#9DFED1"/>
<stop offset="0.69" stop-color="#3DDBBD"/>
<stop offset="1" stop-color="#11CBB4"/>
</linearGradient>
<linearGradient id="paint2_linear_18_885" x1="10.8422" y1="53.1942" x2="17.724" y2="53.1942" gradientUnits="userSpaceOnUse">
<stop stop-color="#9DFED1"/>
<stop offset="0.69" stop-color="#3DDBBD"/>
<stop offset="1" stop-color="#11CBB4"/>
</linearGradient>
<linearGradient id="paint3_linear_18_885" x1="1.17345" y1="53.1942" x2="4.52268" y2="53.1942" gradientUnits="userSpaceOnUse">
<stop stop-color="#9DFED1"/>
<stop offset="0.69" stop-color="#3DDBBD"/>
<stop offset="1" stop-color="#11CBB4"/>
</linearGradient>
<linearGradient id="paint4_linear_18_885" x1="4.22932" y1="53.1941" x2="11.1111" y2="53.1941" gradientUnits="userSpaceOnUse">
<stop stop-color="#9DFED1"/>
<stop offset="0.69" stop-color="#3DDBBD"/>
<stop offset="1" stop-color="#11CBB4"/>
</linearGradient>
<linearGradient id="paint5_linear_18_885" x1="27.185" y1="73.9375" x2="60.2494" y2="73.9375" gradientUnits="userSpaceOnUse">
<stop stop-color="#FFDB51"/>
<stop offset="1" stop-color="#FFB951"/>
</linearGradient>
<linearGradient id="paint6_linear_18_885" x1="78.5847" y1="57.9979" x2="85.2342" y2="57.9979" gradientUnits="userSpaceOnUse">
<stop stop-color="#9DFED1"/>
<stop offset="0.69" stop-color="#3DDBBD"/>
<stop offset="1" stop-color="#11CBB4"/>
</linearGradient>
<linearGradient id="paint7_linear_18_885" x1="53.8321" y1="23.5155" x2="67.498" y2="23.5155" gradientUnits="userSpaceOnUse">
<stop stop-color="#FFDB51"/>
<stop offset="1" stop-color="#FFB951"/>
</linearGradient>
<linearGradient id="paint8_linear_18_885" x1="43.7844" y1="17.6361" x2="53.4899" y2="17.6361" gradientUnits="userSpaceOnUse">
<stop stop-color="#9DFED1"/>
<stop offset="0.69" stop-color="#3DDBBD"/>
<stop offset="1" stop-color="#11CBB4"/>
</linearGradient>
<linearGradient id="paint9_linear_18_885" x1="52.6342" y1="11.4999" x2="56.9124" y2="11.4999" gradientUnits="userSpaceOnUse">
<stop stop-color="#9DFED1"/>
<stop offset="0.69" stop-color="#3DDBBD"/>
<stop offset="1" stop-color="#11CBB4"/>
</linearGradient>
<linearGradient id="paint10_linear_18_885" x1="18.0541" y1="23.2101" x2="35.4358" y2="23.2101" gradientUnits="userSpaceOnUse">
<stop stop-color="#9DFED1"/>
<stop offset="0.69" stop-color="#3DDBBD"/>
<stop offset="1" stop-color="#11CBB4"/>
</linearGradient>
<linearGradient id="paint11_linear_18_885" x1="61.9241" y1="29.7251" x2="71.8006" y2="29.7251" gradientUnits="userSpaceOnUse">
<stop stop-color="#FFDB51"/>
<stop offset="1" stop-color="#FFB951"/>
</linearGradient>
<linearGradient id="paint12_linear_18_885" x1="57.218" y1="27.1582" x2="71.3728" y2="27.1582" gradientUnits="userSpaceOnUse">
<stop stop-color="#FFDB51"/>
<stop offset="1" stop-color="#FFB951"/>
</linearGradient>
<linearGradient id="paint13_linear_18_885" x1="52.6587" y1="21.1198" x2="63.8554" y2="21.1198" gradientUnits="userSpaceOnUse">
<stop stop-color="#FFDB51"/>
<stop offset="1" stop-color="#FFB951"/>
</linearGradient>
<linearGradient id="paint14_linear_18_885" x1="68.2802" y1="47.2779" x2="86.8355" y2="47.2779" gradientUnits="userSpaceOnUse">
<stop stop-color="#9DFED1"/>
<stop offset="0.69" stop-color="#3DDBBD"/>
<stop offset="1" stop-color="#11CBB4"/>
</linearGradient>
</defs>
</svg>
