<svg width="88" height="88" viewBox="0 0 88 88" fill="none" xmlns="http://www.w3.org/2000/svg">
<path d="M32.7778 63.5678C50.3282 63.5678 64.5556 49.3404 64.5556 31.79C64.5556 14.2396 50.3282 0.012207 32.7778 0.012207C15.2274 0.012207 1 14.2396 1 31.79C1 49.3404 15.2274 63.5678 32.7778 63.5678Z" fill="#E6FAF9" fill-opacity="0.6"/>
<path d="M33.8289 80.8623L33.0222 83.209H50.28L49.4733 80.8623H33.8289Z" fill="url(#paint0_linear_18_733)"/>
<path d="M45.8556 9.13005V6.03783C45.8556 5.78116 46.0145 5.56116 46.2467 5.46339C46.4789 5.37783 46.7478 5.43894 46.9189 5.62227C47.1389 5.86672 52.2233 11.4034 60.73 8.86116C59.0922 4.43672 54.57 1.2345 49.2289 1.2345C46.21 1.2345 43.4478 2.26116 41.3211 3.96005C41.6022 5.03561 42.7022 8.33561 45.8556 9.13005Z" fill="#333333"/>
<path d="M39.83 41.2379V60.6956C39.83 61.319 40.3433 61.8323 40.9667 61.8323H79.5767C80.2 61.8323 80.7133 61.319 80.7133 60.6956V41.2379C80.7133 40.6145 80.2 40.1012 79.5767 40.1012H40.9667C40.3433 40.1012 39.83 40.6145 39.83 41.2379ZM74.7733 48.5345C74.7733 48.1923 75.0422 47.9234 75.3844 47.9234C75.7267 47.9234 75.9956 48.1923 75.9956 48.5345V53.4723C75.9956 53.8145 75.7267 54.0834 75.3844 54.0834C75.0422 54.0834 74.7733 53.8145 74.7733 53.4723V48.5345ZM74.2478 55.7212H75.3844C75.7267 55.7212 75.9956 55.9901 75.9956 56.3323C75.9956 56.6745 75.7267 56.9434 75.3844 56.9434H74.2478C73.9056 56.9434 73.6367 56.6745 73.6367 56.3323C73.6367 55.9901 73.9056 55.7212 74.2478 55.7212ZM72.2556 44.8434C72.2556 44.5012 72.5244 44.2323 72.8667 44.2323C73.2089 44.2323 73.4778 44.5012 73.4778 44.8434V53.4723C73.4778 53.8145 73.2089 54.0834 72.8667 54.0834C72.5244 54.0834 72.2556 53.8145 72.2556 53.4723V44.8434ZM72.3656 56.3445C72.3656 56.6868 72.0967 56.9556 71.7544 56.9556H70.6178C70.2756 56.9556 70.0067 56.6868 70.0067 56.3445C70.0067 56.0023 70.2756 55.7334 70.6178 55.7334H71.7544C72.0967 55.7334 72.3656 56.0023 72.3656 56.3445ZM69.7378 48.1068C69.7378 47.7645 70.0067 47.4956 70.3489 47.4956C70.6911 47.4956 70.96 47.7645 70.96 48.1068V53.4723C70.96 53.8145 70.6911 54.0834 70.3489 54.0834C70.0067 54.0834 69.7378 53.8145 69.7378 53.4723V48.1068ZM67.22 44.8434C67.22 44.5012 67.4889 44.2323 67.8311 44.2323C68.1733 44.2323 68.4422 44.5012 68.4422 44.8434V53.4723C68.4422 53.8145 68.1733 54.0834 67.8311 54.0834C67.4889 54.0834 67.22 53.8145 67.22 53.4723V44.8434ZM66.9756 55.7212H68.1122C68.4544 55.7212 68.7233 55.9901 68.7233 56.3323C68.7233 56.6745 68.4544 56.9434 68.1122 56.9434H66.9756C66.6333 56.9434 66.3644 56.6745 66.3644 56.3323C66.3644 55.9901 66.6333 55.7212 66.9756 55.7212ZM64.69 48.2534C64.69 47.9112 64.9589 47.6423 65.3011 47.6423C65.6433 47.6423 65.9122 47.9112 65.9122 48.2534V53.4723C65.9122 53.8145 65.6433 54.0834 65.3011 54.0834C64.9589 54.0834 64.69 53.8145 64.69 53.4723V48.2534ZM65.0811 56.3445C65.0811 56.6868 64.8122 56.9556 64.47 56.9556H63.3333C62.9911 56.9556 62.7222 56.6868 62.7222 56.3445C62.7222 56.0023 62.9911 55.7334 63.3333 55.7334H64.47C64.8122 55.7334 65.0811 56.0023 65.0811 56.3445ZM62.1722 44.8434C62.1722 44.5012 62.4411 44.2323 62.7833 44.2323C63.1256 44.2323 63.3944 44.5012 63.3944 44.8434V53.4723C63.3944 53.8145 63.1256 54.0834 62.7833 54.0834C62.4411 54.0834 62.1722 53.8145 62.1722 53.4723V44.8434ZM59.6544 44.8434C59.6544 44.5012 59.9233 44.2323 60.2656 44.2323C60.6078 44.2323 60.8767 44.5012 60.8767 44.8434V53.4723C60.8767 53.8145 60.6078 54.0834 60.2656 54.0834C59.9233 54.0834 59.6544 53.8145 59.6544 53.4723V44.8434ZM59.7033 55.7212H60.84C61.1822 55.7212 61.4511 55.9901 61.4511 56.3323C61.4511 56.6745 61.1822 56.9434 60.84 56.9434H59.7033C59.3611 56.9434 59.0922 56.6745 59.0922 56.3323C59.0922 55.9901 59.3611 55.7212 59.7033 55.7212ZM57.1367 48.1068C57.1367 47.7645 57.4056 47.4956 57.7478 47.4956C58.09 47.4956 58.3589 47.7645 58.3589 48.1068V53.4723C58.3589 53.8145 58.09 54.0834 57.7478 54.0834C57.4056 54.0834 57.1367 53.8145 57.1367 53.4723V48.1068ZM57.1978 55.7212C57.54 55.7212 57.8089 55.9901 57.8089 56.3323C57.8089 56.6745 57.54 56.9434 57.1978 56.9434H56.0611C55.7189 56.9434 55.45 56.6745 55.45 56.3323C55.45 55.9901 55.7189 55.7212 56.0611 55.7212H57.1978ZM54.6189 51.0523C54.6189 50.7101 54.8878 50.4412 55.23 50.4412C55.5722 50.4412 55.8411 50.7101 55.8411 51.0523V53.4723C55.8411 53.8145 55.5722 54.0834 55.23 54.0834C54.8878 54.0834 54.6189 53.8145 54.6189 53.4723V51.0523ZM52.1011 44.8434C52.1011 44.5012 52.37 44.2323 52.7122 44.2323C53.0544 44.2323 53.3233 44.5012 53.3233 44.8434V53.4723C53.3233 53.8145 53.0544 54.0834 52.7122 54.0834C52.37 54.0834 52.1011 53.8145 52.1011 53.4723V44.8434ZM52.4311 55.7212H53.5678C53.91 55.7212 54.1789 55.9901 54.1789 56.3323C54.1789 56.6745 53.91 56.9434 53.5678 56.9434H52.4311C52.0889 56.9434 51.82 56.6745 51.82 56.3323C51.82 55.9901 52.0889 55.7212 52.4311 55.7212ZM49.5833 47.3368C49.5833 46.9945 49.8522 46.7256 50.1944 46.7256C50.5367 46.7256 50.8056 46.9945 50.8056 47.3368V53.4723C50.8056 53.8145 50.5367 54.0834 50.1944 54.0834C49.8522 54.0834 49.5833 53.8145 49.5833 53.4723V47.3368ZM48.7889 55.7212H49.9256C50.2678 55.7212 50.5367 55.9901 50.5367 56.3323C50.5367 56.6745 50.2678 56.9434 49.9256 56.9434H48.7889C48.4467 56.9434 48.1778 56.6745 48.1778 56.3323C48.1778 55.9901 48.4467 55.7212 48.7889 55.7212ZM47.0533 44.8434C47.0533 44.5012 47.3222 44.2323 47.6644 44.2323C48.0067 44.2323 48.2756 44.5012 48.2756 44.8434V53.4723C48.2756 53.8145 48.0067 54.0834 47.6644 54.0834C47.3222 54.0834 47.0533 53.8145 47.0533 53.4723V44.8434ZM44.5356 46.139C44.5356 45.7968 44.8044 45.5279 45.1467 45.5279C45.4889 45.5279 45.7578 45.7968 45.7578 46.139V53.4723C45.7578 53.8145 45.4889 54.0834 45.1467 54.0834C44.8044 54.0834 44.5356 53.8145 44.5356 53.4723V46.139ZM45.1467 55.7212H46.2833C46.6256 55.7212 46.8944 55.9901 46.8944 56.3323C46.8944 56.6745 46.6256 56.9434 46.2833 56.9434H45.1467C44.8044 56.9434 44.5356 56.6745 44.5356 56.3323C44.5356 55.9901 44.8044 55.7212 45.1467 55.7212Z" fill="url(#paint1_linear_18_733)"/>
<path d="M13.4911 48.3145V69.2634H69.7867V63.0422H67.3422V66.1956C67.3422 66.5378 67.0733 66.8067 66.7311 66.8067H16.5589C16.2167 66.8067 15.9478 66.5378 15.9478 66.1956V48.3022H13.5033L13.4911 48.3145Z" fill="white"/>
<path d="M28.6711 55.0733L29.1111 54.6333L24.76 53.2278L26.1656 57.5789L26.6056 57.1389C26.7278 57.0167 26.8867 56.9556 27.0333 56.9556C27.18 56.9556 27.3511 57.0167 27.4611 57.1389L29.8567 59.5344L31.0544 58.3367L28.6589 55.9411C28.4144 55.6967 28.4144 55.3178 28.6589 55.0733H28.6711Z" fill="white"/>
<path d="M13.3689 70.4978L9.86112 84.7C9.73889 85.2134 9.84889 85.7389 10.1667 86.1423C10.4844 86.5578 10.9733 86.79 11.4989 86.79H71.7911C72.3167 86.79 72.7933 86.5578 73.1233 86.1423C73.4411 85.7267 73.5633 85.2011 73.4289 84.7L69.9211 70.4978H13.3689ZM51.6244 84.1745C51.5144 84.3334 51.3189 84.4311 51.1233 84.4311H32.1544C31.9589 84.4311 31.7756 84.3334 31.6533 84.1745C31.5433 84.0156 31.5067 83.8078 31.5678 83.6245L32.79 80.0434C32.8756 79.7989 33.1078 79.6278 33.3645 79.6278H49.8889C50.1456 79.6278 50.3778 79.7989 50.4633 80.0434L51.6856 83.6245C51.7467 83.8078 51.7222 84.0156 51.6 84.1745H51.6244Z" fill="white"/>
<path d="M40.9667 38.8912H66.1322V34.6012H28.2556V45.9679C28.2556 47.2634 27.1922 48.3268 25.8967 48.3268H17.1822V65.609H66.1444V63.0668H40.9789C39.6833 63.0668 38.62 62.0156 38.62 60.7079V41.2501C38.62 39.9545 39.6833 38.8912 40.9789 38.8912H40.9667ZM32.3745 58.7768L30.3089 60.8423C30.1867 60.9645 30.0278 61.0256 29.8811 61.0256C29.7344 61.0256 29.5633 60.9645 29.4533 60.8423L27.0578 58.4468L26.3367 59.1679C26.19 59.3145 25.97 59.3879 25.7622 59.3268C25.5545 59.2779 25.3833 59.119 25.3222 58.9234L23.2445 52.4823C23.1711 52.2623 23.2322 52.0301 23.3911 51.859C23.55 51.7001 23.7945 51.639 24.0145 51.7123L30.4556 53.7901C30.6633 53.8512 30.81 54.0223 30.8589 54.2301C30.9078 54.4379 30.8589 54.6579 30.7 54.8045L29.9789 55.5256L32.3745 57.9212C32.6189 58.1656 32.6189 58.5445 32.3745 58.789V58.7768Z" fill="white"/>
<path d="M86.2622 28.1599C86.03 26.2166 84.7833 24.5788 83.0356 23.8577C83.5856 24.9699 83.9033 26.5466 83.9644 28.1599H86.2622Z" fill="url(#paint2_linear_18_733)"/>
<path d="M86.2622 29.3821H83.9644C83.9033 30.9954 83.5856 32.5599 83.0356 33.6843C84.7833 32.9632 86.0422 31.3376 86.2622 29.3821Z" fill="url(#paint3_linear_18_733)"/>
<path d="M75.7633 29.3821C75.9956 31.3254 77.2422 32.9632 78.99 33.6843C78.44 32.5721 78.1222 30.9954 78.0611 29.3821H75.7633Z" fill="url(#paint4_linear_18_733)"/>
<path d="M81.0067 23.4543C80.3467 23.4543 79.4178 25.2755 79.2955 28.1599H82.73C82.6078 25.2755 81.6789 23.4543 81.0189 23.4543H81.0067Z" fill="url(#paint5_linear_18_733)"/>
<path d="M78.99 23.8577C77.2422 24.5788 75.9833 26.2043 75.7633 28.1599H78.0611C78.1222 26.5466 78.44 24.9821 78.99 23.8577Z" fill="url(#paint6_linear_18_733)"/>
<path d="M81.0067 34.0876C81.6667 34.0876 82.5956 32.2665 82.7178 29.3821H79.2833C79.4056 32.2665 80.3344 34.0876 80.9944 34.0876H81.0067Z" fill="url(#paint7_linear_18_733)"/>
<path d="M62.6 26.4612C61.5 26.4001 60.2411 26.339 59.2144 26.5956C58.1389 26.8645 57.0389 27.5979 57.0022 28.6245C56.99 29.0034 56.9656 29.2112 56.9533 29.3579C56.9289 29.6023 56.9289 29.6267 57.0144 30.1034C57.0878 30.5312 57.3322 30.8123 57.7356 30.9345C58.2856 31.1056 58.9822 30.9101 59.52 30.4823C59.4711 29.9934 59.4711 29.7367 59.4956 29.3945V29.1745C59.52 28.8323 59.7644 28.5634 60.1556 28.5879C60.4978 28.6001 60.7544 28.8934 60.73 29.2356V29.4679C60.6933 29.859 60.6811 30.0301 60.7789 30.6656C60.8522 31.179 61.4022 31.3745 61.8422 31.3867C62.4289 31.3867 63.1011 31.1179 63.2356 30.4579C63.1989 30.3112 63.1744 30.1645 63.1744 30.0179V29.1379C63.15 28.7956 63.4189 28.5267 63.7611 28.5145H63.7733C64.1033 28.5145 64.3722 28.7834 64.3844 29.1134V29.9812C64.4333 30.629 64.9222 31.1667 65.6311 31.1301C66.2422 31.1301 66.6456 30.7267 66.8411 29.9445C67.0367 29.1501 67.22 28.2456 66.7922 27.6834C65.9856 26.6201 64.0544 26.5223 62.7833 26.4612H62.6Z" fill="white"/>
<path d="M24.7356 22.5255H25.8844C27.18 22.5255 28.2433 23.5889 28.2433 24.8844V29.7H37.8133V26.2044C37.8133 25.8622 38.0822 25.5933 38.4244 25.5933C38.7667 25.5933 39.0356 25.8622 39.0356 26.2044V29.7H55.7189C55.7189 29.5533 55.7189 29.4311 55.7311 29.26C55.7433 29.1255 55.7678 28.93 55.78 28.6C55.8411 26.8277 57.5033 25.7766 58.9089 25.4222C60.1189 25.1166 61.4633 25.19 62.6489 25.2511H62.8322C63.2356 25.2755 63.6878 25.3122 64.1644 25.3611C62.1111 23.1366 58.2367 22.5133 57.3322 22.3911C55.0833 23.9922 52.2722 24.9577 49.2289 24.9577C46.1856 24.9577 43.2767 23.9677 41.0156 22.3055C40.93 22.2689 32.6067 18.4555 23.7578 19.3722C23.9656 19.5311 24.1611 19.7144 24.32 19.9344C24.9433 20.7533 24.8944 21.7555 24.7478 22.55L24.7356 22.5255Z" fill="url(#paint8_linear_18_733)"/>
<path d="M49.2289 23.7233C55.9267 23.7233 61.39 18.6755 61.39 12.4788C61.39 11.6355 61.28 10.8288 61.0967 10.0344C59.4222 10.5355 57.87 10.7555 56.44 10.7555C51.9056 10.7555 48.6544 8.68994 47.09 7.41882V9.86327C47.09 10.0344 47.0167 10.2055 46.8822 10.3277C46.7478 10.4499 46.5889 10.4988 46.4056 10.4744C42.5067 9.98549 40.9056 6.59994 40.3311 4.86438C38.3267 6.86882 37.0922 9.54549 37.0922 12.4788C37.0922 18.6755 42.5433 23.7233 49.2533 23.7233H49.2289ZM50.3167 11.8433C50.9156 11.8433 51.3922 12.4177 51.3922 13.1144C51.3922 13.811 50.9033 14.3855 50.3167 14.3855C49.73 14.3855 49.2411 13.811 49.2411 13.1144C49.2411 12.4177 49.73 11.8433 50.3167 11.8433ZM49.8889 16.9766C50.1333 16.7322 50.5122 16.7322 50.7567 16.9766C51.0011 17.221 51.0011 17.5999 50.7567 17.8444C49.8644 18.7366 48.6789 19.2255 47.4078 19.2255C46.1367 19.2255 44.9511 18.7366 44.0589 17.8444C43.8144 17.5999 43.8144 17.221 44.0589 16.9766C44.3033 16.7322 44.6822 16.7322 44.9267 16.9766C46.2467 18.3088 48.5567 18.2966 49.8889 16.9766ZM43.7044 11.8433C44.3033 11.8433 44.78 12.4177 44.78 13.1144C44.78 13.811 44.2911 14.3855 43.7044 14.3855C43.1178 14.3855 42.6289 13.811 42.6289 13.1144C42.6289 12.4177 43.1178 11.8433 43.7044 11.8433Z" fill="white"/>
<path d="M14.2856 23.9188C14.8356 24.0899 15.5322 23.8943 16.07 23.4666C16.0211 22.9777 16.0211 22.7332 16.0456 22.391V22.1588C16.07 21.8166 16.3145 21.5477 16.6933 21.5721C17.0356 21.5843 17.2922 21.8777 17.28 22.2077V22.4521C17.2433 22.831 17.2311 23.0143 17.3289 23.6377C17.4022 24.151 17.9522 24.3466 18.3922 24.3588C18.9789 24.3954 19.6511 24.0899 19.7856 23.4299C19.7489 23.2832 19.7245 23.1366 19.7245 22.9899L19.7 22.1099C19.7 21.7677 19.9567 21.4988 20.2989 21.4866C20.6167 21.511 20.9222 21.7432 20.9222 22.0854L20.9467 22.9532C20.9711 23.601 21.5089 24.1143 22.1567 24.1143H22.1811C22.7922 24.1143 23.2078 23.711 23.3911 22.9288C23.5867 22.1343 23.77 21.2299 23.3422 20.6677C22.9145 20.1177 22.1933 19.8243 21.4111 19.6654C20.7022 19.5188 19.9445 19.4821 19.3456 19.4454H19.1745C18.0622 19.3843 16.8156 19.311 15.7767 19.5799C14.7011 19.8488 13.6011 20.5821 13.5645 21.6088C13.5522 21.9877 13.5278 22.1954 13.5156 22.3543C13.4911 22.5988 13.4911 22.6232 13.5767 23.0999C13.65 23.5277 13.8945 23.8088 14.2978 23.931L14.2856 23.9188Z" fill="white"/>
<path d="M15.6789 31.2156H13.3567V33.1222H15.6789V31.2156Z" fill="white"/>
<path d="M15.6789 34.3322H13.3567V36.2388H15.6789V34.3322Z" fill="white"/>
<path d="M19.7122 34.3322H16.9011V36.2388H19.7122V34.3322Z" fill="white"/>
<path d="M9.22556 33.11H12.1344V31.2156H8.62667L9.21334 33.11H9.22556Z" fill="white"/>
<path d="M65.6067 32.3645C64.9589 32.3645 64.3722 32.12 63.9444 31.7167C63.4189 32.3278 62.6122 32.6211 61.8789 32.6211C61.8544 32.6211 61.83 32.6211 61.8056 32.6211C60.9989 32.5967 60.3267 32.2545 59.9233 31.7167C59.1289 32.2056 58.1878 32.3767 57.3811 32.12C56.7456 31.9245 56.2689 31.4967 56 30.9222H28.2433V33.3667H66.7433C67.0856 33.3667 67.3544 33.6356 67.3544 33.9778V38.8789H69.7989V32.6089C69.7989 31.68 69.0411 30.9222 68.1122 30.9222H67.7822C67.3544 31.8145 66.5967 32.34 65.6433 32.3645H65.6067Z" fill="white"/>
<path d="M19.7122 31.2156H16.9011V33.1222H19.7122V31.2156Z" fill="white"/>
<path d="M19.3089 41.4455C19.3089 42.0077 19.7611 42.4599 20.3233 42.4599C20.8856 42.4599 21.3378 42.0077 21.3378 41.4455C21.3378 40.8833 20.8856 40.431 20.3233 40.431C19.7611 40.431 19.3089 40.8833 19.3089 41.4455Z" fill="white"/>
<path d="M10.1911 36.2388H12.1344V34.3322H9.60445L10.1911 36.2388Z" fill="white"/>
<path d="M12.2567 40.431C11.6944 40.431 11.2422 40.8833 11.2422 41.4455C11.2422 42.0077 11.6944 42.4599 12.2567 42.4599C12.8189 42.4599 13.2711 42.0077 13.2711 41.4455C13.2711 40.8833 12.8189 40.431 12.2567 40.431Z" fill="white"/>
<path d="M4.81333 47.0923H25.8967C26.52 47.0923 27.0333 46.5789 27.0333 45.9556V24.8723C27.0333 24.2489 26.52 23.7356 25.8967 23.7356H24.4178C24.0022 24.7134 23.2078 25.3001 22.2178 25.3123H22.1811C21.5333 25.3123 20.9467 25.0678 20.5189 24.6523C19.9933 25.2634 19.1867 25.5567 18.4533 25.5567C18.4289 25.5567 18.4044 25.5567 18.38 25.5567C17.5611 25.5323 16.9011 25.1901 16.4978 24.6523C15.7033 25.1412 14.7622 25.3123 13.9556 25.0556C13.2711 24.8478 12.7822 24.3589 12.5378 23.7234H4.81333C4.19 23.7234 3.67667 24.2367 3.67667 24.8601V45.9434C3.67667 46.5667 4.19 47.0801 4.81333 47.0801V47.0923ZM7.29444 30.2378C7.40444 30.0789 7.58778 29.9934 7.78333 29.9934H19.7V27.7689C19.7 27.4267 19.9689 27.1578 20.3111 27.1578H22.89C23.2322 27.1578 23.5011 27.4267 23.5011 27.7689C23.5011 28.1112 23.2322 28.3801 22.89 28.3801H20.9222V39.3067C21.8633 39.5756 22.5478 40.4312 22.5478 41.4456C22.5478 42.6801 21.5456 43.6823 20.3111 43.6823C19.0767 43.6823 18.0744 42.6801 18.0744 41.4456C18.0744 41.0789 18.1722 40.7367 18.3311 40.4312H14.2367C14.3956 40.7367 14.4933 41.0789 14.4933 41.4456C14.4933 42.6801 13.4911 43.6823 12.2567 43.6823C11.0222 43.6823 10.02 42.6801 10.02 41.4456C10.02 40.2112 11.0222 39.2089 12.2567 39.2089H19.7122V37.4612H9.75111C9.48222 37.4612 9.25 37.2901 9.16444 37.0334L7.20889 30.7756C7.14778 30.5923 7.18444 30.3845 7.29444 30.2256V30.2378Z" fill="url(#paint9_linear_18_733)"/>
<path d="M43.7044 14.3855C44.3033 14.3855 44.78 13.811 44.78 13.1144C44.78 12.4177 44.2911 11.8433 43.7044 11.8433C43.1178 11.8433 42.6289 12.4177 42.6289 13.1144C42.6289 13.811 43.1178 14.3855 43.7044 14.3855Z" fill="#333333"/>
<path d="M50.3167 14.3855C50.9156 14.3855 51.3922 13.811 51.3922 13.1144C51.3922 12.4177 50.9033 11.8433 50.3167 11.8433C49.73 11.8433 49.2411 12.4177 49.2411 13.1144C49.2411 13.811 49.73 14.3855 50.3167 14.3855Z" fill="#333333"/>
<path d="M44.0589 16.9767C43.8144 17.2211 43.8144 17.6 44.0589 17.8444C44.9511 18.7367 46.1367 19.2256 47.4078 19.2256C48.6789 19.2256 49.8644 18.7367 50.7567 17.8444C51.0011 17.6 51.0011 17.2211 50.7567 16.9767C50.5122 16.7322 50.1333 16.7322 49.8889 16.9767C48.5567 18.2967 46.2467 18.3089 44.9267 16.9767C44.6822 16.7322 44.3033 16.7322 44.0589 16.9767Z" fill="#333333"/>
<path d="M50.4878 80.0434C50.4022 79.7989 50.17 79.6278 49.9133 79.6278H33.3889C33.1322 79.6278 32.9 79.7989 32.8144 80.0434L31.5922 83.6245C31.5311 83.8078 31.5556 84.0156 31.6778 84.1745C31.7878 84.3334 31.9833 84.4311 32.1789 84.4311H51.1478C51.3433 84.4311 51.5267 84.3334 51.6489 84.1745C51.7589 84.0156 51.7956 83.8078 51.7344 83.6245L50.5122 80.0434H50.4878ZM33.0222 83.2089L33.8289 80.85H49.4733L50.28 83.2089H33.0222Z" fill="#333333"/>
<path d="M81.0067 35.31C84.6122 35.31 87.5455 32.3766 87.5455 28.7711C87.5455 25.1655 84.6122 22.2322 81.0067 22.2322C77.4011 22.2322 74.4678 25.1655 74.4678 28.7711C74.4678 32.3766 77.4011 35.31 81.0067 35.31ZM75.7633 29.3822H78.0611C78.1222 30.9955 78.44 32.56 78.99 33.6844C77.2422 32.9633 75.9833 31.3377 75.7633 29.3822ZM86.2622 28.16H83.9644C83.9033 26.5466 83.5856 24.9822 83.0356 23.8577C84.7833 24.5788 86.0422 26.2044 86.2622 28.16ZM83.9644 29.3822H86.2622C86.03 31.3255 84.7833 32.9633 83.0356 33.6844C83.5856 32.5722 83.9033 30.9955 83.9644 29.3822ZM81.0067 23.4544C81.6667 23.4544 82.5956 25.2755 82.7178 28.16H79.2833C79.4056 25.2755 80.3344 23.4544 80.9944 23.4544H81.0067ZM82.73 29.3822C82.6078 32.2666 81.6789 34.0877 81.0189 34.0877C80.3589 34.0877 79.43 32.2666 79.3078 29.3822H82.7422H82.73ZM78.99 23.8577C78.44 24.97 78.1222 26.5466 78.0611 28.16H75.7633C75.9955 26.2166 77.2422 24.5788 78.99 23.8577Z" fill="#333333"/>
<path d="M27.7911 9.93659C29.3311 10.181 29.82 10.3766 29.82 11.1466C29.82 11.8066 28.9278 12.3566 27.8767 12.3566C26.8989 12.3566 26.19 11.8922 25.9944 11.4399C25.86 11.1344 25.5056 10.9877 25.1878 11.1222C24.8822 11.2566 24.7356 11.611 24.87 11.9288C25.2244 12.7722 26.1533 13.371 27.2656 13.5421V14.5444C27.2656 14.8866 27.5344 15.1555 27.8767 15.1555C28.2189 15.1555 28.4878 14.8866 28.4878 14.5444V13.5544C29.9544 13.3344 31.0422 12.3688 31.0422 11.1588C31.0422 9.21548 29.27 8.93437 27.9744 8.73882C26.4222 8.49437 25.9333 8.29882 25.9333 7.50437C25.9333 6.84437 26.8256 6.29437 27.8767 6.29437C28.8544 6.29437 29.5633 6.75882 29.7589 7.21104C29.8933 7.52882 30.26 7.66326 30.5656 7.52882C30.8711 7.39437 31.0178 7.03993 30.8833 6.72215C30.5167 5.87882 29.6 5.27993 28.4878 5.10882V4.10659C28.4878 3.76437 28.2189 3.49548 27.8767 3.49548C27.5344 3.49548 27.2656 3.76437 27.2656 4.10659V5.09659C25.7989 5.31659 24.7111 6.28215 24.7111 7.49215C24.7111 9.44771 26.4833 9.72882 27.7911 9.92437V9.93659Z" fill="#333333"/>
<path d="M4.81333 48.3144H12.2811V69.8011L8.67556 84.3944C8.45556 85.2744 8.65111 86.1789 9.21333 86.8878C9.76333 87.5967 10.6067 88 11.5111 88H71.8033C72.7078 88 73.5389 87.5967 74.1011 86.8878C74.6511 86.1789 74.8467 85.2744 74.6389 84.3944L71.0333 69.8011V63.0422H79.5889C80.8845 63.0422 81.9478 61.9911 81.9478 60.6833V41.2256C81.9478 39.93 80.8845 38.8667 79.5889 38.8667H71.0333V32.5967C71.0333 31.0078 69.75 29.7122 68.1733 29.6878C68.3322 28.8933 68.4422 27.7933 67.7822 26.9378C67.3178 26.3267 66.6578 25.9478 65.9489 25.7033C64.3722 22.8678 60.6567 21.7433 58.64 21.34C61.0967 19.0789 62.6367 15.9378 62.6367 12.4667C62.6367 5.59778 56.6356 0 49.2533 0C45.8189 0 42.7022 1.22222 40.3311 3.20222C40.3189 3.20222 40.3067 3.22667 40.2944 3.23889C37.5933 5.52444 35.8822 8.81222 35.8822 12.4667C35.8822 15.3267 36.9333 17.9422 38.6689 20.0444C35.0022 18.7978 28.3533 17.1356 21.57 18.4189C20.8122 18.2722 20.0544 18.2233 19.4189 18.1989H19.2478C18.05 18.1256 16.7056 18.0644 15.4956 18.37C14.09 18.7244 12.4278 19.7756 12.3667 21.5478C12.3667 21.8778 12.3422 22.0733 12.3178 22.2078C12.3178 22.33 12.3056 22.4156 12.3056 22.5133H4.81333C3.51778 22.5133 2.45444 23.5767 2.45444 24.8722V45.9556C2.45444 47.2511 3.51778 48.3144 4.81333 48.3144ZM73.4411 84.7C73.5633 85.2133 73.4411 85.7389 73.1356 86.1422C72.8178 86.5578 72.3289 86.79 71.8033 86.79H11.4989C10.9733 86.79 10.4967 86.5578 10.1667 86.1422C9.84889 85.7267 9.72667 85.2011 9.86111 84.7L13.3689 70.4978H69.9333L73.4411 84.7ZM16.5589 66.8189H66.7433C67.0856 66.8189 67.3544 66.55 67.3544 66.2078V63.0544H69.7989V69.2756H13.4911V48.3267H15.9356V66.22C15.9356 66.5622 16.2044 66.8311 16.5467 66.8311L16.5589 66.8189ZM40.9667 63.0544H66.1322V65.5967H17.17V48.3144H25.8844C27.18 48.3144 28.2433 47.2633 28.2433 45.9556V34.5889H66.12V38.8789H40.9544C39.6589 38.8789 38.5956 39.93 38.5956 41.2378V60.6956C38.5956 61.9911 39.6589 63.0544 40.9544 63.0544H40.9667ZM79.5644 40.1133C80.1878 40.1133 80.7011 40.6267 80.7011 41.25V60.7078C80.7011 61.3311 80.1878 61.8444 79.5644 61.8444H40.9544C40.3311 61.8444 39.8178 61.3311 39.8178 60.7078V41.25C39.8178 40.6267 40.3311 40.1133 40.9544 40.1133H79.5644ZM67.7822 30.9222H68.1122C69.0411 30.9222 69.7989 31.68 69.7989 32.6089V38.8789H67.3544V33.9778C67.3544 33.6356 67.0856 33.3667 66.7433 33.3667H28.2433V30.9222H56C56.2689 31.4967 56.7456 31.9244 57.3811 32.12C58.2 32.3767 59.1411 32.2056 59.9233 31.7167C60.3144 32.2544 60.9867 32.5967 61.8056 32.6211C61.83 32.6211 61.8544 32.6211 61.8789 32.6211C62.6122 32.6211 63.4189 32.3278 63.9444 31.7167C64.3844 32.12 64.9589 32.3644 65.6067 32.3644H65.6433C66.5967 32.3522 67.3544 31.8267 67.7822 30.9222ZM66.7922 27.6956C67.22 28.2578 67.0489 29.1622 66.8411 29.9567C66.6456 30.7267 66.2422 31.13 65.6311 31.1422C64.91 31.1667 64.4211 30.6411 64.3967 29.9933V29.1256C64.3722 28.7956 64.1033 28.5267 63.7611 28.5267H63.7489C63.4067 28.5267 63.1378 28.8078 63.15 29.15V30.03C63.1744 30.1889 63.1989 30.3356 63.2356 30.47C63.1011 31.13 62.4289 31.3989 61.8422 31.3989C61.4022 31.3867 60.8522 31.1911 60.7789 30.6778C60.6933 30.0422 60.6933 29.8711 60.7178 29.48V29.2478C60.7422 28.9056 60.4856 28.6244 60.1556 28.6C59.7767 28.5633 59.5322 28.8444 59.5078 29.1867V29.4067C59.4711 29.7611 59.4711 30.0056 59.52 30.4944C58.9822 30.9222 58.2856 31.1178 57.7356 30.9467C57.3322 30.8244 57.1 30.5433 57.0145 30.1156C56.9289 29.6389 56.9289 29.6144 56.9533 29.37C56.9656 29.2111 56.99 29.0033 57.0022 28.6367C57.0389 27.61 58.1389 26.8767 59.2144 26.6078C60.2411 26.3511 61.4878 26.4122 62.6 26.4733H62.7833C64.0544 26.5467 65.9856 26.6444 66.7922 27.7078V27.6956ZM49.2289 1.23444C54.5578 1.23444 59.0922 4.43667 60.73 8.86111C52.2233 11.4033 47.1389 5.86667 46.9189 5.62222C46.7478 5.43889 46.4789 5.36556 46.2467 5.46333C46.0144 5.54889 45.8556 5.78111 45.8556 6.03778V9.13C42.7022 8.32333 41.6022 5.03556 41.3211 3.96C43.4478 2.27333 46.21 1.23444 49.2289 1.23444ZM37.08 12.4789C37.08 9.54556 38.3144 6.86889 40.3189 4.86444C40.8933 6.6 42.4944 9.98556 46.3933 10.4744C46.5767 10.4989 46.7478 10.4378 46.87 10.3278C47.0044 10.2056 47.0778 10.0467 47.0778 9.86333V7.41889C48.6544 8.69 51.9056 10.7556 56.4278 10.7556C57.8578 10.7556 59.4222 10.5356 61.0844 10.0344C61.2678 10.8167 61.3778 11.6356 61.3778 12.4789C61.3778 18.6756 55.9267 23.7233 49.2167 23.7233C42.5067 23.7233 37.0556 18.6756 37.0556 12.4789H37.08ZM41.0033 22.2933C43.2767 23.9433 46.1244 24.9456 49.2167 24.9456C52.3089 24.9456 55.0711 23.98 57.32 22.3789C58.2244 22.5011 62.0989 23.1367 64.1522 25.3489C63.6756 25.3 63.2233 25.2756 62.82 25.2511H62.6367C61.4511 25.1778 60.0944 25.1167 58.8967 25.4222C57.4911 25.7767 55.8289 26.8278 55.7678 28.6C55.7678 28.93 55.7433 29.1256 55.7189 29.26C55.7067 29.4311 55.6944 29.5533 55.7067 29.7H39.0233V26.2044C39.0233 25.8622 38.7544 25.5933 38.4122 25.5933C38.07 25.5933 37.8011 25.8622 37.8011 26.2044V29.7H28.2311V24.8844C28.2311 23.5889 27.1678 22.5256 25.8722 22.5256H24.7233C24.87 21.7433 24.9189 20.7289 24.2956 19.91C24.1244 19.69 23.9411 19.5067 23.7333 19.3478C32.5822 18.4311 40.8933 22.2444 40.9911 22.2811L41.0033 22.2933ZM13.5156 22.3422C13.5278 22.1833 13.5522 21.9756 13.5644 21.5967C13.6011 20.57 14.7011 19.8367 15.7767 19.5678C16.8156 19.2989 18.0622 19.3722 19.1744 19.4333H19.3456C19.9567 19.47 20.7022 19.5189 21.4111 19.6656C22.1933 19.8244 22.9267 20.1178 23.3422 20.6678C23.77 21.2422 23.5989 22.1344 23.3911 22.9289C23.1956 23.6989 22.7922 24.1022 22.1811 24.1144H22.1567C21.4967 24.1144 20.9711 23.6011 20.9467 22.9533L20.9222 22.0856C20.9222 21.7433 20.6167 21.5233 20.2989 21.4867C19.9567 21.4867 19.6878 21.78 19.7 22.11L19.7244 22.99C19.7244 23.1489 19.7489 23.2956 19.7856 23.43C19.6511 24.09 18.9789 24.3956 18.3922 24.3589C17.9522 24.3467 17.4022 24.1511 17.3289 23.6378C17.2433 23.0144 17.2433 22.8311 17.2678 22.4522V22.2078C17.2922 21.8656 17.0356 21.5844 16.6933 21.5722C16.3022 21.5478 16.07 21.8167 16.0578 22.1589V22.3911C16.0211 22.7333 16.0211 22.99 16.07 23.4667C15.5322 23.8944 14.8478 24.09 14.2856 23.9189C13.8944 23.7967 13.65 23.5156 13.5644 23.0878C13.4789 22.6111 13.4789 22.5867 13.5033 22.3422H13.5156ZM3.67667 24.8844C3.67667 24.2611 4.19 23.7478 4.81333 23.7478H12.5133C12.7578 24.3956 13.2467 24.8722 13.9311 25.08C14.7378 25.3244 15.6911 25.1656 16.4733 24.6767C16.8644 25.2144 17.5367 25.5567 18.3556 25.5811C18.38 25.5811 18.4044 25.5811 18.4289 25.5811C19.1622 25.5811 19.9689 25.2878 20.4944 24.6767C20.9344 25.08 21.5089 25.3367 22.1567 25.3367H22.1933C23.1956 25.3244 23.9778 24.7378 24.3933 23.76H25.8722C26.4956 23.76 27.0089 24.2733 27.0089 24.8967V45.98C27.0089 46.6033 26.4956 47.1167 25.8722 47.1167H4.81333C4.19 47.1167 3.67667 46.6033 3.67667 45.98V24.8967V24.8844Z" fill="#333333"/>
<path d="M29.9789 55.5133L30.7 54.7922C30.8467 54.6455 30.9078 54.4255 30.8589 54.2178C30.81 54.01 30.6511 53.8389 30.4556 53.7778L24.0144 51.7C23.7944 51.6266 23.55 51.6878 23.3911 51.8466C23.2322 52.0055 23.1711 52.25 23.2445 52.47L25.3222 58.9111C25.3833 59.1189 25.5544 59.2655 25.7622 59.3144C25.97 59.3633 26.19 59.3144 26.3367 59.1555L27.0578 58.4344L29.4533 60.83C29.5756 60.9522 29.7344 61.0133 29.8811 61.0133C30.0278 61.0133 30.1989 60.9522 30.3089 60.83L32.3744 58.7644C32.6189 58.52 32.6189 58.1411 32.3744 57.8966L29.9789 55.5011V55.5133ZM29.8811 59.5344L27.4856 57.1389C27.3633 57.0166 27.2044 56.9555 27.0578 56.9555C26.9111 56.9555 26.74 57.0166 26.63 57.1389L26.19 57.5789L24.7844 53.2278L29.1356 54.6333L28.6956 55.0733C28.4511 55.3178 28.4511 55.6966 28.6956 55.9411L31.0911 58.3366L29.8933 59.5344H29.8811Z" fill="#333333"/>
<path d="M65.6189 10.2056C65.8022 10.2789 65.9856 10.3645 66.1689 10.4378C66.2544 10.4745 66.3278 10.4867 66.4133 10.4867C66.6456 10.4867 66.8778 10.3523 66.9756 10.12C67.11 9.81449 66.9756 9.44783 66.6578 9.31338C66.4622 9.22783 66.2789 9.15449 66.0833 9.06894C65.7656 8.94671 65.4111 9.09338 65.2889 9.39894C65.1544 9.71671 65.3133 10.0712 65.6189 10.1934V10.2056Z" fill="#333333"/>
<path d="M74.6878 16.1455C74.81 16.2555 74.9567 16.3166 75.1156 16.3166C75.2745 16.3166 75.4333 16.2555 75.5556 16.1332C75.7878 15.8888 75.7878 15.4977 75.5433 15.2655C75.2256 14.9477 74.8956 14.6544 74.5533 14.3488C74.2967 14.1288 73.9178 14.1532 73.6856 14.3977C73.4656 14.6544 73.49 15.0332 73.7345 15.2655C74.0522 15.5466 74.37 15.8399 74.6756 16.1455H74.6878Z" fill="#333333"/>
<path d="M69.6033 12.2223C69.97 12.4423 70.3367 12.6745 70.6911 12.9189C70.8011 12.9923 70.9111 13.0289 71.0333 13.0289C71.2289 13.0289 71.4245 12.9312 71.5467 12.7601C71.73 12.4789 71.6567 12.1001 71.3756 11.9167C70.9967 11.6723 70.63 11.4278 70.2389 11.1956C69.9578 11.0245 69.5789 11.1101 69.3956 11.4034C69.2245 11.6967 69.31 12.0634 69.6033 12.2467V12.2223Z" fill="#333333"/>
<path d="M77.6333 19.4945C77.7556 19.6534 77.9389 19.7389 78.1222 19.7389C78.2444 19.7389 78.3789 19.7023 78.4889 19.6167C78.7578 19.4212 78.8189 19.0301 78.6111 18.7612C78.4889 18.5901 78.3544 18.4312 78.2322 18.2601C78.0244 17.9912 77.6333 17.9423 77.3767 18.1501C77.1078 18.3578 77.0589 18.7367 77.2667 19.0056C77.3889 19.1645 77.5111 19.3234 77.6333 19.4823V19.4945Z" fill="#333333"/>
<path d="M9.16445 37.0333C9.25 37.2899 9.48222 37.461 9.75111 37.461H19.7122V39.2088H12.2567C11.0222 39.2088 10.02 40.2111 10.02 41.4455C10.02 42.6799 11.0222 43.6822 12.2567 43.6822C13.4911 43.6822 14.4933 42.6799 14.4933 41.4455C14.4933 41.0788 14.3956 40.7366 14.2367 40.431H18.3311C18.1722 40.7366 18.0744 41.0788 18.0744 41.4455C18.0744 42.6799 19.0767 43.6822 20.3111 43.6822C21.5456 43.6822 22.5478 42.6799 22.5478 41.4455C22.5478 40.4188 21.8511 39.5633 20.9222 39.3066V28.3799H22.89C23.2322 28.3799 23.5011 28.111 23.5011 27.7688C23.5011 27.4266 23.2322 27.1577 22.89 27.1577H20.3111C19.9689 27.1577 19.7 27.4266 19.7 27.7688V29.9933H7.78333C7.58778 29.9933 7.40445 30.091 7.29445 30.2377C7.18445 30.3966 7.14778 30.5922 7.20889 30.7877L9.16445 37.0455V37.0333ZM12.2567 42.4722C11.6944 42.4722 11.2422 42.0199 11.2422 41.4577C11.2422 40.8955 11.6944 40.4433 12.2567 40.4433C12.8189 40.4433 13.2711 40.8955 13.2711 41.4577C13.2711 42.0199 12.8189 42.4722 12.2567 42.4722ZM12.1344 36.2388H10.2033L9.60445 34.3322H12.1344V36.2388ZM20.3233 40.431C20.8856 40.431 21.3378 40.8833 21.3378 41.4455C21.3378 42.0077 20.8856 42.4599 20.3233 42.4599C19.7611 42.4599 19.3089 42.0077 19.3089 41.4455C19.3089 40.8833 19.7611 40.431 20.3233 40.431ZM16.9011 31.2155H19.7122V33.1222H16.9011V31.2155ZM16.9011 34.3322H19.7122V36.2388H16.9011V34.3322ZM13.3567 31.2155H15.6789V33.1222H13.3567V31.2155ZM13.3567 34.3322H15.6789V36.2388H13.3567V34.3322ZM12.1344 31.2155V33.1222H9.22556L8.62667 31.2155H12.1344Z" fill="#333333"/>
<path d="M45.1467 54.0834C45.4889 54.0834 45.7578 53.8145 45.7578 53.4723V46.1389C45.7578 45.7967 45.4889 45.5278 45.1467 45.5278C44.8044 45.5278 44.5356 45.7967 44.5356 46.1389V53.4723C44.5356 53.8145 44.8044 54.0834 45.1467 54.0834Z" fill="#333333"/>
<path d="M47.6767 54.0833C48.0189 54.0833 48.2878 53.8144 48.2878 53.4722V44.8433C48.2878 44.5011 48.0189 44.2322 47.6767 44.2322C47.3344 44.2322 47.0656 44.5011 47.0656 44.8433V53.4722C47.0656 53.8144 47.3344 54.0833 47.6767 54.0833Z" fill="#333333"/>
<path d="M50.1944 54.0834C50.5367 54.0834 50.8056 53.8145 50.8056 53.4723V47.3367C50.8056 46.9945 50.5367 46.7256 50.1944 46.7256C49.8522 46.7256 49.5833 46.9945 49.5833 47.3367V53.4723C49.5833 53.8145 49.8522 54.0834 50.1944 54.0834Z" fill="#333333"/>
<path d="M52.7122 54.0833C53.0544 54.0833 53.3233 53.8144 53.3233 53.4722V44.8433C53.3233 44.5011 53.0544 44.2322 52.7122 44.2322C52.37 44.2322 52.1011 44.5011 52.1011 44.8433V53.4722C52.1011 53.8144 52.37 54.0833 52.7122 54.0833Z" fill="#333333"/>
<path d="M55.23 54.0834C55.5722 54.0834 55.8411 53.8145 55.8411 53.4723V51.0523C55.8411 50.7101 55.5722 50.4412 55.23 50.4412C54.8878 50.4412 54.6189 50.7101 54.6189 51.0523V53.4723C54.6189 53.8145 54.8878 54.0834 55.23 54.0834Z" fill="#333333"/>
<path d="M57.7478 54.0833C58.09 54.0833 58.3589 53.8144 58.3589 53.4722V48.1066C58.3589 47.7644 58.09 47.4955 57.7478 47.4955C57.4056 47.4955 57.1367 47.7644 57.1367 48.1066V53.4722C57.1367 53.8144 57.4056 54.0833 57.7478 54.0833Z" fill="#333333"/>
<path d="M60.2656 54.0833C60.6078 54.0833 60.8767 53.8144 60.8767 53.4722V44.8433C60.8767 44.5011 60.6078 44.2322 60.2656 44.2322C59.9233 44.2322 59.6544 44.5011 59.6544 44.8433V53.4722C59.6544 53.8144 59.9233 54.0833 60.2656 54.0833Z" fill="#333333"/>
<path d="M62.7833 54.0833C63.1256 54.0833 63.3944 53.8144 63.3944 53.4722V44.8433C63.3944 44.5011 63.1256 44.2322 62.7833 44.2322C62.4411 44.2322 62.1722 44.5011 62.1722 44.8433V53.4722C62.1722 53.8144 62.4411 54.0833 62.7833 54.0833Z" fill="#333333"/>
<path d="M65.3011 54.0833C65.6433 54.0833 65.9122 53.8144 65.9122 53.4722V48.2533C65.9122 47.9111 65.6433 47.6422 65.3011 47.6422C64.9589 47.6422 64.69 47.9111 64.69 48.2533V53.4722C64.69 53.8144 64.9589 54.0833 65.3011 54.0833Z" fill="#333333"/>
<path d="M67.8311 54.0833C68.1733 54.0833 68.4422 53.8144 68.4422 53.4722V44.8433C68.4422 44.5011 68.1733 44.2322 67.8311 44.2322C67.4889 44.2322 67.22 44.5011 67.22 44.8433V53.4722C67.22 53.8144 67.4889 54.0833 67.8311 54.0833Z" fill="#333333"/>
<path d="M70.3489 54.0833C70.6911 54.0833 70.96 53.8144 70.96 53.4722V48.1066C70.96 47.7644 70.6911 47.4955 70.3489 47.4955C70.0067 47.4955 69.7378 47.7644 69.7378 48.1066V53.4722C69.7378 53.8144 70.0067 54.0833 70.3489 54.0833Z" fill="#333333"/>
<path d="M72.8667 54.0833C73.2089 54.0833 73.4778 53.8144 73.4778 53.4722V44.8433C73.4778 44.5011 73.2089 44.2322 72.8667 44.2322C72.5244 44.2322 72.2556 44.5011 72.2556 44.8433V53.4722C72.2556 53.8144 72.5244 54.0833 72.8667 54.0833Z" fill="#333333"/>
<path d="M75.3844 54.0833C75.7267 54.0833 75.9956 53.8145 75.9956 53.4722V48.5345C75.9956 48.1922 75.7267 47.9233 75.3844 47.9233C75.0422 47.9233 74.7733 48.1922 74.7733 48.5345V53.4722C74.7733 53.8145 75.0422 54.0833 75.3844 54.0833Z" fill="#333333"/>
<path d="M45.1467 56.9555H46.2833C46.6256 56.9555 46.8944 56.6866 46.8944 56.3444C46.8944 56.0022 46.6256 55.7333 46.2833 55.7333H45.1467C44.8044 55.7333 44.5356 56.0022 44.5356 56.3444C44.5356 56.6866 44.8044 56.9555 45.1467 56.9555Z" fill="#333333"/>
<path d="M48.7889 56.9555H49.9256C50.2678 56.9555 50.5367 56.6866 50.5367 56.3444C50.5367 56.0022 50.2678 55.7333 49.9256 55.7333H48.7889C48.4467 55.7333 48.1778 56.0022 48.1778 56.3444C48.1778 56.6866 48.4467 56.9555 48.7889 56.9555Z" fill="#333333"/>
<path d="M52.4311 56.9555H53.5678C53.91 56.9555 54.1789 56.6866 54.1789 56.3444C54.1789 56.0022 53.91 55.7333 53.5678 55.7333H52.4311C52.0889 55.7333 51.82 56.0022 51.82 56.3444C51.82 56.6866 52.0889 56.9555 52.4311 56.9555Z" fill="#333333"/>
<path d="M55.45 56.3444C55.45 56.6866 55.7189 56.9555 56.0611 56.9555H57.1978C57.54 56.9555 57.8089 56.6866 57.8089 56.3444C57.8089 56.0022 57.54 55.7333 57.1978 55.7333H56.0611C55.7189 55.7333 55.45 56.0022 55.45 56.3444Z" fill="#333333"/>
<path d="M59.7033 56.9555H60.84C61.1822 56.9555 61.4511 56.6866 61.4511 56.3444C61.4511 56.0022 61.1822 55.7333 60.84 55.7333H59.7033C59.3611 55.7333 59.0922 56.0022 59.0922 56.3444C59.0922 56.6866 59.3611 56.9555 59.7033 56.9555Z" fill="#333333"/>
<path d="M62.7222 56.3444C62.7222 56.6866 62.9911 56.9555 63.3333 56.9555H64.47C64.8122 56.9555 65.0811 56.6866 65.0811 56.3444C65.0811 56.0022 64.8122 55.7333 64.47 55.7333H63.3333C62.9911 55.7333 62.7222 56.0022 62.7222 56.3444Z" fill="#333333"/>
<path d="M66.9756 56.9555H68.1122C68.4545 56.9555 68.7233 56.6866 68.7233 56.3444C68.7233 56.0022 68.4545 55.7333 68.1122 55.7333H66.9756C66.6333 55.7333 66.3645 56.0022 66.3645 56.3444C66.3645 56.6866 66.6333 56.9555 66.9756 56.9555Z" fill="#333333"/>
<path d="M70.0067 56.3444C70.0067 56.6866 70.2756 56.9555 70.6178 56.9555H71.7545C72.0967 56.9555 72.3656 56.6866 72.3656 56.3444C72.3656 56.0022 72.0967 55.7333 71.7545 55.7333H70.6178C70.2756 55.7333 70.0067 56.0022 70.0067 56.3444Z" fill="#333333"/>
<path d="M74.2478 56.9555H75.3845C75.7267 56.9555 75.9956 56.6866 75.9956 56.3444C75.9956 56.0022 75.7267 55.7333 75.3845 55.7333H74.2478C73.9056 55.7333 73.6367 56.0022 73.6367 56.3444C73.6367 56.6866 73.9056 56.9555 74.2478 56.9555Z" fill="#333333"/>
<defs>
<linearGradient id="paint0_linear_18_733" x1="33.0222" y1="82.0356" x2="50.28" y2="82.0356" gradientUnits="userSpaceOnUse">
<stop stop-color="#77DBFF"/>
<stop offset="1" stop-color="#3198FF"/>
</linearGradient>
<linearGradient id="paint1_linear_18_733" x1="39.83" y1="50.9668" x2="80.7011" y2="50.9668" gradientUnits="userSpaceOnUse">
<stop stop-color="#9DFED1"/>
<stop offset="0.69" stop-color="#3DDBBD"/>
<stop offset="1" stop-color="#11CBB4"/>
</linearGradient>
<linearGradient id="paint2_linear_18_733" x1="83.0356" y1="26.0088" x2="86.2622" y2="26.0088" gradientUnits="userSpaceOnUse">
<stop stop-color="#77DBFF"/>
<stop offset="1" stop-color="#3198FF"/>
</linearGradient>
<linearGradient id="paint3_linear_18_733" x1="83.0356" y1="31.5332" x2="86.2622" y2="31.5332" gradientUnits="userSpaceOnUse">
<stop stop-color="#77DBFF"/>
<stop offset="1" stop-color="#3198FF"/>
</linearGradient>
<linearGradient id="paint4_linear_18_733" x1="75.7633" y1="31.5332" x2="78.99" y2="31.5332" gradientUnits="userSpaceOnUse">
<stop stop-color="#77DBFF"/>
<stop offset="1" stop-color="#3198FF"/>
</linearGradient>
<linearGradient id="paint5_linear_18_733" x1="79.2955" y1="25.8132" x2="82.73" y2="25.8132" gradientUnits="userSpaceOnUse">
<stop stop-color="#77DBFF"/>
<stop offset="1" stop-color="#3198FF"/>
</linearGradient>
<linearGradient id="paint6_linear_18_733" x1="75.7633" y1="26.0088" x2="78.99" y2="26.0088" gradientUnits="userSpaceOnUse">
<stop stop-color="#77DBFF"/>
<stop offset="1" stop-color="#3198FF"/>
</linearGradient>
<linearGradient id="paint7_linear_18_733" x1="79.2956" y1="31.7287" x2="82.73" y2="31.7287" gradientUnits="userSpaceOnUse">
<stop stop-color="#77DBFF"/>
<stop offset="1" stop-color="#3198FF"/>
</linearGradient>
<linearGradient id="paint8_linear_18_733" x1="23.7456" y1="24.4566" x2="64.1644" y2="24.4566" gradientUnits="userSpaceOnUse">
<stop stop-color="#77DBFF"/>
<stop offset="1" stop-color="#3198FF"/>
</linearGradient>
<linearGradient id="paint9_linear_18_733" x1="3.67667" y1="35.4201" x2="27.0211" y2="35.4201" gradientUnits="userSpaceOnUse">
<stop stop-color="#9DFED1"/>
<stop offset="0.69" stop-color="#3DDBBD"/>
<stop offset="1" stop-color="#11CBB4"/>
</linearGradient>
</defs>
</svg>
