<svg width="88" height="88" viewBox="0 0 88 88" fill="none" xmlns="http://www.w3.org/2000/svg">
<g clip-path="url(#clip0_18_551)">
<path d="M36 72C55.8823 72 72 55.8823 72 36C72 16.1177 55.8823 0 36 0C16.1177 0 0 16.1177 0 36C0 55.8823 16.1177 72 36 72Z" fill="#E6FAF9" fill-opacity="0.6"/>
<path d="M62.5656 8.73889C63.6167 8.21334 64.3989 7.26001 64.68 6.12334C64.7533 5.80556 64.79 5.48778 64.79 5.15778C64.79 2.93334 62.9811 1.12445 60.7567 1.12445C58.5322 1.12445 56.7845 2.88445 56.7356 5.06001C59.07 5.69556 61.0989 6.99112 62.5656 8.73889Z" fill="url(#paint0_linear_18_551)"/>
<path d="M55.6844 78.1611H56.8333C57.8844 78.1611 58.85 77.6845 59.4856 76.8411C60.0356 76.12 60.2311 75.2156 60.0967 74.3356H60.0111C57.7867 74.3356 55.9656 76.01 55.6844 78.1611Z" fill="#333333"/>
<path d="M42.7167 66.9411H8.39667V74.8122H8.77556H37.7056C37.7056 73.4678 38.3289 72.1844 39.4289 71.3411L43.2056 68.42L42.7289 66.9533L42.7167 66.9411Z" fill="white"/>
<path d="M66.1833 78.2711L68.2122 78.9311C68.5056 79.0289 68.6644 79.3467 68.5667 79.64C68.4933 79.8722 68.2733 80.0311 68.0289 80.0311C67.9678 80.0311 67.9189 80.0311 67.8578 80.0067L65.8411 79.3589L65.4622 80.5811L67.2467 81.1556C67.54 81.2533 67.6989 81.5711 67.6011 81.8645C67.5278 82.0967 67.3078 82.2556 67.0633 82.2556C67.0022 82.2556 66.9533 82.2556 66.8922 82.2311L65.1322 81.6567L64.79 82.7811C64.3867 84.0889 64.8633 85.4945 65.9633 86.3011C67.1367 87.1445 68.7256 87.0956 69.85 86.1789L78.9556 78.6989C77.3667 76.3889 77.7333 73.1989 79.9333 71.3656L80.1289 71.2067L77.6967 68.1022L66.4767 77.3056L66.1711 78.3078L66.1833 78.2711Z" fill="url(#paint1_linear_18_551)"/>
<path d="M79.8233 77.9778L80.85 77.1345C82.1945 76.0345 82.4145 74.0911 81.3389 72.7223L80.8256 72.0623L80.6545 72.1967C78.9311 73.6389 78.6133 76.1323 79.8233 77.9656V77.9778Z" fill="#333333"/>
<path d="M42.13 78.1611H54.56C54.8411 75.4478 57.0656 73.3211 59.8278 73.2356L58.6667 69.1656H44.0367L43.1689 69.8378L44.4889 71.2067C44.7089 71.4267 44.6967 71.7811 44.4767 72.0011C44.3667 72.1111 44.2322 72.16 44.0856 72.16C43.9389 72.16 43.7922 72.0989 43.6822 71.9889L42.2767 70.5345L41.2622 71.3289L42.6189 72.7223C42.8389 72.9423 42.8267 73.2967 42.6067 73.5167C42.4967 73.6267 42.3622 73.6756 42.2156 73.6756C42.0689 73.6756 41.9222 73.6145 41.8122 73.5045L40.37 72.0134L40.1011 72.2211C39.0378 73.04 38.5856 74.4089 38.9156 75.6923C39.2944 77.1467 40.6267 78.1734 42.13 78.1734V78.1611Z" fill="url(#paint2_linear_18_551)"/>
<path d="M47.0434 79.2856H42.13H12.43V86.8756H60.8178V79.2856H56.8334H47.0434Z" fill="white"/>
<path d="M63.2622 9.6678C64.2033 11.0734 64.8022 12.6867 64.9489 14.4345C65.4133 14.6178 65.9022 14.7278 66.4156 14.7278C68.64 14.7278 70.4489 12.9189 70.4489 10.6945C70.4489 8.47002 68.64 6.66113 66.4156 6.66113C66.1589 6.66113 65.9022 6.6978 65.6578 6.74669C65.2544 7.99336 64.3989 9.04447 63.25 9.68002L63.2622 9.6678Z" fill="url(#paint3_linear_18_551)"/>
<path d="M61.4167 55.9778L55.7945 57.0778L58.7767 65.9389L66.11 76.1322L77.0245 67.1733L66.3422 52.8245C65.1567 54.4622 63.4211 55.5745 61.4045 55.9656L61.4167 55.9778Z" fill="white"/>
<path d="M25.2267 43.6456L22.3056 42.35C22.1467 42.2767 22.0367 42.1422 21.9878 41.9711L20.9733 37.8644H14.1167L13.1022 41.9711C13.0656 42.1422 12.9433 42.2767 12.7845 42.35L9.86335 43.6456C8.9589 44.0489 8.32335 44.8678 8.14001 45.8211H26.95C26.7667 44.8678 26.1311 44.0489 25.2267 43.6456Z" fill="white"/>
<path d="M56.1489 36.2023C57.75 35.5789 61.0256 34.0023 63.0911 32.1445L61.3189 27.4267L48.1678 32.3523L50.4411 38.4267C52.5189 37.51 55.66 36.3856 56.1489 36.2145V36.2023Z" fill="#333333"/>
<path d="M53.5578 45.3078L52.1889 45.8211C52.0911 45.87 52.0178 45.9434 51.9445 46.0289C51.9322 46.0534 51.92 46.0656 51.8956 46.09C51.7 46.3711 51.6389 46.7622 51.81 47.1167C52.0422 47.5934 52.6167 47.8134 53.0933 47.5934L53.24 47.5445L59.3389 45.32L56.0145 37.4489C54.4989 37.9989 51.7733 39.0134 50.3067 39.71C49.94 39.8811 49.6467 40.04 49.4756 40.1622C49.1822 40.37 49.06 40.6389 49.1089 40.9811C49.17 41.4578 49.5733 41.91 50.0867 42.1667C50.9789 41.7389 51.8467 41.5311 51.8833 41.5311C52.1889 41.4578 52.4822 41.6534 52.5556 41.9589C52.6289 42.2645 52.4333 42.5578 52.1278 42.6311C52.1278 42.6311 51.1867 42.8511 50.3556 43.2911C49.9522 43.5111 50.1478 44.0856 50.1845 44.1956C50.3433 44.6111 50.7956 45.1611 51.4067 45.0267C51.5045 44.9534 51.6145 44.88 51.7245 44.8189L53.1667 44.2811C53.4478 44.1711 53.7778 44.3178 53.8878 44.6111C53.9978 44.9045 53.8511 45.2222 53.5578 45.3322V45.3078Z" fill="white"/>
<path d="M60.2556 46.1756L54.1567 48.4L54.8045 50.1356L67.9556 45.21L67.2833 43.4133C63.9222 45.1856 60.6467 46.0778 60.2433 46.1756H60.2556Z" fill="#333333"/>
<path d="M69.3 14.96C69.3 14.96 69.3 15.0211 69.3 15.0455C69.3 17.27 71.1089 19.0789 73.3334 19.0789C75.5578 19.0789 77.3667 17.27 77.3667 15.0455C77.3667 12.8211 75.5578 11.0122 73.3334 11.0122C72.6978 11.0122 72.0622 11.1711 71.5 11.4644C71.28 12.9189 70.4734 14.1655 69.3 14.96Z" fill="url(#paint4_linear_18_551)"/>
<path d="M17.5389 49.4144C19.0178 49.4144 20.2522 48.3511 20.5089 46.9456H14.5689C14.8378 48.3511 16.06 49.4144 17.5389 49.4144Z" fill="url(#paint5_linear_18_551)"/>
<path d="M63.1645 11.8189C61.6611 8.27443 57.9333 5.75665 53.57 5.75665C52.69 5.75665 51.8467 5.86665 51.04 6.06221C52.0667 7.79776 55.6356 12.6255 63.1645 11.8311V11.8189Z" fill="url(#paint6_linear_18_551)"/>
<path d="M58.3122 68.0411L53.3989 53.46C53.3011 53.1667 53.46 52.8489 53.7533 52.7511C54.0467 52.6533 54.3645 52.8122 54.4622 53.1056L55.44 56.0145L61.2089 54.89C63.1156 54.5233 64.7289 53.4111 65.7556 51.7611C66.66 50.3067 66.9778 48.5711 66.6722 46.9089L54.6822 51.3945C54.6211 51.4189 54.5478 51.4311 54.4867 51.4311C54.4011 51.4311 54.3278 51.4189 54.2545 51.3822C54.12 51.3211 54.01 51.2111 53.9611 51.0645L53.1056 48.7667C52.9711 48.7911 52.8367 48.8033 52.7022 48.8033C51.92 48.8033 51.1622 48.3633 50.7956 47.6056C50.5878 47.1656 50.5389 46.6889 50.6367 46.2489H48.6445L44.3422 47.8622C41.0545 49.0967 39.3189 52.7022 40.3945 56.0511L44.2445 68.0533H58.3L58.3122 68.0411Z" fill="white"/>
<path d="M18.5044 15.9745C18.3822 15.8767 18.2356 15.7667 18.0156 15.6078C17.7833 15.4367 17.5756 15.2411 17.4167 15.0089C16.6833 15.0334 16.4267 15.6322 16.3656 15.8156C16.2311 16.2434 16.2678 16.8789 16.83 17.2822C17.0867 17.4656 17.2333 17.5878 17.3311 17.6734C17.49 17.7956 17.5022 17.82 17.8689 17.9789C18.1989 18.1256 18.4922 18.0889 18.7611 17.8811C19.1278 17.5878 19.3111 17.0256 19.2744 16.4634C18.9322 16.28 18.7611 16.1578 18.5044 15.9622V15.9745Z" fill="white"/>
<path d="M26.4367 9.82669C26.29 9.28891 25.7156 8.95891 25.1656 9.10558C24.64 9.24002 24.31 9.74113 24.3956 10.2789L24.5667 11.3789C24.5667 11.3789 24.5667 11.3911 24.5667 11.4034C24.5667 11.44 24.5667 11.4767 24.5667 11.5256C24.5667 11.5622 24.5667 11.5989 24.5545 11.6234C24.5545 11.66 24.53 11.6845 24.5056 11.7089C24.4933 11.7456 24.4689 11.7822 24.4445 11.8067C24.4445 11.8067 24.4445 11.8189 24.4322 11.8311C24.4078 11.8556 24.3833 11.8678 24.3711 11.88C24.3467 11.9045 24.3222 11.9289 24.2856 11.9411C24.2489 11.9656 24.2122 11.9778 24.1633 11.99C24.1389 11.99 24.1267 12.0145 24.1022 12.0145C24.1022 12.0145 24.09 12.0145 24.0778 12.0145C24.0411 12.0145 23.9922 12.0145 23.9556 12.0145C23.9189 12.0145 23.8822 12.0145 23.8578 12.0022C23.8333 12.0022 23.8089 11.9778 23.7722 11.9656C23.7356 11.9411 23.6989 11.9289 23.6622 11.9045C23.6622 11.9045 23.65 11.9045 23.6378 11.9045C22.6967 11.0734 20.0078 8.80002 18.9689 8.28669C18.4922 8.05447 17.9178 8.31113 17.5878 8.69002C17.4656 8.82447 17.1111 9.30113 17.4167 9.76558C17.9056 10.4867 18.7733 11.0978 19.0911 11.3056C19.2867 11.3056 19.4945 11.3178 19.69 11.3789C20.4967 11.6111 21.0345 12.1856 21.5111 12.6989C21.6211 12.8089 21.7189 12.9311 21.8289 13.0289C22.2811 13.4934 22.4278 14.0556 22.3911 14.5934C22.2689 16.0111 23.4178 16.7322 23.4667 16.7567C23.7233 16.9156 23.8089 17.2578 23.65 17.5267C23.54 17.6978 23.3567 17.7956 23.1733 17.7956C23.0756 17.7956 22.9778 17.7711 22.8922 17.7222C22.8433 17.6978 22.0489 17.1967 21.5967 16.2311C21.2422 16.5489 20.8389 16.7322 20.4111 16.7567C20.3745 17.5511 20.0322 18.2967 19.47 18.7489C19.3356 18.8589 19.1889 18.92 19.0422 18.9934L22.6233 21.7311L27.8545 15.6078L26.4367 9.82669Z" fill="white"/>
<path d="M51.1011 25.6789C51.4922 26.4489 52.4578 26.9867 53.57 26.9867C54.6822 26.9867 55.6478 26.4489 56.0389 25.6789C55.2445 25.85 54.4134 25.9356 53.57 25.9356C52.7267 25.9356 51.8956 25.8378 51.1011 25.6789Z" fill="white"/>
<path d="M21.0222 13.8233C20.9122 13.7133 20.79 13.5911 20.68 13.4689C20.2645 13.0167 19.8733 12.6011 19.3722 12.4545C19.2989 12.43 19.2133 12.4178 19.1278 12.4178C18.7245 12.4178 18.2845 12.6378 18.15 12.9556C17.8811 13.5545 18.1133 14.3122 18.6511 14.6911C18.8956 14.8622 19.0545 14.9845 19.1767 15.0822C19.4333 15.2778 19.5556 15.3756 20.0322 15.6078C20.4111 15.7911 20.79 15.51 20.9978 15.2167C21.1078 15.0578 21.2178 14.8256 21.2545 14.5689C21.2545 14.5567 21.2545 14.5445 21.2545 14.52C21.2667 14.2878 21.2178 14.0433 21.01 13.8356L21.0222 13.8233Z" fill="white"/>
<path d="M50.5756 24.3956C51.5289 24.6645 52.5311 24.8111 53.57 24.8111C54.6089 24.8111 55.6233 24.6645 56.5645 24.3956C56.5889 24.3956 56.6133 24.3834 56.6378 24.3711C60.8178 23.1611 63.8611 19.5434 63.8611 15.2778C63.8611 14.4589 63.7389 13.6645 63.5311 12.9067C62.8467 12.9922 62.1745 13.0411 61.5389 13.0411C54.3033 13.0411 50.82 7.92002 49.9278 6.3678C46.0289 7.72446 43.2545 11.2078 43.2545 15.2778C43.2545 19.3478 46.2978 23.1611 50.4778 24.3711C50.5022 24.3711 50.5267 24.3711 50.5511 24.3956H50.5756ZM56.3933 12.8945C56.9067 12.8945 57.31 13.3834 57.31 13.9822C57.31 14.5811 56.8945 15.07 56.3933 15.07C55.8922 15.07 55.4767 14.5811 55.4767 13.9822C55.4767 13.3834 55.8922 12.8945 56.3933 12.8945ZM49.8422 13.97C49.8422 13.3711 50.2578 12.8822 50.7589 12.8822C51.26 12.8822 51.6756 13.3711 51.6756 13.97C51.6756 14.5689 51.26 15.0578 50.7589 15.0578C50.2578 15.0578 49.8422 14.5689 49.8422 13.97ZM50.7589 16.6956H56.7967C57.1022 16.6956 57.3589 16.94 57.3589 17.2578C57.3589 19.2378 55.7578 20.8389 53.7778 20.8389C51.7978 20.8389 50.1967 19.2378 50.1967 17.2578C50.1967 16.9522 50.4411 16.6956 50.7589 16.6956Z" fill="white"/>
<path d="M53.7778 19.7145C54.9389 19.7145 55.9167 18.9078 56.1733 17.8078H51.3822C51.6389 18.8956 52.6167 19.7145 53.7778 19.7145Z" fill="white"/>
<path d="M41.6411 63.58H5.97668V65.8167H42.3622L41.6411 63.58Z" fill="#333333"/>
<path d="M39.1967 78.1611C38.5489 77.5989 38.06 76.8411 37.8278 75.9733C37.8278 75.9611 37.8278 75.9367 37.8278 75.9244H8.77557L5.97668 75.9855V78.1733H39.1967V78.1611Z" fill="#333333"/>
<path d="M49.4511 45.1245C49.3289 44.9533 49.2311 44.77 49.1578 44.5745C48.9256 43.9756 48.9745 43.4011 49.2189 42.9489C48.5711 42.5089 48.1067 41.8367 48.0089 41.1278C47.8989 40.3822 48.2044 39.6856 48.84 39.2456C48.9744 39.1478 49.1822 39.0378 49.4145 38.9033L46.9089 32.2178C46.7989 31.9245 46.9456 31.6067 47.2389 31.4967L61.4411 26.18C61.7222 26.07 62.0522 26.2167 62.1622 26.51L63.9467 31.2645C64.5211 30.58 64.9 29.8711 64.9122 29.1622C64.9122 28.8567 65.1689 28.6245 65.4744 28.6245H65.4867C65.7922 28.6245 66.0367 28.8933 66.0245 29.1989C65.9878 30.4333 65.23 31.5945 64.1667 32.6456C64.13 32.6945 64.0933 32.7311 64.0444 32.7678C61.8322 34.87 58.3856 36.4711 57.0656 37.0333L60.4022 44.9656C62.9078 44.2322 74.6656 40.3578 73.7489 33.0611C72.6245 24.0411 60.4144 24.4811 59.18 24.5422C58.5811 24.86 57.9456 25.1289 57.2856 25.3367C57.0289 26.8889 55.4645 28.0989 53.5456 28.0989C51.6267 28.0989 50.0622 26.8889 49.8056 25.3367C49.3167 25.1778 48.84 24.9945 48.3878 24.7745C38.3167 25.74 30.3845 18.5167 28.4533 16.5856L23.3689 22.5378C29.2111 31.24 41.4211 33.7578 44.6967 34.2956L44.0367 31.9978C43.9511 31.7045 44.1222 31.3867 44.4278 31.3011C44.7211 31.2156 45.0389 31.3867 45.1244 31.68L46.0167 34.8089L48.9378 45.1122H49.4145L49.4511 45.1245Z" fill="url(#paint7_linear_18_551)"/>
<path d="M5.41446 79.2856H11.3178V87.4378C11.3178 87.7434 11.5622 88 11.88 88H61.3922C61.6978 88 61.9545 87.7556 61.9545 87.4378V78.7234C61.9545 78.4178 61.71 78.1611 61.3922 78.1611H59.7789C59.9989 77.9656 60.2067 77.7578 60.39 77.5133C61.2333 76.3889 61.5022 74.9711 61.1111 73.6267L59.9133 69.4222L65.4011 77.0489L63.7389 82.4267C63.1889 84.1867 63.8367 86.1056 65.3278 87.1811C66.0856 87.7311 66.9656 88 67.8456 88C68.8111 88 69.7889 87.67 70.5711 87.0222L81.5711 78.0022C83.3922 76.5111 83.6856 73.8833 82.2311 72.0378L78.2589 66.9411L67.0022 51.81C67.8578 50.1722 68.1145 48.29 67.7478 46.4933L68.9089 46.0533C69.0433 46.0045 69.1656 45.8945 69.2267 45.76C69.2878 45.6256 69.2878 45.4667 69.2389 45.3322L68.31 42.8511C72.0133 40.7 75.46 37.4367 74.8978 32.9145C73.8833 24.75 64.9611 23.5278 60.9522 23.4056C63.3478 21.5233 64.8878 18.7245 64.9978 15.6078C65.4622 15.7422 65.9389 15.84 66.44 15.84C67.0756 15.84 67.6745 15.7056 68.2367 15.4978C68.4689 18.1256 70.6567 20.2034 73.3456 20.2034C75.3989 20.2034 77.1589 18.9933 77.99 17.2456L80.5078 20.02C80.6178 20.1422 80.7645 20.2034 80.9233 20.2034C81.0578 20.2034 81.1922 20.1545 81.3022 20.0567C81.5344 19.8489 81.5467 19.4945 81.3389 19.2622L78.87 16.5489L82.06 15.8278C82.3656 15.7545 82.5489 15.4611 82.4878 15.1556C82.4267 14.85 82.1211 14.6545 81.8156 14.7278L78.4545 15.4856C78.4667 15.3389 78.5033 15.1922 78.5033 15.0456C78.5033 12.1978 76.1933 9.88779 73.3456 9.88779C72.7222 9.88779 72.1233 10.01 71.5489 10.2178C71.3167 7.59001 69.1289 5.52446 66.44 5.52446C66.2567 5.52446 66.0856 5.53668 65.9145 5.56113C65.9145 5.42668 65.9389 5.28002 65.9389 5.14557C65.9389 2.29779 63.6289 -0.012207 60.7811 -0.012207C57.9333 -0.012207 55.8311 2.12668 55.66 4.80335C54.9878 4.69335 54.3033 4.62002 53.5945 4.62002C52.3478 4.62002 51.15 4.81557 50.0256 5.15779C50.0256 5.15779 50.0011 5.15779 49.9889 5.15779C45.4545 6.57557 42.1667 10.56 42.1667 15.2533C42.1667 18.7 43.9389 21.7556 46.6645 23.6989C37.18 23.6989 29.8222 16.3167 28.9911 15.4367L27.5367 9.5089C27.2189 8.37224 26.0456 7.68779 24.8967 7.98113C23.9311 8.22557 23.2833 9.09335 23.2711 10.0589C22.1222 9.09335 20.3745 7.67557 19.47 7.23557C18.59 6.80779 17.4778 7.07668 16.7445 7.90779C16.0967 8.65335 15.9989 9.60668 16.4878 10.3522C16.8422 10.89 17.3556 11.3545 17.7833 11.6967C17.5022 11.8922 17.27 12.1489 17.1356 12.4545C16.9278 12.9189 16.8911 13.4322 16.9767 13.9211C16.2067 14.0922 15.5711 14.63 15.3022 15.4367C14.9722 16.4511 15.3267 17.5389 16.17 18.1622C16.4022 18.3333 16.5245 18.4311 16.6222 18.5045C16.7689 18.6267 16.8667 18.6878 17.0133 18.7733C17.05 18.8222 17.0745 18.8589 17.1233 18.8956L22.2933 22.8556C28.7467 32.8045 42.5578 35.1145 45.0756 35.4567L47.8745 45.3078L43.9633 46.7867C40.1133 48.2411 38.0845 52.4456 39.3433 56.3567L41.2867 62.4189H5.41446C5.1089 62.4189 4.85223 62.6633 4.85223 62.9811V66.3422C4.85223 66.6478 5.09668 66.9045 5.41446 66.9045H7.27223V74.8L5.40223 74.8367C5.09668 74.8367 4.85223 75.0933 4.85223 75.3989V78.6867C4.85223 78.9922 5.09668 79.2489 5.41446 79.2489V79.2856ZM60.8178 79.2856V86.8878H12.43V79.2856H60.8178ZM40.1011 72.2089L40.37 72.0011L41.8122 73.4922C41.9222 73.6022 42.0689 73.6633 42.2156 73.6633C42.3622 73.6633 42.4967 73.6145 42.6067 73.5045C42.8267 73.2845 42.8389 72.93 42.6189 72.71L41.2622 71.3167L42.2767 70.5222L43.6822 71.9767C43.7922 72.0867 43.9389 72.1478 44.0856 72.1478C44.2322 72.1478 44.3667 72.0989 44.4767 71.9889C44.6967 71.7689 44.7089 71.4145 44.4889 71.1945L43.1689 69.8256L44.0367 69.1534H58.6667L59.8278 73.2233C57.0656 73.3089 54.8411 75.4356 54.56 78.1489H42.13C40.6267 78.1489 39.2945 77.1345 38.9156 75.6678C38.5733 74.3722 39.0378 73.0156 40.1011 72.1967V72.2089ZM37.6933 74.8H8.39668V66.9289H42.7289L43.2056 68.3956L39.4289 71.3167C38.3289 72.16 37.7178 73.4556 37.7056 74.7878L37.6933 74.8ZM60.0111 74.3356H60.0967C60.2311 75.2156 60.0356 76.1078 59.4856 76.8411C58.85 77.6845 57.8845 78.1611 56.8333 78.1611H55.6845C55.9656 76.01 57.7867 74.3356 60.0111 74.3356ZM80.8256 72.0622L81.3389 72.7222C82.4145 74.0911 82.1945 76.0345 80.85 77.1345L79.8233 77.9778C78.6133 76.1445 78.9311 73.6511 80.6544 72.2089L80.8256 72.0745V72.0622ZM80.1411 71.1822L79.9456 71.3411C77.7456 73.1745 77.3667 76.3645 78.9678 78.6745L69.8622 86.1545C68.75 87.0711 67.1489 87.12 65.9756 86.2767C64.8756 85.4822 64.3989 84.0645 64.8022 82.7567L65.1445 81.6322L66.9045 82.2067C66.9045 82.2067 67.0145 82.2311 67.0756 82.2311C67.3078 82.2311 67.5278 82.0845 67.6133 81.84C67.7111 81.5467 67.5522 81.2289 67.2589 81.1311L65.4745 80.5567L65.8533 79.3345L67.87 79.9822C67.87 79.9822 67.98 80.0067 68.0411 80.0067C68.2733 80.0067 68.4933 79.86 68.5789 79.6156C68.6767 79.3222 68.5178 79.0045 68.2245 78.9067L66.1956 78.2467L66.5011 77.2445L77.7211 68.0411L80.1533 71.1456L80.1411 71.1822ZM77.0367 67.1856L66.1222 76.1445L58.7889 65.9511L55.8067 57.09L61.4289 55.99C63.4456 55.5989 65.1689 54.4867 66.3667 52.8489L77.0489 67.1978L77.0367 67.1856ZM54.8167 50.1356L54.1689 48.4L60.2678 46.1756C60.6589 46.0778 63.9467 45.1856 67.3078 43.4133L67.98 45.21L54.8289 50.1356H54.8167ZM53.8878 44.5867C53.7778 44.2933 53.4478 44.1467 53.1667 44.2567L51.7245 44.7945C51.6145 44.8556 51.5045 44.9289 51.4067 45.0022C50.7956 45.1367 50.3433 44.5867 50.1845 44.1711C50.1478 44.0611 49.9522 43.4867 50.3556 43.2667C51.1867 42.8145 52.1278 42.6067 52.1278 42.6067C52.4333 42.5333 52.6167 42.24 52.5556 41.9345C52.4945 41.6289 52.1889 41.4333 51.8833 41.5067C51.8467 41.5067 50.9789 41.7145 50.0867 42.1422C49.5733 41.8978 49.17 41.4333 49.1089 40.9567C49.06 40.6267 49.1822 40.3456 49.4756 40.1378C49.6467 40.0156 49.94 39.8689 50.3067 39.6856C51.7856 38.9889 54.4989 37.9745 56.0145 37.4245L59.3389 45.2956L53.24 47.52L53.0933 47.5689C52.6045 47.7767 52.0422 47.5689 51.81 47.0922C51.6389 46.7378 51.7 46.3467 51.8956 46.0656C51.9078 46.0533 51.92 46.0289 51.9445 46.0045C52.0178 45.9189 52.0911 45.8456 52.1889 45.7967L53.5578 45.2833C53.8511 45.1733 53.9978 44.8556 53.8878 44.5622V44.5867ZM48.1678 32.3522L61.3189 27.4267L63.0911 32.1445C61.0256 34.0022 57.75 35.5667 56.1489 36.2022C55.66 36.3733 52.5189 37.4978 50.4411 38.4145L48.1678 32.34V32.3522ZM73.3333 11.0245C75.5578 11.0245 77.3667 12.8333 77.3667 15.0578C77.3667 17.2822 75.5578 19.0911 73.3333 19.0911C71.1089 19.0911 69.3 17.2822 69.3 15.0578C69.3 15.0211 69.3 14.9967 69.3 14.9722C70.4611 14.19 71.28 12.9311 71.5 11.4767C72.0622 11.1833 72.6978 11.0245 73.3333 11.0245ZM66.4278 6.6489C68.6522 6.6489 70.4611 8.45779 70.4611 10.6822C70.4611 12.9067 68.6522 14.7156 66.4278 14.7156C65.9145 14.7156 65.4256 14.6056 64.9611 14.4222C64.8145 12.6867 64.2156 11.0611 63.2745 9.65557C64.4111 9.02002 65.2789 7.9689 65.6822 6.72224C65.9267 6.67335 66.1833 6.63668 66.44 6.63668L66.4278 6.6489ZM60.7689 1.12446C62.9933 1.12446 64.8022 2.93335 64.8022 5.15779C64.8022 5.48779 64.7656 5.80557 64.6922 6.12335C64.4111 7.27224 63.6167 8.21335 62.5778 8.7389C61.1111 6.99113 59.0822 5.69557 56.7478 5.06002C56.7967 2.88446 58.5811 1.12446 60.7689 1.12446ZM53.57 5.75668C57.9333 5.75668 61.6611 8.27446 63.1645 11.8189C55.6356 12.6256 52.0667 7.78557 51.04 6.05001C51.8467 5.85446 52.7022 5.74446 53.57 5.74446V5.75668ZM43.2667 15.29C43.2667 11.22 46.0533 7.7489 49.94 6.38002C50.8322 7.93224 54.3156 13.0533 61.5511 13.0533C62.1867 13.0533 62.8467 13.0045 63.5433 12.9189C63.7511 13.6767 63.8733 14.4711 63.8733 15.29C63.8733 19.5556 60.83 23.1733 56.65 24.3834C56.6256 24.3834 56.6011 24.3833 56.5767 24.4078C55.6233 24.6767 54.6211 24.8233 53.5822 24.8233C52.5433 24.8233 51.5289 24.6767 50.5878 24.4078C50.5633 24.4078 50.5389 24.3956 50.5145 24.3834C46.3345 23.1733 43.2911 19.5556 43.2911 15.29H43.2667ZM56.0511 25.6789C55.66 26.4489 54.6945 26.9867 53.5822 26.9867C52.47 26.9867 51.5045 26.4489 51.1133 25.6789C51.9078 25.8378 52.7389 25.9356 53.5822 25.9356C54.4256 25.9356 55.2567 25.8378 56.0511 25.6789ZM17.8689 17.9789C17.5022 17.82 17.4778 17.7956 17.3311 17.6733C17.2333 17.5878 17.0867 17.4778 16.83 17.2822C16.2678 16.8789 16.2311 16.2311 16.3656 15.8156C16.4267 15.6322 16.6833 15.0333 17.4167 15.0089C17.5756 15.2411 17.7833 15.4367 18.0156 15.6078C18.2356 15.7667 18.3822 15.8767 18.5045 15.9745C18.7611 16.17 18.9322 16.2922 19.2745 16.4756C19.3111 17.0378 19.1278 17.6 18.7611 17.8933C18.5045 18.1011 18.1989 18.1378 17.8689 17.9911V17.9789ZM21.2667 14.5567C21.2422 14.8133 21.12 15.0456 21.01 15.2045C20.8022 15.4978 20.4111 15.7911 20.0445 15.5956C19.5556 15.3633 19.4456 15.2656 19.1889 15.07C19.0545 14.9722 18.8956 14.85 18.6633 14.6789C18.1133 14.3 17.8933 13.53 18.1622 12.9433C18.2967 12.6378 18.7489 12.4056 19.14 12.4056C19.2256 12.4056 19.3111 12.4056 19.3845 12.4422C19.8856 12.5889 20.2767 13.0045 20.6922 13.4567C20.8022 13.5789 20.9245 13.7011 21.0345 13.8111C21.2422 14.0189 21.2911 14.2633 21.2789 14.4956C21.2789 14.5078 21.2789 14.5322 21.2789 14.5445L21.2667 14.5567ZM19.0422 18.9933C19.1889 18.92 19.3356 18.8589 19.47 18.7489C20.0322 18.2967 20.3745 17.5511 20.4111 16.7567C20.8267 16.7322 21.2422 16.5489 21.5967 16.2311C22.0611 17.1967 22.8433 17.6978 22.8922 17.7222C22.9778 17.7711 23.0756 17.7956 23.1733 17.7956C23.3689 17.7956 23.5522 17.6978 23.65 17.5267C23.8089 17.2578 23.7233 16.9156 23.4667 16.7567C23.4178 16.7322 22.2689 16.0111 22.3911 14.5933C22.4278 14.0556 22.2811 13.4933 21.8289 13.0289C21.7189 12.9189 21.6211 12.8089 21.5111 12.6989C21.0345 12.1856 20.4967 11.5989 19.69 11.3789C19.4945 11.33 19.2989 11.3056 19.0911 11.3056C18.7733 11.0978 17.9056 10.4867 17.4167 9.76557C17.0989 9.30113 17.4656 8.82446 17.5878 8.69002C17.9178 8.31113 18.5045 8.05446 18.9689 8.28668C20.0078 8.80002 22.6967 11.0733 23.6378 11.9045C23.6378 11.9045 23.65 11.9045 23.6622 11.9045C23.6989 11.9289 23.7356 11.9533 23.7722 11.9656C23.7967 11.9778 23.8211 11.99 23.8578 12.0022C23.8945 12.0022 23.9189 12.0022 23.9556 12.0145C23.9922 12.0145 24.0411 12.0145 24.0778 12.0145C24.0778 12.0145 24.09 12.0145 24.1022 12.0145C24.1267 12.0145 24.1511 12.0022 24.1633 11.99C24.2 11.99 24.2489 11.9656 24.2856 11.9411C24.3222 11.9289 24.3467 11.9045 24.3711 11.88C24.3956 11.8678 24.42 11.8556 24.4322 11.8311C24.4322 11.8311 24.4322 11.8189 24.4445 11.8067C24.4689 11.7822 24.4811 11.7456 24.5056 11.7089C24.5178 11.6722 24.5422 11.6478 24.5545 11.6233C24.5545 11.5867 24.5545 11.5622 24.5667 11.5256C24.5667 11.4889 24.5667 11.4522 24.5667 11.4033C24.5667 11.4033 24.5667 11.3911 24.5667 11.3789L24.3956 10.2789C24.31 9.74113 24.6522 9.24002 25.1656 9.10557C25.7156 8.9589 26.29 9.2889 26.4367 9.82668L27.8545 15.6078L22.6233 21.7311L19.0422 18.9933ZM46.0411 34.8211L45.1489 31.6922C45.0633 31.3989 44.7578 31.2156 44.4522 31.3133C44.1589 31.3989 43.9878 31.7045 44.0611 32.01L44.7211 34.3078C41.4333 33.77 29.2356 31.2522 23.3933 22.55L28.4778 16.5978C30.4089 18.5289 38.3289 25.7522 48.4122 24.7867C48.8645 25.0067 49.3411 25.19 49.83 25.3489C50.0867 26.9011 51.6511 28.1111 53.57 28.1111C55.4889 28.1111 57.0533 26.9011 57.31 25.3489C57.97 25.1289 58.6056 24.8722 59.2045 24.5545C60.4389 24.4933 72.6489 24.0533 73.7733 33.0733C74.6778 40.37 62.9322 44.2322 60.4267 44.9778L57.09 37.0456C58.41 36.4833 61.8567 34.8822 64.0689 32.78C64.1178 32.7433 64.1545 32.7067 64.1911 32.6578C65.2545 31.6067 66.0122 30.4456 66.0489 29.2111C66.0489 28.9056 65.8167 28.6489 65.5111 28.6367H65.4989C65.1933 28.6367 64.9489 28.8811 64.9367 29.1745C64.9122 29.8711 64.5456 30.58 63.9711 31.2767L62.1867 26.5222C62.0767 26.2289 61.7467 26.0822 61.4656 26.1922L47.2633 31.5089C46.97 31.6189 46.8233 31.9367 46.9333 32.23L49.4389 38.9156C49.2067 39.0378 48.9989 39.1478 48.8645 39.2578C48.2289 39.71 47.9233 40.3945 48.0333 41.14C48.1311 41.8489 48.5956 42.5211 49.2433 42.9611C48.9989 43.4133 48.95 43.9878 49.1822 44.5867C49.2556 44.7822 49.3533 44.9656 49.4756 45.1367H48.9989L46.0778 34.8333L46.0411 34.8211ZM40.4067 56.0511C39.3311 52.7022 41.0667 49.1089 44.3545 47.8622L48.6567 46.2489H50.6489C50.5633 46.6889 50.6 47.1656 50.8078 47.6056C51.1745 48.3633 51.9322 48.8033 52.7145 48.8033C52.8489 48.8033 52.9833 48.7911 53.1178 48.7667L53.9733 51.0645C54.0222 51.1989 54.1322 51.3211 54.2667 51.3822C54.34 51.4189 54.4133 51.4311 54.4989 51.4311C54.56 51.4311 54.6333 51.4311 54.6945 51.3945L66.6845 46.9089C66.99 48.5711 66.66 50.3067 65.7678 51.7611C64.7411 53.4111 63.1278 54.5233 61.2211 54.89L55.4522 56.0145L54.4745 53.1056C54.3767 52.8122 54.0589 52.6533 53.7656 52.7511C53.4722 52.8489 53.3133 53.1667 53.4111 53.46L58.3245 68.0411H44.2689L40.4189 56.0389L40.4067 56.0511ZM5.97668 65.8167V63.58H41.6411L42.3622 65.8167H5.97668ZM5.97668 75.9856L8.77557 75.9245H37.8278C37.8278 75.9245 37.8278 75.9611 37.8278 75.9733C38.06 76.8533 38.5489 77.5989 39.1967 78.1611H5.97668V75.9733V75.9856Z" fill="#333333"/>
<path d="M7.5289 46.9456H13.4567C13.7378 48.9622 15.4489 50.5389 17.5511 50.5389C19.6533 50.5389 21.3645 48.9745 21.6456 46.9456H27.5733C27.8789 46.9456 28.1356 46.7011 28.1356 46.3834C28.1356 44.7578 27.1822 43.2911 25.6911 42.6311L23.0145 41.4456L21.9633 37.18C21.9022 36.9356 21.6822 36.7522 21.4256 36.7522H18.1133V23.0389C18.1133 22.7334 17.8689 22.4767 17.5511 22.4767C17.2333 22.4767 16.9889 22.7211 16.9889 23.0389V36.7522H13.6767C13.42 36.7522 13.2 36.9234 13.1389 37.18L12.0878 41.4456L9.41112 42.6311C7.93223 43.2911 6.96667 44.77 6.96667 46.3834C6.96667 46.6889 7.21112 46.9456 7.5289 46.9456ZM17.5389 49.4145C16.06 49.4145 14.8256 48.3511 14.5689 46.9456H20.5089C20.24 48.3511 19.0178 49.4145 17.5389 49.4145ZM9.86334 43.6456L12.7845 42.35C12.9433 42.2767 13.0533 42.1422 13.1022 41.9711L14.1167 37.8645H20.9733L21.9878 41.9711C22.0245 42.1422 22.1467 42.2767 22.3056 42.35L25.2267 43.6456C26.1311 44.0489 26.7667 44.8678 26.95 45.8211H8.14001C8.32334 44.8678 8.9589 44.0489 9.86334 43.6456Z" fill="#333333"/>
<path d="M16.9767 52.03V54.9144C16.9767 55.22 17.2211 55.4767 17.5389 55.4767C17.8567 55.4767 18.1011 55.2322 18.1011 54.9144V52.03C18.1011 51.7244 17.8567 51.4678 17.5389 51.4678C17.2211 51.4678 16.9767 51.7122 16.9767 52.03Z" fill="#333333"/>
<path d="M13.7011 51.5778L11.9534 53.0444C11.7211 53.24 11.6845 53.5944 11.88 53.8389C11.99 53.9733 12.1489 54.0344 12.3078 54.0344C12.43 54.0344 12.5645 53.9978 12.6622 53.9L14.41 52.4333C14.6422 52.2378 14.6789 51.8833 14.4834 51.6389C14.2878 51.3944 13.9334 51.37 13.6889 51.5656L13.7011 51.5778Z" fill="#333333"/>
<path d="M20.5822 51.6511C20.3867 51.8834 20.4111 52.2378 20.6556 52.4456L22.4034 53.9122C22.5134 53.9978 22.6356 54.0467 22.7578 54.0467C22.9167 54.0467 23.0756 53.9734 23.1856 53.8511C23.3811 53.6189 23.3567 53.2645 23.1122 53.0567L21.3645 51.59C21.1322 51.3945 20.7778 51.4189 20.57 51.6634L20.5822 51.6511Z" fill="#333333"/>
<path d="M51.6756 13.97C51.6756 13.3712 51.26 12.8823 50.7589 12.8823C50.2578 12.8823 49.8422 13.3712 49.8422 13.97C49.8422 14.5689 50.2578 15.0578 50.7589 15.0578C51.26 15.0578 51.6756 14.5689 51.6756 13.97Z" fill="#333333"/>
<path d="M56.3934 15.0578C56.9067 15.0578 57.31 14.5689 57.31 13.97C57.31 13.3712 56.8945 12.8823 56.3934 12.8823C55.8922 12.8823 55.4767 13.3712 55.4767 13.97C55.4767 14.5689 55.8922 15.0578 56.3934 15.0578Z" fill="#333333"/>
<path d="M53.7778 20.8267C55.7578 20.8267 57.3589 19.2256 57.3589 17.2456C57.3589 16.94 57.1145 16.6833 56.7967 16.6833H50.7589C50.4534 16.6833 50.1967 16.9278 50.1967 17.2456C50.1967 19.2256 51.7978 20.8267 53.7778 20.8267ZM56.1734 17.8078C55.9167 18.8956 54.9389 19.7145 53.7778 19.7145C52.6167 19.7145 51.6389 18.9078 51.3822 17.8078H56.1734Z" fill="#333333"/>
</g>
<defs>
<linearGradient id="paint0_linear_18_551" x1="56.7356" y1="4.92556" x2="64.8022" y2="4.92556" gradientUnits="userSpaceOnUse">
<stop stop-color="#FFDB51"/>
<stop offset="1" stop-color="#FFB951"/>
</linearGradient>
<linearGradient id="paint1_linear_18_551" x1="64.6556" y1="77.4767" x2="80.1411" y2="77.4767" gradientUnits="userSpaceOnUse">
<stop stop-color="#9DFED1"/>
<stop offset="0.69" stop-color="#3DDBBD"/>
<stop offset="1" stop-color="#11CBB4"/>
</linearGradient>
<linearGradient id="paint2_linear_18_551" x1="38.8056" y1="73.6634" x2="59.8278" y2="73.6634" gradientUnits="userSpaceOnUse">
<stop stop-color="#9DFED1"/>
<stop offset="0.69" stop-color="#3DDBBD"/>
<stop offset="1" stop-color="#11CBB4"/>
</linearGradient>
<linearGradient id="paint3_linear_18_551" x1="63.2622" y1="10.6945" x2="70.4611" y2="10.6945" gradientUnits="userSpaceOnUse">
<stop stop-color="#FFDB51"/>
<stop offset="1" stop-color="#FFB951"/>
</linearGradient>
<linearGradient id="paint4_linear_18_551" x1="69.3" y1="15.0578" x2="77.3667" y2="15.0578" gradientUnits="userSpaceOnUse">
<stop stop-color="#FFDB51"/>
<stop offset="1" stop-color="#FFB951"/>
</linearGradient>
<linearGradient id="paint5_linear_18_551" x1="15.5956" y1="46.4078" x2="20.7289" y2="49.4144" gradientUnits="userSpaceOnUse">
<stop stop-color="#FFDB51"/>
<stop offset="1" stop-color="#FFB951"/>
</linearGradient>
<linearGradient id="paint6_linear_18_551" x1="51.04" y1="8.83665" x2="63.1645" y2="8.83665" gradientUnits="userSpaceOnUse">
<stop stop-color="#FFDB51"/>
<stop offset="1" stop-color="#FFB951"/>
</linearGradient>
<linearGradient id="paint7_linear_18_551" x1="23.3933" y1="30.8489" x2="73.8222" y2="30.8489" gradientUnits="userSpaceOnUse">
<stop stop-color="#9DFED1"/>
<stop offset="0.69" stop-color="#3DDBBD"/>
<stop offset="1" stop-color="#11CBB4"/>
</linearGradient>
<clipPath id="clip0_18_551">
<rect width="88" height="88" fill="white"/>
</clipPath>
</defs>
</svg>
