<svg width="25" height="25" viewBox="0 0 25 25" fill="none" xmlns="http://www.w3.org/2000/svg">
<path d="M12.5 19C16.0899 19 19 16.0899 19 12.5C19 8.91015 16.0899 6 12.5 6C8.91015 6 6 8.91015 6 12.5C6 16.0899 8.91015 19 12.5 19Z" stroke="#212121" stroke-width="1.5" stroke-linecap="round" stroke-linejoin="round"/>
<path d="M19.64 19.64L19.51 19.51M19.51 5.49L19.64 5.36L19.51 5.49ZM5.36 19.64L5.49 19.51L5.36 19.64ZM12.5 2.58V2.5V2.58ZM12.5 22.5V22.42V22.5ZM2.58 12.5H2.5H2.58ZM22.5 12.5H22.42H22.5ZM5.49 5.49L5.36 5.36L5.49 5.49Z" stroke="#212121" stroke-width="2" stroke-linecap="round" stroke-linejoin="round"/>
</svg>
