<svg width="24" height="25" viewBox="0 0 24 25" fill="none" xmlns="http://www.w3.org/2000/svg">
<path d="M9 22.5H15C20 22.5 22 20.5 22 15.5V9.5C22 4.5 20 2.5 15 2.5H9C4 2.5 2 4.5 2 9.5V15.5C2 20.5 4 22.5 9 22.5Z" stroke="#212121" stroke-width="1.5" stroke-linecap="round" stroke-linejoin="round"/>
<path d="M15.5 10.25C16.3284 10.25 17 9.57843 17 8.75C17 7.92157 16.3284 7.25 15.5 7.25C14.6716 7.25 14 7.92157 14 8.75C14 9.57843 14.6716 10.25 15.5 10.25Z" stroke="#212121" stroke-width="1.5" stroke-miterlimit="10" stroke-linecap="round" stroke-linejoin="round"/>
<path d="M8.5 10.25C9.32843 10.25 10 9.57843 10 8.75C10 7.92157 9.32843 7.25 8.5 7.25C7.67157 7.25 7 7.92157 7 8.75C7 9.57843 7.67157 10.25 8.5 10.25Z" stroke="#212121" stroke-width="1.5" stroke-miterlimit="10" stroke-linecap="round" stroke-linejoin="round"/>
<path d="M8.4 13.8H15.6C16.1 13.8 16.5 14.2 16.5 14.7C16.5 17.19 14.49 19.2 12 19.2C9.51 19.2 7.5 17.19 7.5 14.7C7.5 14.2 7.9 13.8 8.4 13.8Z" stroke="#212121" stroke-width="1.5" stroke-miterlimit="10" stroke-linecap="round" stroke-linejoin="round"/>
</svg>
