<svg width="88" height="88" viewBox="0 0 88 88" fill="none" xmlns="http://www.w3.org/2000/svg">
<g clip-path="url(#clip0_18_665)">
<path d="M44 88C68.3005 88 88 68.3005 88 44C88 19.6995 68.3005 0 44 0C19.6995 0 0 19.6995 0 44C0 68.3005 19.6995 88 44 88Z" fill="#E6FAF9" fill-opacity="0.6"/>
<path d="M59.6811 80.6299C58.0311 80.6299 56.5522 81.8521 55.6844 82.7444H59.6811C60.0111 82.7444 60.2678 83.0133 60.2678 83.331C60.2678 83.6488 59.9989 83.9177 59.6811 83.9177H55.6844C56.5644 84.8221 58.0433 86.0321 59.6811 86.0321C61.7344 86.0321 63.5556 84.1255 64.2278 83.3188C63.5556 82.5244 61.7344 80.6055 59.6811 80.6055V80.6299Z" fill="url(#paint0_linear_18_665)"/>
<path d="M33.33 38.6956C33.0978 38.9156 32.7433 38.9156 32.5233 38.6956C32.2422 38.4267 31.9489 38.1823 31.6556 37.9378V49.3656H34.21V37.9256C33.8922 38.1945 33.5989 38.4512 33.3422 38.6956H33.33Z" fill="white"/>
<path d="M34.6256 50.5511H31.2156V55.2566H34.6256V50.5511Z" fill="white"/>
<path d="M50.2944 29.5166C56.6133 30.9589 62.8467 27.3778 64.1911 21.5233C64.4844 20.24 64.5089 18.9689 64.3133 17.7222C63.8 17.8078 63.2989 17.8566 62.8589 17.8566C59.9989 17.8566 58.4955 16.3289 57.9089 15.5589C53.7778 16.7689 51.1378 14.1655 50.3311 13.2C46.42 14.1778 44.3544 12.5522 43.6211 11.7578C42.4844 13.0166 41.6533 14.5566 41.2622 16.2922C39.93 22.1466 43.9878 28.0744 50.3067 29.5166H50.2944ZM55.1467 17.93C55.2933 17.27 55.88 16.83 56.4422 16.9644C57.0044 17.0989 57.3344 17.7344 57.1878 18.3944C57.0411 19.0544 56.4544 19.4944 55.8922 19.36C55.33 19.2255 55 18.59 55.1467 17.93ZM48.9011 16.5122C49.0478 15.8522 49.6344 15.4122 50.1967 15.5466C50.7589 15.6811 51.0889 16.3166 50.9422 16.9766C50.7955 17.6366 50.2089 18.0766 49.6467 17.9422C49.0844 17.8078 48.7544 17.1722 48.9011 16.5122ZM49.06 20.3744C49.3411 20.2033 49.7078 20.2766 49.8789 20.5578C50.8811 22.1466 52.9711 22.6233 54.56 21.6211C54.8289 21.45 55.1955 21.5355 55.3789 21.8044C55.55 22.0855 55.4644 22.4522 55.1955 22.6233C54.4378 23.1 53.5944 23.32 52.7633 23.32C51.2355 23.32 49.7444 22.5622 48.8767 21.1811C48.7055 20.9 48.7911 20.5333 49.06 20.3622V20.3744Z" fill="white"/>
<path d="M21.45 33.8434C21.9022 34.1734 22.5989 34.21 23.2222 33.99C23.32 33.5256 23.4178 33.3056 23.54 32.9878L23.6256 32.78C23.7478 32.4745 24.09 32.3278 24.3956 32.45C24.7011 32.5722 24.8478 32.9145 24.7256 33.22L24.64 33.44C24.4933 33.7822 24.4322 33.9411 24.3222 34.54C24.2244 35.0289 24.6644 35.3834 25.0678 35.5422C25.6056 35.75 26.3022 35.7011 26.6444 35.1389C26.6567 34.9922 26.6811 34.8578 26.73 34.7111L26.9867 33.9045C27.0844 33.5989 27.4267 33.4278 27.7322 33.5256C28.05 33.6234 28.2089 33.9656 28.1111 34.2711L27.8544 35.0778C27.6711 35.6767 28.0011 36.3245 28.6122 36.52C29.1744 36.7034 29.6756 36.4711 30.1033 35.8234C30.5433 35.1634 30.9833 34.3934 30.7633 33.7334C30.36 32.5111 28.6367 31.8022 27.4878 31.3378L27.3289 31.2767C26.3389 30.8734 25.2144 30.4211 24.1878 30.3356C23.1122 30.25 21.8778 30.5678 21.5233 31.4967C21.3889 31.8389 21.3033 32.0222 21.2422 32.1567C21.1444 32.3645 21.1322 32.3889 21.0589 32.8534C20.9978 33.2689 21.12 33.6111 21.45 33.8434Z" fill="white"/>
<path d="M42.1911 64.2522L40.9567 66.3911C40.8711 66.5378 40.7367 66.6355 40.5656 66.6722C40.5167 66.6722 40.48 66.6844 40.4433 66.6844C40.3211 66.6844 40.1989 66.6478 40.1011 66.5744C38.1578 65.1933 36.5933 63.36 35.3711 61.6122V79.2978C43.7189 75.4478 51.37 69.1778 55.7578 62.4555C57.1144 60.3655 58.1533 57.9089 58.7644 55.3544H43.2789C43.1811 55.6478 43.0467 55.9167 42.8511 56.1733C42.3133 56.8578 41.5189 57.2489 40.6756 57.2489C40.5289 57.2489 40.3822 57.2489 40.2356 57.2122L38.39 56.9311C40.5167 59.5955 44.2078 61.9178 44.2444 61.9544C44.4156 62.0644 44.5256 62.2478 44.5256 62.4555C44.5256 62.6633 44.4156 62.8467 44.2444 62.9567L42.1789 64.2522H42.1911Z" fill="url(#paint1_linear_18_665)"/>
<path d="M82.0478 16.3778C81.3756 16.0845 80.3611 16.0478 79.5422 16.8056L79.4322 16.9034C79.2 17.1111 78.87 17.1111 78.6378 16.9034L78.5278 16.8056C78.0511 16.3534 77.4889 16.1945 76.9756 16.1945C76.6333 16.1945 76.3033 16.2678 76.0222 16.39C75.1911 16.7445 74.69 17.4778 74.69 18.3578C74.69 20.3989 76.8778 23.1245 78.4178 24.7378L78.3689 19.3234C78.3689 18.9934 78.6256 18.7245 78.9556 18.7245C79.2856 18.7245 79.5422 18.9811 79.5422 19.3111L79.5911 24.7745C81.1433 23.1611 83.3556 20.4234 83.3556 18.4311C83.3556 17.49 82.8422 16.7445 82.0233 16.39L82.0478 16.3778Z" fill="white"/>
<path d="M29.0522 56.6866C27.4878 59.1555 24.4322 61.4533 22.9778 62.4433L24.3956 63.3355C24.4811 63.3844 24.5422 63.4578 24.5911 63.5433L25.5567 65.23C29.0156 62.5166 31.2033 58.2144 32.01 56.4422H30.6533L29.04 56.6866H29.0522Z" fill="white"/>
<path d="M30.4578 79.31V61.6244C29.2478 63.3722 27.6711 65.2177 25.7278 66.5866C25.63 66.66 25.5078 66.6966 25.3856 66.6966C25.3367 66.6966 25.3 66.6966 25.2633 66.6844C25.1044 66.6478 24.9578 66.55 24.8722 66.4033L23.6378 64.2644L21.5722 62.9689C21.4011 62.8589 21.2911 62.6755 21.2911 62.4678C21.2911 62.26 21.4011 62.0766 21.5722 61.9666C21.6089 61.9422 25.3 59.6078 27.4267 56.9433L25.5811 57.2244C25.4344 57.2489 25.2878 57.2611 25.1411 57.2611C24.2978 57.2611 23.5033 56.8822 22.9656 56.1855C22.77 55.9289 22.6356 55.66 22.5378 55.3666H7.07667C7.66333 57.8844 8.66556 60.3289 10.0589 62.4678C14.4589 69.19 22.0978 75.4722 30.4456 79.31H30.4578Z" fill="url(#paint2_linear_18_665)"/>
<path d="M59.1433 53.3989L54.3033 53.3622C53.24 53.4233 52.2378 52.6778 51.9567 51.6266H43.4256C43.4011 51.8955 43.34 52.1522 43.23 52.4089L43.0222 52.8978L43.23 53.3866C43.34 53.6433 43.4011 53.9122 43.4256 54.1689H59.0211C59.07 53.9122 59.1067 53.6555 59.1433 53.3866V53.3989Z" fill="white"/>
<path d="M33.8189 56.4422C34.6256 58.2144 36.8133 62.5166 40.2722 65.23L41.2378 63.5433C41.2867 63.4578 41.36 63.3844 41.4333 63.3355L42.8511 62.4555C41.4089 61.4655 38.3533 59.1678 36.7889 56.6989L35.1756 56.4544H33.8189V56.4422Z" fill="white"/>
<path d="M31.6433 59.7544V79.8355C32.0711 80.0189 32.4989 80.2022 32.9267 80.3733C33.3544 80.2022 33.7822 80.0189 34.21 79.8355V59.7544C33.66 58.8255 33.2322 57.97 32.9267 57.3344C32.6211 57.9822 32.1933 58.8255 31.6433 59.7544Z" fill="white"/>
<path d="M86.5944 13.1877H71.5V28.5633H86.5944V13.1877ZM79.4322 26.5955C79.4322 26.5955 79.3711 26.6322 79.3467 26.6444C79.3222 26.6566 79.2978 26.6811 79.2611 26.6933C79.2 26.7177 79.1389 26.73 79.0778 26.73C79.0778 26.73 79.0533 26.73 79.0411 26.73C78.9678 26.73 78.8944 26.7177 78.8211 26.6811C78.7844 26.6689 78.76 26.6444 78.7356 26.6322C78.7111 26.6077 78.6744 26.5955 78.65 26.5711C78.4422 26.3877 73.5289 21.9022 73.5289 18.3944C73.5411 16.9766 74.3233 15.8033 75.5822 15.2655C76.7556 14.7644 78.0511 14.9111 79.0533 15.6566C80.0433 14.9111 81.3511 14.7644 82.5244 15.2655C83.7833 15.8033 84.5656 16.9644 84.5778 18.3089C84.5778 21.9022 79.6644 26.3755 79.4444 26.5711L79.4322 26.5955Z" fill="url(#paint3_linear_18_665)"/>
<path d="M50.38 11.9655C50.6367 11.8922 50.8933 11.99 51.04 12.21C51.1378 12.3566 53.5578 15.8644 57.9456 14.3122C58.2267 14.2144 58.5322 14.3366 58.6667 14.6055C58.7278 14.7155 60.0967 17.2088 64.0567 16.5855C62.9811 12.65 59.6444 9.33773 55.1344 8.31106C54.1933 8.09106 53.24 7.99329 52.3111 7.99329C49.3167 7.99329 46.5056 9.08106 44.44 10.9266C44.9533 11.5011 46.7133 13.0166 50.38 11.9655Z" fill="#333333"/>
<path d="M39.0378 53.4967H35.8111V55.3422L40.4311 56.0511C40.9933 56.1367 41.5678 55.9167 41.9222 55.4522C42.2767 54.9878 42.3622 54.3889 42.13 53.8511L41.8244 53.13C41.7633 52.9833 41.7633 52.8122 41.8244 52.6656L42.13 51.9445C42.3622 51.4067 42.2767 50.8078 41.9222 50.3433C41.5678 49.8789 41.0056 49.6589 40.4311 49.7445L35.8111 50.4533V52.2989H39.0378C39.3678 52.2989 39.6244 52.5678 39.6244 52.8856C39.6244 53.2033 39.3556 53.4722 39.0378 53.4722V53.4967Z" fill="white"/>
<path d="M73.4067 42.2034C72.3067 33.7578 60.8056 30.0911 59.1067 29.6023C57.2978 30.5189 55.2567 31.02 53.1056 31.02C52.0911 31.02 51.0644 30.91 50.0256 30.6656C46.9333 29.9567 44.3422 28.27 42.5333 26.0456C41.2011 25.8745 33.3911 25.1167 28.3922 30.4456C29.7 30.9956 31.3745 31.8145 31.8878 33.3667C32.2422 34.43 31.7167 35.4689 31.2889 36.1534C31.8389 36.5567 32.3889 36.9967 32.9145 37.4611C34.5767 35.97 36.3489 34.8334 38.17 34.0389L38.9644 30.4945C39.0378 30.1767 39.3433 29.9689 39.6733 30.0423C39.9911 30.1156 40.1989 30.4334 40.1256 30.7511L39.5022 33.5134C41.6533 32.7923 43.8656 32.5478 46.0289 32.8411C50.4411 33.44 54.0589 35.2978 56.5889 38.2556C56.8089 37.4123 57.4689 36.7034 58.3611 36.4956C58.4589 36.4711 58.5567 36.4589 58.6545 36.4467L59.2167 33.88C59.29 33.5623 59.6078 33.3667 59.9256 33.4278C60.2433 33.5011 60.4511 33.8189 60.3778 34.1367L59.8278 36.6178C60.3656 36.8378 60.83 37.2534 61.0989 37.8034L62.81 41.4211C63.7144 41.1278 65.67 40.3334 65.4744 38.8789C65.4256 38.5611 65.6578 38.2556 65.9756 38.2067C66.2933 38.1578 66.5989 38.39 66.6478 38.7078C66.9778 41.1156 64.2156 42.2156 63.0789 42.57V52.2256C67.21 52.14 70.1556 51.1378 71.8178 49.2434C73.26 47.6056 73.7856 45.2345 73.3822 42.1911L73.4067 42.2034Z" fill="url(#paint4_linear_18_665)"/>
<path d="M56.76 63.1156C51.7733 70.7544 42.7167 77.8189 33.1345 81.5589C33.0611 81.5833 32.9878 81.5956 32.9144 81.5956C32.8411 81.5956 32.7678 81.5833 32.6945 81.5589C23.1122 77.8189 14.0556 70.7544 9.06889 63.1156C7.99334 61.4656 7.13778 59.6689 6.51445 57.7989V59.5833C6.83223 63.2989 8.09112 67.0267 10.0711 70.0456C14.4589 76.7556 22.5622 82.6833 32.9267 86.7656C43.2911 82.6833 51.3944 76.7556 55.7822 70.0456C57.7622 67.0267 59.0211 63.2867 59.3389 59.5344V57.75C58.7033 59.6567 57.8478 61.4778 56.7722 63.1156H56.76Z" fill="url(#paint5_linear_18_665)"/>
<path d="M59.1433 37.6444C59.1067 37.6444 59.0578 37.6444 59.0211 37.6322C58.8989 37.6322 58.7889 37.6322 58.6667 37.6566C58.0433 37.8033 57.64 38.4144 57.7378 39.05L58.1778 41.7755C58.1778 41.7755 58.1778 41.8122 58.1778 41.8244C58.1778 41.8366 58.1778 41.8611 58.1778 41.8733C58.1778 41.8978 58.1778 41.91 58.1656 41.9344C58.1656 41.9833 58.1533 42.02 58.1411 42.0689C58.1411 42.0933 58.1167 42.1178 58.1167 42.13C58.0922 42.1911 58.0556 42.24 58.0067 42.2766C57.9211 42.3622 57.8233 42.4233 57.6889 42.4478C57.6644 42.4478 57.6522 42.4478 57.6278 42.4478C57.6156 42.4478 57.6033 42.4478 57.5911 42.4478C55.3422 42.4233 50.7711 42.4478 49.5122 42.7044C48.8644 42.8389 48.5833 43.3644 48.5467 43.7678C48.4978 44.2566 48.7422 44.66 49.2067 44.8555C50.5389 45.43 52.9589 45.2222 52.9833 45.2222C54.2056 45.0633 55.3911 45.2222 55.44 45.2222C55.7578 45.2711 55.99 45.5644 55.9411 45.8944C55.8922 46.2244 55.5989 46.4444 55.2811 46.3955C55.2811 46.3955 54.1811 46.2489 53.1178 46.3955C52.5556 46.4689 52.5433 47.19 52.5433 47.3366C52.5433 47.8622 52.8244 48.6566 53.5578 48.7544C53.6922 48.7178 53.8389 48.6811 53.9856 48.6566H55.7211C56.0511 48.6566 56.3078 48.9133 56.3078 49.2433C56.3078 49.5733 56.0389 49.83 55.7211 49.83H54.0467C53.4844 49.9033 53.02 50.4655 53.0811 51.1011C53.1422 51.7244 53.6922 52.2011 54.3033 52.1644L61.9422 52.2255V42.2522L60.0722 38.3044C59.9011 37.9378 59.5589 37.7055 59.18 37.6322L59.1433 37.6444Z" fill="white"/>
<path d="M23.6989 53.8634C23.4667 54.4012 23.5522 55 23.9067 55.4645C24.2611 55.9289 24.8356 56.1489 25.3978 56.0634L30.0178 55.3545V53.5089H26.7911C26.4611 53.5089 26.2044 53.24 26.2044 52.9223C26.2044 52.6045 26.4733 52.3356 26.7911 52.3356H30.0178V50.4901L25.3978 49.7812C25.3122 49.7689 25.2267 49.7567 25.1533 49.7567C24.6644 49.7567 24.2122 49.9767 23.9067 50.3678C23.5522 50.8323 23.4667 51.4312 23.6989 51.9689L24.0044 52.69C24.0656 52.8367 24.0656 53.0078 24.0044 53.1545L23.6989 53.8756V53.8634Z" fill="white"/>
<path d="M22.9778 49.6223C23.6011 48.8156 24.5789 48.4245 25.5933 48.5834L30.4578 49.3289V37.1678C30.0178 37.5467 29.5044 37.7545 28.9667 37.7545C28.7222 37.7545 28.4778 37.7178 28.2333 37.6323C27.6222 37.4367 27.1578 37.0089 26.8767 36.4956C26.4978 36.7156 26.07 36.8378 25.6422 36.8378C25.2878 36.8378 24.9456 36.7767 24.6278 36.6545C23.8944 36.3734 23.3933 35.8478 23.1978 35.2367C22.3178 35.4323 21.4011 35.2856 20.7411 34.7967C20.4478 34.5767 20.2278 34.3078 20.0811 34.0023C20.0322 34.0023 19.9833 34.0023 19.9344 34.0145C12.7844 34.98 9.48445 39.0989 7.99334 42.3745C6.90556 44.77 6.40445 47.5567 6.45334 50.4289H22.5378C22.6356 50.1356 22.77 49.8667 22.9656 49.61L22.9778 49.6223Z" fill="url(#paint6_linear_18_665)"/>
<path d="M22.8189 52.91L22.6111 52.4211C22.5011 52.1645 22.44 51.8956 22.4156 51.6389H6.51445C6.57556 52.4945 6.68556 53.35 6.83223 54.1934H22.4156C22.44 53.9245 22.5011 53.6678 22.6111 53.4111L22.8189 52.9222V52.91Z" fill="white"/>
<path d="M49.2556 41.5434C50.6367 41.2623 55.1344 41.25 56.8822 41.2622L56.7355 40.3334C56.7355 40.3334 56.6622 40.2845 56.6256 40.2356C54.3033 36.8011 50.5878 34.65 45.8822 34.0145C41.5189 33.4278 37.84 35.2122 35.3467 37.0211C35.3589 37.07 35.3833 37.1189 35.3833 37.1678V49.3289L40.2478 48.5834C41.25 48.4245 42.2278 48.8156 42.8633 49.6222C43.0589 49.8789 43.1933 50.1478 43.2911 50.4411H51.9444C52.03 50.0989 52.1767 49.7934 52.3844 49.5245C51.7 49.0234 51.3333 48.1678 51.3333 47.3367C51.3333 47.0067 51.3944 46.7011 51.4922 46.42C50.6122 46.3956 49.5489 46.2856 48.73 45.9311C47.8011 45.54 47.2511 44.6356 47.3611 43.6456C47.4711 42.5945 48.2289 41.7511 49.2678 41.5434H49.2556Z" fill="url(#paint7_linear_18_665)"/>
<path d="M49.6467 17.9422C50.2089 18.0766 50.7956 17.6366 50.9422 16.9766C51.0889 16.3166 50.7589 15.6689 50.1967 15.5466C49.6344 15.4244 49.0478 15.8522 48.9011 16.5122C48.7544 17.1722 49.0844 17.82 49.6467 17.9422Z" fill="#333333"/>
<path d="M55.8922 19.3723C56.4544 19.5067 57.0411 19.0667 57.1878 18.4067C57.3345 17.7467 57.0045 17.0989 56.4422 16.9767C55.88 16.8545 55.2933 17.2823 55.1467 17.9423C55 18.6023 55.33 19.25 55.8922 19.3723Z" fill="#333333"/>
<path d="M52.7511 23.3323C53.5822 23.3323 54.4256 23.1 55.1833 22.6356C55.4645 22.4645 55.55 22.0978 55.3667 21.8167C55.1956 21.5356 54.8289 21.4623 54.5478 21.6334C52.9589 22.6234 50.8567 22.1467 49.8667 20.57C49.6956 20.2889 49.3289 20.2156 49.0478 20.3867C48.7667 20.5578 48.6933 20.9245 48.8644 21.2056C49.7322 22.5867 51.2233 23.3445 52.7511 23.3445V23.3323Z" fill="#333333"/>
<path d="M11.2689 36.2878C9.11778 37.9989 7.76111 40.0645 6.93 41.8978C5.53667 44.9534 5.02334 48.5223 5.32889 52.1156V59.6323C5.67111 63.58 6.99111 67.5156 9.06889 70.6934C13.6156 77.66 22.0122 83.7834 32.6944 87.9511C32.7678 87.9756 32.8411 87.9878 32.9144 87.9878C32.9878 87.9878 33.0611 87.9756 33.1344 87.9511C43.8289 83.7834 52.2133 77.6478 56.76 70.6934C58.8378 67.5156 60.17 63.58 60.5 59.5834V53.4112H62.5044V53.4234C67.3078 53.4234 70.7544 52.2867 72.7222 50.0256C74.3967 48.1189 75.02 45.43 74.5678 42.0445C73.4922 33.8434 63.9833 29.9445 60.4633 28.7834C62.8589 27.1578 64.6556 24.7378 65.3278 21.7923C65.7067 20.1545 65.6944 18.5045 65.3644 16.9278C65.3644 16.9278 65.3644 16.9156 65.3644 16.9034C65.3644 16.9034 65.3644 16.8912 65.3644 16.8789C64.3744 12.2712 60.5856 8.32337 55.4033 7.13782C48.4489 5.54893 41.58 9.53337 40.0889 16.0234C39.3922 19.1034 40.0278 22.1834 41.6411 24.7623C38.7689 24.5423 31.8756 24.6767 27.2189 29.9689C26.29 29.6023 25.2878 29.2478 24.2856 29.1623C22.88 29.04 21.0344 29.4678 20.4111 31.0689C20.2889 31.3745 20.2156 31.5456 20.1667 31.6678C20.02 31.9856 19.9833 32.1078 19.8856 32.67C19.8856 32.7311 19.8856 32.78 19.8856 32.8289C19.8489 32.8289 19.8244 32.8289 19.7878 32.8289C16.7933 33.2323 14.4222 34.1611 12.5522 35.3467M52.3111 7.98115C53.24 7.98115 54.1811 8.07893 55.1344 8.29893C59.6444 9.3256 62.9811 12.6378 64.0567 16.5734C60.0967 17.2089 58.7278 14.7034 58.6667 14.5934C58.5322 14.3245 58.2267 14.2023 57.9456 14.3C53.5578 15.84 51.1378 12.3445 51.04 12.1978C50.8933 11.99 50.6367 11.8923 50.38 11.9534C46.7133 13.0045 44.9533 11.4889 44.44 10.9145C46.5056 9.05671 49.3167 7.98115 52.3111 7.98115ZM41.2378 16.2923C41.6289 14.5567 42.4722 13.0289 43.5967 11.7578C44.33 12.5523 46.3956 14.1778 50.3067 13.2C51.1256 14.1778 53.7533 16.7812 57.8844 15.5589C58.4589 16.3289 59.9744 17.8567 62.8344 17.8567C63.2867 17.8567 63.7756 17.8078 64.2889 17.7223C64.4844 18.9567 64.46 20.24 64.1667 21.5234C62.8344 27.3778 56.6011 30.9589 50.27 29.5167C43.9511 28.0745 39.8811 22.1345 41.2256 16.2923H41.2378ZM21.0589 32.8534C21.1322 32.4011 21.1444 32.3645 21.2422 32.1567C21.3033 32.0223 21.3889 31.8389 21.5233 31.4967C21.8778 30.5678 23.1122 30.25 24.1878 30.3356C25.2144 30.4212 26.3389 30.8856 27.3289 31.2767L27.4878 31.3378C28.6367 31.8023 30.36 32.4989 30.7633 33.7334C30.9833 34.3934 30.5311 35.1511 30.1033 35.8234C29.6756 36.4711 29.1744 36.7034 28.6122 36.52C28.0011 36.3123 27.6711 35.6767 27.8544 35.0778L28.1111 34.2712C28.2089 33.9656 28.0378 33.6234 27.7322 33.5256C27.4267 33.4278 27.0844 33.5989 26.9867 33.9045L26.73 34.7111C26.6811 34.8578 26.6567 34.9923 26.6444 35.1389C26.3022 35.7011 25.6178 35.75 25.0678 35.5423C24.6644 35.3956 24.2244 35.0411 24.3222 34.54C24.4322 33.9412 24.5056 33.7823 24.64 33.44L24.7256 33.22C24.8478 32.9145 24.7011 32.5723 24.3956 32.45C24.09 32.3278 23.7478 32.4745 23.6256 32.78L23.54 32.9878C23.4178 33.2934 23.32 33.5256 23.2222 33.99C22.5989 34.21 21.9022 34.1734 21.45 33.8434C21.12 33.6112 20.9978 33.2689 21.0589 32.8534ZM34.6256 50.5512V55.2567H31.2156V50.5512H34.6256ZM31.6433 49.3656V37.9378C31.9367 38.1823 32.23 38.4389 32.5111 38.6956C32.7433 38.9156 33.0978 38.9156 33.3178 38.6956C33.5744 38.4511 33.8678 38.1945 34.1856 37.9256V49.3656H31.6311H31.6433ZM48.7178 45.9434C49.5367 46.2978 50.6 46.3956 51.48 46.4323C51.3822 46.7012 51.3211 47.0067 51.3211 47.3489C51.3211 48.1678 51.6878 49.0356 52.3722 49.5367C52.1644 49.8056 52.0178 50.1111 51.9322 50.4534H43.2789C43.1811 50.16 43.0467 49.8912 42.8511 49.6345C42.2278 48.8278 41.25 48.4367 40.2356 48.5956L35.3711 49.3411V37.18C35.3711 37.18 35.3589 37.0823 35.3344 37.0334C37.8278 35.2245 41.5067 33.44 45.87 34.0267C50.5756 34.6623 54.2789 36.8134 56.6133 40.2478C56.6378 40.2845 56.6867 40.3089 56.7233 40.3456L56.87 41.2745C55.1222 41.2745 50.6244 41.2745 49.2433 41.5556C48.2044 41.7634 47.4344 42.6067 47.3367 43.6578C47.2389 44.6478 47.7767 45.5523 48.7056 45.9434H48.7178ZM44.2567 61.9545C44.2567 61.9545 40.5289 59.5956 38.4022 56.9312L40.2478 57.2123C40.3944 57.2367 40.5411 57.2489 40.6878 57.2489C41.5311 57.2489 42.3256 56.87 42.8633 56.1734C43.0589 55.9167 43.1933 55.6478 43.2911 55.3545H58.7767C58.1656 57.9089 57.1389 60.3778 55.77 62.4556C51.3822 69.1778 43.7311 75.46 35.3833 79.2978V61.6123C36.5933 63.36 38.17 65.2056 40.1133 66.5745C40.2111 66.6478 40.3333 66.6845 40.4556 66.6845C40.5044 66.6845 40.5411 66.6845 40.5778 66.6723C40.7367 66.6356 40.8833 66.5378 40.9689 66.3911L42.2033 64.2523L44.2689 62.9567C44.44 62.8467 44.55 62.6634 44.55 62.4556C44.55 62.2478 44.44 62.0645 44.2689 61.9545H44.2567ZM39.0378 52.3111H35.8111V50.4656L40.4311 49.7567C41.0178 49.6712 41.5678 49.8912 41.9222 50.3556C42.2767 50.82 42.3622 51.4189 42.13 51.9567L41.8244 52.6778C41.7633 52.8245 41.7633 52.9956 41.8244 53.1423L42.13 53.8634C42.3622 54.4011 42.2767 55 41.9222 55.4645C41.5678 55.9289 40.9933 56.1489 40.4311 56.0634L35.8111 55.3545V53.5089H39.0378C39.3678 53.5089 39.6244 53.24 39.6244 52.9223C39.6244 52.6045 39.3556 52.3356 39.0378 52.3356V52.3111ZM43.4256 54.1812C43.4011 53.9123 43.34 53.6556 43.23 53.3989L43.0222 52.91L43.23 52.4212C43.34 52.1645 43.4011 51.8956 43.4256 51.6389H51.9567C52.25 52.69 53.24 53.4356 54.3033 53.3745L59.1433 53.4112C59.1067 53.6678 59.07 53.9367 59.0211 54.1934H43.4256V54.1812ZM36.7889 56.6867C38.3533 59.1556 41.4089 61.4534 42.8511 62.4434L41.4333 63.3234C41.3478 63.3723 41.2867 63.4456 41.2378 63.5312L40.2722 65.2178C36.8133 62.5045 34.6256 58.2023 33.8189 56.43H35.1756L36.7889 56.6745V56.6867ZM34.1978 59.7545V79.8356C33.77 80.0189 33.3422 80.2023 32.9144 80.3734C32.4867 80.2023 32.0589 80.0189 31.6311 79.8356V59.7545C32.1811 58.8256 32.6089 57.97 32.9144 57.3345C33.22 57.9823 33.6478 58.8256 34.1978 59.7545ZM32.0222 56.4423C31.2156 58.2145 29.0278 62.5167 25.5689 65.23L24.6033 63.5434C24.5544 63.4578 24.4811 63.3845 24.4078 63.3356L22.99 62.4434C24.4322 61.4534 27.4878 59.1556 29.0644 56.6867L30.6778 56.4423H32.0344H32.0222ZM22.55 55.3667C22.6478 55.66 22.7822 55.9289 22.9778 56.1856C23.5156 56.87 24.31 57.2611 25.1533 57.2611C25.3 57.2611 25.4467 57.2612 25.5933 57.2245L27.4389 56.9434C25.3122 59.5956 21.6211 61.93 21.5844 61.9667C21.4133 62.0767 21.3033 62.26 21.3033 62.4678C21.3033 62.6756 21.4133 62.8589 21.5844 62.9689L23.65 64.2645L24.8844 66.4034C24.97 66.55 25.1044 66.6478 25.2756 66.6845C25.3122 66.6845 25.3611 66.6967 25.3978 66.6967C25.52 66.6967 25.6422 66.66 25.74 66.5867C27.6833 65.2056 29.26 63.3723 30.47 61.6245V79.31C22.1222 75.4723 14.4711 69.19 10.0833 62.4678C8.67778 60.3289 7.68778 57.8845 7.10111 55.3667H22.5744H22.55ZM6.83222 54.1812C6.67334 53.3256 6.57556 52.4823 6.51445 51.6267H22.4156C22.44 51.8956 22.5011 52.1523 22.6111 52.4089L22.8189 52.8978L22.6111 53.3867C22.5011 53.6434 22.44 53.9123 22.4156 54.1689H6.83222V54.1812ZM24.0044 52.6778L23.6989 51.9567C23.4667 51.4189 23.5522 50.82 23.9067 50.3556C24.2122 49.9645 24.6644 49.7445 25.1533 49.7445C25.2389 49.7445 25.3244 49.7445 25.3978 49.7689L30.0178 50.4778V52.3234H26.7911C26.4611 52.3234 26.2044 52.5923 26.2044 52.91C26.2044 53.2278 26.4733 53.4967 26.7911 53.4967H30.0178V55.3423L25.3978 56.0512C24.8233 56.1367 24.2611 55.9167 23.9067 55.4523C23.5522 54.9878 23.4667 54.3889 23.6989 53.8512L24.0044 53.13C24.0656 52.9834 24.0656 52.8123 24.0044 52.6656V52.6778ZM8.00556 42.3867C9.50889 39.1111 12.7967 34.9923 19.9467 34.0267C19.9956 34.0267 20.0444 34.0267 20.0933 34.0145C20.24 34.32 20.46 34.6011 20.7533 34.8089C21.4133 35.2978 22.33 35.4445 23.21 35.2489C23.4056 35.86 23.9067 36.3856 24.64 36.6667C24.9456 36.7889 25.3 36.85 25.6544 36.85C26.0822 36.85 26.51 36.74 26.8889 36.5078C27.1578 37.0334 27.6344 37.4489 28.2456 37.6445C28.49 37.73 28.7344 37.7667 28.9789 37.7667C29.5167 37.7667 30.0178 37.5467 30.47 37.18V49.3411L25.6056 48.5956C24.5911 48.4367 23.6256 48.8278 22.99 49.6345C22.7944 49.8912 22.66 50.16 22.5622 50.4534H6.46556C6.41667 47.5812 6.91778 44.7945 8.00556 42.3989V42.3867ZM55.77 70.0456C51.3944 76.7556 43.2789 82.6834 32.9144 86.7656C22.5622 82.6834 14.4467 76.7556 10.0589 70.0456C8.09111 67.0267 6.82 63.2867 6.50223 59.5834V57.7989C7.12556 59.6567 7.98111 61.4534 9.05667 63.1156C14.0433 70.7545 23.1 77.8189 32.6822 81.5589C32.7556 81.5834 32.8289 81.5956 32.9022 81.5956C32.9756 81.5956 33.0489 81.5834 33.1222 81.5589C42.7044 77.8189 51.7611 70.7545 56.7478 63.1156C57.8233 61.4778 58.6789 59.6689 59.3144 57.75V59.5345C58.9967 63.2989 57.7378 67.0267 55.7578 70.0456H55.77ZM61.9178 52.2378L54.2789 52.1767C53.6556 52.2134 53.1056 51.7367 53.0567 51.1134C52.9956 50.4778 53.4478 49.9156 54.0222 49.8423H55.6967C56.0267 49.8423 56.2833 49.5734 56.2833 49.2556C56.2833 48.9378 56.0144 48.6689 55.6967 48.6689H53.9611C53.8144 48.6934 53.6678 48.73 53.5333 48.7667C52.8 48.6689 52.5189 47.8745 52.5189 47.3489C52.5189 47.2023 52.5433 46.4812 53.0933 46.4078C54.1689 46.2612 55.2567 46.4078 55.2567 46.4078C55.5744 46.4445 55.88 46.2245 55.9167 45.9067C55.9656 45.5889 55.7333 45.2834 55.4156 45.2345C55.3667 45.2345 54.1811 45.0756 52.9589 45.2345C52.9344 45.2345 50.5144 45.43 49.1822 44.8678C48.7178 44.6723 48.4733 44.2689 48.5222 43.78C48.5589 43.3767 48.84 42.8512 49.4878 42.7167C50.7467 42.46 55.3178 42.4356 57.5667 42.46C57.5789 42.46 57.5911 42.46 57.6033 42.46C57.6278 42.46 57.64 42.46 57.6644 42.46C57.7867 42.4356 57.8967 42.3745 57.9822 42.2889C58.0311 42.24 58.0678 42.1912 58.0922 42.1423C58.0922 42.1178 58.1167 42.1056 58.1167 42.0812C58.1289 42.0445 58.1411 41.9956 58.1411 41.9467C58.1411 41.9223 58.1533 41.91 58.1533 41.8856C58.1533 41.8734 58.1533 41.8489 58.1533 41.8367C58.1533 41.8245 58.1533 41.8 58.1533 41.7878L57.7133 39.0623C57.6156 38.4267 58.0189 37.8278 58.6422 37.6689C58.7644 37.6445 58.8867 37.6445 58.9967 37.6445C59.0456 37.6445 59.0822 37.6567 59.1189 37.6567C59.4978 37.73 59.84 37.9623 60.0111 38.3289L61.8811 42.2767V52.25L61.9178 52.2378ZM63.1033 52.2378V42.5823C64.2278 42.2278 66.99 41.1278 66.6722 38.72C66.6233 38.39 66.33 38.17 66 38.2189C65.6822 38.2678 65.45 38.5611 65.4989 38.8911C65.6944 40.3456 63.7389 41.14 62.8344 41.4334L61.1233 37.8156C60.8544 37.2534 60.39 36.85 59.8522 36.63L60.4022 34.1489C60.4756 33.8312 60.2678 33.5134 59.95 33.44C59.6322 33.3789 59.3144 33.5745 59.2411 33.8923L58.6789 36.4589C58.5811 36.4589 58.4833 36.4834 58.3856 36.5078C57.4933 36.7278 56.8333 37.4245 56.6133 38.2678C54.0833 35.31 50.4778 33.4523 46.0533 32.8534C43.8778 32.56 41.6778 32.8045 39.5267 33.5256L40.15 30.7634C40.2233 30.4456 40.0156 30.1278 39.6978 30.0545C39.38 29.9811 39.0622 30.1889 38.9889 30.5067L38.1944 34.0512C36.3733 34.8456 34.5889 35.9823 32.9389 37.4734C32.4133 37.0089 31.8633 36.5689 31.3133 36.1656C31.7411 35.4811 32.2544 34.4545 31.9122 33.3789C31.3989 31.8267 29.7367 30.9956 28.4167 30.4578C33.4278 25.1411 41.2256 25.8867 42.5578 26.0578C44.3667 28.2823 46.9578 29.9689 50.05 30.6778C51.0889 30.91 52.1156 31.0323 53.13 31.0323C55.2689 31.0323 57.3222 30.5189 59.1311 29.6145C60.83 30.1156 72.3189 33.77 73.4311 42.2156C73.8344 45.2589 73.2967 47.63 71.8667 49.2678C70.2044 51.1623 67.2711 52.1645 63.1278 52.25L63.1033 52.2378Z" fill="#333333"/>
<path d="M82.5122 15.29C81.3389 14.7889 80.0433 14.9356 79.0411 15.6811C78.0511 14.9356 76.7556 14.7889 75.57 15.29C74.3111 15.8278 73.5289 16.9889 73.5167 18.4189C73.5167 21.9389 78.43 26.4123 78.6378 26.5956C78.6622 26.62 78.6989 26.6323 78.7233 26.6567C78.7478 26.6689 78.7722 26.6934 78.8089 26.7056C78.8822 26.73 78.9556 26.7545 79.0289 26.7545C79.0289 26.7545 79.0533 26.7545 79.0656 26.7545C79.1267 26.7545 79.1878 26.7423 79.2489 26.7178C79.2856 26.7056 79.31 26.6811 79.3345 26.6689C79.3589 26.6445 79.3956 26.6445 79.42 26.62C79.6278 26.4367 84.5533 21.9511 84.5533 18.3578C84.5411 17.0134 83.7467 15.8523 82.5 15.3145L82.5122 15.29ZM79.6156 24.7623L79.5667 19.2989C79.5667 18.9689 79.2978 18.7123 78.98 18.7123C78.65 18.7123 78.3933 18.9811 78.3933 19.3111L78.4422 24.7256C76.89 23.1 74.7145 20.3745 74.7145 18.3456C74.7145 17.4656 75.2278 16.7323 76.0467 16.3778C76.3156 16.2556 76.6456 16.1823 77 16.1823C77.5133 16.1823 78.0633 16.3534 78.5522 16.7934L78.6622 16.8911C78.8945 17.0989 79.2245 17.0989 79.4567 16.8911L79.5667 16.7934C80.3733 16.0356 81.3878 16.0845 82.0722 16.3656C82.9033 16.72 83.4045 17.4534 83.4045 18.4067C83.4045 20.3989 81.1922 23.1367 79.64 24.75L79.6156 24.7623Z" fill="#333333"/>
<path d="M70.3145 12.6011V29.1622C70.3145 29.4922 70.5833 29.7489 70.9011 29.7489H87.1811C87.5111 29.7489 87.7678 29.48 87.7678 29.1622V12.6011C87.7678 12.2711 87.4989 12.0145 87.1811 12.0145H70.9011C70.5711 12.0145 70.3145 12.2834 70.3145 12.6011ZM71.4878 13.1878H86.5822V28.5634H71.4878V13.1878Z" fill="#333333"/>
<path d="M86.4967 32.5478C86.4967 32.2178 86.2278 31.9611 85.91 31.9611C85.5922 31.9611 85.3233 32.23 85.3233 32.5478V33.1345C85.3233 33.4645 85.5922 33.7211 85.91 33.7211C86.2278 33.7211 86.4967 33.4522 86.4967 33.1345V32.5478Z" fill="#333333"/>
<path d="M86.4967 36.6422C86.4967 36.3122 86.2278 36.0555 85.91 36.0555C85.5922 36.0555 85.3233 36.3244 85.3233 36.6422V37.8155C85.3233 38.1455 85.5922 38.4022 85.91 38.4022C86.2278 38.4022 86.4967 38.1333 86.4967 37.8155V36.6422Z" fill="#333333"/>
<path d="M86.4967 41.3111C86.4967 40.9811 86.2278 40.7244 85.91 40.7244C85.5922 40.7244 85.3233 40.9933 85.3233 41.3111V42.4844C85.3233 42.8144 85.5922 43.0711 85.91 43.0711C86.2278 43.0711 86.4967 42.8022 86.4967 42.4844V41.3111Z" fill="#333333"/>
<path d="M86.4967 46.5789V45.9922C86.4967 45.6622 86.2278 45.4056 85.91 45.4056C85.5922 45.4056 85.3233 45.6745 85.3233 45.9922C84.9933 45.9922 84.7367 46.2611 84.7367 46.5789C84.7367 46.8967 85.0055 47.1656 85.3233 47.1656H85.91C86.24 47.1656 86.4967 46.8967 86.4967 46.5789Z" fill="#333333"/>
<path d="M81.9744 47.1778C82.3044 47.1778 82.5611 46.9089 82.5611 46.5911C82.5611 46.2733 82.2922 46.0045 81.9744 46.0045H80.8622C80.5322 46.0045 80.2755 46.2733 80.2755 46.5911C80.2755 46.9089 80.5444 47.1778 80.8622 47.1778H81.9744Z" fill="#333333"/>
<path d="M77.5133 47.1778C77.8433 47.1778 78.1 46.9089 78.1 46.5911C78.1 46.2733 77.8311 46.0045 77.5133 46.0045H76.9267C76.5967 46.0045 76.34 46.2733 76.34 46.5911C76.34 46.9089 76.6089 47.1778 76.9267 47.1778H77.5133Z" fill="#333333"/>
<path d="M59.6811 79.4567C56.9433 79.4567 54.7311 81.95 54.0955 82.7567H51.3455C51.0155 82.7567 50.7589 83.0256 50.7589 83.3433C50.7589 83.6611 51.0278 83.93 51.3455 83.93H54.0955C54.7311 84.7367 56.9433 87.23 59.6811 87.23C62.8711 87.23 65.3522 83.8322 65.4622 83.6856C65.6089 83.4778 65.6089 83.1967 65.4622 82.9889C65.3522 82.8422 62.8711 79.4445 59.6811 79.4445V79.4567ZM59.6811 86.0567C58.0433 86.0567 56.5522 84.8345 55.6844 83.9422H59.6811C60.0111 83.9422 60.2678 83.6733 60.2678 83.3556C60.2678 83.0378 59.9989 82.7689 59.6811 82.7689H55.6844C56.5644 81.8645 58.0433 80.6545 59.6811 80.6545C61.7344 80.6545 63.5555 82.5611 64.2278 83.3678C63.5555 84.1622 61.7344 86.0811 59.6811 86.0811V86.0567Z" fill="#333333"/>
<path d="M38.6956 0C38.3656 0 38.1089 0.268889 38.1089 0.586667V2.16333L36.74 1.36889C36.4589 1.21 36.0922 1.30778 35.9333 1.58889C35.7745 1.87 35.8722 2.23667 36.1533 2.39556L37.5222 3.19L36.1533 3.98444C35.8722 4.14333 35.7745 4.51 35.9333 4.79111C36.0433 4.98667 36.2389 5.08444 36.4467 5.08444C36.5445 5.08444 36.6545 5.06 36.74 5.01111L38.1089 4.21667V5.79333C38.1089 6.12333 38.3778 6.38 38.6956 6.38C39.0133 6.38 39.2822 6.11111 39.2822 5.79333V4.21667L40.6511 5.01111C40.7489 5.06 40.8467 5.08444 40.9445 5.08444C41.1522 5.08444 41.3478 4.97444 41.4578 4.79111C41.6167 4.51 41.5189 4.14333 41.2378 3.98444L39.8689 3.19L41.2378 2.39556C41.5189 2.23667 41.6167 1.87 41.4578 1.58889C41.2989 1.30778 40.9322 1.21 40.6511 1.36889L39.2822 2.16333V0.586667C39.2822 0.256667 39.0133 0 38.6956 0Z" fill="#333333"/>
<path d="M3.43444 39.6244V38.0478L4.80333 38.8422C4.90111 38.8911 4.99889 38.9156 5.09667 38.9156C5.30444 38.9156 5.5 38.8056 5.61 38.6222C5.76889 38.3411 5.67111 37.9744 5.39 37.8156L4.02111 37.0211L5.39 36.2267C5.67111 36.0678 5.76889 35.7011 5.61 35.42C5.45111 35.1389 5.08444 35.0411 4.80333 35.2L3.43444 35.9944V34.4178C3.43444 34.0878 3.16556 33.8311 2.84778 33.8311C2.53 33.8311 2.26111 34.1 2.26111 34.4178V35.9944L0.892222 35.2C0.611111 35.0411 0.244445 35.1389 0.0855558 35.42C-0.0733331 35.7011 0.0244446 36.0678 0.305556 36.2267L1.67444 37.0211L0.305556 37.8156C0.0244446 37.9744 -0.0733331 38.3411 0.0855558 38.6222C0.195556 38.8178 0.391111 38.9156 0.598889 38.9156C0.696667 38.9156 0.806667 38.8911 0.892222 38.8422L2.26111 38.0478V39.6244C2.26111 39.9544 2.53 40.2111 2.84778 40.2111C3.16556 40.2111 3.43444 39.9422 3.43444 39.6244Z" fill="#333333"/>
<path d="M66.9167 72.0989C66.7578 71.8178 66.3911 71.72 66.11 71.8789L64.7411 72.6733V71.0967C64.7411 70.7667 64.4722 70.51 64.1545 70.51C63.8367 70.51 63.5678 70.7789 63.5678 71.0967V72.6733L62.1989 71.8789C61.9178 71.72 61.5511 71.8178 61.3922 72.0989C61.2333 72.38 61.3311 72.7467 61.6122 72.9056L62.9811 73.7L61.6122 74.4945C61.3311 74.6533 61.2333 75.02 61.3922 75.3011C61.5022 75.4967 61.6978 75.5945 61.9056 75.5945C62.0033 75.5945 62.1133 75.57 62.1989 75.5211L63.5678 74.7267V76.3033C63.5678 76.6333 63.8367 76.89 64.1545 76.89C64.4722 76.89 64.7411 76.6211 64.7411 76.3033V74.7267L66.11 75.5211C66.2078 75.57 66.3056 75.5945 66.4033 75.5945C66.6111 75.5945 66.8067 75.4845 66.9167 75.3011C67.0756 75.02 66.9778 74.6533 66.6967 74.4945L65.3278 73.7L66.6967 72.9056C66.9778 72.7467 67.0756 72.38 66.9167 72.0989Z" fill="#333333"/>
<path d="M21.0467 18.81C22.6478 18.1378 24.1267 16.9644 24.9456 15.6933C25.5933 14.7033 25.74 13.3344 25.3 12.3689C24.9578 11.6233 24.3222 11.1833 23.4178 11.0611C22.5133 10.9389 21.7922 11.4889 21.4378 11.8189C21.2178 12.0267 20.8756 12.0267 20.6556 11.8189C20.3378 11.5133 19.7144 11.0489 18.9322 11.0489C18.8467 11.0489 18.7611 11.0489 18.6756 11.0611C17.7589 11.1833 17.1233 11.6233 16.7933 12.3689C16.3533 13.3344 16.5 14.7033 17.1478 15.6933C17.9789 16.9644 19.4578 18.1378 21.0467 18.81Z" fill="url(#paint8_linear_18_665)"/>
<path d="M15.8522 21.8533H29.7367V7.72443H12.3689V24.1511L15.5345 21.9633C15.6322 21.9022 15.7422 21.8655 15.8645 21.8655L15.8522 21.8533ZM15.7545 11.9044C16.2556 10.8166 17.2333 10.12 18.5289 9.93665C19.3967 9.81443 20.2767 10.0711 21.0589 10.6578C21.8411 10.0711 22.7211 9.81443 23.5889 9.93665C24.8722 10.1078 25.8622 10.8044 26.3633 11.9044C26.9622 13.2244 26.7911 15.0089 25.9233 16.3289C24.9333 17.8322 23.1611 19.2255 21.2789 19.9711C21.2178 19.9955 21.1445 20.0078 21.0711 20.0078C20.9978 20.0078 20.9367 19.9955 20.8633 19.9711C18.9811 19.2378 17.1967 17.8444 16.2067 16.3289C15.3389 15.0089 15.1678 13.2244 15.7667 11.9044H15.7545Z" fill="white"/>
<path d="M20.8389 19.9589C20.9 19.9833 20.9733 19.9955 21.0467 19.9955C21.12 19.9955 21.1811 19.9833 21.2544 19.9589C23.1367 19.2255 24.9211 17.8322 25.8989 16.3167C26.7667 14.9967 26.9378 13.2122 26.3389 11.8922C25.8378 10.8044 24.86 10.1078 23.5644 9.92443C22.6967 9.80221 21.8167 10.0589 21.0344 10.6455C20.2522 10.0589 19.3722 9.80221 18.5044 9.92443C17.2211 10.0955 16.2311 10.7922 15.73 11.8922C15.1311 13.2122 15.3022 14.9967 16.17 16.3167C17.16 17.82 18.9322 19.2133 20.8267 19.9589H20.8389ZM16.7933 12.3689C17.1356 11.6233 17.7711 11.1833 18.6756 11.0611C18.7611 11.0611 18.8467 11.0489 18.9322 11.0489C19.7144 11.0489 20.3378 11.5255 20.6556 11.8189C20.8756 12.0267 21.2178 12.0267 21.4378 11.8189C21.7922 11.4889 22.5133 10.9389 23.4178 11.0611C24.3344 11.1833 24.9578 11.6233 25.3 12.3689C25.74 13.3344 25.5933 14.7033 24.9456 15.6933C24.1267 16.9644 22.6356 18.1378 21.0467 18.81C19.4456 18.1378 17.9667 16.9644 17.1478 15.6933C16.5 14.7033 16.3533 13.3344 16.7933 12.3689Z" fill="#333333"/>
<path d="M11.22 7.15001V25.2267C11.22 25.4345 11.3422 25.63 11.5256 25.7278C11.6111 25.7767 11.6967 25.7889 11.7944 25.7889C11.9044 25.7889 12.0267 25.7522 12.1244 25.6911L16.0356 22.99H30.3111C30.6289 22.99 30.8856 22.7333 30.8856 22.4156V7.15001C30.8856 6.83223 30.6289 6.57556 30.3111 6.57556H11.7944C11.4767 6.57556 11.22 6.83223 11.22 7.15001ZM12.3567 7.72445H29.7244V21.8533H15.84C15.73 21.8533 15.6078 21.89 15.51 21.9511L12.3444 24.1389V7.72445H12.3567Z" fill="#333333"/>
</g>
<defs>
<linearGradient id="paint0_linear_18_665" x1="55.6844" y1="83.3432" x2="64.2278" y2="83.3432" gradientUnits="userSpaceOnUse">
<stop stop-color="#9DFED1"/>
<stop offset="0.69" stop-color="#3DDBBD"/>
<stop offset="1" stop-color="#11CBB4"/>
</linearGradient>
<linearGradient id="paint1_linear_18_665" x1="35.3833" y1="67.3322" x2="58.7767" y2="67.3322" gradientUnits="userSpaceOnUse">
<stop stop-color="#77DBFF"/>
<stop offset="1" stop-color="#3198FF"/>
</linearGradient>
<linearGradient id="paint2_linear_18_665" x1="7.07667" y1="67.3322" x2="30.4578" y2="67.3322" gradientUnits="userSpaceOnUse">
<stop stop-color="#77DBFF"/>
<stop offset="1" stop-color="#3198FF"/>
</linearGradient>
<linearGradient id="paint3_linear_18_665" x1="72.6122" y1="18.1989" x2="86.5456" y2="24.0044" gradientUnits="userSpaceOnUse">
<stop stop-color="#9DFED1"/>
<stop offset="0.69" stop-color="#3DDBBD"/>
<stop offset="1" stop-color="#11CBB4"/>
</linearGradient>
<linearGradient id="paint4_linear_18_665" x1="28.3922" y1="39.0745" x2="73.5289" y2="39.0745" gradientUnits="userSpaceOnUse">
<stop stop-color="#9DFED1"/>
<stop offset="0.69" stop-color="#3DDBBD"/>
<stop offset="1" stop-color="#11CBB4"/>
</linearGradient>
<linearGradient id="paint5_linear_18_665" x1="6.51445" y1="72.2578" x2="59.3267" y2="72.2578" gradientUnits="userSpaceOnUse">
<stop stop-color="#77DBFF"/>
<stop offset="1" stop-color="#3198FF"/>
</linearGradient>
<linearGradient id="paint6_linear_18_665" x1="6.46556" y1="42.2278" x2="30.4578" y2="42.2278" gradientUnits="userSpaceOnUse">
<stop stop-color="#77DBFF"/>
<stop offset="1" stop-color="#3198FF"/>
</linearGradient>
<linearGradient id="paint7_linear_18_665" x1="35.3467" y1="42.1789" x2="56.8822" y2="42.1789" gradientUnits="userSpaceOnUse">
<stop stop-color="#77DBFF"/>
<stop offset="1" stop-color="#3198FF"/>
</linearGradient>
<linearGradient id="paint8_linear_18_665" x1="16.5367" y1="14.9356" x2="25.5567" y2="14.9356" gradientUnits="userSpaceOnUse">
<stop stop-color="#77DBFF"/>
<stop offset="1" stop-color="#3198FF"/>
</linearGradient>
<clipPath id="clip0_18_665">
<rect width="88" height="88" fill="white"/>
</clipPath>
</defs>
</svg>
