<svg width="24" height="25" viewBox="0 0 24 25" fill="none" xmlns="http://www.w3.org/2000/svg">
<path d="M18 19.36H17.24C16.44 19.36 15.68 19.67 15.12 20.23L13.41 21.92C12.63 22.69 11.36 22.69 10.58 21.92L8.87 20.23C8.31 19.67 7.54 19.36 6.75 19.36H6C4.34 19.36 3 18.03 3 16.39V5.47998C3 3.83998 4.34 2.51001 6 2.51001H18C19.66 2.51001 21 3.83998 21 5.47998V16.39C21 18.02 19.66 19.36 18 19.36Z" stroke="#212121" stroke-width="1.5" stroke-miterlimit="10" stroke-linecap="round" stroke-linejoin="round"/>
<path d="M12.28 15.46C12.13 15.51 11.88 15.51 11.72 15.46C10.42 15.01 7.5 13.16 7.5 10.01C7.5 8.62001 8.62 7.5 10 7.5C10.82 7.5 11.54 7.89 12 8.5C12.46 7.89 13.18 7.5 14 7.5C15.38 7.5 16.5 8.62001 16.5 10.01C16.49 13.16 13.58 15.01 12.28 15.46Z" stroke="#212121" stroke-width="1.5" stroke-linecap="round" stroke-linejoin="round"/>
</svg>
