<svg width="25" height="25" viewBox="0 0 25 25" fill="none" xmlns="http://www.w3.org/2000/svg">
<path d="M9.17188 14.8298C9.17188 16.1198 10.1619 17.1598 11.3919 17.1598H13.9019C14.9719 17.1598 15.8419 16.2498 15.8419 15.1298C15.8419 13.9098 15.3119 13.4798 14.5219 13.1998L10.4919 11.7998C9.70187 11.5198 9.17188 11.0898 9.17188 9.86984C9.17188 8.74984 10.0419 7.83984 11.1119 7.83984H13.6219C14.8519 7.83984 15.8419 8.87984 15.8419 10.1698" stroke="#212121" stroke-width="1.5" stroke-linecap="round" stroke-linejoin="round"/>
<path d="M12.5 6.5V18.5" stroke="#212121" stroke-width="1.5" stroke-linecap="round" stroke-linejoin="round"/>
<path d="M12.5 22.5C18.0228 22.5 22.5 18.0228 22.5 12.5C22.5 6.97715 18.0228 2.5 12.5 2.5C6.97715 2.5 2.5 6.97715 2.5 12.5C2.5 18.0228 6.97715 22.5 12.5 22.5Z" stroke="#212121" stroke-width="1.5" stroke-linecap="round" stroke-linejoin="round"/>
</svg>
