<svg width="88" height="88" viewBox="0 0 88 88" fill="none" xmlns="http://www.w3.org/2000/svg">
<path d="M32 64C49.6731 64 64 49.6731 64 32C64 14.3269 49.6731 0 32 0C14.3269 0 0 14.3269 0 32C0 49.6731 14.3269 64 32 64Z" fill="#E6FAF9" fill-opacity="0.6"/>
<path d="M42.2889 37.2656C42.8144 37.3145 43.45 37.4612 44.0611 37.6323C44.11 37.0701 44.3056 36.1412 45.0389 35.5912C45.65 35.1267 46.4567 35.0534 47.4344 35.3712C49.9033 36.1778 50.9911 38.9645 51.2844 39.8567L56.0756 41.9101C56.4544 41.0423 56.8333 40.2234 57.2122 39.5023C58.0067 37.9623 58.9478 36.6056 59.7056 35.6156C58.08 35.4934 54.6944 35.3956 51.0889 36.1901C50.9056 36.2267 50.71 36.1778 50.5756 36.0434L42.8389 28.7345L37.8889 34.6501L40.9689 37.5712C41.3478 37.3389 41.7878 37.2167 42.2767 37.2534L42.2889 37.2656Z" fill="url(#paint0_linear_18_817)"/>
<path d="M78.5155 26.0334C79.8111 27.2189 82.0722 27.5 84.0767 27.1578C83.3678 26.3023 83.1233 25.08 83.1478 24.1023C83.1722 23.4789 83.27 22.8678 83.3555 22.2811C83.4655 21.56 83.5755 20.8878 83.5511 20.2156C83.4533 17.8811 81.5711 15.6567 79.0533 14.9234C77.8189 14.5567 76.6211 14.5934 75.68 15.0089C74.6533 15.4611 73.9444 16.4145 73.8955 17.3923C76.7311 19.4334 78.5033 22.6234 78.5033 26.0334H78.5155Z" fill="#333333"/>
<path d="M42.3622 79.5667C40.3456 79.5667 38.7078 81.2044 38.7078 83.2211C38.7078 85.2378 40.3456 86.8755 42.3622 86.8755C44.3789 86.8755 46.0167 85.2378 46.0167 83.2211C46.0167 81.2044 44.3789 79.5667 42.3622 79.5667Z" fill="#333333"/>
<path d="M59.1678 6.69775H57.4933V7.72442H59.1678V6.69775Z" fill="white"/>
<path d="M56.9189 8.86108H55.5011V14.6911H61.1478V8.86108H59.73H56.9189Z" fill="white"/>
<path d="M67.2833 21.8045C68.7256 21.8045 69.8256 22.6479 70.1189 23.9312C70.3878 25.1045 69.96 26.8279 67.9067 27.9156C67.8333 28.7345 67.9067 31.4479 71.5489 34.479C72.05 34.2712 72.5511 34.0267 73.0156 33.7334C75.2522 32.3401 76.7433 30.2012 77.22 27.7201C78.21 22.5745 74.4945 17.5267 68.9333 16.4512C68.2245 16.3167 67.5156 16.2434 66.8189 16.2434C64.9122 16.2434 63.0667 16.7567 61.4533 17.7101C62.5656 22.3545 67.0756 21.8167 67.2711 21.7923L67.2833 21.8045Z" fill="#333333"/>
<path d="M60.4267 4.43665H56.2222C55.8311 4.43665 55.5011 4.75442 55.5011 5.15776V7.73665H56.3444V6.13553C56.3444 5.81776 56.6011 5.57331 56.9067 5.57331H59.7178C60.0356 5.57331 60.28 5.82998 60.28 6.13553V7.73665H61.1233V5.15776C61.1233 4.76665 60.8056 4.43665 60.4022 4.43665H60.4267Z" fill="white"/>
<path d="M33.5378 27.3288C33.7944 27.5244 33.9167 27.6099 34.4056 27.8422C34.7722 28.0133 35.1511 27.7322 35.3589 27.4388C35.5667 27.1333 35.7989 26.5099 35.3589 26.0699C35.2367 25.9599 35.1267 25.8377 35.0167 25.7155C34.6011 25.2755 34.21 24.8599 33.7089 24.7255C33.6356 24.7011 33.55 24.701 33.4767 24.701C33.0855 24.701 32.6456 24.9333 32.5111 25.2388C32.2544 25.8255 32.4867 26.5833 33.0244 26.9622C33.2689 27.1211 33.4278 27.2433 33.55 27.3411L33.5378 27.3288Z" fill="white"/>
<path d="M40.7 22.0244C40.5533 21.4988 39.9911 21.1688 39.4411 21.3277C38.9278 21.4622 38.5978 21.9755 38.6833 22.5011L38.8667 23.6011C38.8667 23.6011 38.8667 23.6133 38.8667 23.6255C38.8667 23.6622 38.8667 23.7111 38.8667 23.7477C38.8667 23.7844 38.8667 23.8088 38.8667 23.8455C38.8667 23.8822 38.8422 23.9066 38.83 23.9311C38.8178 23.9677 38.7933 24.0044 38.7689 24.0411C38.7689 24.0411 38.7689 24.0533 38.7689 24.0655C38.7567 24.0899 38.7322 24.0899 38.7078 24.1144C38.6833 24.1388 38.6467 24.1633 38.61 24.1877C38.5733 24.2122 38.5367 24.2244 38.4878 24.2366C38.4633 24.2366 38.4511 24.2611 38.4267 24.2611C38.4267 24.2611 38.4144 24.2611 38.4022 24.2611C38.3656 24.2611 38.3289 24.2611 38.2922 24.2611C38.2556 24.2611 38.2189 24.2611 38.1822 24.2488C38.1456 24.2488 38.1211 24.2244 38.0967 24.2122C38.06 24.1999 38.0233 24.1755 37.9989 24.1511C37.9989 24.1511 37.9867 24.1511 37.9744 24.1388C37.0211 23.3199 34.32 21.0833 33.2811 20.5822C32.8044 20.3622 32.2422 20.6188 31.9122 20.9977C31.8022 21.1322 31.4478 21.6088 31.7533 22.0611C32.2422 22.7699 33.11 23.3688 33.4278 23.5766C33.6233 23.5766 33.8311 23.5766 34.0267 23.6377C34.8333 23.8577 35.3833 24.4322 35.86 24.9455C35.97 25.0555 36.0678 25.1655 36.1778 25.2755C36.6422 25.7277 36.7889 26.2899 36.7522 26.8277C36.7522 26.8277 36.7522 26.8277 36.7522 26.8399C36.6544 28.2455 37.7911 28.9544 37.84 28.9788C38.1089 29.1377 38.1944 29.4922 38.0356 29.7611C37.9256 29.9444 37.7422 30.0422 37.5467 30.0422C37.4489 30.0422 37.3511 30.0177 37.2656 29.9688C37.2167 29.9444 36.4222 29.4555 35.9578 28.5022C35.6156 28.8199 35.2122 28.9911 34.7967 29.0277C34.76 29.8099 34.43 30.5555 33.8678 31.0199C33.7456 31.1299 33.5989 31.1911 33.4522 31.2644L37.0333 33.9411L42.1789 27.7811L40.7 22.0366V22.0244Z" fill="white"/>
<path d="M32.8656 28.2332C32.7433 28.1477 32.5967 28.0254 32.3767 27.8788C32.1445 27.7199 31.9367 27.5121 31.7778 27.2921C31.0567 27.3288 30.8122 27.9154 30.7511 28.0988C30.6167 28.5143 30.6656 29.1499 31.2278 29.5532C31.4845 29.7366 31.6311 29.8466 31.7289 29.9321C31.8878 30.0543 31.9 30.0666 32.2667 30.2254C32.5967 30.3599 32.89 30.3232 33.1467 30.1154C33.5011 29.8221 33.6845 29.2599 33.6356 28.7099C33.2933 28.5388 33.1222 28.4166 32.8656 28.221V28.2332Z" fill="white"/>
<path d="M38.2556 11.7944H34.5522V12.9922H38.2556V11.7944Z" fill="white"/>
<path d="M39.9056 47.2144L42.2644 48.0944C42.2644 48.0944 42.2767 48.0944 42.2889 48.0944L46.7744 49.7566L50.2089 40.2478C50.0011 39.5878 49.0722 37.0944 47.08 36.4344C46.4811 36.2389 46.0167 36.2511 45.7233 36.4711C45.2711 36.8133 45.1733 37.5955 45.1733 37.95C46.0411 38.2433 46.7133 38.5122 46.7744 38.5366C47.0678 38.6589 47.2022 38.9889 47.0922 39.27C46.97 39.5633 46.64 39.6978 46.3467 39.5878C46.3222 39.5878 43.6822 38.5122 42.1667 38.3778C41.7633 38.3411 41.4456 38.4878 41.2378 38.8178C40.9444 39.2822 40.9567 39.9666 41.2256 40.5533C42.2767 40.8222 43.1444 41.2744 43.1811 41.2989C43.4622 41.4455 43.56 41.7878 43.4255 42.0689C43.2789 42.35 42.9367 42.4478 42.6556 42.3133C42.6556 42.3133 41.7144 41.8244 40.7 41.6044C40.1744 41.4944 39.9178 42.13 39.8689 42.2644C39.6978 42.7289 39.6856 43.5478 40.3211 43.8778C40.4556 43.8778 40.59 43.9022 40.7367 43.9266L42.3133 44.4889C42.6067 44.5989 42.7656 44.9166 42.6556 45.2222C42.5456 45.5155 42.2156 45.6744 41.9344 45.5644L40.4311 45.0144C39.8811 44.8922 39.3067 45.2589 39.1478 45.8455C38.9889 46.4322 39.3311 47.0311 39.9056 47.2144Z" fill="white"/>
<path d="M33.5622 14.1289C33.3056 14.1289 33.0856 14.3367 33.0856 14.6056V19.3722C33.3056 19.3967 33.5256 19.4578 33.7211 19.5556C34.6133 19.9834 36.3611 21.3645 37.5222 22.3178C37.5222 21.3522 38.17 20.4967 39.1233 20.24C39.3189 20.1911 39.5022 20.1789 39.6978 20.1789V14.6178C39.6978 14.3611 39.49 14.1411 39.2211 14.1411H33.55L33.5622 14.1289Z" fill="white"/>
<path d="M58.5444 26.6077L56.9067 25.911C56.9311 26.5588 57.0411 27.2066 57.2 27.8299C57.9455 27.6343 58.3489 27.0355 58.5322 26.6077H58.5444Z" fill="white"/>
<path d="M60.4633 17.0012C60.4633 17.0012 60.5 16.9645 60.5244 16.9523C60.5733 16.9278 60.61 16.8912 60.6589 16.8545C62.48 15.7178 64.5822 15.1312 66.7578 15.1189V2.60339C66.7578 1.79672 66.0978 1.13672 65.2911 1.13672H51.37C50.5633 1.13672 49.9033 1.79672 49.9033 2.60339V16.5245C49.9033 17.3312 50.5633 17.9912 51.37 17.9912H59.1678C59.5711 17.6367 59.9989 17.2945 60.4633 17.0012ZM54.3644 15.2656V5.14561C54.3644 4.11894 55.1956 3.28783 56.2222 3.28783H60.4267C61.4533 3.28783 62.2844 4.11894 62.2844 5.14561V15.2656C62.2844 15.5834 62.0278 15.8278 61.7222 15.8278H54.9389C54.6211 15.8278 54.3767 15.5712 54.3767 15.2656H54.3644Z" fill="url(#paint1_linear_18_817)"/>
<path d="M31.4478 24.7745C31.5822 24.4689 31.8022 24.2122 32.0833 24.0167C31.6556 23.6745 31.1422 23.2222 30.7878 22.6967C30.2867 21.9634 30.3722 20.9978 31.02 20.2522C31.2889 19.9345 31.6189 19.7022 31.9611 19.5556V14.6178C31.9611 13.7867 32.5967 13.1022 33.4156 13.0289V11.2445C33.4156 10.9267 33.6722 10.6822 33.9778 10.6822H38.8178C39.1356 10.6822 39.38 10.9389 39.38 11.2445V13.0289C40.1989 13.1022 40.8344 13.7867 40.8344 14.6178V20.5089C41.2744 20.7778 41.6289 21.2056 41.7756 21.7434L42.7411 25.4834H43.3522C44.1589 25.4834 44.8189 24.8234 44.8189 24.0167V10.0956C44.8189 9.28891 44.1589 8.62891 43.3522 8.62891H29.4311C28.6244 8.62891 27.9644 9.28891 27.9644 10.0956V24.0167C27.9644 24.8234 28.6244 25.4834 29.4311 25.4834H31.2644C31.2889 25.2511 31.3378 25.0067 31.4356 24.7867L31.4478 24.7745Z" fill="url(#paint2_linear_18_817)"/>
<path d="M70.3267 34.919C66.0489 31.0445 66.8067 27.5612 66.8433 27.4145C66.88 27.2434 67.0022 27.109 67.1489 27.0357C68.8233 26.2412 69.2022 25.0068 69.0067 24.1879C68.8233 23.4179 68.1878 22.929 67.3567 22.929C67.3689 22.929 61.9667 23.6134 60.4511 18.3823C58.6667 19.7634 57.4689 21.6701 57.0533 23.8334C57.0045 24.1145 56.9678 24.3957 56.9311 24.6768L59.4733 25.7645C59.7178 25.8745 59.8645 26.1434 59.8033 26.4123C59.6445 27.1579 58.9722 28.4901 57.5667 28.9057C57.86 29.6268 58.2389 30.3234 58.7156 30.9834C60.28 33.1223 62.6267 34.589 65.34 35.1023C67.0267 35.4323 68.7256 35.359 70.3145 34.919H70.3267ZM61.0745 23.2834C60.9645 23.8701 60.4633 24.2612 59.9745 24.1757C59.4733 24.0779 59.1678 23.5279 59.2778 22.9412C59.3878 22.3545 59.8889 21.9634 60.3778 22.049C60.8789 22.1468 61.1845 22.6968 61.0745 23.2834Z" fill="white"/>
<path d="M43.2789 54.8656H55.9778L46.9089 51.0278L42.7533 49.4878L43.2789 54.8656Z" fill="url(#paint3_linear_18_817)"/>
<path d="M11.0611 57.5911L11.44 59.7789C11.4889 60.0844 11.2933 60.3777 10.9756 60.4389C10.9389 60.4389 10.9144 60.4389 10.8778 60.4389C10.6089 60.4389 10.3644 60.2433 10.3156 59.9622L9.93667 57.8111L8.73889 58.0555L9.10556 60.1822C9.15444 60.4877 8.95889 60.7811 8.64111 60.8422C8.60444 60.8422 8.58 60.8422 8.54333 60.8422C8.27444 60.8422 8.03 60.6466 7.98111 60.3655L7.61444 58.2755L5.61 58.6911C4.26556 58.9722 3.26333 60.1211 3.17778 61.49C3.09222 62.8711 3.94778 64.1422 5.25556 64.57L19.2622 69.2144C20.7044 69.6911 22.2933 69.0189 22.9656 67.6622L25.5078 62.4555L11.99 57.3833L11.0367 57.5789L11.0611 57.5911Z" fill="url(#paint4_linear_18_817)"/>
<path d="M17.3556 20.5577H11.5989V21.7311H17.3556V20.5577Z" fill="white"/>
<path d="M58.9967 54.9022L60.1089 55.3666C62.3945 56.3322 64.9978 55.6844 66.5867 53.7655C68.6033 51.3211 70.07 48.8889 70.8156 46.7378V41.8611C70.8156 41.2622 70.9378 40.7 71.1456 40.1744C70.9867 38.7444 70.5956 36.7033 70.1556 36.0922C69.2756 36.3 68.3711 36.4222 67.4544 36.4222C66.6844 36.4222 65.9022 36.3489 65.12 36.2022C63.8978 35.97 62.7367 35.5422 61.6733 34.98C61.0378 35.7133 59.4245 37.6322 58.2145 40.0033C57.8478 40.7122 57.4811 41.5066 57.1145 42.3378L61.2822 44.1222L64.0811 38.0722C64.2156 37.7911 64.5456 37.6566 64.8389 37.7911C65.12 37.9255 65.2422 38.2555 65.12 38.5489L62.1378 44.99V48.5344C62.1378 48.8522 61.8811 49.0966 61.5756 49.0966C61.27 49.0966 61.0133 48.84 61.0133 48.5344V45.2344L56.1611 43.1566L51.1744 41.0178L47.8622 50.1722L57.2611 54.1566L59.0089 54.89L58.9967 54.9022Z" fill="url(#paint5_linear_18_817)"/>
<path d="M70.8155 49.5734C69.9844 51.1623 68.86 52.8123 67.4667 54.4989C67.3567 54.6211 67.2467 54.7434 67.1367 54.8656H70.5222C70.6322 54.8656 70.73 54.9023 70.8278 54.9634V49.5734H70.8155Z" fill="url(#paint6_linear_18_817)"/>
<path d="M70.8156 64.4845C70.73 64.5456 70.6322 64.5823 70.51 64.5823H57.5911V72.0256H70.8156V64.4845Z" fill="url(#paint7_linear_18_817)"/>
<path d="M67.7355 83.2089C67.7355 85.2256 69.3733 86.8633 71.39 86.8633C73.4067 86.8633 75.0444 85.2256 75.0444 83.2089C75.0444 81.1922 73.4067 79.5544 71.39 79.5544C69.3733 79.5544 67.7355 81.1922 67.7355 83.2089Z" fill="#333333"/>
<path d="M83.7833 36.9722H78.9311C78.3689 36.9722 77.9044 37.4366 77.9044 37.9988C77.9044 38.5611 78.3689 39.0255 78.9311 39.0255H83.7833C84.3456 39.0255 84.81 38.5611 84.81 37.9988C84.81 37.4366 84.3456 36.9722 83.7833 36.9722Z" fill="white"/>
<path d="M65.7189 56.0022C64.68 56.6255 63.4944 56.9678 62.2844 56.9678C61.4044 56.9678 60.5122 56.7966 59.6567 56.43L58.6544 56.0022H57.5911V63.4455H70.51C70.62 63.4455 70.7178 63.4822 70.8156 63.5433V55.9044C70.73 55.9655 70.6322 56.0022 70.51 56.0022H65.7189Z" fill="url(#paint8_linear_18_817)"/>
<path d="M44.0978 63.4455H56.4544V56.0022H43.3889L44.0978 63.4455Z" fill="url(#paint9_linear_18_817)"/>
<path d="M41.5678 49.0478L39.5389 48.29C39.05 48.1434 38.6467 47.8134 38.3778 47.41H33.22C31.8511 47.41 30.5922 48.0334 29.7611 49.1211C28.93 50.2089 28.6611 51.59 29.0156 52.91L29.5411 54.8534H42.13L41.5678 49.0356V49.0478Z" fill="url(#paint10_linear_18_817)"/>
<path d="M33.22 46.2856H37.9867C37.9744 46.0534 37.9867 45.809 38.0478 45.5767C38.1333 45.2467 38.28 44.9656 38.4878 44.7212L31.7167 40.6756C29.3333 39.2456 26.2289 39.8201 24.5178 41.9956L13.0044 56.5645L26.0089 61.4534L28.5144 55.4156L27.9278 53.2401C27.4756 51.5778 27.8178 49.8301 28.8689 48.4612C29.92 47.0923 31.5089 46.3101 33.2322 46.3101L33.22 46.2856Z" fill="white"/>
<path d="M42.24 56.0022H29.8467L31.8633 63.4455H42.9611L42.24 56.0022Z" fill="url(#paint11_linear_18_817)"/>
<path d="M32.1689 64.5822L34.1856 72.0133H43.78L43.0711 64.5822H32.1689Z" fill="url(#paint12_linear_18_817)"/>
<path d="M44.9289 72.0133H56.4544V64.5822H44.2078L44.9289 72.0133Z" fill="url(#paint13_linear_18_817)"/>
<path d="M22.9044 31.4723V17.5511C22.9044 16.7445 22.2444 16.0845 21.4378 16.0845H7.51666C6.71 16.0845 6.05 16.7445 6.05 17.5511V31.4723C6.05 32.2789 6.71 32.9389 7.51666 32.9389H21.4378C22.2444 32.9389 22.9044 32.2789 22.9044 31.4723ZM20.6189 29.04C20.6189 29.3578 20.3622 29.6023 20.0567 29.6023H8.89777C8.58 29.6023 8.33555 29.3456 8.33555 29.04V24.5911C8.33555 23.4789 9.03222 22.4645 10.0711 22.0611L10.4622 21.9023V19.9834C10.4622 19.6656 10.7189 19.4211 11.0244 19.4211H17.9178C18.2356 19.4211 18.48 19.6778 18.48 19.9834V21.9023L18.8833 22.0611C19.9222 22.4645 20.6189 23.4789 20.6189 24.5911V29.04Z" fill="url(#paint14_linear_18_817)"/>
<path d="M18.48 23.1121L17.82 22.8555H11.1344L10.4744 23.1121C9.87555 23.3444 9.47222 23.931 9.47222 24.5788V28.4655H19.4944V24.5788C19.4944 23.931 19.0911 23.3444 18.4922 23.1121H18.48Z" fill="white"/>
<path d="M60.3778 22.0489C59.8767 21.9511 59.3878 22.3545 59.2778 22.9411C59.1678 23.5278 59.4733 24.0778 59.9744 24.1756C60.4756 24.2734 60.9644 23.87 61.0744 23.2834C61.1844 22.6967 60.8789 22.1467 60.3778 22.0489Z" fill="#333333"/>
<path d="M83.7833 35.8356H78.9311C77.9411 35.8356 77.11 36.5078 76.8533 37.4244H75.2645C74.0178 37.4244 72.9056 37.9378 72.0989 38.7567C71.94 37.7789 71.6711 36.5689 71.28 35.7867C71.3656 35.7622 71.4511 35.7256 71.5367 35.6889C71.61 35.6889 71.6833 35.6522 71.7444 35.6156C72.3922 35.3589 73.0278 35.0656 73.6267 34.6989C76.1322 33.1344 77.8067 30.7267 78.3444 27.94C78.3811 27.7567 78.3933 27.5733 78.4178 27.39C79.5545 28.1233 81.0089 28.4289 82.4633 28.4289C83.5389 28.4289 84.6144 28.2578 85.5433 27.9767C85.7756 27.9033 85.9344 27.6956 85.9467 27.4633C85.9467 27.2189 85.8244 26.9989 85.5922 26.9133C84.6389 26.5222 84.2478 25.2389 84.2844 24.1389C84.2967 23.5889 84.3822 23.0389 84.48 22.4644C84.6022 21.7311 84.7244 20.9611 84.6878 20.1789C84.5778 17.3678 82.3411 14.7033 79.3833 13.8356C77.8922 13.3956 76.4256 13.4444 75.24 13.97C74.03 14.5078 73.15 15.5589 72.8689 16.72C71.7444 16.0844 70.51 15.5956 69.1656 15.3389C68.75 15.2533 68.3222 15.2044 67.9067 15.1678V2.60333C67.9067 1.17333 66.7333 0 65.3033 0H51.3822C49.9522 0 48.7789 1.17333 48.7789 2.60333V16.5244C48.7789 17.9544 49.9522 19.1278 51.3822 19.1278H58.08C57.0044 20.4233 56.2711 21.9511 55.9533 23.6256C55.4156 26.4244 56.0756 29.2722 57.8233 31.6556C58.6178 32.7433 59.5956 33.66 60.7078 34.3933C60.6711 34.43 60.6222 34.4911 60.5856 34.54C59.4733 34.4178 55.55 34.0878 51.1622 35.0044L43.3278 27.61L43.0711 26.6078H43.3889C44.8189 26.6078 45.9922 25.4344 45.9922 24.0044V10.0833C45.9922 8.65333 44.8189 7.48 43.3889 7.48H29.4678C28.0378 7.48 26.8644 8.65333 26.8644 10.0833V24.0044C26.8644 25.4344 28.0378 26.6078 29.4678 26.6078H30.4944C30.1278 26.8889 29.8344 27.2922 29.6878 27.7689C29.37 28.7833 29.7244 29.8833 30.5922 30.4822C30.8244 30.6411 30.9467 30.7511 31.0444 30.8244C31.1911 30.9344 31.2889 31.0078 31.4356 31.0933C31.4722 31.1422 31.4967 31.1789 31.5456 31.2156L36.7889 35.1389L40.2478 38.4267C39.93 39.05 39.8444 39.8322 40.0522 40.5656C39.5267 40.7611 39.0867 41.2256 38.8544 41.8856C38.6711 42.3989 38.6344 42.9978 38.7811 43.5356L32.3278 39.6733C29.4556 37.9622 25.7278 38.6344 23.65 41.2622L11.7822 56.2711L5.43889 57.5789C3.59334 57.9578 2.22445 59.5345 2.10222 61.4167C1.98 63.3111 3.15334 65.0589 4.96222 65.6456L18.9689 70.29C19.3967 70.4367 19.8367 70.4978 20.2767 70.4978C21.8411 70.4978 23.3322 69.6178 24.0533 68.1511L26.8644 62.3822C26.8644 62.3822 26.8644 62.37 26.8644 62.3578L29.0156 57.1633L33.22 72.71C33.2811 72.9545 33.5133 73.1256 33.77 73.1256H70.84V78.4056H42.6922C42.6922 78.4056 42.6311 78.4178 42.5944 78.43C42.5211 78.43 42.46 78.4056 42.3867 78.4056C39.7467 78.4056 37.5956 80.5567 37.5956 83.1844C37.5956 85.8122 39.7467 87.9756 42.3867 87.9756C45.0267 87.9756 47.1656 85.8244 47.1656 83.1844C47.1656 81.7178 46.4811 80.41 45.4422 79.53H68.3467C67.2956 80.41 66.6233 81.7056 66.6233 83.1844C66.6233 85.8244 68.7744 87.9756 71.4144 87.9756C74.0544 87.9756 76.1933 85.8244 76.1933 83.1844C76.1933 80.74 74.3478 78.7478 71.9767 78.4545V41.8367C71.9767 40.0033 73.4678 38.5244 75.2889 38.5244H76.8778C77.1344 39.4411 77.9533 40.1133 78.9556 40.1133H83.8078C84.9933 40.1133 85.9711 39.1478 85.9711 37.95C85.9711 36.7522 85.0056 35.7867 83.8078 35.7867L83.7833 35.8356ZM46.0167 83.2089C46.0167 85.2256 44.3789 86.8633 42.3622 86.8633C40.3456 86.8633 38.7078 85.2256 38.7078 83.2089C38.7078 81.1922 40.3456 79.5544 42.3622 79.5544C44.3789 79.5544 46.0167 81.1922 46.0167 83.2089ZM75.6922 15.0089C76.6333 14.5933 77.8311 14.5567 79.0656 14.9233C81.5711 15.6567 83.4656 17.8811 83.5633 20.2156C83.5878 20.8878 83.4778 21.56 83.3678 22.2811C83.27 22.8678 83.1722 23.4789 83.16 24.1022C83.1233 25.0922 83.38 26.3022 84.0889 27.1578C82.0967 27.4878 79.8233 27.2189 78.5278 26.0333C78.5278 22.6233 76.7556 19.4333 73.92 17.3922C73.9689 16.4144 74.6778 15.4611 75.7044 15.0089H75.6922ZM68.9333 16.4511C74.4944 17.5267 78.21 22.5744 77.22 27.72C76.7433 30.2011 75.2522 32.34 73.0156 33.7333C72.5511 34.0267 72.05 34.2711 71.5489 34.4789C67.9189 31.4478 67.8333 28.7344 67.9067 27.9156C69.96 26.8278 70.3878 25.1044 70.1189 23.9311C69.8256 22.6356 68.7133 21.8044 67.2833 21.8044C67.0878 21.8289 62.5778 22.3667 61.4656 17.7222C63.0789 16.7567 64.9244 16.2556 66.8311 16.2556C67.5278 16.2556 68.2367 16.3167 68.9456 16.4633L68.9333 16.4511ZM51.37 17.9911C50.5633 17.9911 49.9033 17.3311 49.9033 16.5244V2.60333C49.9033 1.79667 50.5633 1.13667 51.37 1.13667H65.2911C66.0978 1.13667 66.7578 1.79667 66.7578 2.60333V15.1189C64.5944 15.1189 62.48 15.7178 60.6589 16.8544C60.61 16.8789 60.5733 16.9156 60.5244 16.9522C60.5 16.9644 60.4878 16.9767 60.4633 17.0011C59.9989 17.3067 59.5711 17.6367 59.1678 17.9911H51.37ZM56.9067 25.9111L58.5444 26.6078C58.3489 27.0356 57.9578 27.6344 57.2122 27.83C57.0411 27.1944 56.9433 26.5589 56.9189 25.9111H56.9067ZM58.7278 30.9833C58.2511 30.3233 57.8722 29.6267 57.5789 28.9056C58.9844 28.49 59.6444 27.17 59.8156 26.4122C59.8767 26.1433 59.73 25.8744 59.4856 25.7644L56.9433 24.6767C56.9678 24.3956 57.0044 24.1144 57.0656 23.8333C57.4811 21.6578 58.6789 19.7511 60.4633 18.3822C61.9789 23.6133 67.3811 22.9411 67.3689 22.9289C68.2 22.9289 68.8356 23.4178 69.0189 24.1878C69.2022 25.0067 68.8356 26.2411 67.1611 27.0356C67.0022 27.1089 66.8922 27.2433 66.8556 27.4144C66.8189 27.5733 66.0611 31.0444 70.3389 34.9189C68.75 35.3589 67.0511 35.4322 65.3644 35.1022C62.6633 34.5767 60.3167 33.1222 58.74 30.9833H58.7278ZM29.4433 25.4711C28.6367 25.4711 27.9767 24.8111 27.9767 24.0044V10.0833C27.9767 9.27667 28.6367 8.61667 29.4433 8.61667H43.3644C44.1711 8.61667 44.8311 9.27667 44.8311 10.0833V24.0044C44.8311 24.8111 44.1711 25.4711 43.3644 25.4711H42.7533L41.7878 21.7311C41.6289 21.1933 41.2867 20.7656 40.8467 20.4967V14.6056C40.8467 13.7744 40.2111 13.09 39.3922 13.0167V11.2322C39.3922 10.9144 39.1356 10.67 38.83 10.67H33.99C33.6722 10.67 33.4278 10.9267 33.4278 11.2322V13.0167C32.6089 13.09 31.9733 13.7744 31.9733 14.6056V19.5433C31.6189 19.69 31.3011 19.9344 31.0322 20.24C30.3844 20.9856 30.2989 21.9511 30.8 22.6844C31.1544 23.21 31.6678 23.6744 32.0956 24.0044C31.8267 24.2122 31.5944 24.4567 31.46 24.7622C31.3622 24.9822 31.3133 25.2267 31.2889 25.4589H29.4556L29.4433 25.4711ZM38.83 14.1289H39.2456C39.5022 14.1289 39.7222 14.3367 39.7222 14.6056V20.1667C39.5267 20.1667 39.3433 20.1789 39.1478 20.2278C38.1944 20.4844 37.5467 21.34 37.5467 22.3056C36.3856 21.3522 34.6378 19.9711 33.7456 19.5433C33.5378 19.4456 33.33 19.3844 33.11 19.36V14.5933C33.11 14.3367 33.3178 14.1167 33.5867 14.1167H38.8422L38.83 14.1289ZM34.5522 12.9922V11.7944H38.2556V12.9922H34.5522ZM32.2544 30.2378C31.8878 30.0789 31.8633 30.0667 31.7167 29.9444C31.6189 29.8589 31.4722 29.7489 31.2156 29.5656C30.6533 29.1622 30.6167 28.5389 30.7389 28.1111C30.8 27.9278 31.0444 27.3411 31.7656 27.3044C31.9367 27.5244 32.1322 27.7322 32.3644 27.8911C32.5844 28.0378 32.7311 28.16 32.8533 28.2456C33.11 28.4289 33.2811 28.5511 33.6233 28.7344C33.6722 29.2844 33.4889 29.8467 33.1344 30.14C32.8778 30.3478 32.5844 30.3844 32.2544 30.25V30.2378ZM32.4867 25.2267C32.6211 24.9211 33.0611 24.6889 33.4522 24.6889C33.5378 24.6889 33.6111 24.6889 33.6844 24.7133C34.1856 24.8478 34.5767 25.2633 34.9922 25.7033C35.1022 25.8256 35.2244 25.9478 35.3344 26.0578C35.7867 26.4978 35.5422 27.1211 35.3344 27.4267C35.1267 27.72 34.7478 28.0011 34.3811 27.83C33.8922 27.5978 33.7822 27.5122 33.5133 27.3167C33.3789 27.2189 33.22 27.0967 32.9878 26.9378C32.4378 26.5589 32.2056 25.8011 32.4744 25.2144L32.4867 25.2267ZM33.44 31.24C33.5867 31.1667 33.7211 31.1056 33.8556 30.9956C34.4178 30.5311 34.7478 29.7856 34.7844 29.0033C35.2 28.9667 35.6033 28.7956 35.9456 28.4778C36.4222 29.4311 37.2044 29.92 37.2533 29.9444C37.3389 29.9933 37.4367 30.0178 37.5344 30.0178C37.73 30.0178 37.9133 29.92 38.0233 29.7367C38.1822 29.4678 38.0967 29.1256 37.8278 28.9544C37.7789 28.93 36.63 28.2211 36.74 26.8156C36.74 26.8156 36.74 26.8156 36.74 26.8033C36.7767 26.2656 36.6178 25.7033 36.1656 25.2511C36.0556 25.1411 35.9456 25.0311 35.8478 24.9211C35.3589 24.4078 34.8211 23.8333 34.0144 23.6133C33.8189 23.5644 33.6233 23.54 33.4156 23.5522C33.0856 23.3444 32.2178 22.7456 31.7411 22.0367C31.4233 21.5844 31.7778 21.1078 31.9 20.9733C32.2178 20.5944 32.7922 20.3378 33.2689 20.5578C34.3078 21.0589 37.0089 23.2956 37.9622 24.1144C37.9622 24.1144 37.9744 24.1144 37.9867 24.1267C38.0233 24.1511 38.06 24.1633 38.0844 24.1878C38.1089 24.2 38.1456 24.2244 38.17 24.2244C38.2067 24.2244 38.2433 24.2244 38.28 24.2367C38.3167 24.2367 38.3533 24.2367 38.39 24.2367C38.39 24.2367 38.4022 24.2367 38.4144 24.2367C38.4389 24.2367 38.4633 24.2244 38.4756 24.2122C38.5122 24.2122 38.5611 24.1878 38.5978 24.1633C38.6344 24.1389 38.6589 24.1144 38.6956 24.09C38.72 24.0778 38.7444 24.0656 38.7567 24.0411C38.7567 24.0411 38.7567 24.0289 38.7567 24.0167C38.7811 23.98 38.7933 23.9433 38.8178 23.9067C38.83 23.8822 38.8544 23.8456 38.8544 23.8211C38.8544 23.7844 38.8544 23.76 38.8544 23.7233C38.8544 23.6867 38.8544 23.6378 38.8544 23.6011C38.8544 23.6011 38.8544 23.5889 38.8544 23.5767L38.6711 22.4767C38.5856 21.9511 38.9033 21.45 39.4289 21.3033C39.9789 21.1567 40.5411 21.4744 40.6878 22L42.1667 27.7444L37.0211 33.9044L33.44 31.2278V31.24ZM37.8889 34.65L42.8389 28.7344L50.5756 36.0433C50.71 36.1778 50.9056 36.2267 51.0889 36.19C54.6944 35.3956 58.08 35.4933 59.7056 35.6156C58.9478 36.6056 58.0067 37.95 57.2122 39.5022C56.8333 40.2356 56.4544 41.0545 56.0756 41.91L51.2844 39.8567C50.9911 38.9644 49.9156 36.1778 47.4344 35.3711C46.4567 35.0533 45.65 35.1267 45.0389 35.5911C44.3056 36.1411 44.11 37.07 44.0611 37.6322C43.4378 37.4611 42.8144 37.3144 42.2889 37.2656C41.8 37.2289 41.36 37.3389 40.9811 37.5833L37.9011 34.6622L37.8889 34.65ZM39.1478 45.8578C39.3067 45.2589 39.8811 44.9044 40.4311 45.0267L41.9344 45.5767C42.2278 45.6867 42.5578 45.5278 42.6556 45.2344C42.7656 44.9411 42.6067 44.6111 42.3133 44.5011L40.7367 43.9389C40.6022 43.9022 40.4556 43.89 40.3211 43.89C39.6856 43.56 39.6978 42.7533 39.8689 42.2767C39.9178 42.1422 40.1622 41.5067 40.7 41.6167C41.7144 41.8367 42.6433 42.3256 42.6556 42.3256C42.9367 42.4722 43.2789 42.3622 43.4256 42.0811C43.5722 41.8 43.4622 41.4578 43.1811 41.3111C43.1444 41.2867 42.2644 40.8344 41.2256 40.5656C40.9567 39.9789 40.9444 39.2822 41.2378 38.83C41.4456 38.5 41.7633 38.3533 42.1667 38.39C43.67 38.5244 46.31 39.5878 46.3467 39.6C46.64 39.71 46.97 39.5756 47.0922 39.2822C47.2144 38.9889 47.0678 38.6589 46.7744 38.5489C46.7133 38.5244 46.0411 38.2556 45.1733 37.9622C45.1733 37.6078 45.2711 36.8256 45.7233 36.4833C46.0167 36.2633 46.4811 36.2511 47.08 36.4467C49.0844 37.0944 50.0011 39.6 50.2089 40.26L46.7744 49.7689L42.2889 48.1067C42.2889 48.1067 42.2767 48.1067 42.2644 48.1067L39.9056 47.2267C39.3311 47.0433 38.9889 46.4445 39.1478 45.8578ZM46.9089 51.0278L55.9656 54.8656H43.2667L42.7533 49.4878L46.9089 51.0278ZM22.99 67.6744C22.33 69.0433 20.7289 69.7033 19.2867 69.2267L5.28 64.5822C3.97222 64.1422 3.10445 62.8833 3.20222 61.5022C3.28778 60.1333 4.29 58.9844 5.63445 58.7033L7.63889 58.2878L8.00556 60.3778C8.05445 60.6589 8.29889 60.8545 8.56778 60.8545C8.60445 60.8545 8.62889 60.8545 8.66556 60.8545C8.97111 60.8056 9.17889 60.5 9.13 60.1945L8.76334 58.0678L9.96111 57.8233L10.34 59.9744C10.3889 60.2556 10.6333 60.4511 10.9022 60.4511C10.9389 60.4511 10.9633 60.4511 11 60.4511C11.3056 60.4022 11.5133 60.0967 11.4644 59.7911L11.0856 57.6033L12.0389 57.4078L25.5567 62.48L23.0144 67.6867L22.99 67.6744ZM27.9156 53.2156L28.5022 55.3911L25.9967 61.4289L12.9922 56.54L24.5056 41.9711C26.2289 39.7956 29.3211 39.2211 31.7044 40.6511L38.4756 44.6967C38.28 44.9411 38.1211 45.2222 38.0356 45.5522C37.9744 45.7967 37.9622 46.0289 37.9744 46.2611H33.2078C31.4844 46.2611 29.8956 47.0433 28.8444 48.4122C27.7933 49.7811 27.4511 51.5289 27.9033 53.1911L27.9156 53.2156ZM29.0156 52.9222C28.6611 51.6022 28.93 50.2211 29.7611 49.1333C30.5922 48.0456 31.8511 47.4222 33.22 47.4222H38.3778C38.6467 47.8256 39.05 48.1433 39.5389 48.3022L41.5678 49.06L42.13 54.8778H29.5411L29.0156 52.9345V52.9222ZM29.8467 56.0022H42.24L42.9611 63.4456H31.8633L29.8467 56.0022ZM34.1856 72.0133L32.1689 64.57H43.0711L43.7922 72.0133H34.1856ZM56.4544 72.0133H44.9289L44.2078 64.57H56.4544V72.0133ZM56.4544 63.4456H44.0978L43.3767 56.0022H56.4422V63.4456H56.4544ZM57.2367 54.1689L47.8378 50.1845L51.15 41.03L56.1367 43.1689L60.9889 45.2467V48.5467C60.9889 48.8644 61.2456 49.1089 61.5511 49.1089C61.8567 49.1089 62.1133 48.8522 62.1133 48.5467V45.0022L65.0956 38.5611C65.23 38.28 65.0956 37.9378 64.8144 37.8033C64.5333 37.6689 64.1911 37.8033 64.0567 38.0844L61.2578 44.1344L57.09 42.35C57.4567 41.5067 57.8233 40.7122 58.19 40.0156C59.4122 37.6445 61.0133 35.7256 61.6489 34.9922C62.7122 35.5667 63.8733 35.9822 65.0956 36.2144C65.8778 36.3611 66.66 36.4344 67.43 36.4344C68.3467 36.4344 69.2511 36.3 70.1311 36.1045C70.5589 36.7156 70.95 38.7567 71.1211 40.1867C70.9133 40.7 70.7911 41.2744 70.7911 41.8733V46.75C70.0456 48.9011 68.5911 51.3333 66.5622 53.7778C64.9733 55.6967 62.37 56.3445 60.0844 55.3789L58.9722 54.9144L57.2244 54.1811L57.2367 54.1689ZM70.51 54.8656H67.1244C67.2344 54.7433 67.3567 54.6333 67.4544 54.4989C68.86 52.8 69.9722 51.15 70.8033 49.5733V54.9633C70.7178 54.9022 70.62 54.8656 70.4978 54.8656H70.51ZM70.8156 55.9044V63.5433C70.73 63.4822 70.6322 63.4456 70.51 63.4456H57.5911V56.0022H58.6544L59.6567 56.43C60.5122 56.7967 61.4044 56.9678 62.2844 56.9678C63.4944 56.9678 64.68 56.6378 65.7189 56.0022H70.51C70.62 56.0022 70.7178 55.9656 70.8156 55.9044ZM57.5911 72.0133V64.57H70.51C70.62 64.57 70.7178 64.5333 70.8156 64.4722V72.0133H57.5911ZM75.0322 83.2089C75.0322 85.2256 73.3944 86.8633 71.3778 86.8633C69.3611 86.8633 67.7233 85.2256 67.7233 83.2089C67.7233 81.1922 69.3611 79.5544 71.3778 79.5544C73.3944 79.5544 75.0322 81.1922 75.0322 83.2089ZM83.7833 39.0133H78.9311C78.3689 39.0133 77.9044 38.5489 77.9044 37.9867C77.9044 37.4244 78.3689 36.96 78.9311 36.96H83.7833C84.3456 36.96 84.81 37.4244 84.81 37.9867C84.81 38.5489 84.3456 39.0133 83.7833 39.0133Z" fill="#333333"/>
<path d="M24.0411 31.4722V17.5511C24.0411 16.1211 22.8678 14.9478 21.4378 14.9478H7.51667C6.08667 14.9478 4.91334 16.1211 4.91334 17.5511V31.4722C4.91334 32.9022 6.08667 34.0755 7.51667 34.0755H21.4378C22.8678 34.0755 24.0411 32.9022 24.0411 31.4722ZM6.05 31.4722V17.5511C6.05 16.7444 6.71 16.0844 7.51667 16.0844H21.4378C22.2444 16.0844 22.9044 16.7444 22.9044 17.5511V31.4722C22.9044 32.2789 22.2444 32.9389 21.4378 32.9389H7.51667C6.71 32.9389 6.05 32.2789 6.05 31.4722Z" fill="#333333"/>
<path d="M18.8833 22.0611L18.48 21.9023V19.9834C18.48 19.6656 18.2233 19.4211 17.9178 19.4211H11.0244C10.7067 19.4211 10.4622 19.6778 10.4622 19.9834V21.9023L10.0711 22.0611C9.03222 22.4645 8.33556 23.4789 8.33556 24.5911V29.04C8.33556 29.3578 8.59222 29.6023 8.89778 29.6023H20.0567C20.3744 29.6023 20.6189 29.3456 20.6189 29.04V24.5911C20.6189 23.4789 19.9222 22.4645 18.8833 22.0611ZM11.5989 20.5578H17.3556V21.7311H11.5989V20.5578ZM19.4822 28.4778H9.46V24.5911C9.46 23.9434 9.86333 23.3567 10.4622 23.1245L11.1222 22.8678H17.8078L18.4678 23.1245C19.0667 23.3567 19.47 23.9434 19.47 24.5911V28.4778H19.4822Z" fill="#333333"/>
<path d="M62.2844 15.2655V5.1455C62.2844 4.11883 61.4533 3.28772 60.4267 3.28772H56.2222C55.1956 3.28772 54.3644 4.11883 54.3644 5.1455V15.2655C54.3644 15.5833 54.6211 15.8277 54.9267 15.8277H61.71C62.0278 15.8277 62.2722 15.5711 62.2722 15.2655H62.2844ZM61.1478 14.6911H55.5011V8.86105H61.1478V14.6911ZM57.4933 7.72439V6.69772H59.1678V7.72439H57.4933ZM61.1478 7.72439H60.3044V6.12328C60.3044 5.8055 60.0478 5.56105 59.7422 5.56105H56.9311C56.6133 5.56105 56.3689 5.81772 56.3689 6.12328V7.72439H55.5256V5.1455C55.5256 4.75439 55.8433 4.42439 56.2467 4.42439H60.4511C60.8422 4.42439 61.1722 4.74216 61.1722 5.1455V7.72439H61.1478Z" fill="#333333"/>
<path d="M5.85444 37.3145C6.17222 37.3145 6.41667 37.0578 6.41667 36.7523V36.19C6.41667 35.8723 6.16 35.6278 5.85444 35.6278C5.54889 35.6278 5.29222 35.8845 5.29222 36.19V36.7523C5.29222 37.07 5.54889 37.3145 5.85444 37.3145Z" fill="#333333"/>
<path d="M5.29222 45.0022C5.29222 45.32 5.54889 45.5644 5.85444 45.5644C6.16 45.5644 6.41667 45.3078 6.41667 45.0022V43.9756C6.41667 43.6578 6.16 43.4133 5.85444 43.4133C5.54889 43.4133 5.29222 43.67 5.29222 43.9756V45.0022Z" fill="#333333"/>
<path d="M5.29222 40.8711C5.29222 41.1889 5.54889 41.4333 5.85444 41.4333C6.16 41.4333 6.41667 41.1767 6.41667 40.8711V39.8444C6.41667 39.5267 6.16 39.2822 5.85444 39.2822C5.54889 39.2822 5.29222 39.5389 5.29222 39.8444V40.8711Z" fill="#333333"/>
<path d="M5.29222 48.6689C5.29222 48.9867 5.54889 49.2311 5.85444 49.2311H6.41667C6.73444 49.2311 6.97889 48.9744 6.97889 48.6689C6.97889 48.3633 6.72222 48.1067 6.41667 48.1067C6.41667 47.7889 6.16 47.5444 5.85444 47.5444C5.54889 47.5444 5.29222 47.8011 5.29222 48.1067V48.6689Z" fill="#333333"/>
<path d="M9.63111 48.0944C9.31333 48.0944 9.06889 48.351 9.06889 48.6566C9.06889 48.9621 9.32555 49.2188 9.63111 49.2188H10.6944C11.0122 49.2188 11.2567 48.9621 11.2567 48.6566C11.2567 48.351 11 48.0944 10.6944 48.0944H9.63111Z" fill="#333333"/>
<path d="M13.9089 48.0944C13.5911 48.0944 13.3467 48.351 13.3467 48.6566C13.3467 48.9621 13.6033 49.2188 13.9089 49.2188H14.4711C14.7889 49.2188 15.0333 48.9621 15.0333 48.6566C15.0333 48.351 14.7767 48.0944 14.4711 48.0944H13.9089Z" fill="#333333"/>
<defs>
<linearGradient id="paint0_linear_18_817" x1="37.8889" y1="35.3223" x2="59.7056" y2="35.3223" gradientUnits="userSpaceOnUse">
<stop stop-color="#FFDB51"/>
<stop offset="1" stop-color="#FFB951"/>
</linearGradient>
<linearGradient id="paint1_linear_18_817" x1="49.9033" y1="9.57005" x2="66.7578" y2="9.57005" gradientUnits="userSpaceOnUse">
<stop stop-color="#FFDB51"/>
<stop offset="1" stop-color="#FFB951"/>
</linearGradient>
<linearGradient id="paint2_linear_18_817" x1="27.9767" y1="17.0378" x2="44.8311" y2="17.0378" gradientUnits="userSpaceOnUse">
<stop stop-color="#77DBFF"/>
<stop offset="1" stop-color="#3198FF"/>
</linearGradient>
<linearGradient id="paint3_linear_18_817" x1="42.7533" y1="52.1767" x2="55.9778" y2="52.1767" gradientUnits="userSpaceOnUse">
<stop stop-color="#77DBFF"/>
<stop offset="1" stop-color="#3198FF"/>
</linearGradient>
<linearGradient id="paint4_linear_18_817" x1="3.20222" y1="63.3966" x2="25.5322" y2="63.3966" gradientUnits="userSpaceOnUse">
<stop stop-color="#77DBFF"/>
<stop offset="1" stop-color="#3198FF"/>
</linearGradient>
<linearGradient id="paint5_linear_18_817" x1="47.8378" y1="45.4055" x2="71.1456" y2="45.4055" gradientUnits="userSpaceOnUse">
<stop stop-color="#FFDB51"/>
<stop offset="1" stop-color="#FFB951"/>
</linearGradient>
<linearGradient id="paint6_linear_18_817" x1="67.1244" y1="52.2623" x2="70.8155" y2="52.2623" gradientUnits="userSpaceOnUse">
<stop stop-color="#77DBFF"/>
<stop offset="1" stop-color="#3198FF"/>
</linearGradient>
<linearGradient id="paint7_linear_18_817" x1="57.5911" y1="68.2489" x2="70.8156" y2="68.2489" gradientUnits="userSpaceOnUse">
<stop stop-color="#77DBFF"/>
<stop offset="1" stop-color="#3198FF"/>
</linearGradient>
<linearGradient id="paint8_linear_18_817" x1="57.5911" y1="59.7178" x2="70.8156" y2="59.7178" gradientUnits="userSpaceOnUse">
<stop stop-color="#77DBFF"/>
<stop offset="1" stop-color="#3198FF"/>
</linearGradient>
<linearGradient id="paint9_linear_18_817" x1="43.3889" y1="59.7178" x2="56.4544" y2="59.7178" gradientUnits="userSpaceOnUse">
<stop stop-color="#77DBFF"/>
<stop offset="1" stop-color="#3198FF"/>
</linearGradient>
<linearGradient id="paint10_linear_18_817" x1="28.8567" y1="51.1378" x2="42.13" y2="51.1378" gradientUnits="userSpaceOnUse">
<stop stop-color="#77DBFF"/>
<stop offset="1" stop-color="#3198FF"/>
</linearGradient>
<linearGradient id="paint11_linear_18_817" x1="29.8467" y1="59.7178" x2="42.9611" y2="59.7178" gradientUnits="userSpaceOnUse">
<stop stop-color="#77DBFF"/>
<stop offset="1" stop-color="#3198FF"/>
</linearGradient>
<linearGradient id="paint12_linear_18_817" x1="32.1689" y1="68.2977" x2="43.78" y2="68.2977" gradientUnits="userSpaceOnUse">
<stop stop-color="#77DBFF"/>
<stop offset="1" stop-color="#3198FF"/>
</linearGradient>
<linearGradient id="paint13_linear_18_817" x1="44.2078" y1="68.2977" x2="56.4544" y2="68.2977" gradientUnits="userSpaceOnUse">
<stop stop-color="#77DBFF"/>
<stop offset="1" stop-color="#3198FF"/>
</linearGradient>
<linearGradient id="paint14_linear_18_817" x1="6.05" y1="24.5178" x2="22.9044" y2="24.5178" gradientUnits="userSpaceOnUse">
<stop stop-color="#FFDB51"/>
<stop offset="1" stop-color="#FFB951"/>
</linearGradient>
</defs>
</svg>
