<svg width="88" height="88" viewBox="0 0 88 88" fill="none" xmlns="http://www.w3.org/2000/svg">
<g clip-path="url(#clip0_18_623)">
<path d="M56 64C73.6731 64 88 49.6731 88 32C88 14.3269 73.6731 0 56 0C38.3269 0 24 14.3269 24 32C24 49.6731 38.3269 64 56 64Z" fill="#E6FAF9" fill-opacity="0.6"/>
<path d="M15.0737 50.1996C15.5992 49.943 15.8314 49.3197 15.587 48.782L14.817 47.5354C14.6581 47.2788 14.7437 46.9488 15.0003 46.7899C15.257 46.6433 15.587 46.7166 15.7458 46.9732L16.5402 48.2809C16.6013 48.4276 16.6502 48.562 16.6869 48.7087C17.1146 49.2464 17.8723 49.0753 18.2879 48.8309C18.3978 48.7698 18.96 48.4031 18.7523 47.9265C18.349 47.0099 17.7257 46.24 17.7257 46.2277C17.5424 45.9955 17.579 45.6533 17.8112 45.47C18.0434 45.2745 18.3856 45.3234 18.5689 45.5556C18.5934 45.5922 19.2778 46.4477 19.7422 47.4743C19.7422 47.4988 20.7443 49.4786 21.8198 50.2608C22.1864 50.5296 22.6264 50.5296 22.9808 50.2608C23.2741 50.0408 23.5552 49.5641 23.3475 49.002C22.9442 47.8898 20.7932 44.2968 19.7055 42.5491C19.7055 42.5369 19.6933 42.5125 19.6811 42.488C19.6811 42.488 19.6689 42.4758 19.6566 42.4636C19.6566 42.4392 19.6566 42.4269 19.6566 42.4025C19.6566 42.3658 19.6444 42.3292 19.6322 42.2925C19.6322 42.2558 19.6322 42.2192 19.6322 42.1947C19.6322 42.1581 19.6322 42.1336 19.6566 42.097C19.6566 42.0603 19.6811 42.0358 19.7055 41.9992C19.7177 41.9747 19.7422 41.9381 19.7666 41.9136C19.7911 41.8892 19.8155 41.8648 19.8522 41.8403C19.8644 41.8281 19.8766 41.8036 19.9011 41.8036C19.9133 41.8036 19.9255 41.8036 19.9499 41.7914C19.9622 41.7914 19.9744 41.767 19.9866 41.767L22.3331 40.8137C22.8708 40.5937 23.1641 39.9827 22.9808 39.4327C22.8219 38.9316 22.3087 38.6139 21.7954 38.6628L17.8112 39.0661L9.98962 43.8079L13.656 49.7352C13.9493 50.273 14.5726 50.4685 15.0859 50.2119L15.0737 50.1996Z" fill="white"/>
<path d="M23.0175 23.7528L24.5696 21.6263C24.4474 21.663 24.3252 21.7119 24.2029 21.7486C23.5063 21.9441 22.7975 22.0663 22.1009 22.1519L23.0175 23.7528Z" fill="white"/>
<path d="M22.4064 51.544C21.9787 51.544 21.5632 51.4095 21.1843 51.1407C20.5244 50.6641 19.9255 49.8819 19.4856 49.2097C19.3145 49.4175 19.1067 49.613 18.8501 49.7719C18.4468 50.0163 17.9579 50.1508 17.4813 50.1508C17.2246 50.1508 16.9802 50.1019 16.7358 50.0163V65.2685H57.4326C57.6892 64.083 58.728 63.2031 59.9868 63.2031C61.2456 63.2031 62.2966 64.0952 62.5411 65.2685H73.3446V33.8965H17.4691C17.2857 35.583 17.7501 37.2207 17.9823 37.9417L21.6609 37.5629C22.6753 37.4406 23.6775 38.1006 23.9952 39.0905C24.3496 40.1782 23.7874 41.3759 22.7242 41.8159L20.9766 42.5247C21.8198 43.8935 23.9463 47.4132 24.3741 48.6353C24.704 49.5519 24.4107 50.5541 23.6408 51.1285C23.2742 51.4095 22.8464 51.544 22.4187 51.544H22.4064ZM41.0439 44.0157C41.0439 43.8201 41.1539 43.6368 41.325 43.5391C41.496 43.4413 41.7038 43.4535 41.8749 43.5513L50.9553 49.2464C51.1142 49.3442 51.2119 49.5153 51.2119 49.7108C51.2119 49.9063 51.1142 50.0652 50.9553 50.1752L41.8749 55.8703C41.7894 55.9314 41.6916 55.9559 41.5816 55.9559C41.496 55.9559 41.3983 55.9314 41.3127 55.8825C41.1416 55.7848 41.0316 55.6014 41.0316 55.4059V44.0157H41.0439Z" fill="url(#paint0_linear_18_623)"/>
<path d="M59.999 67.3339C60.8427 67.3339 61.5267 66.6499 61.5267 65.8062C61.5267 64.9625 60.8427 64.2786 59.999 64.2786C59.1553 64.2786 58.4714 64.9625 58.4714 65.8062C58.4714 66.6499 59.1553 67.3339 59.999 67.3339Z" fill="white"/>
<path d="M16.748 69.8637H73.3691V66.3439H62.5655C62.3088 67.5294 61.27 68.4093 60.0112 68.4093C58.7524 68.4093 57.7014 67.5172 57.457 66.3439H16.748V69.8637Z" fill="url(#paint1_linear_18_623)"/>
<path d="M41.3494 25.9771C40.3717 25.9282 39.2595 25.8671 38.3429 26.0993C37.3897 26.3438 36.412 26.9915 36.3875 27.8959C36.3875 28.2258 36.3631 28.4214 36.3387 28.5558C36.3142 28.7636 36.3142 28.8002 36.3875 29.2158C36.4609 29.5946 36.6686 29.8513 37.023 29.9612C37.5119 30.1079 38.123 29.9368 38.5996 29.5579C38.5507 29.118 38.5629 28.898 38.5751 28.5925V28.3969C38.5996 28.1036 38.844 27.8836 39.1251 27.8836C39.1251 27.8836 39.1373 27.8836 39.1495 27.8836C39.4429 27.8959 39.6751 28.1525 39.6628 28.458V28.6658C39.6262 29.008 39.6262 29.1669 39.6995 29.7168C39.7606 30.169 40.2495 30.3523 40.6405 30.3646C41.1661 30.3646 41.7527 30.1323 41.8749 29.5457C41.8504 29.4235 41.826 29.2891 41.826 29.1546V28.3725C41.8016 28.0792 42.046 27.8225 42.3393 27.8225C42.6693 27.847 42.8892 28.0547 42.8892 28.348V29.118C42.9259 29.6924 43.4025 30.1446 43.9769 30.1446H43.9892C44.5269 30.1446 44.8935 29.7902 45.0646 29.0935C45.2357 28.3847 45.3946 27.5903 45.0157 27.0893C44.2947 26.1482 42.5959 26.0627 41.4594 26.0016H41.3127L41.3494 25.9771Z" fill="white"/>
<path d="M44.0381 31.2078H44.0014C43.427 31.2078 42.9137 30.9879 42.5226 30.6334C42.0582 31.1834 41.3372 31.44 40.6895 31.44C40.665 31.44 40.6406 31.44 40.6161 31.44C39.8951 31.4156 39.2962 31.1223 38.954 30.6457C38.2574 31.0734 37.4142 31.2323 36.6931 31.0001C36.0454 30.8045 35.5932 30.3157 35.3854 29.6802H20.671C19.3145 30.2424 18.3612 31.1223 17.8601 32.32C17.7868 32.4789 17.7257 32.65 17.6768 32.8211H73.8946C74.2001 32.8211 74.4323 33.0655 74.4323 33.3588V70.4136C74.4323 70.7192 74.1879 70.9514 73.8946 70.9514H16.1981C15.8925 70.9514 15.6603 70.707 15.6603 70.4136V51.1163C15.6603 51.1163 15.587 51.1652 15.5503 51.1774C15.2448 51.324 14.927 51.3974 14.6093 51.3974C13.8394 51.3974 13.1061 50.9818 12.715 50.273L12.5317 49.9797V74.1045H77.5854V31.77C77.5854 30.609 76.6444 29.668 75.4834 29.668H46.0546C45.7002 30.6212 44.9791 31.1956 44.0503 31.2078H44.0381Z" fill="white"/>
<path d="M16.0147 21.2597C13.546 20.2087 11.5173 18.3511 10.3807 15.9068C10.3563 15.919 10.3196 15.9435 10.2952 15.9435C8.63309 16.359 7.2032 17.6789 6.66547 19.2921C6.50659 19.7443 6.42104 20.2331 6.32327 20.7464C6.15217 21.6386 5.96886 22.5674 5.44334 23.3862C4.94227 24.1684 4.20899 24.6939 3.51238 25.2072C3.01131 25.5738 2.53468 25.916 2.15582 26.3315C0.970361 27.6392 0.7626 29.7779 1.66697 31.4156C2.52246 32.9555 4.28232 34.0187 6.17662 34.1287C6.20106 32.3688 6.55548 30.7067 7.23987 29.1669C9.29304 24.5228 13.7294 22.1885 16.0392 21.2475L16.0147 21.2597Z" fill="url(#paint2_linear_18_623)"/>
<path d="M6.01772 48.2687C6.35992 48.012 6.59212 47.4865 6.39658 47.0954C6.28659 46.8877 6.09105 46.7899 5.94439 46.741C5.66331 46.6555 5.33333 46.6799 5.07669 46.8143C4.61228 47.071 4.25786 47.6454 4.13565 48.3664C4.13565 48.4153 4.12343 48.4642 4.11121 48.5131C4.20898 48.5375 4.31897 48.562 4.42896 48.5742C4.80782 48.6231 5.51665 48.6597 6.02994 48.2687H6.01772Z" fill="white"/>
<path d="M22.602 1.13128C22.2843 1.10684 21.9665 1.0824 21.6365 1.0824C20.6099 1.0824 19.5589 1.22905 18.5079 1.52236C15.7337 2.30452 13.3994 4.03994 11.9451 6.41087C11.1751 7.66965 10.7107 9.02621 10.5518 10.395C16.8702 8.23183 21.1843 3.0378 22.5898 1.11906L22.602 1.13128Z" fill="url(#paint3_linear_18_623)"/>
<path d="M23.8974 20.7097C26.6717 19.9276 29.0059 18.1921 30.4603 15.8212C31.9024 13.4625 32.3057 10.7494 31.5846 8.19516C30.5702 4.56544 27.4905 2.03564 23.8119 1.30237C22.7975 2.78114 18.0435 9.16064 10.4907 11.5682C10.4907 12.3993 10.6007 13.2181 10.8329 14.0247C12.3239 19.3165 18.1901 22.3107 23.9097 20.6975L23.8974 20.7097ZM23.3475 7.91407C23.8608 7.76741 24.4107 8.14627 24.5818 8.74511C24.7529 9.34396 24.4718 9.9428 23.9585 10.0895C23.4453 10.2361 22.8953 9.85725 22.7242 9.25841C22.5531 8.65957 22.8342 8.06072 23.3475 7.91407ZM19.6444 13.6825C21.1354 14.5258 23.042 13.988 23.8852 12.497C24.0319 12.2282 24.3618 12.1426 24.6185 12.2893C24.8751 12.4359 24.9729 12.7659 24.8263 13.0226C24.2763 14.0003 23.3841 14.7091 22.2965 15.0146C21.9176 15.1246 21.5387 15.1735 21.1599 15.1735C20.451 15.1735 19.7544 14.9902 19.1189 14.6358C18.8623 14.4891 18.7645 14.1591 18.9112 13.9025C19.0578 13.6336 19.3878 13.5481 19.6444 13.6947V13.6825ZM17.7013 9.50283C18.2146 9.35618 18.7645 9.73504 18.9356 10.3339C19.1067 10.9327 18.8256 11.5316 18.3123 11.6782C17.799 11.8249 17.2491 11.446 17.078 10.8472C16.9069 10.2483 17.188 9.64949 17.7013 9.50283Z" fill="white"/>
<path d="M30.3014 20.3553L29.5925 18.6321C29.0059 19.2065 28.3704 19.7321 27.6738 20.172L30.2891 20.3431L30.3014 20.3553Z" fill="white"/>
<path d="M16.4669 33.3465C16.4669 33.3221 16.4669 33.3099 16.4669 33.2854C16.5525 32.821 16.6625 32.3444 16.858 31.8922C17.4813 30.4012 18.6545 29.3013 20.3288 28.6291C20.3655 28.6169 20.3899 28.6291 20.4266 28.6169C20.4633 28.6169 20.4877 28.5925 20.5244 28.5925H35.2143C35.2143 28.5925 35.2143 28.5069 35.2143 28.458C35.2143 28.3358 35.2388 28.1647 35.251 27.8714C35.251 27.627 35.3121 27.3948 35.3854 27.1748L33.4056 21.8219C33.3078 21.5408 33.4422 21.2231 33.7233 21.1253C34.0044 21.0153 34.3222 21.1619 34.42 21.443L36.1309 26.0505C36.6687 25.5494 37.3775 25.2072 38.0252 25.0483C39.1007 24.7794 40.2984 24.8405 41.3616 24.8894H41.5083C41.9605 24.9261 42.4982 24.9505 43.0482 25.0361C41.6672 16.9823 32.7945 16.689 31.1324 16.7012C30.888 17.0678 30.6314 17.41 30.3625 17.7522L31.5846 20.7586C31.6579 20.9297 31.6335 21.1253 31.5235 21.2842C31.4135 21.4308 31.2424 21.5286 31.0469 21.5041L26.2073 21.1742L23.3475 25.085C23.2497 25.2316 23.0786 25.305 22.9075 25.305C22.9075 25.305 22.8831 25.305 22.8709 25.305C22.6875 25.305 22.5164 25.195 22.4309 25.0361L20.8421 22.2374C20.8421 22.2374 20.7688 22.2374 20.7199 22.2374C19.6445 22.2374 18.6056 22.0908 17.6035 21.8219C16.7113 22.103 10.5396 24.1928 8.15647 29.6313C6.53104 33.3099 6.95879 37.7584 9.41526 42.8425L16.9191 38.2839C16.6258 37.4162 16.0881 35.3997 16.4303 33.3465H16.4669Z" fill="#333333"/>
<path d="M42.1316 44.9934V54.416L49.6354 49.7108L42.1316 44.9934Z" fill="white"/>
<path d="M68.4806 23.3129C67.5151 21.7975 66.9773 19.2433 66.904 16.7012H63.0788C63.311 19.8665 65.523 22.4819 68.4806 23.3129Z" fill="white"/>
<path d="M83.8427 22.2741C83.2927 23.6184 82.4373 24.7061 81.4107 25.3905C82.4373 26.0749 83.2805 27.1626 83.8427 28.507C84.3927 27.1626 85.2481 26.0749 86.2747 25.3905C85.2481 24.7061 84.4049 23.6184 83.8427 22.2741Z" fill="url(#paint4_linear_18_623)"/>
<path d="M77.7565 75.1677H12.3483L8.44977 85.0181C8.30311 85.3847 8.352 85.788 8.57198 86.118C8.79196 86.4479 9.14638 86.6313 9.54968 86.6313H80.5674C80.9585 86.6313 81.3251 86.4479 81.5451 86.118C81.7651 85.788 81.814 85.3969 81.6673 85.0181L77.7687 75.1677H77.7565ZM56.3938 84.4559C56.296 84.6025 56.1249 84.6881 55.9538 84.6881H34.1511C33.98 84.6881 33.8089 84.6025 33.7111 84.4559C33.6133 84.3092 33.5889 84.1259 33.6378 83.967L35.0432 79.8485C35.1166 79.6285 35.3243 79.4818 35.5565 79.4818H54.5484C54.7806 79.4818 54.9883 79.6285 55.0616 79.8485L56.4671 83.967C56.5282 84.1381 56.5037 84.3214 56.3938 84.4559Z" fill="white"/>
<path d="M68.4806 9.00177C65.523 9.83282 63.311 12.4482 63.0788 15.6135H66.904C66.9773 13.0714 67.5151 10.5172 68.4806 9.00177Z" fill="white"/>
<path d="M67.9917 16.7012C68.1017 20.6854 69.3605 23.594 70.4849 23.594C71.6092 23.594 72.8802 20.6731 72.978 16.7012H67.9795H67.9917Z" fill="white"/>
<path d="M72.978 15.6135C72.868 11.6294 71.6092 8.7207 70.4849 8.7207C69.3605 8.7207 68.0895 11.6416 67.9918 15.6135H72.9903H72.978Z" fill="white"/>
<path d="M77.891 15.6135C77.6588 12.4482 75.4467 9.83282 72.4892 9.00177C73.4546 10.5172 73.9924 13.0714 74.0657 15.6135H77.891Z" fill="white"/>
<path d="M72.5014 23.3129C75.4589 22.4819 77.671 19.8665 77.9032 16.7012H74.0779C74.0046 19.2433 73.4669 21.7975 72.5014 23.3129Z" fill="white"/>
<path d="M35.9354 80.5696L34.9088 83.6005H55.1961L54.1573 80.5696H35.9354Z" fill="#333333"/>
<path d="M18.3123 11.6783C18.8256 11.5316 19.0945 10.9328 18.9356 10.3339C18.7645 9.7351 18.2145 9.36846 17.7012 9.5029C17.1879 9.64955 16.9191 10.2484 17.0779 10.8472C17.249 11.4461 17.799 11.8127 18.3123 11.6783Z" fill="#333333"/>
<path d="M23.9586 10.0895C24.4719 9.94282 24.7407 9.34398 24.5819 8.74514C24.4108 8.14629 23.8608 7.77966 23.3475 7.91409C22.8342 8.06075 22.5653 8.65959 22.7242 9.25843C22.8953 9.85727 23.4453 10.2239 23.9586 10.0895Z" fill="#333333"/>
<path d="M19.1067 14.6358C19.7422 14.9902 20.4388 15.1735 21.1476 15.1735C21.5265 15.1735 21.9176 15.1247 22.2842 15.0147C23.3597 14.7091 24.2641 14.0003 24.814 13.0226C24.9607 12.766 24.8629 12.436 24.6062 12.2893C24.3496 12.1427 24.0196 12.2404 23.873 12.4971C23.0419 14.0003 21.1354 14.5258 19.6322 13.6826C19.3756 13.5359 19.0456 13.6337 18.8989 13.8903C18.7523 14.147 18.85 14.4769 19.1067 14.6236V14.6358Z" fill="#333333"/>
<path d="M78.6609 74.52V31.77C78.6609 30.0101 77.231 28.5802 75.4711 28.5802H46.3112C46.4212 27.9081 46.4212 27.077 45.9079 26.4049C45.4802 25.8549 44.8935 25.5127 44.2458 25.2927C43.1215 16.8601 34.6521 15.7479 31.7924 15.6135C33.0389 13.1815 33.3445 10.4683 32.6234 7.88966C31.4624 3.75887 27.9182 0.899098 23.7141 0.178044C23.6652 0.165822 23.6163 0.153601 23.5674 0.153601C21.8443 -0.115266 20.0233 -0.0419389 18.2145 0.459133C15.1714 1.31462 12.6172 3.22114 11.0284 5.83649C9.42745 8.45183 8.98749 11.4705 9.79409 14.318C9.8552 14.5136 9.9163 14.7091 9.98963 14.9047C7.99757 15.418 6.29881 17.0067 5.63886 18.9499C5.45554 19.4754 5.35777 20.0131 5.26 20.5387C5.10113 21.3697 4.94225 22.1519 4.52673 22.7996C4.13565 23.4107 3.51236 23.8628 2.86464 24.3272C2.33912 24.7061 1.80139 25.0972 1.3492 25.5983C-0.141792 27.2359 -0.41066 29.9001 0.713696 31.9289C1.7525 33.8109 3.90344 35.1064 6.18882 35.2164C6.18882 35.2164 6.20104 35.2164 6.21326 35.2164C6.37214 37.8684 7.20318 40.7526 8.7675 43.8446C8.7675 43.8446 8.7675 43.8446 8.77973 43.8568C8.77973 43.8568 8.77973 43.869 8.77973 43.8813L11.444 48.1954V74.5077L7.44761 84.6025C7.16652 85.2991 7.25207 86.0813 7.67981 86.7045C8.10756 87.3278 8.80417 87.6945 9.54967 87.6945H80.5674C81.3129 87.6945 82.0217 87.3278 82.4372 86.7045C82.865 86.0813 82.9505 85.2991 82.6694 84.6025L78.6731 74.5077L78.6609 74.52ZM46.0423 29.6679H75.4711C76.6321 29.6679 77.5732 30.609 77.5732 31.77V74.08H12.5194V49.9552L12.7028 50.2485C13.0938 50.9696 13.8393 51.3729 14.597 51.3729C14.9148 51.3729 15.2326 51.2996 15.5381 51.1529C15.5747 51.1285 15.6114 51.104 15.6481 51.0918V70.3892C15.6481 70.6947 15.8925 70.9269 16.1858 70.9269H73.8824C74.1879 70.9269 74.4201 70.6825 74.4201 70.3892V33.3343C74.4201 33.0288 74.1757 32.7966 73.8824 32.7966H17.689C17.7379 32.6255 17.799 32.4666 17.8723 32.2955C18.3734 31.11 19.3267 30.2179 20.6832 29.6557H35.3976C35.5932 30.3034 36.0454 30.7801 36.7053 30.9756C37.4264 31.1956 38.2574 31.0489 38.9662 30.6212C39.3206 31.0978 39.9073 31.4034 40.6283 31.4156C40.6528 31.4156 40.6772 31.4156 40.7017 31.4156C41.3494 31.4156 42.0704 31.1589 42.5348 30.609C42.9259 30.9634 43.4392 31.1834 44.0136 31.1834H44.0503C44.9791 31.1712 45.7124 30.5968 46.0546 29.6435L46.0423 29.6679ZM24.3741 48.6231C23.9341 47.401 21.8076 43.8813 20.9765 42.5125L22.7242 41.8036C23.7874 41.3759 24.3496 40.1782 23.9952 39.0783C23.6774 38.0884 22.6753 37.4407 21.6609 37.5506L17.9823 37.9295C17.7379 37.2085 17.2857 35.5708 17.469 33.8843H73.3568V65.2562H62.5533C62.2966 64.0708 61.2578 63.1908 59.999 63.1908C58.7402 63.1908 57.6892 64.083 57.4448 65.2562H16.748V50.0041C16.9924 50.0897 17.2368 50.1385 17.4935 50.1385C17.9701 50.1385 18.459 49.9919 18.8623 49.7597C19.1311 49.6008 19.3389 49.4053 19.4978 49.1975C19.9377 49.8697 20.5366 50.6518 21.1965 51.1285C21.5754 51.3973 21.9909 51.5318 22.4187 51.5318C22.8464 51.5318 23.2741 51.3973 23.6408 51.1162C24.4107 50.5296 24.704 49.5275 24.3741 48.6231ZM61.5267 65.8062C61.5267 66.6495 60.8423 67.3338 59.999 67.3338C59.1558 67.3338 58.4714 66.6495 58.4714 65.8062C58.4714 64.9629 59.1558 64.2785 59.999 64.2785C60.8423 64.2785 61.5267 64.9629 61.5267 65.8062ZM57.4448 66.3439C57.7014 67.5294 58.7402 68.4093 59.999 68.4093C61.2578 68.4093 62.3088 67.5172 62.5533 66.3439H73.3568V69.8636H16.748V66.3439H57.4448ZM45.0524 27.0648C45.4313 27.5659 45.2724 28.3603 45.1013 29.0691C44.9302 29.7535 44.5636 30.1079 44.0258 30.1201H44.0136C43.427 30.1201 42.9626 29.6679 42.9381 29.0935V28.3236C42.9137 28.0181 42.6937 27.8225 42.3637 27.7981C42.0582 27.7981 41.826 28.0547 41.8382 28.348V29.1302C41.8627 29.2646 41.8871 29.3991 41.9116 29.5213C41.7893 30.1079 41.2027 30.3523 40.6772 30.3401C40.2861 30.3401 39.7973 30.1568 39.7362 29.6924C39.6506 29.1302 39.6628 28.9713 39.6873 28.6414V28.4336C39.7117 28.1281 39.4795 27.8836 39.1862 27.8592H39.1618C38.8807 27.8592 38.6363 28.0792 38.624 28.3725V28.568C38.5996 28.8736 38.5874 29.1058 38.624 29.5335C38.1474 29.9124 37.5363 30.0957 37.0475 29.9368C36.6931 29.8268 36.4853 29.5824 36.412 29.1913C36.3387 28.7758 36.3387 28.7391 36.3631 28.5314C36.3753 28.3969 36.3998 28.2014 36.412 27.8714C36.4487 26.967 37.4141 26.3071 38.3674 26.0749C39.284 25.8427 40.3961 25.9038 41.3738 25.9527H41.5205C42.6571 26.0138 44.3558 26.0993 45.0769 27.0404L45.0524 27.0648ZM11.945 6.41088C13.3994 4.03996 15.7214 2.30454 18.5078 1.52238C19.5589 1.22907 20.6099 1.08242 21.6365 1.08242C21.9542 1.08242 22.2842 1.09464 22.602 1.1313C21.1843 3.03782 16.8702 8.23185 10.564 10.4072C10.7351 9.02623 11.1873 7.66967 11.9573 6.42311L11.945 6.41088ZM23.8119 1.3024C27.4905 2.03567 30.558 4.56547 31.5846 8.19519C32.3056 10.7494 31.9023 13.4625 30.4602 15.8213C29.0059 18.1922 26.6839 19.9276 23.8974 20.7098C18.1779 22.323 12.3117 19.3288 10.8207 14.0369C10.5885 13.2303 10.4907 12.3993 10.4785 11.5805C18.0312 9.17289 22.7853 2.78117 23.7997 1.31462L23.8119 1.3024ZM30.3014 20.3553L27.686 20.1842C28.3826 19.7321 29.0181 19.2188 29.6047 18.6444L30.3136 20.3676L30.3014 20.3553ZM24.5696 21.6386L23.0175 23.7651L22.1009 22.1641C22.7975 22.0908 23.4941 21.9685 24.203 21.7608C24.3252 21.7241 24.4474 21.6752 24.5696 21.6386ZM6.15216 34.1409C4.25786 34.0309 2.498 32.9677 1.64251 31.4278C0.738139 29.7901 0.9459 27.6514 2.13136 26.3438C2.51022 25.9282 2.98685 25.586 3.48792 25.2194C4.18453 24.7061 4.91781 24.1806 5.41888 23.3984C5.94439 22.5796 6.12771 21.6508 6.29881 20.7586C6.39658 20.2453 6.49435 19.7687 6.64101 19.3043C7.19096 17.6789 8.62085 16.3712 10.2707 15.9557C10.3074 15.9557 10.3318 15.9312 10.3563 15.919C11.4928 18.3511 13.5338 20.2087 15.9903 21.2719C13.6805 22.213 9.24413 24.5472 7.19096 29.1913C6.50657 30.7312 6.15216 32.3933 6.12771 34.1531L6.15216 34.1409ZM8.20533 29.6313C10.6007 24.205 16.7602 22.103 17.6524 21.8219C18.6545 22.0908 19.7055 22.2374 20.7688 22.2374C20.8054 22.2374 20.8421 22.2374 20.891 22.2374L22.4798 25.0361C22.5653 25.195 22.7364 25.2927 22.9197 25.3049C22.9197 25.3049 22.9442 25.3049 22.9564 25.3049C23.1275 25.3049 23.2864 25.2194 23.3964 25.085L26.2561 21.1742L31.0957 21.5041C31.2913 21.5164 31.4624 21.4308 31.5724 21.2842C31.6824 21.1375 31.7068 20.9297 31.6335 20.7586L30.4114 17.7522C30.6924 17.4222 30.9491 17.0678 31.1813 16.7012C32.8434 16.689 41.716 16.9823 43.097 25.0361C42.5471 24.9505 42.0093 24.9261 41.5571 24.9016H41.4105C40.3472 24.8405 39.1496 24.7794 38.0741 25.0483C37.4264 25.2194 36.7175 25.5494 36.1798 26.0504L34.4688 21.443C34.371 21.1619 34.0533 21.0153 33.7722 21.1253C33.4911 21.223 33.3445 21.5408 33.4544 21.8219L35.4343 27.1748C35.361 27.3948 35.3121 27.6148 35.2999 27.8714C35.2999 28.1647 35.2754 28.3358 35.2632 28.458C35.2632 28.5069 35.2632 28.5436 35.2632 28.5925H20.5732C20.5732 28.5925 20.4999 28.6047 20.4755 28.6169C20.4388 28.6169 20.4144 28.6169 20.3777 28.6291C18.7034 29.3013 17.5301 30.4012 16.9069 31.8922C16.7113 32.3566 16.6013 32.821 16.5158 33.2854C16.5158 33.3099 16.5158 33.3221 16.5158 33.3465C16.1736 35.3997 16.7113 37.4162 17.0046 38.2839L9.50078 42.8424C7.04431 37.7584 6.61656 33.3099 8.24199 29.6313H8.20533ZM9.97741 43.7835L17.799 39.0416L21.7831 38.6383C22.2964 38.5895 22.8097 38.9072 22.9686 39.4083C23.1519 39.9705 22.8586 40.5693 22.3209 40.7893L19.9744 41.7425C19.9744 41.7425 19.95 41.767 19.9377 41.767C19.9255 41.767 19.9133 41.767 19.8889 41.7792C19.8766 41.7792 19.8644 41.8036 19.84 41.8159C19.8155 41.8403 19.7789 41.8647 19.7544 41.8892C19.73 41.9136 19.7178 41.9381 19.6933 41.9747C19.6811 42.0114 19.6566 42.0358 19.6444 42.0725C19.6444 42.1092 19.6322 42.1336 19.62 42.1703C19.62 42.2069 19.62 42.2436 19.62 42.2681C19.62 42.3047 19.62 42.3414 19.6444 42.378C19.6444 42.4025 19.6444 42.4147 19.6444 42.4392C19.6444 42.4392 19.6566 42.4514 19.6689 42.4636C19.6689 42.488 19.6689 42.5003 19.6933 42.5247C20.781 44.2723 22.9319 47.8654 23.3352 48.9775C23.543 49.5519 23.2619 50.0163 22.9686 50.2363C22.6142 50.5052 22.1742 50.5052 21.8076 50.2363C20.7321 49.4541 19.73 47.4743 19.73 47.4499C19.2656 46.4111 18.5934 45.5678 18.5567 45.5311C18.3734 45.2989 18.0312 45.2623 17.799 45.4456C17.5668 45.6289 17.5301 45.9711 17.7135 46.2033C17.7135 46.2033 18.349 46.9855 18.7401 47.9021C18.9478 48.3787 18.3979 48.7331 18.2756 48.8064C17.8601 49.0508 17.1024 49.2219 16.6747 48.6842C16.638 48.5376 16.5891 48.4031 16.528 48.2565L15.7336 46.9488C15.5747 46.6921 15.2448 46.6188 14.9881 46.7655C14.7315 46.9243 14.6459 47.2543 14.8048 47.511L15.5747 48.7575C15.8192 49.2953 15.587 49.9186 15.0615 50.1752C14.5482 50.4319 13.9249 50.2241 13.6316 49.6986L9.96519 43.7713L9.97741 43.7835ZM81.5329 86.1179C81.3129 86.4479 80.9585 86.6312 80.5552 86.6312H9.53744C9.13414 86.6312 8.77973 86.4479 8.55974 86.1179C8.33976 85.7879 8.29088 85.3846 8.43753 85.018L12.3361 75.1677H77.7443L81.6429 85.018C81.7895 85.3846 81.7406 85.7879 81.5206 86.1179H81.5329Z" fill="#333333"/>
<path d="M55.0616 79.8607C54.9883 79.6407 54.7806 79.494 54.5484 79.494H35.5565C35.3243 79.494 35.1165 79.6407 35.0432 79.8607L33.6378 83.9792C33.5767 84.1503 33.6011 84.3336 33.7111 84.4681C33.8089 84.6147 33.98 84.7003 34.1511 84.7003H55.9538C56.1249 84.7003 56.296 84.6147 56.3938 84.4681C56.4915 84.3214 56.5282 84.1381 56.4671 83.9792L55.0616 79.8607ZM34.9088 83.6004L35.9476 80.5695H54.1695L55.2083 83.6004H34.921H34.9088Z" fill="#333333"/>
<path d="M87.6435 24.8772C86.067 24.2906 84.8082 22.5307 84.3804 20.282C84.3316 20.0254 84.1116 19.842 83.8427 19.842C83.5738 19.842 83.3539 20.0254 83.305 20.282C82.8772 22.5307 81.6184 24.3028 80.0419 24.8772C79.8341 24.9505 79.6875 25.1583 79.6875 25.3905C79.6875 25.6227 79.8341 25.8182 80.0419 25.9038C81.6184 26.4904 82.8772 28.2503 83.305 30.499C83.3539 30.7556 83.5738 30.9389 83.8427 30.9389C84.1116 30.9389 84.3316 30.7556 84.3804 30.499C84.8082 28.2503 86.067 26.4782 87.6435 25.9038C87.8513 25.8305 87.9979 25.6227 87.9979 25.3905C87.9979 25.1583 87.8513 24.9627 87.6435 24.8772ZM83.8427 28.4947C83.2927 27.1504 82.4373 26.0627 81.4107 25.3783C82.4373 24.6939 83.2805 23.6062 83.8427 22.2618C84.3927 23.6062 85.2481 24.6939 86.2747 25.3783C85.2481 26.0627 84.4049 27.1504 83.8427 28.4947Z" fill="#333333"/>
<path d="M41.325 55.8703C41.4105 55.9191 41.4961 55.9436 41.5938 55.9436C41.6916 55.9436 41.7894 55.9191 41.8871 55.858L50.9675 50.1629C51.1264 50.0652 51.2242 49.8941 51.2242 49.6985C51.2242 49.503 51.1264 49.3441 50.9675 49.2341L41.8871 43.539C41.716 43.4412 41.5083 43.429 41.3372 43.5268C41.1661 43.6246 41.0561 43.8079 41.0561 44.0034V55.3936C41.0561 55.5892 41.1661 55.7725 41.3372 55.8703H41.325ZM42.1316 44.9933L49.6476 49.6985L42.1316 54.4037V44.9811V44.9933Z" fill="#333333"/>
<path d="M70.4849 24.6817C75.1901 24.6817 79.0031 20.8564 79.0031 16.1634C79.0031 11.4705 75.1778 7.633 70.4849 7.633C65.7919 7.633 61.9544 11.4582 61.9544 16.1634C61.9544 20.8686 65.7797 24.6817 70.4849 24.6817ZM70.4849 23.594C69.3483 23.594 68.0895 20.6731 67.9917 16.7012H72.9902C72.8802 20.6853 71.6215 23.594 70.4971 23.594H70.4849ZM72.5014 23.3129C73.4669 21.7974 74.0046 19.2432 74.0779 16.7012H77.9032C77.671 19.8665 75.4589 22.4818 72.5014 23.3129ZM77.891 15.6135H74.0657C73.9924 13.0715 73.4546 10.5172 72.4892 9.00178C75.4467 9.83282 77.6588 12.4482 77.891 15.6135ZM70.4849 8.72069C71.6215 8.72069 72.8802 11.6416 72.978 15.6135H67.9795C68.0895 11.6293 69.3483 8.72069 70.4727 8.72069H70.4849ZM68.4806 9.00178C67.5151 10.5172 66.9774 13.0715 66.904 15.6135H63.0788C63.311 12.4482 65.523 9.83282 68.4806 9.00178ZM66.904 16.7012C66.9774 19.2432 67.5151 21.7974 68.4806 23.3129C65.523 22.4818 63.311 19.8665 63.0788 16.7012H66.904Z" fill="#333333"/>
<path d="M53.5951 12.2159C53.2896 12.2159 53.0574 12.4604 53.0574 12.7537C53.0574 13.047 53.3018 13.2914 53.5951 13.2914H54.6828C54.9883 13.2914 55.2205 13.047 55.2205 12.7537C55.2205 12.4604 54.9761 12.2159 54.6828 12.2159H53.5951Z" fill="#333333"/>
<path d="M57.9459 12.2159C57.6403 12.2159 57.4081 12.4604 57.4081 12.7537C57.4081 13.047 57.6526 13.2914 57.9459 13.2914H59.0336C59.3391 13.2914 59.5713 13.047 59.5713 12.7537C59.5713 12.4604 59.3269 12.2159 59.0336 12.2159H57.9459Z" fill="#333333"/>
<path d="M49.2565 12.2159C48.951 12.2159 48.7188 12.4604 48.7188 12.7537C48.7188 13.047 48.9632 13.2914 49.2565 13.2914H50.3442C50.6498 13.2914 50.882 13.047 50.882 12.7537C50.882 12.4604 50.6375 12.2159 50.3442 12.2159H49.2565Z" fill="#333333"/>
<path d="M40.5794 12.2159C40.2739 12.2159 40.0417 12.4604 40.0417 12.7537C40.0417 13.047 40.2861 13.2914 40.5794 13.2914H41.6671C41.9726 13.2914 42.2049 13.047 42.2049 12.7537C42.2049 12.4604 41.9604 12.2159 41.6671 12.2159H40.5794Z" fill="#333333"/>
<path d="M36.2409 12.2159C35.9354 12.2159 35.7032 12.4604 35.7032 12.7537C35.7032 13.047 35.9476 13.2914 36.2409 13.2914H37.3286C37.6341 13.2914 37.8663 13.047 37.8663 12.7537C37.8663 12.4604 37.6219 12.2159 37.3286 12.2159H36.2409Z" fill="#333333"/>
<path d="M44.918 12.2159C44.6125 12.2159 44.3803 12.4604 44.3803 12.7537C44.3803 13.047 44.6247 13.2914 44.918 13.2914H46.0057C46.3112 13.2914 46.5434 13.047 46.5434 12.7537C46.5434 12.4604 46.299 12.2159 46.0057 12.2159H44.918Z" fill="#333333"/>
<path d="M6.82434 53.6216C6.82434 53.6216 6.89766 53.6216 6.92211 53.6216C7.17875 53.6216 7.39874 53.4383 7.45984 53.1816C7.52095 52.8883 7.32541 52.6072 7.0321 52.5461C5.61443 52.2773 4.47786 51.0307 4.1601 49.6253C4.19677 49.6253 4.23343 49.6253 4.25787 49.6375C5.19891 49.7719 6.04218 49.5886 6.65324 49.1242C7.45984 48.5253 7.76537 47.4132 7.33763 46.5944C7.11765 46.1666 6.72657 45.8489 6.23772 45.7022C5.67554 45.5311 5.04003 45.5922 4.53896 45.8611C3.78124 46.2644 3.24351 47.0832 3.06019 48.0976C2.16804 47.5843 1.4592 46.7166 1.20256 45.7145C0.811478 44.2479 1.38588 42.5736 2.58356 41.657C2.81576 41.4737 2.86465 41.1315 2.68133 40.8993C2.49801 40.6549 2.15582 40.6182 1.92361 40.8015C0.383734 41.987 -0.33732 44.1257 0.15153 45.9955C0.530389 47.4499 1.6303 48.672 2.99908 49.2831C3.1824 51.3362 4.75894 53.2183 6.81212 53.6094L6.82434 53.6216ZM4.12344 48.3787C4.24565 47.6699 4.60007 47.0832 5.06448 46.8266C5.3089 46.6922 5.63887 46.6677 5.93218 46.7533C6.07884 46.8021 6.2866 46.8999 6.38437 47.1077C6.57991 47.4865 6.34771 48.0243 6.00551 48.2809C5.49222 48.6598 4.78339 48.6353 4.40453 48.5865C4.29454 48.5742 4.19677 48.5498 4.08677 48.5253C4.08677 48.4765 4.099 48.4276 4.11122 48.3787H4.12344Z" fill="#333333"/>
<path d="M61.0378 8.25629C61.3434 8.25629 61.5756 8.01186 61.5756 7.71855V6.45976H62.8344C63.1399 6.45976 63.3721 6.21534 63.3721 5.92203C63.3721 5.62872 63.1277 5.38429 62.8344 5.38429H61.5756V4.1255C61.5756 3.81997 61.3312 3.58777 61.0378 3.58777C60.7445 3.58777 60.5001 3.83219 60.5001 4.1255V5.38429H59.2413C58.9358 5.38429 58.7036 5.62872 58.7036 5.92203C58.7036 6.21534 58.948 6.45976 59.2413 6.45976H60.5001V7.71855C60.5001 8.02409 60.7445 8.25629 61.0378 8.25629Z" fill="#333333"/>
<path d="M7.69205 59.0479C7.69205 58.7424 7.44762 58.5101 7.15431 58.5101H5.89552V57.2514C5.89552 56.9458 5.6511 56.7136 5.35779 56.7136C5.06448 56.7136 4.82005 56.958 4.82005 57.2514V58.5101H3.56126C3.25573 58.5101 3.02353 58.7546 3.02353 59.0479C3.02353 59.3412 3.26795 59.5856 3.56126 59.5856H4.82005V60.8444C4.82005 61.1499 5.06448 61.3821 5.35779 61.3821C5.6511 61.3821 5.89552 61.1377 5.89552 60.8444V59.5856H7.15431C7.45985 59.5856 7.69205 59.3412 7.69205 59.0479Z" fill="#333333"/>
</g>
<defs>
<linearGradient id="paint0_linear_18_623" x1="16.748" y1="49.5764" x2="73.3569" y2="49.5764" gradientUnits="userSpaceOnUse">
<stop stop-color="#9DFED1"/>
<stop offset="0.69" stop-color="#3DDBBD"/>
<stop offset="1" stop-color="#11CBB4"/>
</linearGradient>
<linearGradient id="paint1_linear_18_623" x1="0.00486505" y1="68.1038" x2="1.22699" y2="68.1038" gradientUnits="userSpaceOnUse">
<stop stop-color="#9DFED1"/>
<stop offset="0.69" stop-color="#3DDBBD"/>
<stop offset="1" stop-color="#11CBB4"/>
</linearGradient>
<linearGradient id="paint2_linear_18_623" x1="1.08035" y1="25.0239" x2="16.0147" y2="25.0239" gradientUnits="userSpaceOnUse">
<stop stop-color="#FFDB51"/>
<stop offset="1" stop-color="#FFB951"/>
</linearGradient>
<linearGradient id="paint3_linear_18_623" x1="10.5518" y1="5.7387" x2="22.602" y2="5.7387" gradientUnits="userSpaceOnUse">
<stop stop-color="#FFDB51"/>
<stop offset="1" stop-color="#FFB951"/>
</linearGradient>
<linearGradient id="paint4_linear_18_623" x1="81.4229" y1="25.3905" x2="86.2747" y2="25.3905" gradientUnits="userSpaceOnUse">
<stop stop-color="#FFDB51"/>
<stop offset="1" stop-color="#FFB951"/>
</linearGradient>
<clipPath id="clip0_18_623">
<rect width="88" height="88" fill="white"/>
</clipPath>
</defs>
</svg>
