<svg width="88" height="88" viewBox="0 0 88 88" fill="none" xmlns="http://www.w3.org/2000/svg">
<g clip-path="url(#clip0_14_356)">
<path d="M44 88C68.3005 88 88 68.3005 88 44C88 19.6995 68.3005 0 44 0C19.6995 0 0 19.6995 0 44C0 68.3005 19.6995 88 44 88Z" fill="#E6FAF9" fill-opacity="0.6"/>
<path d="M44 88C68.3005 88 88 68.3005 88 44C88 19.6995 68.3005 0 44 0C19.6995 0 0 19.6995 0 44C0 68.3005 19.6995 88 44 88Z" fill="#E6FAF9" fill-opacity="0.6"/>
<path d="M48.6811 37.3144C47.4711 37.5711 46.7989 37.7789 46.7744 37.7789C46.7256 37.7911 46.6644 37.8033 46.6156 37.8033C46.3711 37.8033 46.1511 37.6444 46.0778 37.4C45.9922 37.1066 46.1633 36.8011 46.4567 36.7033C46.6033 36.6544 50.2333 35.5911 55.88 35.1633C56.1611 35.1266 56.4544 35.3711 56.4789 35.6766C56.5033 35.9822 56.2711 36.2511 55.9656 36.2755C55.4156 36.3244 54.8778 36.3733 54.3644 36.4222V38.4633C62.4433 37.7544 70.7789 38.2677 78.5644 39.93V34.8822C75.46 34.0755 72.3067 33.5011 69.1289 33.1466C69.1289 33.1466 69.1045 33.1466 69.0922 33.1466C64.0567 32.5844 58.9722 32.5844 53.9367 33.1466C53.9367 33.1466 53.9367 33.1466 53.9244 33.1466C50.7711 33.5011 47.63 34.0878 44.5378 34.8822V39.9178C45.8944 39.6244 47.2756 39.3678 48.6567 39.1478V37.3022L48.6811 37.3144Z" fill="white"/>
<path d="M54.1322 32.0099C57.1633 31.6799 60.2189 31.5455 63.2744 31.631C61.7956 28.9299 61.6489 26.4244 61.6367 26.3022C61.6367 26.1188 61.71 25.9355 61.8567 25.8255C63.4822 24.6399 63.6289 23.2344 63.25 22.391C62.8956 21.5966 62.0889 21.1933 61.2089 21.3766C56.2956 22.3788 53.5089 19.8733 52.4822 18.6633C51.2478 20.3133 50.5145 22.3177 50.5145 24.4688C50.5145 25.5199 50.6978 26.5588 51.0278 27.5366C51.0767 27.5366 51.1133 27.5122 51.1622 27.5122C52.0178 27.5122 52.8122 27.1822 53.4111 26.5833C53.6311 26.3633 53.9856 26.3633 54.1933 26.5833C54.4011 26.8033 54.4133 27.1577 54.1933 27.3655C53.4478 28.111 52.4822 28.5266 51.4433 28.5999C52.0544 29.8833 52.9589 31.0566 54.1078 32.0222L54.1322 32.0099ZM53.7044 24.2244C53.1667 24.2244 52.7267 23.711 52.7267 23.0633C52.7267 22.4155 53.1667 21.9022 53.7044 21.9022C54.2422 21.9022 54.6822 22.4155 54.6822 23.0633C54.6822 23.711 54.2422 24.2244 53.7044 24.2244Z" fill="white"/>
<path d="M46.9822 66.6111C46.31 64.6922 46.6033 62.6389 47.7889 60.9889C48.9622 59.3267 50.8078 58.3856 52.8367 58.3856C55.7578 58.3856 58.2389 60.3778 58.8867 63.2256L60.4756 70.3022C61.2089 70.3022 61.9544 70.3022 62.6878 70.3022L64.2767 63.2256C64.9122 60.3778 67.4056 58.3856 70.3267 58.3856C72.3556 58.3856 74.2011 59.3389 75.3744 60.9889C76.5478 62.6389 76.8411 64.6922 76.1689 66.6111L74.6656 70.9256C76.2056 71.1089 77.5256 71.3167 78.5889 71.5489V53.9367C78.5889 53.9367 78.5033 53.9244 78.4422 53.9122C77.6478 53.7656 77.0489 53.2522 76.8167 52.4944C76.5844 51.7611 76.7433 50.8933 77.1833 50.1722C76.6944 49.8056 76.3889 49.2067 76.3644 48.4611C76.34 47.7767 76.6089 47.0067 77.1833 46.5178C76.8044 46.1145 76.5844 45.5767 76.5844 44.9778C76.5967 43.9144 77.3178 43.1078 78.5033 42.8144C78.5278 42.8144 78.5522 42.8144 78.5767 42.8022V41.0667C70.7911 39.38 62.4433 38.8667 54.3767 39.5756V52.8367C54.3767 53.0444 54.2667 53.2278 54.0833 53.3256C53.9122 53.4233 53.6922 53.4233 53.5211 53.3133L51.5289 52.0544L49.5367 53.3133C49.4511 53.3744 49.3411 53.3989 49.2433 53.3989C49.1456 53.3989 49.06 53.3744 48.9744 53.3256C48.8033 53.2278 48.6933 53.0444 48.6933 52.8367V40.2844C47.3122 40.5044 45.9311 40.7733 44.5744 41.0667V71.5611C45.6378 71.3167 46.9456 71.1089 48.4978 70.9256L46.9944 66.6111H46.9822Z" fill="url(#paint0_linear_14_356)"/>
<path d="M7.16223 43.9511C6.19667 44.6844 6.11112 46.4322 6.05001 47.5933V47.74C5.98889 48.7544 5.92778 49.8911 6.17223 50.8322C6.41667 51.81 7.08889 52.8122 8.01778 52.8366C8.36001 52.8366 8.55556 52.8611 8.69001 52.8855C8.91001 52.91 8.93445 52.91 9.36223 52.8366C9.75334 52.7633 10.01 52.5433 10.12 52.1889C10.2789 51.6878 10.0956 51.0522 9.70445 50.5755C9.47223 50.6 9.28889 50.6122 9.13001 50.6122C8.99556 50.6122 8.86112 50.6122 8.71445 50.6H8.50667C8.20112 50.5755 7.96889 50.3066 7.98112 50.0011C7.99334 49.6955 8.22556 49.4266 8.56778 49.4755H8.77556C9.13001 49.5122 9.28889 49.5122 9.86334 49.4389C10.3278 49.3655 10.5111 48.8766 10.5233 48.4733C10.5356 47.9355 10.2789 47.3244 9.68001 47.2022C9.54556 47.2266 9.41112 47.2511 9.27667 47.2633H8.47001C8.18889 47.3122 7.90778 47.0433 7.90778 46.7378C7.90778 46.4322 8.14001 46.1755 8.45778 46.1755H9.25223C9.83889 46.1389 10.3156 45.6377 10.3033 45.0389C10.3033 44.4766 9.93667 44.11 9.22778 43.9389C8.50667 43.7555 7.68778 43.5966 7.17445 43.9878L7.16223 43.9511Z" fill="white"/>
<path d="M72.71 19.9344C73.9933 20.6921 75.7533 20.4966 76.9144 19.5799C76.9144 19.5799 76.9144 19.5799 76.89 19.5799C76.2178 19.311 75.6556 18.6999 75.4111 17.991C75.1667 17.2821 75.1667 16.5488 75.1789 15.8521C75.1789 15.571 75.1789 15.2777 75.1789 14.9966C75.0567 12.9066 73.7367 10.9755 71.9033 10.181C70.3389 9.50882 68.3956 9.71659 67.0633 10.6944C66.4522 11.1344 65.7433 12.0021 65.6089 12.8699C65.5478 13.2488 65.6333 13.5666 65.8044 13.8599C68.8967 14.9355 71.39 17.1355 72.71 19.9344Z" fill="url(#paint1_linear_14_356)"/>
<path d="M18.9933 32.0099C23.9433 31.4721 28.93 31.4721 33.88 32.0099C36.1778 30.0788 37.4856 27.341 37.4856 24.4688C37.4856 22.6477 36.9478 20.8999 35.97 19.3477C35.1633 20.0933 34.1 20.5577 32.9144 20.5577C31.7289 20.5577 30.6167 20.0933 29.7733 19.2621C28.8567 20.0933 27.6711 20.5577 26.4244 20.5577C25.1778 20.5577 24.0044 20.0933 23.0756 19.2621C22.2444 20.0933 21.12 20.5577 19.9344 20.5577C18.7489 20.5577 17.6856 20.0933 16.8789 19.3477C15.9011 20.8999 15.3633 22.6477 15.3633 24.4688C15.3633 27.341 16.6833 30.0788 18.9689 32.0099H18.9933ZM29.4433 21.9144C29.9811 21.9144 30.4211 22.4277 30.4211 23.0755C30.4211 23.7233 29.9811 24.2366 29.4433 24.2366C28.9056 24.2366 28.4656 23.7233 28.4656 23.0755C28.4656 22.4277 28.9056 21.9144 29.4433 21.9144ZM28.6856 26.571C28.9056 26.351 29.26 26.351 29.4678 26.571C29.6878 26.791 29.6878 27.1455 29.4678 27.3533C28.6244 28.1966 27.5244 28.6121 26.4244 28.6121C25.3244 28.6121 24.2244 28.1966 23.3811 27.3533C23.1611 27.1333 23.1611 26.7788 23.3811 26.571C23.6011 26.351 23.9556 26.351 24.1633 26.571C25.41 27.8177 27.4267 27.8177 28.6733 26.571H28.6856ZM23.43 21.9144C23.9678 21.9144 24.4078 22.4277 24.4078 23.0755C24.4078 23.7233 23.9678 24.2366 23.43 24.2366C22.8922 24.2366 22.4522 23.7233 22.4522 23.0755C22.4522 22.4277 22.8922 21.9144 23.43 21.9144Z" fill="white"/>
<path d="M43.4378 39.9422V34.8822C32.3033 31.9855 20.5578 31.9855 9.42333 34.8822V39.9422C20.57 37.5588 32.2911 37.5588 43.4378 39.9422Z" fill="white"/>
<path d="M11.4033 44.99C11.4033 45.5889 11.1833 46.1389 10.8167 46.5422C11.3911 47.0311 11.66 47.8011 11.6356 48.4855C11.6111 49.2189 11.3056 49.83 10.8167 50.1966C11.2567 50.9178 11.4156 51.7733 11.1833 52.5066C10.9511 53.2644 10.3522 53.7778 9.55778 53.9244C9.50889 53.9244 9.46 53.9366 9.41111 53.9489V71.5489C10.4744 71.3167 11.7944 71.1089 13.3344 70.9255L11.8311 66.6111C11.1589 64.6922 11.4522 62.6389 12.6378 60.9889C13.8111 59.3267 15.6567 58.3855 17.6856 58.3855C20.6067 58.3855 23.0878 60.3778 23.7356 63.2255L25.3244 70.3022C26.0578 70.3022 26.8033 70.3022 27.5367 70.3022L29.1256 63.2255C29.7611 60.3778 32.2544 58.3855 35.1756 58.3855C37.2044 58.3855 39.05 59.3389 40.2233 60.9889C41.3967 62.6511 41.69 64.6922 41.03 66.6111L39.5267 70.9255C41.0667 71.1089 42.3867 71.3167 43.45 71.5489V41.0666C32.3156 38.6466 20.57 38.6466 9.43555 41.0666V42.79C9.43555 42.79 9.48444 42.79 9.50889 42.8022C10.6944 43.0955 11.4033 43.9144 11.4278 44.9655L11.4033 44.99Z" fill="url(#paint2_linear_14_356)"/>
<path d="M77.6967 45.0022C77.6967 45.6011 78.1489 46.1022 78.76 46.1266H79.5422C79.8478 46.1511 80.0922 46.4077 80.0922 46.7133C80.0922 47.0189 79.8722 47.2755 79.53 47.2633H78.7356C78.5889 47.2388 78.4545 47.2144 78.32 47.19C77.7211 47.3122 77.4645 47.9111 77.4767 48.4611C77.4767 48.8644 77.6722 49.3655 78.1367 49.4266C78.7111 49.5122 78.87 49.5 79.2245 49.4755H79.4322C79.7622 49.4144 79.9945 49.6833 80.0189 49.9889C80.0311 50.2944 79.7989 50.5511 79.4933 50.5755H79.2856C79.1389 50.6 79.0045 50.6 78.87 50.6C78.7233 50.6 78.5278 50.5877 78.2956 50.5633C77.9044 51.0522 77.7211 51.6755 77.88 52.1766C77.99 52.5433 78.2467 52.7511 78.6378 52.8244C78.9433 52.8855 79.0533 52.8977 79.1267 52.8977C79.1267 52.8977 79.1267 52.8977 79.1389 52.8977H79.1633H79.2978C79.4322 52.8733 79.6278 52.8488 79.97 52.8366C80.8989 52.8 81.5711 51.81 81.8156 50.8322C82.06 49.8911 81.9989 48.7422 81.9378 47.74V47.5933C81.8767 46.4322 81.7789 44.6844 80.8256 43.9511C80.3122 43.56 79.4933 43.7188 78.7722 43.9022C78.2833 44.0244 77.7089 44.3177 77.6967 45.0022Z" fill="white"/>
<path d="M22.66 63.47C22.1344 61.1355 20.0933 59.4977 17.6978 59.4977C16.0356 59.4977 14.52 60.28 13.5544 61.6366C12.5889 62.9933 12.3444 64.68 12.8944 66.2566L15.9867 75.1544C16.6222 76.9755 18.3456 78.21 20.2767 78.21C21.6578 78.21 22.9533 77.5866 23.8211 76.5111C24.6889 75.4233 25.0067 74.03 24.7133 72.6733L22.6478 63.4822L22.66 63.47ZM23.1367 71.8666L16.9767 73.8955C16.9767 73.8955 16.8544 73.92 16.8056 73.92C16.5733 73.92 16.3533 73.7733 16.28 73.5411C16.1822 73.2477 16.3411 72.93 16.6344 72.8444L22.7944 70.8155C23.0878 70.7177 23.4056 70.8766 23.4911 71.17C23.5889 71.4633 23.43 71.7811 23.1367 71.8666Z" fill="url(#paint3_linear_14_356)"/>
<path d="M19.9589 19.4455C21.01 19.4455 21.9756 18.9566 22.6356 18.1133C22.7333 17.9788 22.8922 17.9055 23.0633 17.8933C23.2222 17.8933 23.3933 17.9544 23.5033 18.0888C24.2489 18.9566 25.3244 19.4577 26.4489 19.4577C27.5733 19.4577 28.6489 18.9566 29.3944 18.0888C29.5044 17.9666 29.6511 17.8933 29.81 17.8933H29.8222C29.9933 17.8933 30.14 17.9788 30.25 18.1133C30.8978 18.9688 31.8756 19.4455 32.9267 19.4455C34.7844 19.4455 36.3 17.93 36.3 16.0722C36.3 14.2144 34.7844 12.6988 32.9267 12.6988C32.0833 12.6988 31.2644 13.0288 30.6289 13.6155C30.5067 13.7255 30.3356 13.7744 30.1767 13.7622C30.0056 13.7377 29.8589 13.64 29.7733 13.5055C29.0522 12.32 27.8056 11.6233 26.4367 11.6233C25.0678 11.6233 23.8211 12.3322 23.1 13.5055C23.0144 13.6522 22.8678 13.7377 22.6967 13.7622C22.5256 13.7866 22.3667 13.7377 22.2444 13.6155C21.6089 13.0288 20.8022 12.6988 19.9467 12.6988C18.0889 12.6988 16.5733 14.2144 16.5733 16.0722C16.5733 17.93 18.0889 19.4455 19.9467 19.4455H19.9589Z" fill="url(#paint4_linear_14_356)"/>
<path d="M39.3189 61.6366C38.3533 60.28 36.8378 59.4977 35.1756 59.4977C32.78 59.4977 30.7389 61.1355 30.2133 63.47L28.1478 72.6611C27.8422 74.0177 28.1722 75.4111 29.04 76.4989C29.9078 77.5866 31.2033 78.1977 32.5844 78.1977C34.5156 78.1977 36.2389 76.9755 36.8744 75.1422L38.2311 71.2311C38.2311 71.2311 38.2556 71.1577 38.2678 71.1211L39.9667 66.2444C40.5167 64.6677 40.2722 62.9811 39.3067 61.6244L39.3189 61.6366ZM36.5933 73.5411C36.52 73.7733 36.3 73.92 36.0678 73.92C36.0067 73.92 35.9456 73.92 35.8967 73.8955L29.7367 71.8666C29.4433 71.7689 29.2844 71.4511 29.3822 71.17C29.48 70.8766 29.7978 70.7177 30.0789 70.8155L36.2389 72.8444C36.5322 72.9422 36.6911 73.26 36.5933 73.5411Z" fill="url(#paint5_linear_14_356)"/>
<path d="M51.2233 50.9299C51.4067 50.8199 51.6389 50.8199 51.8222 50.9299L53.2644 51.8344V36.5444C51.92 36.7155 50.7589 36.8988 49.7933 37.0822V51.8344L51.2356 50.9299H51.2233Z" fill="url(#paint6_linear_14_356)"/>
<path d="M57.7867 63.47C57.2611 61.1355 55.22 59.4977 52.8244 59.4977C51.1622 59.4977 49.6467 60.28 48.6811 61.6366C47.7156 62.9933 47.4711 64.68 48.0211 66.2566L51.1133 75.1544C51.7489 76.9755 53.4722 78.21 55.4033 78.21C56.7844 78.21 58.08 77.5866 58.9478 76.5111C59.8156 75.4233 60.1333 74.03 59.84 72.6733L57.7744 63.4822L57.7867 63.47ZM58.2756 71.8666L52.1033 73.8955C52.1033 73.8955 51.9811 73.92 51.9322 73.92C51.7 73.92 51.48 73.7733 51.4067 73.5411C51.3089 73.2477 51.4678 72.93 51.7611 72.8444L57.9333 70.8155C58.2267 70.7177 58.5444 70.8766 58.63 71.17C58.7278 71.4633 58.5689 71.7811 58.2756 71.8666Z" fill="white"/>
<path d="M74.4456 61.6366C73.48 60.28 71.9644 59.4977 70.3022 59.4977C67.9067 59.4977 65.8656 61.1355 65.34 63.47L63.2744 72.6611C62.9689 74.0177 63.2989 75.4111 64.1667 76.4989C65.0344 77.5866 66.33 78.1977 67.7111 78.1977C69.6422 78.1977 71.3656 76.9755 72.0011 75.1422L75.0933 66.2444C75.6433 64.6677 75.3989 62.9933 74.4333 61.6244L74.4456 61.6366ZM71.7322 73.5411C71.6589 73.7733 71.4389 73.92 71.2067 73.92C71.1456 73.92 71.0844 73.92 71.0356 73.8955L64.8633 71.8666C64.57 71.7689 64.4111 71.4511 64.5089 71.17C64.6067 70.8766 64.9244 70.7177 65.2056 70.8155L71.3778 72.8444C71.6711 72.9422 71.83 73.26 71.7322 73.5411Z" fill="white"/>
<path d="M60.9889 20.2889C62.3945 20.0078 63.7022 20.6677 64.2767 21.9511C64.79 23.1122 64.6922 24.9822 62.7733 26.5344C62.8589 27.3044 63.2256 29.5044 64.5822 31.68C66.0611 31.7411 67.5278 31.8511 69.0067 32.0222C71.3044 30.0911 72.6122 27.3533 72.6122 24.4811C72.6122 18.8466 67.65 14.2633 61.5633 14.2633C58.2267 14.2633 55.2322 15.6444 53.2033 17.82C53.9244 18.7489 56.32 21.2544 60.9889 20.3011V20.2889Z" fill="url(#paint7_linear_14_356)"/>
<path d="M23.43 24.2244C23.9678 24.2244 24.4078 23.7111 24.4078 23.0633C24.4078 22.4156 23.9678 21.9022 23.43 21.9022C22.8922 21.9022 22.4522 22.4156 22.4522 23.0633C22.4522 23.7111 22.8922 24.2244 23.43 24.2244Z" fill="#333333"/>
<path d="M29.4433 24.2244C29.9811 24.2244 30.4211 23.7111 30.4211 23.0633C30.4211 22.4156 29.9811 21.9022 29.4433 21.9022C28.9056 21.9022 28.4656 22.4156 28.4656 23.0633C28.4656 23.7111 28.9056 24.2244 29.4433 24.2244Z" fill="#333333"/>
<path d="M23.3933 26.5711C23.1733 26.7911 23.1733 27.1455 23.3933 27.3533C24.2367 28.1966 25.3367 28.6122 26.4367 28.6122C27.5367 28.6122 28.6367 28.1966 29.48 27.3533C29.7 27.1333 29.7 26.7788 29.48 26.5711C29.26 26.3511 28.9056 26.3511 28.6978 26.5711C27.4511 27.8177 25.4344 27.8177 24.1878 26.5711C23.9678 26.3511 23.6133 26.3511 23.4056 26.5711H23.3933Z" fill="#333333"/>
<path d="M54.6822 23.0633C54.6822 22.4278 54.2422 21.9022 53.7044 21.9022C53.1667 21.9022 52.7267 22.4156 52.7267 23.0633C52.7267 23.7111 53.1667 24.2244 53.7044 24.2244C54.2422 24.2244 54.6822 23.7111 54.6822 23.0633Z" fill="#333333"/>
<path d="M8.31111 34.4544V42.6066C7.71222 42.5577 7.05222 42.6311 6.49 43.0588C5.12111 44.11 5.01111 46.1633 4.93778 47.5322V47.6788C4.87666 48.7666 4.80333 50.0011 5.08444 51.1011C5.41444 52.3844 6.35555 53.8877 7.96889 53.9488C8.10333 53.9488 8.20111 53.9489 8.29889 53.9611V72.2577C8.29889 72.4288 8.38444 72.5877 8.51889 72.6977C8.61666 72.7711 8.73889 72.8077 8.86111 72.8077C8.91 72.8077 8.95889 72.8077 9.00778 72.7833C10.1689 72.4777 11.7578 72.2089 13.7133 71.9888L14.9356 75.4966C15.73 77.77 17.8689 79.2977 20.2767 79.2977C22 79.2977 23.6133 78.5277 24.6889 77.1711C25.7644 75.8266 26.1678 74.0788 25.7889 72.4044L25.5689 71.4022C26.1433 71.4022 26.7056 71.4022 27.28 71.4022L27.06 72.4044C26.6811 74.0911 27.0844 75.8266 28.16 77.1711C29.2356 78.5155 30.8489 79.2977 32.5722 79.2977C34.98 79.2977 37.1189 77.77 37.9133 75.4966L39.1356 71.9888C41.0911 72.2089 42.6922 72.4777 43.8411 72.7833C43.89 72.7833 43.9389 72.8077 43.9878 72.8077C44.0367 72.8077 44.0856 72.8077 44.1344 72.7833C45.2956 72.4777 46.8844 72.2089 48.84 71.9888L50.0622 75.4966C50.8567 77.77 52.9956 79.2977 55.4033 79.2977C57.1267 79.2977 58.74 78.5277 59.8156 77.1833C60.8911 75.8389 61.2944 74.0911 60.9156 72.4166L60.6956 71.4144C61.27 71.4144 61.8444 71.4144 62.4067 71.4144L62.1867 72.4166C61.8078 74.1033 62.2111 75.8389 63.2867 77.1833C64.3622 78.5277 65.9756 79.31 67.6989 79.31C70.1067 79.31 72.2456 77.7822 73.04 75.5089L74.2622 72.0011C76.2178 72.2211 77.8189 72.49 78.9678 72.7955C79.0167 72.7955 79.0656 72.82 79.1144 72.82C79.2367 72.82 79.3589 72.7833 79.4567 72.71C79.5911 72.6 79.6767 72.4411 79.6767 72.27V53.9733C79.7622 53.9733 79.8722 53.9611 80.0067 53.9611C81.62 53.9 82.5733 52.3966 82.8911 51.1133C83.1722 50.0133 83.1111 48.7789 83.05 47.6911V47.5444C82.9767 46.1755 82.8667 44.1222 81.4978 43.0711C80.9356 42.6433 80.2756 42.57 79.6767 42.6189V34.4666C79.6767 34.21 79.5056 33.99 79.2611 33.9289C76.3644 33.1589 73.4189 32.5722 70.4611 32.1933C72.5389 30.1033 73.7122 27.3533 73.7122 24.4811C73.7122 23.4055 73.5411 22.3544 73.2355 21.3644C73.6267 21.4622 74.0422 21.5233 74.4456 21.5233C76.0711 21.5233 77.7211 20.7411 78.6011 19.36C78.7355 19.1522 78.7111 18.8711 78.54 18.6877C78.3689 18.5044 78.1 18.4555 77.88 18.5655C77.7089 18.6511 77.5133 18.6511 77.2933 18.5655C76.9267 18.4189 76.5844 18.0522 76.45 17.6489C76.2667 17.1111 76.2667 16.5122 76.2789 15.8766C76.2789 15.5711 76.2789 15.2533 76.2789 14.9477C76.1322 12.4544 74.5433 10.1322 72.3311 9.17885C70.4244 8.35996 68.0289 8.61663 66.3911 9.81441C65.6333 10.3644 64.6922 11.4522 64.4967 12.7111C64.46 12.98 64.46 13.2366 64.4967 13.4933C63.5556 13.2733 62.5778 13.1511 61.5633 13.1511C57.7256 13.1511 54.3033 14.8133 52.0789 17.4166C52.0667 17.4411 52.0422 17.4533 52.03 17.4777C50.3922 19.4089 49.4022 21.8411 49.4022 24.4933C49.4022 27.3655 50.5756 30.1155 52.6533 32.2055C49.7444 32.5844 46.8478 33.1589 44 33.9044C41.1522 33.1466 38.2556 32.5844 35.3467 32.2055C37.4244 30.1155 38.5978 27.3655 38.5978 24.4933C38.5978 22.3422 37.95 20.2644 36.7156 18.4555C37.1433 17.7711 37.4 16.9644 37.4 16.1089C37.4 13.64 35.3833 11.6233 32.9144 11.6233C31.9978 11.6233 31.1056 11.9044 30.36 12.43C29.4067 11.2322 27.9889 10.5233 26.4367 10.5233C24.8844 10.5233 23.4667 11.22 22.5133 12.43C21.7678 11.9044 20.8756 11.6233 19.9589 11.6233C17.49 11.6233 15.4733 13.64 15.4733 16.1089C15.4733 16.9766 15.73 17.7711 16.1578 18.4555C14.9356 20.2644 14.2756 22.3422 14.2756 24.4933C14.2756 27.3655 15.4489 30.1155 17.5267 32.2055C14.5689 32.5966 11.6233 33.1711 8.72666 33.9411C8.48222 34.0022 8.31111 34.2222 8.31111 34.4789V34.4544ZM58.96 76.4988C58.0922 77.5866 56.7967 78.1977 55.4156 78.1977C53.4844 78.1977 51.7611 76.9755 51.1256 75.1422L48.0333 66.2444C47.4833 64.6677 47.7278 62.9811 48.6933 61.6244C49.6589 60.2677 51.1744 59.4855 52.8367 59.4855C55.2322 59.4855 57.2733 61.1233 57.7989 63.4577L59.8644 72.6488C60.17 74.0055 59.84 75.3988 58.9722 76.4866L58.96 76.4988ZM72.0011 75.1422C71.3656 76.9633 69.6422 78.1977 67.7111 78.1977C66.33 78.1977 65.0344 77.5744 64.1667 76.4988C63.2989 75.4111 62.9811 74.0177 63.2744 72.6611L65.34 63.47C65.8656 61.1355 67.9067 59.4977 70.3022 59.4977C71.9644 59.4977 73.48 60.28 74.4456 61.6366C75.4111 62.9933 75.6556 64.68 75.1056 66.2566L72.0133 75.1544L72.0011 75.1422ZM80.8378 43.9511C81.8033 44.6844 81.8889 46.4322 81.95 47.5933V47.74C82.0111 48.7422 82.0722 49.8911 81.8278 50.8322C81.5833 51.81 80.9111 52.8122 79.9822 52.8366C79.64 52.8366 79.4444 52.8733 79.31 52.8855H79.1756L79.1511 52.8977C79.1511 52.8977 79.1511 52.8977 79.1389 52.8977C79.0656 52.8977 78.9556 52.8855 78.65 52.8244C78.2589 52.7511 78.0022 52.5311 77.8922 52.1766C77.7333 51.6755 77.9167 51.04 78.3078 50.5633C78.54 50.5877 78.7233 50.6 78.8822 50.6C79.0167 50.6 79.1511 50.6 79.2978 50.5877H79.5056C79.8111 50.5633 80.0433 50.2944 80.0311 49.9888C80.0189 49.6833 79.7744 49.4144 79.4444 49.4633H79.2367C78.8822 49.5 78.7233 49.5 78.1489 49.4266C77.6844 49.3533 77.5011 48.8644 77.4889 48.4611C77.4767 47.9111 77.7333 47.3122 78.3322 47.19C78.4667 47.2144 78.6011 47.2388 78.7478 47.2511H79.5422C79.8967 47.2877 80.1044 47.0311 80.1044 46.7255C80.1044 46.42 79.8722 46.1633 79.5544 46.1633H78.7722C78.1733 46.1266 77.6967 45.6255 77.7089 45.0266C77.7089 44.33 78.2956 44.0366 78.7844 43.9266C79.5056 43.7433 80.3244 43.5844 80.8378 43.9755V43.9511ZM67.0511 10.6944C68.3833 9.71663 70.3267 9.52107 71.8911 10.1811C73.7367 10.9755 75.0567 12.9066 75.1667 14.9966C75.1789 15.2777 75.1789 15.5589 75.1667 15.8522C75.1667 16.5489 75.1544 17.2822 75.3989 17.9911C75.6433 18.7 76.2056 19.3111 76.8778 19.58C76.8778 19.58 76.89 19.58 76.9022 19.58C75.7411 20.4966 73.9811 20.6922 72.6978 19.9344C71.3778 17.1355 68.8844 14.9233 65.7922 13.86C65.6089 13.5666 65.5355 13.2489 65.5967 12.87C65.7311 12.0144 66.44 11.1466 67.0511 10.6944ZM61.5633 14.2511C67.65 14.2511 72.6122 18.8344 72.6122 24.4689C72.6122 27.3411 71.2922 30.0789 69.0067 32.01C67.54 31.8511 66.0611 31.7411 64.5822 31.6677C63.2256 29.4922 62.8589 27.28 62.7733 26.5222C64.6922 24.97 64.79 23.1 64.2767 21.9389C63.7144 20.6677 62.4067 19.9955 60.9889 20.2766C56.32 21.23 53.9244 18.7244 53.2033 17.7955C55.2322 15.62 58.2267 14.2389 61.5633 14.2389V14.2511ZM51.4678 28.5877C52.5067 28.5144 53.4722 28.0989 54.2178 27.3533C54.4378 27.1333 54.4378 26.7789 54.2178 26.5711C53.9978 26.3633 53.6433 26.3511 53.4356 26.5711C52.8367 27.17 52.03 27.5 51.1867 27.5C51.1378 27.5 51.1011 27.5122 51.0522 27.5244C50.7222 26.5466 50.5389 25.5077 50.5389 24.4566C50.5389 22.3055 51.2722 20.3011 52.5067 18.6511C53.5333 19.8611 56.32 22.3666 61.2333 21.3644C62.1133 21.1811 62.92 21.5844 63.2744 22.3789C63.6411 23.2222 63.5067 24.6155 61.8811 25.8133C61.7344 25.9233 61.6489 26.1066 61.6611 26.29C61.6611 26.4122 61.8078 28.9055 63.2989 31.6189C60.2433 31.5455 57.2 31.6677 54.1567 31.9977C53.0078 31.0322 52.1033 29.8589 51.4922 28.5755L51.4678 28.5877ZM44.55 34.8944C47.6422 34.0877 50.7711 33.5133 53.9367 33.1588C53.9367 33.1588 53.9367 33.1588 53.9489 33.1588C58.9844 32.5844 64.0689 32.5844 69.1044 33.1588C69.1044 33.1588 69.1289 33.1588 69.1411 33.1588C72.3189 33.5133 75.4722 34.0877 78.5767 34.8944V39.9422C70.7789 38.2677 62.4433 37.7666 54.3767 38.4755V36.4344C54.89 36.3855 55.4156 36.3244 55.9778 36.2877C56.2833 36.2633 56.5156 35.9944 56.4911 35.6889C56.4667 35.3833 56.1733 35.1389 55.8922 35.1755C50.2456 35.6155 46.6156 36.6789 46.4689 36.7155C46.1756 36.8011 46.0044 37.1189 46.09 37.4122C46.1633 37.6566 46.3833 37.8155 46.6278 37.8155C46.6767 37.8155 46.7378 37.8155 46.7867 37.7911C46.7989 37.7911 47.4833 37.5833 48.6933 37.3266V39.1722C47.3122 39.3922 45.9311 39.6489 44.5744 39.9422V34.9066L44.55 34.8944ZM53.2644 36.5566V51.8466L51.8222 50.9422C51.6389 50.8322 51.4067 50.8322 51.2233 50.9422L49.7811 51.8466V37.0944C50.7467 36.9111 51.9078 36.7155 53.2522 36.5566H53.2644ZM44.55 41.0666C45.9067 40.7733 47.2878 40.5166 48.6689 40.2844V52.8366C48.6689 53.0444 48.7789 53.2277 48.95 53.3255C49.0356 53.3744 49.1211 53.3988 49.2189 53.3988C49.3167 53.3988 49.4267 53.3744 49.5122 53.3133L51.5044 52.0544L53.4967 53.3133C53.6678 53.4233 53.8878 53.4233 54.0589 53.3255C54.2422 53.2277 54.3522 53.0444 54.3522 52.8366V39.5755C62.4311 38.8666 70.7667 39.38 78.5522 41.0666V42.8022C78.5522 42.8022 78.5033 42.8022 78.4789 42.8144C77.2933 43.1077 76.5722 43.9266 76.56 44.9777C76.56 45.5766 76.78 46.1266 77.1589 46.5177C76.5844 47.0066 76.3156 47.7766 76.34 48.4611C76.3644 49.1944 76.67 49.8055 77.1589 50.1722C76.7189 50.8933 76.56 51.7489 76.7922 52.4944C77.0244 53.2522 77.6233 53.7655 78.4178 53.9122C78.4789 53.9122 78.5155 53.9244 78.5644 53.9366V71.5489C77.5011 71.3044 76.1811 71.0966 74.6411 70.9255L76.1444 66.6111C76.8167 64.6922 76.5233 62.6389 75.35 60.9888C74.1767 59.3266 72.3311 58.3855 70.3022 58.3855C67.3811 58.3855 64.9 60.3777 64.2522 63.2255L62.6633 70.3022C61.93 70.3022 61.1844 70.3022 60.4511 70.3022L58.8622 63.2255C58.2267 60.3777 55.7333 58.3855 52.8122 58.3855C50.7833 58.3855 48.9378 59.3389 47.7644 60.9888C46.5911 62.6389 46.2978 64.6922 46.9578 66.6111L48.4611 70.9255C46.9089 71.1088 45.6011 71.3166 44.5378 71.5611V41.0666H44.55ZM23.8333 76.4988C22.9656 77.5866 21.67 78.1977 20.2889 78.1977C18.3578 78.1977 16.6344 76.9755 15.9989 75.1422L12.9067 66.2444C12.3567 64.6677 12.6011 62.9811 13.5667 61.6244C14.5322 60.2677 16.0478 59.4855 17.71 59.4855C20.1056 59.4855 22.1467 61.1233 22.6722 63.4577L24.7378 72.6488C25.0433 74.0055 24.7133 75.3988 23.8456 76.4866L23.8333 76.4988ZM38.28 71.1211C38.28 71.1211 38.2556 71.1944 38.2433 71.2311L36.8867 75.1422C36.2511 76.9633 34.5278 78.1977 32.5967 78.1977C31.2156 78.1977 29.92 77.5744 29.0522 76.4988C28.1844 75.4111 27.8667 74.0177 28.16 72.6611L30.2256 63.47C30.7511 61.1355 32.7922 59.4977 35.1878 59.4977C36.85 59.4977 38.3656 60.28 39.3311 61.6366C40.2967 62.9933 40.5411 64.68 39.9911 66.2566L38.2922 71.1333L38.28 71.1211ZM19.9589 12.7111C20.8022 12.7111 21.6211 13.0411 22.2567 13.6277C22.3789 13.7377 22.55 13.7989 22.7089 13.7744C22.88 13.75 23.0267 13.6522 23.1122 13.5177C23.8333 12.3322 25.08 11.6355 26.4489 11.6355C27.8178 11.6355 29.0644 12.3444 29.7856 13.5177C29.8711 13.6644 30.0178 13.75 30.1889 13.7744C30.36 13.7989 30.5189 13.7377 30.6411 13.6277C31.2767 13.0411 32.0833 12.7111 32.9389 12.7111C34.7967 12.7111 36.3122 14.2266 36.3122 16.0844C36.3122 17.9422 34.7967 19.4577 32.9389 19.4577C31.8878 19.4577 30.9222 18.9689 30.2622 18.1255C30.1644 17.9911 30.0056 17.9177 29.8344 17.9055H29.8222C29.6633 17.9055 29.5044 17.9789 29.4067 18.1011C28.6611 18.9689 27.5856 19.47 26.4611 19.47C25.3367 19.47 24.2611 18.9689 23.5156 18.1011C23.4056 17.9789 23.2344 17.9177 23.0756 17.9055C22.9044 17.9055 22.7578 17.9911 22.6478 18.1255C22 18.9811 21.0222 19.4577 19.9711 19.4577C18.1133 19.4577 16.5978 17.9422 16.5978 16.0844C16.5978 14.2266 18.1133 12.7111 19.9711 12.7111H19.9589ZM15.3878 24.4689C15.3878 22.6477 15.9256 20.9 16.9033 19.3477C17.71 20.0933 18.7733 20.5577 19.9589 20.5577C21.1444 20.5577 22.2567 20.0933 23.1 19.2622C24.0167 20.0933 25.2144 20.5577 26.4489 20.5577C27.6833 20.5577 28.8689 20.0933 29.7978 19.2622C30.6289 20.0933 31.7533 20.5577 32.9389 20.5577C34.1244 20.5577 35.1878 20.0933 35.9944 19.3477C36.9722 20.9 37.51 22.6477 37.51 24.4689C37.51 27.3411 36.19 30.0789 33.9044 32.01C28.9544 31.4722 23.9678 31.4722 19.0178 32.01C16.7322 30.0789 15.4122 27.3411 15.4122 24.4689H15.3878ZM9.42333 34.8822C20.5578 31.9855 32.3033 31.9855 43.4378 34.8822V39.9422C32.2911 37.5589 20.57 37.5589 9.42333 39.9422V34.8822ZM9.42333 41.0789C20.5578 38.6589 32.3033 38.6589 43.4378 41.0789V71.5611C42.3744 71.3166 41.0544 71.1088 39.5144 70.9377L41.0178 66.6233C41.69 64.7044 41.3967 62.6511 40.2111 61.0011C39.0378 59.3388 37.1922 58.3977 35.1633 58.3977C32.2422 58.3977 29.7611 60.39 29.1133 63.2377L27.5244 70.3144C26.7911 70.3144 26.0456 70.3144 25.3122 70.3144L23.7233 63.2377C23.0878 60.39 20.5944 58.3977 17.6733 58.3977C15.6444 58.3977 13.7989 59.3511 12.6256 61.0011C11.4522 62.6633 11.1589 64.7044 11.8189 66.6233L13.3222 70.9377C11.7822 71.1211 10.4622 71.3288 9.39889 71.5611V53.9611C9.39889 53.9611 9.48444 53.9488 9.54555 53.9366C10.34 53.79 10.9389 53.2766 11.1711 52.5189C11.4033 51.7855 11.2444 50.9177 10.8044 50.2089C11.2933 49.8422 11.5989 49.2433 11.6233 48.4977C11.6478 47.8133 11.3789 47.0433 10.8044 46.5544C11.1833 46.1511 11.4033 45.6133 11.3911 45.0022C11.3789 43.9389 10.6578 43.1322 9.47222 42.8389C9.44778 42.8389 9.42333 42.8389 9.39889 42.8266V41.1033L9.42333 41.0789ZM10.2911 45.0022C10.2911 45.6011 9.83889 46.1022 9.24 46.1266H8.44555C8.14 46.1511 7.89555 46.4077 7.89555 46.7133C7.89555 47.0189 8.17667 47.2877 8.45778 47.2633H9.26444C9.39889 47.2388 9.53333 47.2144 9.66778 47.19C10.2667 47.3122 10.5233 47.9111 10.5111 48.4611C10.5111 48.8644 10.3156 49.3655 9.85111 49.4266C9.27667 49.5122 9.11778 49.5 8.76333 49.4755H8.55555C8.21333 49.4144 7.98111 49.6833 7.96889 49.9888C7.95666 50.2944 8.18889 50.5511 8.49444 50.5755H8.70222C8.84889 50.6 8.98333 50.6 9.11778 50.6C9.26444 50.6 9.46 50.5877 9.69222 50.5633C10.0833 51.0522 10.2667 51.6755 10.1078 52.1766C9.99778 52.5433 9.74111 52.7511 9.35 52.8244C8.92222 52.8977 8.89778 52.8977 8.67778 52.8733C8.54333 52.8611 8.34778 52.8366 8.00555 52.8244C7.07667 52.7877 6.40444 51.7977 6.16 50.82C5.92778 49.8789 5.97666 48.73 6.03778 47.7277V47.5811C6.11111 46.42 6.19667 44.6722 7.16222 43.9389C7.67555 43.5477 8.49444 43.7066 9.21555 43.89C9.92444 44.0611 10.2789 44.44 10.2911 44.99V45.0022Z" fill="#333333"/>
<path d="M22.7944 70.8155L16.6344 72.8444C16.3411 72.9422 16.1822 73.26 16.28 73.5411C16.3533 73.7733 16.5733 73.92 16.8056 73.92C16.8667 73.92 16.9278 73.92 16.9767 73.8955L23.1367 71.8666C23.43 71.7689 23.5889 71.4511 23.4911 71.17C23.3933 70.8766 23.0756 70.7177 22.7944 70.8155Z" fill="white"/>
<path d="M36.2389 72.8444L30.0789 70.8155C29.7856 70.7177 29.4678 70.8766 29.3822 71.17C29.2844 71.4633 29.4433 71.7811 29.7367 71.8666L35.8967 73.8955C35.8967 73.8955 36.0189 73.92 36.0678 73.92C36.3 73.92 36.52 73.7733 36.5933 73.5411C36.6911 73.2477 36.5322 72.93 36.2389 72.8444Z" fill="white"/>
<path d="M57.9211 70.8155L51.7489 72.8444C51.4556 72.9422 51.2967 73.26 51.3944 73.5411C51.4678 73.7733 51.6878 73.92 51.92 73.92C51.9811 73.92 52.0422 73.92 52.0911 73.8955L58.2633 71.8666C58.5567 71.7689 58.7156 71.4511 58.6178 71.17C58.52 70.8766 58.2022 70.7177 57.9211 70.8155Z" fill="#00C4B8"/>
<path d="M71.3778 72.8444L65.2056 70.8155C64.9122 70.7177 64.5944 70.8766 64.5089 71.17C64.4111 71.4633 64.57 71.7811 64.8633 71.8666L71.0356 73.8955C71.0356 73.8955 71.1578 73.92 71.2067 73.92C71.4389 73.92 71.6589 73.7733 71.7322 73.5411C71.83 73.2477 71.6711 72.93 71.3778 72.8444Z" fill="#00C4B8"/>
</g>
<defs>
<linearGradient id="paint0_linear_14_356" x1="44.55" y1="55.4156" x2="78.5767" y2="55.4156" gradientUnits="userSpaceOnUse">
<stop stop-color="#9DFED1"/>
<stop offset="0.69" stop-color="#3DDBBD"/>
<stop offset="1" stop-color="#11CBB4"/>
</linearGradient>
<linearGradient id="paint1_linear_14_356" x1="65.5844" y1="15.1066" x2="76.9144" y2="15.1066" gradientUnits="userSpaceOnUse">
<stop stop-color="#77DBFF"/>
<stop offset="1" stop-color="#3198FF"/>
</linearGradient>
<linearGradient id="paint2_linear_14_356" x1="9.42333" y1="55.4033" x2="43.4378" y2="55.4033" gradientUnits="userSpaceOnUse">
<stop stop-color="#9DFED1"/>
<stop offset="0.69" stop-color="#3DDBBD"/>
<stop offset="1" stop-color="#11CBB4"/>
</linearGradient>
<linearGradient id="paint3_linear_14_356" x1="15.6689" y1="65.6089" x2="24.5544" y2="74.0055" gradientUnits="userSpaceOnUse">
<stop stop-color="#77DBFF"/>
<stop offset="1" stop-color="#3198FF"/>
</linearGradient>
<linearGradient id="paint4_linear_14_356" x1="17.9178" y1="12.4177" x2="35.97" y2="20.1788" gradientUnits="userSpaceOnUse">
<stop stop-color="#9DFED1"/>
<stop offset="0.69" stop-color="#3DDBBD"/>
<stop offset="1" stop-color="#11CBB4"/>
</linearGradient>
<linearGradient id="paint5_linear_14_356" x1="30.9344" y1="65.8777" x2="39.6978" y2="74.3966" gradientUnits="userSpaceOnUse">
<stop stop-color="#77DBFF"/>
<stop offset="1" stop-color="#3198FF"/>
</linearGradient>
<linearGradient id="paint6_linear_14_356" x1="50.9789" y1="43.3888" x2="57.0167" y2="52.3844" gradientUnits="userSpaceOnUse">
<stop stop-color="#77DBFF"/>
<stop offset="1" stop-color="#3198FF"/>
</linearGradient>
<linearGradient id="paint7_linear_14_356" x1="59.3389" y1="16.9155" x2="73.15" y2="30.5433" gradientUnits="userSpaceOnUse">
<stop stop-color="#77DBFF"/>
<stop offset="1" stop-color="#3198FF"/>
</linearGradient>
<clipPath id="clip0_14_356">
<rect width="88" height="88" fill="white"/>
</clipPath>
</defs>
</svg>
