<svg width="20" height="20" viewBox="0 0 20 20" fill="none" xmlns="http://www.w3.org/2000/svg">
<path d="M15.3916 14.025L15.7166 16.6583C15.8 17.35 15.0583 17.8333 14.4666 17.4749L10.975 15.3999C10.5916 15.3999 10.2166 15.375 9.84998 15.325C10.4666 14.6 10.8333 13.6833 10.8333 12.6916C10.8333 10.3249 8.78331 8.40831 6.24997 8.40831C5.28331 8.40831 4.39165 8.68329 3.64998 9.16663C3.62498 8.95829 3.61664 8.74995 3.61664 8.53328C3.61664 4.74162 6.90831 1.66663 10.975 1.66663C15.0416 1.66663 18.3333 4.74162 18.3333 8.53328C18.3333 10.7833 17.175 12.775 15.3916 14.025Z" stroke="#333333" stroke-width="1.5" stroke-linecap="round" stroke-linejoin="round"/>
<path d="M10.8334 12.6917C10.8334 13.6834 10.4667 14.6001 9.85003 15.3251C9.02503 16.3251 7.71669 16.9667 6.25002 16.9667L4.07502 18.2584C3.70835 18.4834 3.24168 18.1751 3.29168 17.7501L3.50002 16.1084C2.38335 15.3334 1.66669 14.0917 1.66669 12.6917C1.66669 11.2251 2.45002 9.93342 3.65002 9.16676C4.39169 8.68342 5.28335 8.40845 6.25002 8.40845C8.78335 8.40845 10.8334 10.3251 10.8334 12.6917Z" stroke="#333333" stroke-width="1.5" stroke-linecap="round" stroke-linejoin="round"/>
</svg>
