<svg width="20" height="20" viewBox="0 0 20 20" fill="none" xmlns="http://www.w3.org/2000/svg">
<circle cx="10" cy="10" r="10" fill="#E2E2E2"/>
<path d="M13.8415 13.0732L10.7683 10L13.8415 6.92677C14.0528 6.71549 14.0528 6.36975 13.8415 6.15846C13.6303 5.94718 13.2845 5.94718 13.0732 6.15846L10 9.23169L6.92677 6.15846C6.71549 5.94718 6.36975 5.94718 6.15846 6.15846C5.94718 6.36975 5.94718 6.71549 6.15846 6.92677L9.23169 10L6.15846 13.0732C5.94718 13.2845 5.94718 13.6303 6.15846 13.8415C6.36975 14.0528 6.71549 14.0528 6.92677 13.8415L10 10.7683L13.0732 13.8415C13.2845 14.0528 13.6303 14.0528 13.8415 13.8415C14.0528 13.6303 14.0528 13.2845 13.8415 13.0732Z" fill="#F2F2F2"/>
</svg>
