<svg width="26" height="21" viewBox="0 0 26 21" fill="none" xmlns="http://www.w3.org/2000/svg">
<path opacity="0.7" d="M13.6818 13.671C13.8575 9.82659 11.0088 6.55109 7.31892 6.355C3.62907 6.1589 0.495374 9.11647 0.319625 12.9609C0.143876 16.8053 2.99262 20.0808 6.68248 20.2769C10.3723 20.473 13.506 17.5155 13.6818 13.671Z" fill="url(#paint0_radial_353_1476)"/>
<path opacity="0.7" d="M25.6818 7.67102C25.8575 3.82659 23.0088 0.55109 19.3189 0.354996C15.6291 0.158902 12.4954 3.11647 12.3196 6.96091C12.1439 10.8053 14.9926 14.0808 18.6825 14.2769C22.3723 14.473 25.506 11.5155 25.6818 7.67102Z" fill="url(#paint1_radial_353_1476)"/>
<path d="M10.4014 7.78105L11.2014 9.63508M14.4014 5L15.2014 6.85403M8.0014 13.5L16.0014 16C13.2014 21.2 11.5014 17.4188 11.0014 14.9188" stroke="#1D1D1B" stroke-width="1.2" stroke-linecap="round"/>
<path d="M15.0014 12.2144C16.3347 10.3815 19.0014 7.97241 19.0014 13" stroke="#1D1D1B" stroke-width="1.2" stroke-linecap="round"/>
<defs>
<radialGradient id="paint0_radial_353_1476" cx="0" cy="0" r="1" gradientUnits="userSpaceOnUse" gradientTransform="translate(6.99034 13.2602) rotate(-87.3825) scale(6.85129 6.79981)">
<stop stop-color="#FCCCD3"/>
<stop offset="1" stop-color="white" stop-opacity="0"/>
</radialGradient>
<radialGradient id="paint1_radial_353_1476" cx="0" cy="0" r="1" gradientUnits="userSpaceOnUse" gradientTransform="translate(18.9903 7.26022) rotate(-87.3825) scale(6.85129 6.79981)">
<stop stop-color="#FCCCD3"/>
<stop offset="1" stop-color="white" stop-opacity="0"/>
</radialGradient>
</defs>
</svg>
