<svg width="117" height="26" viewBox="0 0 117 26" fill="none" xmlns="http://www.w3.org/2000/svg">
<g clip-path="url(#clip0_3_120)">
<path fill-rule="evenodd" clip-rule="evenodd" d="M16.6846 20.1248V3.86234C16.6846 3.44013 16.8543 3.05579 17.1282 2.7765C17.4018 2.49761 17.7791 2.32417 18.1932 2.32417C18.6072 2.32417 18.9842 2.49722 19.2581 2.7765C19.5316 3.05579 19.7017 3.44013 19.7017 3.86234V22.2555C19.7017 22.6213 19.9923 22.9176 20.351 22.9176C20.7098 22.9176 21.0004 22.6209 21.0004 22.2555V3.86234C21.0004 3.07471 20.6848 2.35893 20.1764 1.84016C19.668 1.32177 18.966 1 18.1932 1L2.73865 3.34009C1.24867 3.56568 0 4.59666 0 6.13251V17.785C0 19.3209 1.26306 20.2696 2.73865 20.5775L5.06664 24.7423C5.14847 24.9081 5.30683 25.0046 5.48905 24.9996C5.67089 24.9946 5.82395 24.8895 5.89706 24.7196L7.26961 21.5235L13.9456 22.9176C15.4212 23.2258 16.6842 21.661 16.6842 20.1251L16.6846 20.1248ZM3.92329 10.9629C4.46239 10.9629 4.89995 11.4087 4.89995 11.9588C4.89995 12.5088 4.46277 12.9546 3.92329 12.9546C3.38382 12.9546 2.94664 12.5088 2.94664 11.9588C2.94664 11.4087 3.38382 10.9629 3.92329 10.9629ZM12.7613 10.9629C13.3004 10.9629 13.738 11.4087 13.738 11.9588C13.738 12.5088 13.3008 12.9546 12.7613 12.9546C12.2218 12.9546 11.7847 12.5088 11.7847 11.9588C11.7847 11.4087 12.2218 10.9629 12.7613 10.9629ZM8.34211 10.9629C8.88121 10.9629 9.31877 11.4087 9.31877 11.9588C9.31877 12.5088 8.88159 12.9546 8.34211 12.9546C7.80264 12.9546 7.36546 12.5088 7.36546 11.9588C7.36546 11.4087 7.80264 10.9629 8.34211 10.9629Z" fill="white"/>
</g>
<path d="M27.884 7.117H30.468V19H27.884V7.117ZM34.9192 9.276H31.4512V7.117H40.9712V9.276H37.5032V19H34.9192V9.276ZM41.5976 6.352H44.3006L45.4736 9.344H43.1106L41.5976 6.352ZM46.748 7.117H50.879C52.171 7.117 53.2987 7.355 54.262 7.831C55.2254 8.307 55.9677 8.987 56.489 9.871C57.0104 10.755 57.271 11.7977 57.271 12.999C57.271 14.971 56.693 16.467 55.537 17.487C54.3924 18.4957 52.7944 19 50.743 19H46.748V7.117ZM50.879 16.841C52.0917 16.841 53.021 16.501 53.667 15.821C54.313 15.141 54.636 14.2003 54.636 12.999C54.636 12.285 54.4944 11.6447 54.211 11.078C53.9277 10.5113 53.514 10.0693 52.97 9.752C52.426 9.43467 51.7857 9.276 51.049 9.276H49.332V16.841H50.879ZM59.5371 11.244C59.2105 11.244 58.9351 11.1367 58.7111 10.922C58.4871 10.7073 58.3751 10.4367 58.3751 10.11C58.3751 9.79267 58.4871 9.52667 58.7111 9.312C58.9351 9.088 59.2105 8.976 59.5371 8.976C59.8638 8.976 60.1391 9.088 60.3631 9.312C60.5871 9.52667 60.6991 9.79267 60.6991 10.11C60.6991 10.4367 60.5871 10.7073 60.3631 10.922C60.1391 11.1367 59.8638 11.244 59.5371 11.244ZM58.4731 12.28H60.6011V19H58.4731V12.28ZM65.7046 19.21C64.4913 19.21 63.5253 18.902 62.8066 18.286C62.0879 17.6607 61.7286 16.7833 61.7286 15.654C61.7286 14.5247 62.0879 13.6473 62.8066 13.022C63.5346 12.3873 64.5053 12.07 65.7186 12.07C66.8199 12.07 67.6973 12.2753 68.3506 12.686V14.352C68.0519 14.1373 67.7019 13.9787 67.3006 13.876C66.9086 13.7733 66.4933 13.722 66.0546 13.722C65.4013 13.722 64.8786 13.8807 64.4866 14.198C64.0946 14.5153 63.8986 15.0007 63.8986 15.654C63.8986 16.3073 64.0899 16.7927 64.4726 17.11C64.8646 17.418 65.3873 17.572 66.0406 17.572C66.9459 17.572 67.7439 17.3527 68.4346 16.914V18.566C67.7439 18.9953 66.8339 19.21 65.7046 19.21ZM72.2841 19.21C71.5001 19.21 70.9028 18.9953 70.4921 18.566C70.0908 18.1273 69.8901 17.5207 69.8901 16.746V13.806H68.9101V12.28H69.8901V10.264H72.0041V12.28H73.5861V13.806H72.0041V16.466C72.0041 16.858 72.0788 17.1427 72.2281 17.32C72.3775 17.488 72.6435 17.572 73.0261 17.572C73.3341 17.572 73.6281 17.4973 73.9081 17.348V18.93C73.4788 19.1167 72.9375 19.21 72.2841 19.21ZM75.9062 11.244C75.5795 11.244 75.3042 11.1367 75.0802 10.922C74.8562 10.7073 74.7442 10.4367 74.7442 10.11C74.7442 9.79267 74.8562 9.52667 75.0802 9.312C75.3042 9.088 75.5795 8.976 75.9062 8.976C76.2329 8.976 76.5082 9.088 76.7322 9.312C76.9562 9.52667 77.0682 9.79267 77.0682 10.11C77.0682 10.4367 76.9562 10.7073 76.7322 10.922C76.5082 11.1367 76.2329 11.244 75.9062 11.244ZM74.8422 12.28H76.9702V19H74.8422V12.28ZM82.1436 19.21C81.3316 19.21 80.6176 19.0653 80.0016 18.776C79.395 18.4773 78.9236 18.062 78.5876 17.53C78.261 16.9887 78.0976 16.3587 78.0976 15.64C78.0976 14.94 78.261 14.3193 78.5876 13.778C78.9236 13.2367 79.395 12.8167 80.0016 12.518C80.6176 12.2193 81.3316 12.07 82.1436 12.07C82.9463 12.07 83.651 12.2193 84.2576 12.518C84.8736 12.8167 85.345 13.2367 85.6716 13.778C86.0076 14.3193 86.1756 14.94 86.1756 15.64C86.1756 16.3587 86.0076 16.9887 85.6716 17.53C85.345 18.062 84.8783 18.4773 84.2716 18.776C83.665 19.0653 82.9556 19.21 82.1436 19.21ZM82.1436 17.558C82.713 17.558 83.1656 17.3853 83.5016 17.04C83.8376 16.6853 84.0056 16.2187 84.0056 15.64C84.0056 15.0427 83.8376 14.576 83.5016 14.24C83.175 13.8947 82.7223 13.722 82.1436 13.722C81.565 13.722 81.1076 13.8947 80.7716 14.24C80.4356 14.576 80.2676 15.0427 80.2676 15.64C80.2676 16.2187 80.4356 16.6853 80.7716 17.04C81.117 17.3853 81.5743 17.558 82.1436 17.558ZM87.2201 12.28H89.2641V13.106C89.5721 12.7607 89.9361 12.504 90.3561 12.336C90.7854 12.1587 91.2334 12.07 91.7001 12.07C92.6147 12.07 93.2961 12.3173 93.7441 12.812C94.2014 13.2973 94.4301 13.9553 94.4301 14.786V19H92.3161V15.024C92.3161 14.156 91.9147 13.722 91.1121 13.722C90.7574 13.722 90.4261 13.8107 90.1181 13.988C89.8101 14.156 89.5487 14.408 89.3341 14.744V19H87.2201V12.28ZM98.1994 19.21C97.378 19.21 96.706 19.0047 96.1834 18.594C95.67 18.174 95.4134 17.6047 95.4134 16.886C95.4134 16.1393 95.6607 15.5607 96.1554 15.15C96.65 14.73 97.35 14.52 98.2554 14.52C98.6567 14.52 99.0394 14.562 99.4034 14.646C99.7674 14.73 100.089 14.8467 100.369 14.996V14.828C100.369 14.408 100.22 14.1 99.9214 13.904C99.6227 13.708 99.1654 13.61 98.5494 13.61C97.728 13.61 96.972 13.764 96.2814 14.072V12.532C96.58 12.4013 96.9674 12.294 97.4434 12.21C97.9194 12.1167 98.3954 12.07 98.8714 12.07C100.085 12.07 100.99 12.322 101.587 12.826C102.185 13.3207 102.483 14.016 102.483 14.912V19H100.495V18.384C99.926 18.9347 99.1607 19.21 98.1994 19.21ZM98.7734 17.81C99.1187 17.81 99.4314 17.7447 99.7114 17.614C99.9914 17.4833 100.211 17.3013 100.369 17.068V16.396C99.8934 16.0787 99.3707 15.92 98.8014 15.92C98.4094 15.92 98.106 16.004 97.8914 16.172C97.686 16.3307 97.5834 16.5687 97.5834 16.886C97.5834 17.1847 97.686 17.4133 97.8914 17.572C98.0967 17.7307 98.3907 17.81 98.7734 17.81ZM103.743 12.28H105.787V13.246C106.057 12.9193 106.435 12.672 106.921 12.504C107.406 12.3267 107.957 12.238 108.573 12.238V13.848C107.929 13.848 107.359 13.946 106.865 14.142C106.379 14.338 106.043 14.6367 105.857 15.038V19H103.743V12.28ZM110.974 21.772C110.694 21.772 110.405 21.7533 110.106 21.716C109.817 21.6787 109.598 21.6273 109.448 21.562V19.98C109.719 20.0827 110.018 20.134 110.344 20.134C110.68 20.134 110.932 20.0593 111.1 19.91C111.278 19.7607 111.422 19.5273 111.534 19.21L111.758 18.636L108.846 12.28H110.974L112.878 16.914L114.684 12.28H116.798L113.942 19.462C113.625 20.2553 113.233 20.8387 112.766 21.212C112.3 21.5853 111.702 21.772 110.974 21.772Z" fill="white"/>
<defs>
<clipPath id="clip0_3_120">
<rect width="21" height="24" fill="white" transform="translate(0 1)"/>
</clipPath>
</defs>
</svg>
