<svg width="76" height="24" viewBox="0 0 76 24" fill="none" xmlns="http://www.w3.org/2000/svg">
<g clip-path="url(#clip0_3_120)">
<path d="M26.3829 3.44223C26.3829 3.44223 27.4898 11.694 26.3829 20.5195H34.3694C34.3694 20.5195 33.024 13.702 34.3694 3.44223H26.3829Z" fill="#F7F7F7"/>
<path d="M68.0136 3.44223C68.0136 3.44223 69.1204 11.694 68.0136 20.5195H76C76 20.5195 74.6546 13.702 76 3.44223H68.0136Z" fill="#F7F7F7"/>
<path d="M35.438 3.44223L34.4839 10.5944L39.1498 10.4127C39.1498 10.4127 39.5887 19.5538 38.9399 20.4717L46.2011 20.5195C46.2011 20.5195 45.476 21.7721 45.9626 10.2789L50.4377 10.604L49.4835 3.45179H35.4476L35.438 3.44223Z" fill="#F7F7F7"/>
<path d="M66.1243 6.10996C64.7885 4.34103 63.5671 3.44223 59.2638 3.44223H51.1628C51.1628 3.44223 52.117 13.6733 51.1628 20.5195H59.2638C59.2638 20.5195 64.1873 20.5386 66.1338 16.953C68.0804 13.3578 67.4697 7.87888 66.1338 6.10996H66.1243ZM61.4965 12.392C61.1244 15.0598 58.9298 14.3522 58.9298 14.3522L58.9489 9.24621L59.5691 9.05498C60.571 8.84462 61.8687 9.7243 61.4965 12.392Z" fill="#F7F7F7"/>
<path d="M23.4344 16.0159V3.44223C23.4344 3.44223 23.4344 3.41355 23.4344 3.40398C23.0337 0.392032 20.2093 0.0191235 20.028 0C20.028 0 20.0185 0 20.0089 0H3.53035C3.53035 0 3.51126 0 3.49218 0C0.0285262 0.468526 0.0285262 3.49004 0.0285262 3.49004C0.0285262 3.49004 -0.0287243 12.0574 0.0189844 15.8343C0.0571514 19.5347 3.25364 19.812 3.38722 19.8215H3.39676H8.22488C8.74968 19.8215 9.27448 19.9267 9.75156 20.1466C11.4691 20.9402 11.2115 21.9825 11.1447 22.1833C11.1447 22.2024 11.1256 22.2215 11.116 22.2406C10.7821 22.7092 10.1237 22.8048 9.75156 22.8143C9.60844 22.8143 9.51302 22.9578 9.55119 23.0916L9.74202 23.8375C9.77065 23.9426 9.87561 24.0191 9.98057 24C13.7877 23.6367 13.5492 20.8829 13.5492 20.8829C13.511 19.6494 16.5739 19.7068 16.5739 19.7068H19.7227C19.7227 19.7068 19.7513 19.7068 19.7704 19.7068C23.6253 18.9705 23.4344 16.0159 23.4344 16.0159ZM19.7036 5.16335L19.7799 14.4765C19.7799 14.6008 19.6845 14.6964 19.5605 14.6964L15.8583 14.7633C11.803 14.7633 11.8317 17.106 11.8317 17.106C11.9175 14.4669 6.5837 14.7729 6.29745 14.8016C6.29745 14.8016 5.67724 14.8016 5.6677 14.8016L3.76889 14.8207C3.50172 14.8207 3.4063 14.7251 3.4063 14.6008V5.30677C3.4063 5.18247 3.50172 5.08685 3.62576 5.08685L7.79551 5.01036C8.66381 5.0008 10.8107 5.11554 11.3927 5.7753C11.7362 6.16733 11.8698 6.26295 11.9939 6.50199C12.0702 6.65498 12.1561 6.39681 12.2801 6.27251C13.6064 5.01992 14.3793 5.28765 15.3049 5.08685L19.7131 5.16335H19.7036Z" fill="#F7F7F7"/>
<path d="M16.4404 11.2159C16.9358 11.2159 17.3374 10.8135 17.3374 10.3171C17.3374 9.82074 16.9358 9.41833 16.4404 9.41833C15.9451 9.41833 15.5435 9.82074 15.5435 10.3171C15.5435 10.8135 15.9451 11.2159 16.4404 11.2159Z" fill="#F7F7F7"/>
<path d="M11.994 11.2159C12.4893 11.2159 12.8909 10.8135 12.8909 10.3171C12.8909 9.82074 12.4893 9.41833 11.994 9.41833C11.4986 9.41833 11.097 9.82074 11.097 10.3171C11.097 10.8135 11.4986 11.2159 11.994 11.2159Z" fill="#F7F7F7"/>
<path d="M7.54752 11.2159C8.04288 11.2159 8.44445 10.8135 8.44445 10.3171C8.44445 9.82074 8.04288 9.41833 7.54752 9.41833C7.05216 9.41833 6.6506 9.82074 6.6506 10.3171C6.6506 10.8135 7.05216 11.2159 7.54752 11.2159Z" fill="#F7F7F7"/>
</g>
<defs>
<clipPath id="clip0_3_120">
<rect width="76" height="24" fill="white"/>
</clipPath>
</defs>
</svg>
